<svg width="1440" height="301" viewBox="0 0 1440 301" fill="none" xmlns="http://www.w3.org/2000/svg"><g opacity=".5" clip-path="url(#clip0_2938_13152)"><path d="M-26 307.31v-1454m34.349 1454v-1454m34.349 1454v-1454m34.348 1454v-1454m34.349 1454v-1454m34.349 1454v-1454m34.349 1454v-1454m34.349 1454v-1454m34.349 1454v-1454m34.348 1454l.001-1454m34.348 1454v-1454m34.349 1454v-1454m34.349 1454v-1454m34.349 1454v-1454m34.349 1454v-1454m34.349 1454v-1454m34.348 1454v-1454m34.349 1454v-1454m34.349 1454v-1454m34.349 1454v-1454m34.349 1454v-1454m34.349 1454v-1454m34.348 1454v-1454m34.349 1454v-1454m34.349 1454v-1454m34.349 1454v-1454m34.349 1454v-1454m34.349 1454v-1454m34.348 1454v-1454m34.349 1454v-1454m34.354 1454v-1454m34.34 1454v-1454m34.35 1454v-1454m34.35 1454v-1454m34.35 1454v-1454m34.35 1454v-1454m34.35 1454v-1454m34.35 1454v-1454m34.35 1454v-1454m34.34 1454v-1454m34.35 1454v-1454m34.35 1454v-1454m34.35 1454v-1454m34.35 1454v-1454m0 1453.495H-3.774M1451 272.474H-3.774M1451 238.144H-3.774M1451 203.813H-3.774M1451 169.483H-3.774M1451 135.152H-3.774M1451 100.821H-3.774M1451 66.491H-3.774M1451 32.16H-3.774M1451-2.17H-3.774" stroke="url(#paint0_linear_2938_13152)" stroke-dasharray="4 4"/></g><defs><linearGradient id="paint0_linear_2938_13152" x1="712.5" y1="-605.984" x2="712.5" y2="307.31" gradientUnits="userSpaceOnUse"><stop stop-color="#fff"/><stop offset="1" stop-color="#fff" stop-opacity="0"/></linearGradient><clipPath id="clip0_2938_13152"><path fill="#fff" transform="rotate(180 725.5 150.155)" d="M0 0h1463v524H0z"/></clipPath></defs></svg>05H-3.77421M1451 272.474H-3.77421M1451 238.144H-3.77421M1451 203.813H-3.77421M1451 169.483H-3.77421M1451 135.152H-3.77421M1451 100.821H-3.77421M1451 66.4908H-3.77421M1451 32.1603H-3.77421M1451 -2.17026H-3.77421" stroke="url(#paint0_linear_2938_13152)" stroke-dasharray="4 4"/>
</g>
<defs>
<linearGradient id="paint0_linear_2938_13152" x1="712.5" y1="-605.984" x2="712.5" y2="307.31" gradientUnits="userSpaceOnUse">
<stop stop-color="white"/>
<stop offset="1" stop-color="white" stop-opacity="0"/>
</linearGradient>
<clipPath id="clip0_2938_13152">
<rect width="1463" height="524" fill="white" transform="matrix(-1 0 0 -1 1451 300.31)"/>
</clipPath>
</defs>
</svg>
