<svg width="141" height="36" viewBox="0 0 141 36" fill="none" xmlns="http://www.w3.org/2000/svg">
<path d="M129.971 13.2724V0.192352H135.568C137.056 0.192352 138.184 0.525765 138.954 1.19259C139.736 1.85942 140.127 2.91736 140.127 4.36642C140.127 5.76419 139.736 6.82214 138.954 7.54026C138.171 8.25838 137.036 8.61744 135.549 8.61744H132.317V13.2724H129.971ZM132.317 6.55926H135.357C136.203 6.55926 136.818 6.37972 137.203 6.02066C137.588 5.64878 137.78 5.11019 137.78 4.40489C137.78 3.67395 137.588 3.13536 137.203 2.78912C136.818 2.43006 136.203 2.25054 135.357 2.25054H132.317V6.55926Z" fill="white"/>
<path d="M121.997 13.4648C121.048 13.4648 120.176 13.3238 119.381 13.0416C118.599 12.7467 117.925 12.3171 117.361 11.7529C116.797 11.1886 116.355 10.4897 116.034 9.65621C115.726 8.80985 115.572 7.83526 115.572 6.73244C115.572 5.65526 115.726 4.69349 116.034 3.84713C116.355 3.00078 116.797 2.29548 117.361 1.73124C117.925 1.16701 118.599 0.737416 119.381 0.442474C120.176 0.147532 121.048 6.10352e-05 121.997 6.10352e-05C122.959 6.10352e-05 123.837 0.147532 124.632 0.442474C125.427 0.737416 126.1 1.16701 126.652 1.73124C127.216 2.29548 127.652 3.00078 127.96 3.84713C128.28 4.69349 128.441 5.65526 128.441 6.73244C128.441 7.83526 128.28 8.80985 127.96 9.65621C127.652 10.4897 127.216 11.1886 126.652 11.7529C126.1 12.3171 125.427 12.7467 124.632 13.0416C123.837 13.3238 122.959 13.4648 121.997 13.4648ZM121.997 11.3682C123.292 11.3682 124.292 10.9514 124.998 10.1179C125.703 9.2715 126.056 8.14303 126.056 6.73244C126.056 5.30902 125.703 4.18055 124.998 3.34701C124.292 2.51348 123.292 2.09672 121.997 2.09672C120.715 2.09672 119.714 2.51348 118.996 3.34701C118.291 4.18055 117.938 5.30902 117.938 6.73244C117.938 8.14303 118.291 9.2715 118.996 10.1179C119.714 10.9514 120.715 11.3682 121.997 11.3682Z" fill="white"/>
<path d="M104.469 13.2724V0.192383H113.817V2.30827H106.815V5.40516H110.105C111.605 5.40516 112.734 5.70652 113.49 6.30923C114.26 6.91193 114.644 7.91858 114.644 9.32918C114.644 10.6885 114.26 11.6887 113.49 12.3299C112.734 12.9582 111.611 13.2724 110.124 13.2724H104.469ZM109.97 7.44411H106.815V11.2142H109.97C110.791 11.2142 111.381 11.0668 111.74 10.7718C112.112 10.4769 112.298 10.0024 112.298 9.34841C112.298 8.68159 112.112 8.2007 111.74 7.90576C111.381 7.598 110.791 7.44411 109.97 7.44411Z" fill="white"/>
<path d="M100.027 13.2724V3.34698L93.4482 13.2724H90.9668V0.192383H93.2943V10.0409L99.7766 0.192383H102.354V13.2724H100.027Z" fill="white"/>
<path d="M79.4941 13.2724V0.192383H85.0916C86.5792 0.192383 87.7076 0.525796 88.4771 1.19262C89.2593 1.85945 89.6504 2.91739 89.6504 4.36645C89.6504 5.76422 89.2593 6.82217 88.4771 7.54029C87.6948 8.25841 86.5599 8.61747 85.0724 8.61747H81.8409V13.2724H79.4941ZM81.8409 6.55929H84.88C85.7264 6.55929 86.3419 6.37976 86.7266 6.0207C87.1113 5.64881 87.3037 5.11022 87.3037 4.40493C87.3037 3.67398 87.1113 3.13539 86.7266 2.78916C86.3419 2.4301 85.7264 2.25057 84.88 2.25057H81.8409V6.55929Z" fill="white"/>
<path d="M66.3652 13.2724V0.192383H77.3679V13.2724H75.0211V2.38521H68.7119V13.2724H66.3652Z" fill="white"/>
<path d="M56.2119 3.8663C56.2119 4.75113 56.4492 5.39231 56.9237 5.78984C57.3981 6.18737 58.1355 6.38614 59.1357 6.38614C59.6487 6.39896 60.1167 6.37972 60.5399 6.32843C60.9759 6.27714 61.4119 6.20661 61.8479 6.11684V0.211588H64.1946V13.2916H61.8479V8.17502C61.4376 8.26479 60.9567 8.34814 60.4053 8.42509C59.8667 8.4892 59.296 8.52126 58.6933 8.52126C57.0647 8.52126 55.8529 8.17502 55.0578 7.48255C54.2628 6.77726 53.8652 5.66161 53.8652 4.1356V0.192352H56.2119V3.8663Z" fill="white"/>
<path d="M46.3912 13.4648C45.4422 13.4648 44.5702 13.3238 43.7752 13.0416C42.9929 12.7467 42.3197 12.3171 41.7554 11.7529C41.1912 11.1886 40.7488 10.4897 40.4282 9.65621C40.1204 8.80985 39.9666 7.83526 39.9666 6.73244C39.9666 5.65526 40.1204 4.69349 40.4282 3.84713C40.7488 3.00078 41.1912 2.29548 41.7554 1.73124C42.3197 1.16701 42.9929 0.737416 43.7752 0.442474C44.5702 0.147532 45.4422 6.10352e-05 46.3912 6.10352e-05C47.3529 6.10352e-05 48.2313 0.147532 49.0264 0.442474C49.8215 0.737416 50.4947 1.16701 51.0461 1.73124C51.6104 2.29548 52.0464 3.00078 52.3541 3.84713C52.6747 4.69349 52.835 5.65526 52.835 6.73244C52.835 7.83526 52.6747 8.80985 52.3541 9.65621C52.0464 10.4897 51.6104 11.1886 51.0461 11.7529C50.4947 12.3171 49.8215 12.7467 49.0264 13.0416C48.2313 13.3238 47.3529 13.4648 46.3912 13.4648ZM46.3912 11.3682C47.6863 11.3682 48.6866 10.9514 49.3919 10.1179C50.0972 9.2715 50.4498 8.14303 50.4498 6.73244C50.4498 5.30902 50.0972 4.18055 49.3919 3.34701C48.6866 2.51348 47.6863 2.09672 46.3912 2.09672C45.1088 2.09672 44.1086 2.51348 43.3904 3.34701C42.6851 4.18055 42.3325 5.30902 42.3325 6.73244C42.3325 8.14303 42.6851 9.2715 43.3904 10.1179C44.1086 10.9514 45.1088 11.3682 46.3912 11.3682Z" fill="white"/>
<path d="M28.4238 2.38518V0.192352H40.0227V2.38518H35.4063V13.2724H33.0595V2.38518H28.4238Z" fill="white"/>
<path d="M88.1414 32.4348C88.1414 32.7868 88.0979 33.1228 88.0111 33.4428C87.9242 33.7628 87.8054 34.0576 87.6545 34.3274C87.5082 34.6016 87.3322 34.8531 87.1265 35.0816C86.9254 35.3102 86.7105 35.5114 86.4819 35.6851L86.0842 35.1776C86.2579 35.0268 86.4225 34.8531 86.5779 34.6565C86.7379 34.4645 86.8751 34.2542 86.9894 34.0256C87.1037 33.7925 87.1928 33.5434 87.2568 33.2782C87.3254 33.0085 87.3597 32.7274 87.3597 32.4348C87.3597 31.8496 87.2499 31.3194 87.0305 30.8439C86.8111 30.3685 86.5025 29.9685 86.1048 29.6439L86.4957 29.1296C86.7334 29.3034 86.9528 29.5068 87.1539 29.7399C87.3551 29.9685 87.5288 30.2222 87.6751 30.5011C87.8214 30.7799 87.9357 31.0816 88.0179 31.4062C88.1002 31.7308 88.1414 32.0736 88.1414 32.4348Z" fill="white"/>
<path d="M81.5137 34.252V29.5891H85.436V34.252H84.5994V30.3708H82.3502V34.252H81.5137Z" fill="white"/>
<path d="M79.7258 34.252V30.7137L77.3807 34.252H76.4961V29.5891H77.3258V33.1L79.6367 29.5891H80.5555V34.252H79.7258Z" fill="white"/>
<path d="M73.8891 30.2679C73.5554 30.2679 73.2948 30.3457 73.1074 30.5011C72.9199 30.6519 72.7919 30.8577 72.7234 31.1182L71.9005 30.9742C71.9919 30.5217 72.2045 30.1674 72.5382 29.9114C72.8765 29.6508 73.3268 29.5205 73.8891 29.5205C74.4285 29.5205 74.8559 29.6348 75.1714 29.8634C75.4914 30.0874 75.6514 30.4188 75.6514 30.8577C75.6514 31.1182 75.5874 31.3354 75.4594 31.5091C75.3359 31.6828 75.1508 31.8062 74.9039 31.8794C75.1691 31.9479 75.3748 32.0691 75.5211 32.2428C75.6674 32.4119 75.7405 32.6405 75.7405 32.9285C75.7405 33.3582 75.5828 33.6988 75.2674 33.9502C74.9519 34.1971 74.4879 34.3205 73.8754 34.3205C73.2857 34.3205 72.8194 34.1971 72.4765 33.9502C72.1337 33.6988 71.9279 33.3308 71.8594 32.8462L72.6822 32.7159C72.7279 32.9857 72.8491 33.1959 73.0457 33.3468C73.2422 33.4977 73.5188 33.5731 73.8754 33.5731C74.2182 33.5731 74.4742 33.5114 74.6434 33.3879C74.8125 33.2645 74.8971 33.0908 74.8971 32.8668C74.8971 32.6657 74.8239 32.5125 74.6777 32.4074C74.5359 32.3022 74.3119 32.2497 74.0057 32.2497H73.3062V31.5365H74.0125C74.3005 31.5365 74.5062 31.4839 74.6297 31.3788C74.7531 31.2737 74.8148 31.1251 74.8148 30.9331C74.8148 30.7274 74.7348 30.5651 74.5748 30.4462C74.4194 30.3274 74.1908 30.2679 73.8891 30.2679Z" fill="white"/>
<path d="M69.3867 32.3799C69.3867 32.0188 69.4301 31.6782 69.517 31.3582C69.6039 31.0382 69.7204 30.7434 69.8667 30.4736C70.013 30.2039 70.1867 29.9571 70.3879 29.7331C70.5936 29.5045 70.813 29.3034 71.0462 29.1296L71.4439 29.6371C71.2656 29.7834 71.0964 29.9548 70.9364 30.1514C70.781 30.3434 70.6461 30.5536 70.5319 30.7822C70.4176 31.0108 70.3261 31.2599 70.2576 31.5296C70.1936 31.7994 70.1616 32.0828 70.1616 32.3799C70.1616 32.9514 70.2736 33.4794 70.4976 33.9639C70.7261 34.4439 71.0347 34.8485 71.4233 35.1776L71.0324 35.6851C70.7947 35.5114 70.5753 35.3079 70.3741 35.0748C70.173 34.8416 69.9993 34.5856 69.853 34.3068C69.7067 34.0279 69.5924 33.7262 69.5101 33.4016C69.4279 33.0771 69.3867 32.7365 69.3867 32.3799Z" fill="white"/>
<path d="M63.8594 34.252V29.5891H65.9097C66.3942 29.5891 66.7622 29.6965 67.0137 29.9114C67.2651 30.1263 67.3908 30.4348 67.3908 30.8371C67.3908 31.0703 67.3382 31.2828 67.2331 31.4748C67.1279 31.6623 66.9565 31.7971 66.7188 31.8794C66.9839 31.9434 67.1828 32.0714 67.3154 32.2634C67.4479 32.4508 67.5142 32.6794 67.5142 32.9491C67.5142 33.3743 67.3748 33.6988 67.0959 33.9228C66.8217 34.1423 66.4285 34.252 65.9165 34.252H63.8594ZM65.7931 30.3023H64.6891V31.5503H65.7931C66.0765 31.5503 66.2754 31.4954 66.3897 31.3857C66.5085 31.2714 66.5679 31.116 66.5679 30.9194C66.5679 30.7137 66.5108 30.5605 66.3965 30.46C66.2868 30.3548 66.0857 30.3023 65.7931 30.3023ZM65.8137 32.2428H64.6891V33.5388H65.8137C66.1154 33.5388 66.3348 33.4863 66.4719 33.3811C66.6137 33.2714 66.6845 33.1114 66.6845 32.9011C66.6845 32.6771 66.6159 32.5125 66.4788 32.4074C66.3462 32.2977 66.1245 32.2428 65.8137 32.2428Z" fill="white"/>
<path d="M60.8098 34.3205C60.4715 34.3205 60.1607 34.2702 59.8772 34.1697C59.5984 34.0645 59.3584 33.9114 59.1572 33.7102C58.9561 33.5091 58.7984 33.2599 58.6841 32.9628C58.5744 32.6611 58.5195 32.3137 58.5195 31.9205C58.5195 31.5365 58.5744 31.1937 58.6841 30.8919C58.7984 30.5902 58.9561 30.3388 59.1572 30.1377C59.3584 29.9365 59.5984 29.7834 59.8772 29.6782C60.1607 29.5731 60.4715 29.5205 60.8098 29.5205C61.1527 29.5205 61.4658 29.5731 61.7492 29.6782C62.0327 29.7834 62.2727 29.9365 62.4692 30.1377C62.6704 30.3388 62.8258 30.5902 62.9355 30.8919C63.0498 31.1937 63.107 31.5365 63.107 31.9205C63.107 32.3137 63.0498 32.6611 62.9355 32.9628C62.8258 33.2599 62.6704 33.5091 62.4692 33.7102C62.2727 33.9114 62.0327 34.0645 61.7492 34.1697C61.4658 34.2702 61.1527 34.3205 60.8098 34.3205ZM60.8098 33.5731C61.2715 33.5731 61.6281 33.4245 61.8795 33.1274C62.131 32.8257 62.2567 32.4234 62.2567 31.9205C62.2567 31.4131 62.131 31.0108 61.8795 30.7137C61.6281 30.4165 61.2715 30.2679 60.8098 30.2679C60.3527 30.2679 59.9961 30.4165 59.7401 30.7137C59.4887 31.0108 59.363 31.4131 59.363 31.9205C59.363 32.4234 59.4887 32.8257 59.7401 33.1274C59.9961 33.4245 60.3527 33.5731 60.8098 33.5731Z" fill="white"/>
<path d="M54.4238 34.252V29.5891H56.4193C56.9495 29.5891 57.3518 29.708 57.6261 29.9457C57.905 30.1834 58.0444 30.5605 58.0444 31.0771C58.0444 31.5754 57.905 31.9525 57.6261 32.2085C57.3473 32.4645 56.9427 32.5925 56.4124 32.5925H55.2604V34.252H54.4238ZM55.2604 31.8588H56.3438C56.6455 31.8588 56.865 31.7948 57.0021 31.6668C57.1393 31.5343 57.2078 31.3423 57.2078 31.0908C57.2078 30.8303 57.1393 30.6383 57.0021 30.5148C56.865 30.3868 56.6455 30.3228 56.3438 30.3228H55.2604V31.8588Z" fill="white"/>
<path d="M51.3743 34.3205C51.036 34.3205 50.7251 34.2702 50.4417 34.1697C50.1628 34.0645 49.9228 33.9114 49.7217 33.7102C49.5206 33.5091 49.3628 33.2599 49.2486 32.9628C49.1388 32.6611 49.084 32.3137 49.084 31.9205C49.084 31.5365 49.1388 31.1937 49.2486 30.8919C49.3628 30.5902 49.5206 30.3388 49.7217 30.1377C49.9228 29.9365 50.1628 29.7834 50.4417 29.6782C50.7251 29.5731 51.036 29.5205 51.3743 29.5205C51.7171 29.5205 52.0303 29.5731 52.3137 29.6782C52.5971 29.7834 52.8371 29.9365 53.0337 30.1377C53.2348 30.3388 53.3903 30.5902 53.5 30.8919C53.6143 31.1937 53.6714 31.5365 53.6714 31.9205C53.6714 32.3137 53.6143 32.6611 53.5 32.9628C53.3903 33.2599 53.2348 33.5091 53.0337 33.7102C52.8371 33.9114 52.5971 34.0645 52.3137 34.1697C52.0303 34.2702 51.7171 34.3205 51.3743 34.3205ZM51.3743 33.5731C51.836 33.5731 52.1926 33.4245 52.444 33.1274C52.6954 32.8257 52.8211 32.4234 52.8211 31.9205C52.8211 31.4131 52.6954 31.0108 52.444 30.7137C52.1926 30.4165 51.836 30.2679 51.3743 30.2679C50.9171 30.2679 50.5606 30.4165 50.3046 30.7137C50.0531 31.0108 49.9274 31.4131 49.9274 31.9205C49.9274 32.4234 50.0531 32.8257 50.3046 33.1274C50.5606 33.4245 50.9171 33.5731 51.3743 33.5731Z" fill="white"/>
<path d="M44.9199 34.252V29.5891H48.2525V30.3434H45.7565V31.4474H46.9291C47.4639 31.4474 47.8662 31.5548 48.1359 31.7697C48.4102 31.9845 48.5473 32.3434 48.5473 32.8463C48.5473 33.3308 48.4102 33.6874 48.1359 33.916C47.8662 34.14 47.4662 34.252 46.9359 34.252H44.9199ZM46.8811 32.1743H45.7565V33.5183H46.8811C47.1736 33.5183 47.3839 33.4657 47.5119 33.3605C47.6445 33.2554 47.7108 33.0863 47.7108 32.8531C47.7108 32.6154 47.6445 32.444 47.5119 32.3388C47.3839 32.2291 47.1736 32.1743 46.8811 32.1743Z" fill="white"/>
<path d="M43.1321 34.252V30.7137L40.7869 34.252H39.9023V29.5891H40.7321V33.1L43.0429 29.5891H43.9618V34.252H43.1321Z" fill="white"/>
<path d="M35.6057 34.2519V29.5891H37.6011C38.1314 29.5891 38.5337 29.7079 38.808 29.9457C39.0869 30.1834 39.2263 30.5605 39.2263 31.0771C39.2263 31.5754 39.0869 31.9525 38.808 32.2085C38.5291 32.4645 38.1246 32.5925 37.5943 32.5925H36.4423V34.2519H35.6057ZM36.4423 31.8588H37.5257C37.8274 31.8588 38.0469 31.7948 38.184 31.6668C38.3211 31.5342 38.3897 31.3422 38.3897 31.0908C38.3897 30.8302 38.3211 30.6382 38.184 30.5148C38.0469 30.3868 37.8274 30.3228 37.5257 30.3228H36.4423V31.8588Z" fill="white"/>
<path d="M30.7207 34.252V29.5891H34.643V34.252H33.8064V30.3708H31.5573V34.252H30.7207Z" fill="white"/>
<path d="M115.542 27.252L114.335 25.4691L113.155 27.252H112.154L113.827 24.8383L112.223 22.5891H113.251L114.397 24.2623L115.501 22.5891H116.502L114.904 24.9068L116.57 27.252H115.542Z" fill="white"/>
<path d="M110.813 27.252V22.5891H111.649V27.252H110.813ZM108.529 27.252H106.596V22.5891H107.432V24.2623H108.557C109.083 24.2623 109.485 24.3834 109.764 24.6257C110.043 24.8634 110.182 25.2405 110.182 25.7571C110.182 26.2463 110.04 26.6188 109.757 26.8748C109.478 27.1263 109.069 27.252 108.529 27.252ZM108.475 26.5114C108.781 26.5114 109.003 26.4497 109.14 26.3263C109.277 26.1983 109.345 26.0063 109.345 25.7503C109.345 25.5034 109.277 25.3183 109.14 25.1948C109.007 25.0668 108.79 25.0028 108.488 25.0028H107.432V26.5114H108.475Z" fill="white"/>
<path d="M101.691 27.2519V22.5891H102.528V24.5159H104.798V22.5891H105.634V27.2519H104.798V25.2908H102.528V27.2519H101.691Z" fill="white"/>
<path d="M97.3477 22.5891H98.1842V24.2623H99.3499C99.8757 24.2623 100.278 24.3834 100.557 24.6257C100.836 24.8634 100.975 25.2405 100.975 25.7571C100.975 26.2463 100.833 26.6188 100.55 26.8748C100.271 27.1263 99.8619 27.252 99.3225 27.252H97.3477V22.5891ZM99.2677 26.5114C99.5739 26.5114 99.7957 26.4497 99.9328 26.3263C100.07 26.1983 100.139 26.0063 100.139 25.7503C100.139 25.5034 100.07 25.3183 99.9328 25.1948C99.8002 25.0668 99.5808 25.0028 99.2745 25.0028H98.1842V26.5114H99.2677Z" fill="white"/>
<path d="M92.997 25.6543C93.0016 25.4714 93.0061 25.2588 93.0107 25.0165C93.0153 24.7697 93.0176 24.5114 93.0176 24.2417C93.0221 23.972 93.0244 23.6954 93.0244 23.412C93.029 23.124 93.0313 22.8497 93.0313 22.5891H96.3913V27.252H95.5547V23.3708H93.8473C93.8473 23.5583 93.845 23.7594 93.8404 23.9743C93.8404 24.1845 93.8381 24.3971 93.8336 24.612C93.8336 24.8223 93.8313 25.028 93.8267 25.2291C93.8221 25.4257 93.8176 25.604 93.813 25.764C93.7947 26.3034 93.6758 26.6874 93.4564 26.916C93.237 27.14 92.8964 27.252 92.4347 27.252H92.0781V26.4565H92.3113C92.5124 26.4565 92.6747 26.404 92.7981 26.2988C92.9216 26.1937 92.9878 25.9788 92.997 25.6543Z" fill="white"/>
<path d="M88.3884 27.2519V22.5891H91.7141V23.3297H89.225V24.5434H91.6181V25.2634H89.225V26.5114H91.6936V27.2519H88.3884Z" fill="white"/>
<path d="M83.707 23.3708V22.5891H87.8419V23.3708H86.1962V27.252H85.3596V23.3708H83.707Z" fill="white"/>
<path d="M82.3457 22.5891L84.108 27.252H83.2165L82.7845 26.0725H80.8097L80.3914 27.252H79.5137L81.2622 22.5891H82.3457ZM81.084 25.3183H82.5102L81.7902 23.3365L81.084 25.3183Z" fill="white"/>
<path d="M75.7791 23.3708V22.5891H79.9139V23.3708H78.2682V27.2519H77.4316V23.3708H75.7791Z" fill="white"/>
<path d="M74.3832 27.252V22.5891H75.2197V27.252H74.3832ZM72.0997 27.252H70.166V22.5891H71.0026V24.2623H72.1272C72.6529 24.2623 73.0552 24.3834 73.334 24.6257C73.6129 24.8634 73.7523 25.2405 73.7523 25.7571C73.7523 26.2463 73.6106 26.6188 73.3272 26.8748C73.0483 27.1263 72.6392 27.252 72.0997 27.252ZM72.0449 26.5114C72.3512 26.5114 72.5729 26.4497 72.71 26.3263C72.8472 26.1983 72.9157 26.0063 72.9157 25.7503C72.9157 25.5034 72.8472 25.3183 72.71 25.1948C72.5774 25.0668 72.3603 25.0028 72.0586 25.0028H71.0026V26.5114H72.0449Z" fill="white"/>
<path d="M65.2812 27.252V22.5891H69.2035V27.252H68.367V23.3708H66.1178V27.252H65.2812Z" fill="white"/>
<path d="M62.4942 26.5731C62.8645 26.5731 63.1479 26.4885 63.3445 26.3194C63.5456 26.1457 63.6759 25.9171 63.7353 25.6337L64.5582 25.7708C64.4622 26.2737 64.2428 26.6577 63.8999 26.9228C63.5571 27.1879 63.0885 27.3205 62.4942 27.3205C62.1559 27.3205 61.8496 27.2679 61.5753 27.1628C61.3011 27.0577 61.0656 26.9045 60.8691 26.7034C60.6771 26.4977 60.5285 26.2462 60.4233 25.9491C60.3182 25.6519 60.2656 25.3114 60.2656 24.9274C60.2656 24.5342 60.3205 24.1868 60.4302 23.8851C60.5399 23.5834 60.6931 23.3319 60.8896 23.1308C61.0862 22.9297 61.3216 22.7788 61.5959 22.6782C61.8702 22.5731 62.1719 22.5205 62.5011 22.5205C63.0908 22.5205 63.5571 22.6554 63.8999 22.9251C64.2473 23.1948 64.4645 23.5742 64.5513 24.0634L63.7285 24.2005C63.6599 23.9308 63.5296 23.7091 63.3376 23.5354C63.1456 23.3571 62.8668 23.2679 62.5011 23.2679C62.0622 23.2679 61.7193 23.4165 61.4725 23.7137C61.2302 24.0062 61.1091 24.4108 61.1091 24.9274C61.1091 25.4348 61.2325 25.8371 61.4793 26.1342C61.7262 26.4268 62.0645 26.5731 62.4942 26.5731Z" fill="white"/>
<path d="M58.675 27.252V23.7137L56.3299 27.252H55.4453V22.5891H56.275V26.1L58.5859 22.5891H59.5047V27.252H58.675Z" fill="white"/>
<path d="M48.6426 28.2325V26.4702H49.1089C49.2551 26.3422 49.3763 26.1479 49.4723 25.8874C49.5729 25.6268 49.6277 25.3388 49.6369 25.0234C49.6506 24.6942 49.6597 24.3239 49.6643 23.9125C49.6689 23.5011 49.6712 23.0599 49.6712 22.5891H52.9694V26.4702H53.614V28.2325H52.8049V27.2519H49.4517V28.2325H48.6426ZM50.4391 25.0782C50.4254 25.3525 50.3866 25.6062 50.3226 25.8394C50.2631 26.0725 50.1671 26.2828 50.0346 26.4702H52.1329V23.3708H50.4803C50.4757 23.6268 50.4689 23.9125 50.4597 24.2279C50.4551 24.5434 50.4483 24.8268 50.4391 25.0782Z" fill="white"/>
<path d="M46.2961 27.3205C45.9579 27.3205 45.647 27.2702 45.3636 27.1697C45.0847 27.0645 44.8447 26.9114 44.6436 26.7102C44.4424 26.5091 44.2847 26.2599 44.1704 25.9628C44.0607 25.6611 44.0059 25.3137 44.0059 24.9205C44.0059 24.5365 44.0607 24.1937 44.1704 23.8919C44.2847 23.5902 44.4424 23.3388 44.6436 23.1377C44.8447 22.9365 45.0847 22.7834 45.3636 22.6782C45.647 22.5731 45.9579 22.5205 46.2961 22.5205C46.639 22.5205 46.9521 22.5731 47.2356 22.6782C47.519 22.7834 47.759 22.9365 47.9556 23.1377C48.1567 23.3388 48.3121 23.5902 48.4219 23.8919C48.5361 24.1937 48.5933 24.5365 48.5933 24.9205C48.5933 25.3137 48.5361 25.6611 48.4219 25.9628C48.3121 26.2599 48.1567 26.5091 47.9556 26.7102C47.759 26.9114 47.519 27.0645 47.2356 27.1697C46.9521 27.2702 46.639 27.3205 46.2961 27.3205ZM46.2961 26.5731C46.7579 26.5731 47.1144 26.4245 47.3659 26.1274C47.6173 25.8257 47.743 25.4234 47.743 24.9205C47.743 24.4131 47.6173 24.0108 47.3659 23.7137C47.1144 23.4165 46.7579 23.2679 46.2961 23.2679C45.839 23.2679 45.4824 23.4165 45.2264 23.7137C44.975 24.0108 44.8493 24.4131 44.8493 24.9205C44.8493 25.4234 44.975 25.8257 45.2264 26.1274C45.4824 26.4245 45.839 26.5731 46.2961 26.5731Z" fill="white"/>
<path d="M39.8086 27.252V22.5891H41.8589C42.3435 22.5891 42.7115 22.6965 42.9629 22.9114C43.2143 23.1263 43.34 23.4348 43.34 23.8371C43.34 24.0703 43.2875 24.2828 43.1823 24.4748C43.0772 24.6623 42.9057 24.7971 42.668 24.8794C42.9332 24.9434 43.132 25.0714 43.2646 25.2634C43.3972 25.4508 43.4635 25.6794 43.4635 25.9491C43.4635 26.3743 43.324 26.6988 43.0452 26.9228C42.7709 27.1423 42.3777 27.252 41.8657 27.252H39.8086ZM41.7423 23.3023H40.6383V24.5503H41.7423C42.0257 24.5503 42.2246 24.4954 42.3389 24.3857C42.4577 24.2714 42.5172 24.116 42.5172 23.9194C42.5172 23.7137 42.46 23.5605 42.3457 23.46C42.236 23.3548 42.0349 23.3023 41.7423 23.3023ZM41.7629 25.2428H40.6383V26.5388H41.7629C42.0646 26.5388 42.284 26.4863 42.4212 26.3811C42.5629 26.2714 42.6337 26.1114 42.6337 25.9011C42.6337 25.6771 42.5652 25.5125 42.428 25.4074C42.2955 25.2977 42.0737 25.2428 41.7629 25.2428Z" fill="white"/>
<path d="M37.4843 22.5891L39.2466 27.252H38.3552L37.9232 26.0725H35.9483L35.5301 27.252H34.6523L36.4009 22.5891H37.4843ZM36.2226 25.3183H37.6489L36.9289 23.3365L36.2226 25.3183Z" fill="white"/>
<path d="M32.5239 23.2679C32.1901 23.2679 31.9296 23.3457 31.7421 23.5011C31.5547 23.6519 31.4267 23.8577 31.3581 24.1182L30.5353 23.9742C30.6267 23.5217 30.8393 23.1674 31.173 22.9114C31.5113 22.6508 31.9616 22.5205 32.5239 22.5205C33.0633 22.5205 33.4907 22.6348 33.8061 22.8634C34.1261 23.0874 34.2861 23.4188 34.2861 23.8577C34.2861 24.1182 34.2221 24.3354 34.0941 24.5091C33.9707 24.6828 33.7856 24.8062 33.5387 24.8794C33.8039 24.9479 34.0096 25.0691 34.1559 25.2428C34.3021 25.4119 34.3753 25.6405 34.3753 25.9285C34.3753 26.3582 34.2176 26.6988 33.9021 26.9502C33.5867 27.1971 33.1227 27.3205 32.5101 27.3205C31.9204 27.3205 31.4541 27.1971 31.1113 26.9502C30.7684 26.6988 30.5627 26.3308 30.4941 25.8462L31.317 25.7159C31.3627 25.9857 31.4839 26.1959 31.6804 26.3468C31.877 26.4977 32.1536 26.5731 32.5101 26.5731C32.853 26.5731 33.109 26.5114 33.2781 26.3879C33.4473 26.2645 33.5319 26.0908 33.5319 25.8668C33.5319 25.6657 33.4587 25.5125 33.3124 25.4074C33.1707 25.3022 32.9467 25.2497 32.6404 25.2497H31.941V24.5365H32.6473C32.9353 24.5365 33.141 24.4839 33.2644 24.3788C33.3879 24.2737 33.4496 24.1251 33.4496 23.9331C33.4496 23.7274 33.3696 23.5651 33.2096 23.4462C33.0541 23.3274 32.8256 23.2679 32.5239 23.2679Z" fill="white"/>
<path d="M0 24.5297L0.0462222 16.3783L14.1761 2.04066L12.1208 1.85706e-07L20.6177 0L20.5479 7.9969L18.5397 5.98871L4.43786 20.0916L13.5938 29.2475L20.6499 22.1915V30.6988L17.0968 34.2518L9.69376 34.2235L0 24.5297Z" fill="white"/>
<path d="M7.16016 20.2212L13.4813 13.9L19.8025 20.2212L13.4813 26.5423L7.16016 20.2212Z" fill="white"/>
</svg>
