<svg width="145" height="36" viewBox="0 0 145 36" fill="none" xmlns="http://www.w3.org/2000/svg">
<path d="M133.932 13.4297V0.349609H139.529C141.017 0.349609 142.145 0.683022 142.915 1.34985C143.697 2.01667 144.088 3.07462 144.088 4.52368C144.088 5.92145 143.697 6.9794 142.915 7.69752C142.132 8.41564 140.997 8.77469 139.51 8.77469H136.278V13.4297H133.932ZM136.278 6.71651H139.318C140.164 6.71651 140.779 6.53698 141.164 6.17792C141.549 5.80604 141.741 5.26745 141.741 4.56215C141.741 3.83121 141.549 3.29262 141.164 2.94638C140.779 2.58732 140.164 2.40779 139.318 2.40779H136.278V6.71651Z" fill="#141414"/>
<path d="M125.958 13.622C125.009 13.622 124.137 13.4809 123.342 13.1988C122.56 12.9039 121.886 12.4743 121.322 11.91C120.758 11.3458 120.316 10.6469 119.995 9.81338C119.687 8.96702 119.533 7.99243 119.533 6.8896C119.533 5.81242 119.687 4.85065 119.995 4.0043C120.316 3.15794 120.758 2.45265 121.322 1.88841C121.886 1.32417 122.56 0.894582 123.342 0.59964C124.137 0.304698 125.009 0.157227 125.958 0.157227C126.92 0.157227 127.798 0.304698 128.593 0.59964C129.388 0.894582 130.061 1.32417 130.613 1.88841C131.177 2.45265 131.613 3.15794 131.921 4.0043C132.241 4.85065 132.402 5.81242 132.402 6.8896C132.402 7.99243 132.241 8.96702 131.921 9.81338C131.613 10.6469 131.177 11.3458 130.613 11.91C130.061 12.4743 129.388 12.9039 128.593 13.1988C127.798 13.4809 126.92 13.622 125.958 13.622ZM125.958 11.5253C127.253 11.5253 128.253 11.1086 128.959 10.275C129.664 9.42867 130.017 8.30019 130.017 6.8896C130.017 5.46619 129.664 4.33771 128.959 3.50418C128.253 2.67065 127.253 2.25388 125.958 2.25388C124.676 2.25388 123.675 2.67065 122.957 3.50418C122.252 4.33771 121.899 5.46619 121.899 6.8896C121.899 8.30019 122.252 9.42867 122.957 10.275C123.675 11.1086 124.676 11.5253 125.958 11.5253Z" fill="#141414"/>
<path d="M108.43 13.4297V0.349609H117.778V2.4655H110.776V5.56239H114.066C115.566 5.56239 116.694 5.86374 117.451 6.46645C118.22 7.06916 118.605 8.07581 118.605 9.4864C118.605 10.8457 118.22 11.8459 117.451 12.4871C116.694 13.1155 115.572 13.4297 114.085 13.4297H108.43ZM113.931 7.60134H110.776V11.3715H113.931C114.752 11.3715 115.342 11.224 115.701 10.9291C116.073 10.6341 116.258 10.1596 116.258 9.50564C116.258 8.83881 116.073 8.35793 115.701 8.06299C115.342 7.75522 114.752 7.60134 113.931 7.60134Z" fill="#141414"/>
<path d="M103.988 13.4297V3.50421L97.4091 13.4297H94.9277V0.349609H97.2552V10.1981L103.738 0.349609H106.315V13.4297H103.988Z" fill="#141414"/>
<path d="M83.4551 13.4297V0.349609H89.0526C90.5401 0.349609 91.6686 0.683022 92.438 1.34985C93.2202 2.01667 93.6113 3.07462 93.6113 4.52368C93.6113 5.92145 93.2202 6.9794 92.438 7.69752C91.6558 8.41564 90.5209 8.77469 89.0333 8.77469H85.8018V13.4297H83.4551ZM85.8018 6.71651H88.841C89.6873 6.71651 90.3029 6.53698 90.6876 6.17792C91.0723 5.80604 91.2646 5.26745 91.2646 4.56215C91.2646 3.83121 91.0723 3.29262 90.6876 2.94638C90.3029 2.58732 89.6873 2.40779 88.841 2.40779H85.8018V6.71651Z" fill="#141414"/>
<path d="M70.3262 13.4297V0.349609H81.3288V13.4297H78.9821V2.54244H72.6729V13.4297H70.3262Z" fill="#141414"/>
<path d="M57.1729 4.02356C57.1729 4.90839 57.4101 5.54957 57.8846 5.9471C58.3591 6.34463 59.0964 6.54339 60.0967 6.54339C60.6096 6.55622 61.0777 6.53698 61.5008 6.48569C61.9368 6.43439 62.3728 6.36386 62.8088 6.2741V0.368845H65.1556V13.4489H62.8088V8.33228C62.3985 8.42205 61.9176 8.5054 61.3662 8.58234C60.8276 8.64646 60.257 8.67852 59.6542 8.67852C58.0257 8.67852 56.8138 8.33228 56.0188 7.63981C55.2237 6.93451 54.8262 5.81886 54.8262 4.29286V0.349609H57.1729V4.02356Z" fill="#D70408"/>
<path d="M47.3521 13.622C46.4032 13.622 45.5312 13.4809 44.7361 13.1988C43.9539 12.9039 43.2806 12.4743 42.7164 11.91C42.1521 11.3458 41.7097 10.6469 41.3891 9.81338C41.0814 8.96702 40.9275 7.99243 40.9275 6.8896C40.9275 5.81242 41.0814 4.85065 41.3891 4.0043C41.7097 3.15794 42.1521 2.45265 42.7164 1.88841C43.2806 1.32417 43.9539 0.894582 44.7361 0.59964C45.5312 0.304698 46.4032 0.157227 47.3521 0.157227C48.3139 0.157227 49.1923 0.304698 49.9873 0.59964C50.7824 0.894582 51.4556 1.32417 52.0071 1.88841C52.5713 2.45265 53.0073 3.15794 53.3151 4.0043C53.6356 4.85065 53.7959 5.81242 53.7959 6.8896C53.7959 7.99243 53.6356 8.96702 53.3151 9.81338C53.0073 10.6469 52.5713 11.3458 52.0071 11.91C51.4556 12.4743 50.7824 12.9039 49.9873 13.1988C49.1923 13.4809 48.3139 13.622 47.3521 13.622ZM47.3521 11.5253C48.6473 11.5253 49.6475 11.1086 50.3528 10.275C51.0581 9.42867 51.4108 8.30019 51.4108 6.8896C51.4108 5.46619 51.0581 4.33771 50.3528 3.50418C49.6475 2.67065 48.6473 2.25388 47.3521 2.25388C46.0697 2.25388 45.0695 2.67065 44.3514 3.50418C43.6461 4.33771 43.2934 5.46619 43.2934 6.8896C43.2934 8.30019 43.6461 9.42867 44.3514 10.275C45.0695 11.1086 46.0697 11.5253 47.3521 11.5253Z" fill="#D70408"/>
<path d="M29.3848 2.54244V0.349609H40.9837V2.54244H36.3672V13.4297H34.0205V2.54244H29.3848Z" fill="#D70408"/>
<path d="M87.032 32.5923C87.032 32.9443 86.9886 33.2803 86.9017 33.6003C86.8149 33.9203 86.696 34.2151 86.5451 34.4848C86.3989 34.7591 86.2229 35.0105 86.0171 35.2391C85.816 35.4677 85.6011 35.6688 85.3726 35.8425L84.9749 35.3351C85.1486 35.1843 85.3131 35.0105 85.4686 34.814C85.6286 34.622 85.7657 34.4117 85.88 34.1831C85.9943 33.95 86.0834 33.7008 86.1474 33.4357C86.216 33.166 86.2503 32.8848 86.2503 32.5923C86.2503 32.0071 86.1406 31.4768 85.9211 31.0014C85.7017 30.526 85.3931 30.126 84.9954 29.8014L85.3863 29.2871C85.624 29.4608 85.8434 29.6643 86.0446 29.8974C86.2457 30.126 86.4194 30.3797 86.5657 30.6585C86.712 30.9374 86.8263 31.2391 86.9086 31.5637C86.9909 31.8883 87.032 32.2311 87.032 32.5923Z" fill="#141414"/>
<path d="M80.4043 34.409V29.7461H84.3266V34.409H83.49V30.5278H81.2409V34.409H80.4043Z" fill="#141414"/>
<path d="M78.6164 34.409V30.8707L76.2713 34.409H75.3867V29.7461H76.2164V33.257L78.5273 29.7461H79.4461V34.409H78.6164Z" fill="#141414"/>
<path d="M72.7797 30.4252C72.446 30.4252 72.1854 30.5029 71.998 30.6583C71.8106 30.8092 71.6826 31.0149 71.614 31.2754L70.7911 31.1314C70.8826 30.6789 71.0951 30.3246 71.4289 30.0686C71.7671 29.808 72.2174 29.6777 72.7797 29.6777C73.3191 29.6777 73.7466 29.792 74.062 30.0206C74.382 30.2446 74.542 30.576 74.542 31.0149C74.542 31.2754 74.478 31.4926 74.35 31.6663C74.2266 31.84 74.0414 31.9634 73.7946 32.0366C74.0597 32.1052 74.2654 32.2263 74.4117 32.4C74.558 32.5692 74.6311 32.7977 74.6311 33.0857C74.6311 33.5154 74.4734 33.856 74.158 34.1074C73.8426 34.3543 73.3786 34.4777 72.766 34.4777C72.1763 34.4777 71.71 34.3543 71.3671 34.1074C71.0243 33.856 70.8186 33.488 70.75 33.0034L71.5729 32.8732C71.6186 33.1429 71.7397 33.3532 71.9363 33.504C72.1329 33.6549 72.4094 33.7303 72.766 33.7303C73.1089 33.7303 73.3649 33.6686 73.534 33.5452C73.7031 33.4217 73.7877 33.248 73.7877 33.024C73.7877 32.8229 73.7146 32.6697 73.5683 32.5646C73.4266 32.4594 73.2026 32.4069 72.8963 32.4069H72.1969V31.6937H72.9031C73.1911 31.6937 73.3969 31.6412 73.5203 31.536C73.6437 31.4309 73.7054 31.2823 73.7054 31.0903C73.7054 30.8846 73.6254 30.7223 73.4654 30.6034C73.31 30.4846 73.0814 30.4252 72.7797 30.4252Z" fill="#141414"/>
<path d="M68.2773 32.5374C68.2773 32.1763 68.3208 31.8357 68.4076 31.5157C68.4945 31.1957 68.6111 30.9008 68.7573 30.6311C68.9036 30.3614 69.0773 30.1145 69.2785 29.8905C69.4842 29.662 69.7036 29.4608 69.9368 29.2871L70.3345 29.7945C70.1562 29.9408 69.9871 30.1123 69.8271 30.3088C69.6716 30.5008 69.5368 30.7111 69.4225 30.9397C69.3082 31.1683 69.2168 31.4174 69.1482 31.6871C69.0842 31.9568 69.0522 32.2403 69.0522 32.5374C69.0522 33.1088 69.1642 33.6368 69.3882 34.1214C69.6168 34.6014 69.9253 35.006 70.3139 35.3351L69.9231 35.8425C69.6853 35.6688 69.4659 35.4654 69.2648 35.2323C69.0636 34.9991 68.8899 34.7431 68.7436 34.4643C68.5973 34.1854 68.4831 33.8837 68.4008 33.5591C68.3185 33.2345 68.2773 32.894 68.2773 32.5374Z" fill="#141414"/>
<path d="M62.75 34.409V29.7461H64.8003C65.2849 29.7461 65.6529 29.8535 65.9043 30.0684C66.1557 30.2832 66.2814 30.5918 66.2814 30.9941C66.2814 31.2272 66.2289 31.4398 66.1237 31.6318C66.0186 31.8192 65.8471 31.9541 65.6094 32.0364C65.8746 32.1004 66.0734 32.2284 66.206 32.4204C66.3386 32.6078 66.4049 32.8364 66.4049 33.1061C66.4049 33.5312 66.2654 33.8558 65.9866 34.0798C65.7123 34.2992 65.3191 34.409 64.8071 34.409H62.75ZM64.6837 30.4592H63.5797V31.7072H64.6837C64.9671 31.7072 65.166 31.6524 65.2803 31.5427C65.3991 31.4284 65.4586 31.273 65.4586 31.0764C65.4586 30.8707 65.4014 30.7175 65.2871 30.617C65.1774 30.5118 64.9763 30.4592 64.6837 30.4592ZM64.7043 32.3998H63.5797V33.6958H64.7043C65.006 33.6958 65.2254 33.6432 65.3626 33.5381C65.5043 33.4284 65.5751 33.2684 65.5751 33.0581C65.5751 32.8341 65.5066 32.6695 65.3694 32.5644C65.2369 32.4547 65.0151 32.3998 64.7043 32.3998Z" fill="#141414"/>
<path d="M59.7004 34.4777C59.3622 34.4777 59.0513 34.4274 58.7679 34.3269C58.489 34.2217 58.249 34.0686 58.0479 33.8674C57.8467 33.6663 57.689 33.4172 57.5747 33.12C57.465 32.8183 57.4102 32.4709 57.4102 32.0777C57.4102 31.6937 57.465 31.3509 57.5747 31.0492C57.689 30.7474 57.8467 30.496 58.0479 30.2949C58.249 30.0937 58.489 29.9406 58.7679 29.8354C59.0513 29.7303 59.3622 29.6777 59.7004 29.6777C60.0433 29.6777 60.3564 29.7303 60.6399 29.8354C60.9233 29.9406 61.1633 30.0937 61.3599 30.2949C61.561 30.496 61.7164 30.7474 61.8262 31.0492C61.9404 31.3509 61.9976 31.6937 61.9976 32.0777C61.9976 32.4709 61.9404 32.8183 61.8262 33.12C61.7164 33.4172 61.561 33.6663 61.3599 33.8674C61.1633 34.0686 60.9233 34.2217 60.6399 34.3269C60.3564 34.4274 60.0433 34.4777 59.7004 34.4777ZM59.7004 33.7303C60.1622 33.7303 60.5187 33.5817 60.7702 33.2846C61.0216 32.9829 61.1473 32.5806 61.1473 32.0777C61.1473 31.5703 61.0216 31.168 60.7702 30.8709C60.5187 30.5737 60.1622 30.4252 59.7004 30.4252C59.2433 30.4252 58.8867 30.5737 58.6307 30.8709C58.3793 31.168 58.2536 31.5703 58.2536 32.0777C58.2536 32.5806 58.3793 32.9829 58.6307 33.2846C58.8867 33.5817 59.2433 33.7303 59.7004 33.7303Z" fill="#141414"/>
<path d="M53.3145 34.409V29.7461H55.3099C55.8402 29.7461 56.2425 29.865 56.5167 30.1027C56.7956 30.3404 56.935 30.7175 56.935 31.2341C56.935 31.7324 56.7956 32.1095 56.5167 32.3655C56.2379 32.6215 55.8333 32.7495 55.303 32.7495H54.151V34.409H53.3145ZM54.151 32.0158H55.2345C55.5362 32.0158 55.7556 31.9518 55.8927 31.8238C56.0299 31.6912 56.0985 31.4992 56.0985 31.2478C56.0985 30.9872 56.0299 30.7952 55.8927 30.6718C55.7556 30.5438 55.5362 30.4798 55.2345 30.4798H54.151V32.0158Z" fill="#141414"/>
<path d="M50.2649 34.4777C49.9266 34.4777 49.6158 34.4274 49.3323 34.3269C49.0535 34.2217 48.8135 34.0686 48.6123 33.8674C48.4112 33.6663 48.2535 33.4172 48.1392 33.12C48.0295 32.8183 47.9746 32.4709 47.9746 32.0777C47.9746 31.6937 48.0295 31.3509 48.1392 31.0492C48.2535 30.7474 48.4112 30.496 48.6123 30.2949C48.8135 30.0937 49.0535 29.9406 49.3323 29.8354C49.6158 29.7303 49.9266 29.6777 50.2649 29.6777C50.6078 29.6777 50.9209 29.7303 51.2043 29.8354C51.4878 29.9406 51.7278 30.0937 51.9243 30.2949C52.1255 30.496 52.2809 30.7474 52.3906 31.0492C52.5049 31.3509 52.562 31.6937 52.562 32.0777C52.562 32.4709 52.5049 32.8183 52.3906 33.12C52.2809 33.4172 52.1255 33.6663 51.9243 33.8674C51.7278 34.0686 51.4878 34.2217 51.2043 34.3269C50.9209 34.4274 50.6078 34.4777 50.2649 34.4777ZM50.2649 33.7303C50.7266 33.7303 51.0832 33.5817 51.3346 33.2846C51.586 32.9829 51.7118 32.5806 51.7118 32.0777C51.7118 31.5703 51.586 31.168 51.3346 30.8709C51.0832 30.5737 50.7266 30.4252 50.2649 30.4252C49.8078 30.4252 49.4512 30.5737 49.1952 30.8709C48.9438 31.168 48.818 31.5703 48.818 32.0777C48.818 32.5806 48.9438 32.9829 49.1952 33.2846C49.4512 33.5817 49.8078 33.7303 50.2649 33.7303Z" fill="#141414"/>
<path d="M43.8105 34.409V29.7461H47.1431V30.5004H44.6471V31.6044H45.8197C46.3545 31.6044 46.7568 31.7118 47.0265 31.9267C47.3008 32.1415 47.438 32.5004 47.438 33.0032C47.438 33.4878 47.3008 33.8444 47.0265 34.073C46.7568 34.297 46.3568 34.409 45.8265 34.409H43.8105ZM45.7717 32.3312H44.6471V33.6752H45.7717C46.0643 33.6752 46.2745 33.6227 46.4025 33.5175C46.5351 33.4124 46.6014 33.2432 46.6014 33.0101C46.6014 32.7724 46.5351 32.601 46.4025 32.4958C46.2745 32.3861 46.0643 32.3312 45.7717 32.3312Z" fill="#141414"/>
<path d="M42.0227 34.409V30.8707L39.6775 34.409H38.793V29.7461H39.6227V33.257L41.9335 29.7461H42.8524V34.409H42.0227Z" fill="#141414"/>
<path d="M34.4962 34.409V29.7461H36.4916C37.0219 29.7461 37.4242 29.865 37.6985 30.1027C37.9774 30.3404 38.1168 30.7175 38.1168 31.2341C38.1168 31.7324 37.9774 32.1095 37.6985 32.3655C37.4196 32.6215 37.0151 32.7495 36.4848 32.7495H35.3328V34.409H34.4962ZM35.3328 32.0158H36.4162C36.7179 32.0158 36.9374 31.9518 37.0745 31.8238C37.2116 31.6912 37.2802 31.4992 37.2802 31.2478C37.2802 30.9872 37.2116 30.7952 37.0745 30.6718C36.9374 30.5438 36.7179 30.4798 36.4162 30.4798H35.3328V32.0158Z" fill="#141414"/>
<path d="M29.6113 34.409V29.7461H33.5336V34.409H32.697V30.5278H30.4479V34.409H29.6113Z" fill="#141414"/>
<path d="M114.432 27.409L113.225 25.6261L112.046 27.409H111.045L112.718 24.9952L111.113 22.7461H112.142L113.287 24.4192L114.391 22.7461H115.392L113.795 25.0638L115.461 27.409H114.432Z" fill="#141414"/>
<path d="M109.703 27.409V22.7461H110.54V27.409H109.703ZM107.42 27.409H105.486V22.7461H106.323V24.4192H107.447C107.973 24.4192 108.375 24.5404 108.654 24.7827C108.933 25.0204 109.073 25.3975 109.073 25.9141C109.073 26.4032 108.931 26.7758 108.647 27.0318C108.369 27.2832 107.959 27.409 107.42 27.409ZM107.365 26.6684C107.671 26.6684 107.893 26.6067 108.03 26.4832C108.167 26.3552 108.236 26.1632 108.236 25.9072C108.236 25.6604 108.167 25.4752 108.03 25.3518C107.898 25.2238 107.681 25.1598 107.379 25.1598H106.323V26.6684H107.365Z" fill="#141414"/>
<path d="M100.582 27.409V22.7461H101.418V24.673H103.688V22.7461H104.525V27.409H103.688V25.4478H101.418V27.409H100.582Z" fill="#141414"/>
<path d="M96.2383 22.7461H97.0749V24.4192H98.2406C98.7663 24.4192 99.1686 24.5404 99.4474 24.7827C99.7263 25.0204 99.8657 25.3975 99.8657 25.9141C99.8657 26.4032 99.724 26.7758 99.4406 27.0318C99.1617 27.2832 98.7526 27.409 98.2131 27.409H96.2383V22.7461ZM98.1583 26.6684C98.4646 26.6684 98.6863 26.6067 98.8234 26.4832C98.9606 26.3552 99.0291 26.1632 99.0291 25.9072C99.0291 25.6604 98.9606 25.4752 98.8234 25.3518C98.6909 25.2238 98.4714 25.1598 98.1651 25.1598H97.0749V26.6684H98.1583Z" fill="#141414"/>
<path d="M91.8876 25.8112C91.8922 25.6284 91.8968 25.4158 91.9013 25.1735C91.9059 24.9267 91.9082 24.6684 91.9082 24.3987C91.9128 24.129 91.915 23.8524 91.915 23.569C91.9196 23.281 91.9219 23.0067 91.9219 22.7461H95.2819V27.409H94.4453V23.5278H92.7379C92.7379 23.7152 92.7356 23.9164 92.731 24.1312C92.731 24.3415 92.7287 24.5541 92.7242 24.769C92.7242 24.9792 92.7219 25.185 92.7173 25.3861C92.7128 25.5827 92.7082 25.761 92.7036 25.921C92.6853 26.4604 92.5665 26.8444 92.347 27.073C92.1276 27.297 91.787 27.409 91.3253 27.409H90.9688V26.6135H91.2019C91.403 26.6135 91.5653 26.561 91.6888 26.4558C91.8122 26.3507 91.8785 26.1358 91.8876 25.8112Z" fill="#141414"/>
<path d="M87.2791 27.409V22.7461H90.6048V23.4867H88.1156V24.7004H90.5088V25.4204H88.1156V26.6684H90.5842V27.409H87.2791Z" fill="#141414"/>
<path d="M82.5977 23.5278V22.7461H86.7325V23.5278H85.0868V27.409H84.2502V23.5278H82.5977Z" fill="#141414"/>
<path d="M81.2363 22.7461L82.9986 27.409H82.1072L81.6752 26.2295H79.7003L79.282 27.409H78.4043L80.1529 22.7461H81.2363ZM79.9746 25.4752H81.4009L80.6809 23.4935L79.9746 25.4752Z" fill="#141414"/>
<path d="M74.6697 23.5278V22.7461H78.8045V23.5278H77.1588V27.409H76.3223V23.5278H74.6697Z" fill="#141414"/>
<path d="M73.2738 27.409V22.7461H74.1104V27.409H73.2738ZM70.9904 27.409H69.0566V22.7461H69.8932V24.4192H71.0178C71.5435 24.4192 71.9458 24.5404 72.2246 24.7827C72.5035 25.0204 72.6429 25.3975 72.6429 25.9141C72.6429 26.4032 72.5012 26.7758 72.2178 27.0318C71.9389 27.2832 71.5298 27.409 70.9904 27.409ZM70.9355 26.6684C71.2418 26.6684 71.4635 26.6067 71.6006 26.4832C71.7378 26.3552 71.8064 26.1632 71.8064 25.9072C71.8064 25.6604 71.7378 25.4752 71.6006 25.3518C71.4681 25.2238 71.2509 25.1598 70.9492 25.1598H69.8932V26.6684H70.9355Z" fill="#141414"/>
<path d="M64.1719 27.409V22.7461H68.0942V27.409H67.2576V23.5278H65.0084V27.409H64.1719Z" fill="#141414"/>
<path d="M61.3848 26.7303C61.7551 26.7303 62.0385 26.6457 62.2351 26.4766C62.4363 26.3029 62.5665 26.0743 62.626 25.7909L63.4488 25.928C63.3528 26.4309 63.1334 26.8149 62.7905 27.08C62.4477 27.3452 61.9791 27.4777 61.3848 27.4777C61.0465 27.4777 60.7403 27.4252 60.466 27.32C60.1917 27.2149 59.9562 27.0617 59.7597 26.8606C59.5677 26.6549 59.4191 26.4034 59.314 26.1063C59.2088 25.8092 59.1562 25.4686 59.1562 25.0846C59.1562 24.6914 59.2111 24.344 59.3208 24.0423C59.4305 23.7406 59.5837 23.4892 59.7803 23.288C59.9768 23.0869 60.2123 22.936 60.4865 22.8354C60.7608 22.7303 61.0625 22.6777 61.3917 22.6777C61.9814 22.6777 62.4477 22.8126 62.7905 23.0823C63.138 23.352 63.3551 23.7314 63.442 24.2206L62.6191 24.3577C62.5505 24.088 62.4202 23.8663 62.2282 23.6926C62.0362 23.5143 61.7574 23.4252 61.3917 23.4252C60.9528 23.4252 60.61 23.5737 60.3631 23.8709C60.1208 24.1634 59.9997 24.568 59.9997 25.0846C59.9997 25.592 60.1231 25.9943 60.37 26.2914C60.6168 26.584 60.9551 26.7303 61.3848 26.7303Z" fill="#141414"/>
<path d="M57.5657 27.409V23.8707L55.2205 27.409H54.3359V22.7461H55.1657V26.257L57.4765 22.7461H58.3954V27.409H57.5657Z" fill="#141414"/>
<path d="M47.5332 28.3895V26.6272H47.9995C48.1458 26.4992 48.2669 26.305 48.3629 26.0444C48.4635 25.7838 48.5183 25.4958 48.5275 25.1804C48.5412 24.8512 48.5503 24.481 48.5549 24.0695C48.5595 23.6581 48.5618 23.217 48.5618 22.7461H51.8601V26.6272H52.5046V28.3895H51.6955V27.409H48.3423V28.3895H47.5332ZM49.3298 25.2352C49.3161 25.5095 49.2772 25.7632 49.2132 25.9964C49.1538 26.2295 49.0578 26.4398 48.9252 26.6272H51.0235V23.5278H49.3709C49.3663 23.7838 49.3595 24.0695 49.3503 24.385C49.3458 24.7004 49.3389 24.9838 49.3298 25.2352Z" fill="#141414"/>
<path d="M45.1868 27.4777C44.8485 27.4777 44.5376 27.4274 44.2542 27.3269C43.9753 27.2217 43.7353 27.0686 43.5342 26.8674C43.3331 26.6663 43.1753 26.4172 43.0611 26.12C42.9513 25.8183 42.8965 25.4709 42.8965 25.0777C42.8965 24.6937 42.9513 24.3509 43.0611 24.0492C43.1753 23.7474 43.3331 23.496 43.5342 23.2949C43.7353 23.0937 43.9753 22.9406 44.2542 22.8354C44.5376 22.7303 44.8485 22.6777 45.1868 22.6777C45.5296 22.6777 45.8428 22.7303 46.1262 22.8354C46.4096 22.9406 46.6496 23.0937 46.8462 23.2949C47.0473 23.496 47.2028 23.7474 47.3125 24.0492C47.4268 24.3509 47.4839 24.6937 47.4839 25.0777C47.4839 25.4709 47.4268 25.8183 47.3125 26.12C47.2028 26.4172 47.0473 26.6663 46.8462 26.8674C46.6496 27.0686 46.4096 27.2217 46.1262 27.3269C45.8428 27.4274 45.5296 27.4777 45.1868 27.4777ZM45.1868 26.7303C45.6485 26.7303 46.0051 26.5817 46.2565 26.2846C46.5079 25.9829 46.6336 25.5806 46.6336 25.0777C46.6336 24.5703 46.5079 24.168 46.2565 23.8709C46.0051 23.5737 45.6485 23.4252 45.1868 23.4252C44.7296 23.4252 44.3731 23.5737 44.1171 23.8709C43.8656 24.168 43.7399 24.5703 43.7399 25.0777C43.7399 25.5806 43.8656 25.9829 44.1171 26.2846C44.3731 26.5817 44.7296 26.7303 45.1868 26.7303Z" fill="#141414"/>
<path d="M38.6992 27.409V22.7461H40.7495C41.2341 22.7461 41.6021 22.8535 41.8535 23.0684C42.1049 23.2832 42.2306 23.5918 42.2306 23.9941C42.2306 24.2272 42.1781 24.4398 42.0729 24.6318C41.9678 24.8192 41.7964 24.9541 41.5586 25.0364C41.8238 25.1004 42.0226 25.2284 42.1552 25.4204C42.2878 25.6078 42.3541 25.8364 42.3541 26.1061C42.3541 26.5312 42.2146 26.8558 41.9358 27.0798C41.6615 27.2992 41.2684 27.409 40.7564 27.409H38.6992ZM40.6329 23.4592H39.5289V24.7072H40.6329C40.9164 24.7072 41.1152 24.6524 41.2295 24.5427C41.3484 24.4284 41.4078 24.273 41.4078 24.0764C41.4078 23.8707 41.3506 23.7175 41.2364 23.617C41.1266 23.5118 40.9255 23.4592 40.6329 23.4592ZM40.6535 25.3998H39.5289V26.6958H40.6535C40.9552 26.6958 41.1746 26.6432 41.3118 26.5381C41.4535 26.4284 41.5244 26.2684 41.5244 26.0581C41.5244 25.8341 41.4558 25.6695 41.3186 25.5644C41.1861 25.4547 40.9644 25.3998 40.6535 25.3998Z" fill="#141414"/>
<path d="M36.375 22.7461L38.1373 27.409H37.2458L36.8138 26.2295H34.839L34.4207 27.409H33.543L35.2915 22.7461H36.375ZM35.1133 25.4752H36.5395L35.8195 23.4935L35.1133 25.4752Z" fill="#141414"/>
<path d="M31.4145 23.4252C31.0808 23.4252 30.8202 23.5029 30.6328 23.6583C30.4453 23.8092 30.3173 24.0149 30.2488 24.2754L29.4259 24.1314C29.5173 23.6789 29.7299 23.3246 30.0636 23.0686C30.4019 22.808 30.8522 22.6777 31.4145 22.6777C31.9539 22.6777 32.3813 22.792 32.6968 23.0206C33.0168 23.2446 33.1768 23.576 33.1768 24.0149C33.1768 24.2754 33.1128 24.4926 32.9848 24.6663C32.8613 24.84 32.6762 24.9634 32.4293 25.0366C32.6945 25.1052 32.9002 25.2263 33.0465 25.4C33.1928 25.5692 33.2659 25.7977 33.2659 26.0857C33.2659 26.5154 33.1082 26.856 32.7928 27.1074C32.4773 27.3543 32.0133 27.4777 31.4008 27.4777C30.8111 27.4777 30.3448 27.3543 30.0019 27.1074C29.6591 26.856 29.4533 26.488 29.3848 26.0034L30.2076 25.8732C30.2533 26.1429 30.3745 26.3532 30.5711 26.504C30.7676 26.6549 31.0442 26.7303 31.4008 26.7303C31.7436 26.7303 31.9996 26.6686 32.1688 26.5452C32.3379 26.4217 32.4225 26.248 32.4225 26.024C32.4225 25.8229 32.3493 25.6697 32.2031 25.5646C32.0613 25.4594 31.8373 25.4069 31.5311 25.4069H30.8316V24.6937H31.5379C31.8259 24.6937 32.0316 24.6412 32.1551 24.536C32.2785 24.4309 32.3402 24.2823 32.3402 24.0903C32.3402 23.8846 32.2602 23.7223 32.1002 23.6034C31.9448 23.4846 31.7162 23.4252 31.4145 23.4252Z" fill="#141414"/>
<path d="M17.6317 34.4089H9.38489L20.4305 23.3633V31.6146L17.6317 34.4089Z" fill="#D70408"/>
<path d="M17.6312 34.4092H9.38437L0.000244141 24.9244V16.6938L17.6312 34.4092Z" fill="#141414"/>
<path d="M13.5006 27.4281L6.90784 20.8354L13.5006 14.2412L20.0918 20.8354L13.5006 27.4281Z" fill="#141414"/>
<path d="M20.4298 0.349609H13.0492L14.6915 1.97558L0 16.6537V24.905L18.8305 6.08789L20.4298 7.67239V0.349609Z" fill="#D70408"/>
</svg>
