<svg width="141" height="37" viewBox="0 0 141 37" fill="none" xmlns="http://www.w3.org/2000/svg">
<path d="M130.649 14.1367V1.05661H136.247C137.734 1.05661 138.863 1.39002 139.632 2.05685C140.414 2.72367 140.805 3.78162 140.805 5.23068C140.805 6.62845 140.414 7.6864 139.632 8.40452C138.85 9.12264 137.715 9.4817 136.227 9.4817H132.996V14.1367H130.649ZM132.996 7.42351H136.035C136.881 7.42351 137.497 7.24398 137.882 6.88492C138.266 6.51304 138.459 5.97445 138.459 5.26915C138.459 4.53821 138.266 3.99962 137.882 3.65338C137.497 3.29432 136.881 3.11479 136.035 3.11479H132.996V7.42351Z" fill="#222222"/>
<path d="M122.675 14.3291C121.726 14.3291 120.854 14.188 120.059 13.9059C119.277 13.6109 118.604 13.1814 118.04 12.6171C117.475 12.0529 117.033 11.354 116.712 10.5205C116.405 9.67411 116.251 8.69952 116.251 7.59669C116.251 6.51951 116.405 5.55775 116.712 4.71139C117.033 3.86503 117.475 3.15974 118.04 2.5955C118.604 2.03126 119.277 1.60167 120.059 1.30673C120.854 1.01179 121.726 0.864319 122.675 0.864319C123.637 0.864319 124.516 1.01179 125.311 1.30673C126.106 1.60167 126.779 2.03126 127.33 2.5955C127.895 3.15974 128.331 3.86503 128.638 4.71139C128.959 5.55775 129.119 6.51951 129.119 7.59669C129.119 8.69952 128.959 9.67411 128.638 10.5205C128.331 11.354 127.895 12.0529 127.33 12.6171C126.779 13.1814 126.106 13.6109 125.311 13.9059C124.516 14.188 123.637 14.3291 122.675 14.3291ZM122.675 12.2324C123.971 12.2324 124.971 11.8156 125.676 10.9821C126.381 10.1358 126.734 9.00729 126.734 7.59669C126.734 6.17328 126.381 5.0448 125.676 4.21127C124.971 3.37774 123.971 2.96097 122.675 2.96097C121.393 2.96097 120.393 3.37774 119.675 4.21127C118.969 5.0448 118.617 6.17328 118.617 7.59669C118.617 9.00729 118.969 10.1358 119.675 10.9821C120.393 11.8156 121.393 12.2324 122.675 12.2324Z" fill="#222222"/>
<path d="M105.147 14.1367V1.05664H114.496V3.17253H107.494V6.26942H110.783C112.284 6.26942 113.412 6.57078 114.169 7.17348C114.938 7.77619 115.323 8.78284 115.323 10.1934C115.323 11.5527 114.938 12.553 114.169 13.1941C113.412 13.8225 112.29 14.1367 110.802 14.1367H105.147ZM110.649 8.30837H107.494V12.0785H110.649C111.469 12.0785 112.059 11.931 112.418 11.6361C112.79 11.3411 112.976 10.8667 112.976 10.2127C112.976 9.54584 112.79 9.06496 112.418 8.77002C112.059 8.46225 111.469 8.30837 110.649 8.30837Z" fill="#222222"/>
<path d="M100.705 14.1367V4.21124L94.1266 14.1367H91.6453V1.05664H93.9727V10.9051L100.455 1.05664H103.033V14.1367H100.705Z" fill="#222222"/>
<path d="M80.1726 14.1367V1.05664H85.7701C87.2576 1.05664 88.3861 1.39005 89.1555 2.05688C89.9378 2.7237 90.3289 3.78165 90.3289 5.23071C90.3289 6.62848 89.9378 7.68643 89.1555 8.40455C88.3733 9.12267 87.2384 9.48173 85.7509 9.48173H82.5193V14.1367H80.1726ZM82.5193 7.42354H85.5585C86.4049 7.42354 87.0204 7.24401 87.4051 6.88495C87.7898 6.51307 87.9822 5.97448 87.9822 5.26918C87.9822 4.53824 87.7898 3.99965 87.4051 3.65341C87.0204 3.29435 86.4049 3.11482 85.5585 3.11482H82.5193V7.42354Z" fill="#222222"/>
<path d="M67.0437 14.1367V1.05664H78.0463V14.1367H75.6996V3.24947H69.3904V14.1367H67.0437Z" fill="#222222"/>
<path d="M56.8904 4.73056C56.8904 5.61539 57.1277 6.25657 57.6021 6.6541C58.0766 7.05163 58.814 7.25039 59.8142 7.25039C60.3271 7.26322 60.7952 7.24398 61.2184 7.19269C61.6544 7.14139 62.0904 7.07086 62.5264 6.9811V1.07585H64.8731V14.1559H62.5264V9.03928C62.116 9.12905 61.6351 9.2124 61.0837 9.28934C60.5451 9.35346 59.9745 9.38552 59.3718 9.38552C57.7432 9.38552 56.5314 9.03928 55.7363 8.34681C54.9412 7.64151 54.5437 6.52586 54.5437 4.99986V1.05661H56.8904V4.73056Z" fill="#D70408"/>
<path d="M47.0696 14.3291C46.1207 14.3291 45.2487 14.188 44.4536 13.9059C43.6714 13.6109 42.9981 13.1814 42.4339 12.6171C41.8697 12.0529 41.4273 11.354 41.1067 10.5205C40.7989 9.67411 40.645 8.69952 40.645 7.59669C40.645 6.51951 40.7989 5.55775 41.1067 4.71139C41.4273 3.86503 41.8697 3.15974 42.4339 2.5955C42.9981 2.03126 43.6714 1.60167 44.4536 1.30673C45.2487 1.01179 46.1207 0.864319 47.0696 0.864319C48.0314 0.864319 48.9098 1.01179 49.7049 1.30673C50.4999 1.60167 51.1732 2.03126 51.7246 2.5955C52.2888 3.15974 52.7248 3.86503 53.0326 4.71139C53.3532 5.55775 53.5135 6.51951 53.5135 7.59669C53.5135 8.69952 53.3532 9.67411 53.0326 10.5205C52.7248 11.354 52.2888 12.0529 51.7246 12.6171C51.1732 13.1814 50.4999 13.6109 49.7049 13.9059C48.9098 14.188 48.0314 14.3291 47.0696 14.3291ZM47.0696 12.2324C48.3648 12.2324 49.365 11.8156 50.0703 10.9821C50.7756 10.1358 51.1283 9.00729 51.1283 7.59669C51.1283 6.17328 50.7756 5.0448 50.0703 4.21127C49.365 3.37774 48.3648 2.96097 47.0696 2.96097C45.7873 2.96097 44.787 3.37774 44.0689 4.21127C43.3636 5.0448 43.011 6.17328 43.011 7.59669C43.011 9.00729 43.3636 10.1358 44.0689 10.9821C44.787 11.8156 45.7873 12.2324 47.0696 12.2324Z" fill="#D70408"/>
<path d="M29.1023 3.24944V1.05661H40.7012V3.24944H36.0847V14.1367H33.738V3.24944H29.1023Z" fill="#D70408"/>
<path d="M88.8198 33.2991C88.8198 33.6511 88.7764 33.9871 88.6896 34.3071C88.6027 34.6271 88.4838 34.9219 88.333 35.1916C88.1867 35.4659 88.0107 35.7173 87.805 35.9459C87.6038 36.1745 87.389 36.3756 87.1604 36.5493L86.7627 36.0419C86.9364 35.8911 87.101 35.7173 87.2564 35.5208C87.4164 35.3288 87.5536 35.1185 87.6678 34.8899C87.7821 34.6568 87.8713 34.4076 87.9353 34.1425C88.0038 33.8728 88.0381 33.5916 88.0381 33.2991C88.0381 32.7139 87.9284 32.1836 87.709 31.7082C87.4896 31.2328 87.181 30.8328 86.7833 30.5082L87.1741 29.9939C87.4118 30.1676 87.6313 30.3711 87.8324 30.6042C88.0336 30.8328 88.2073 31.0865 88.3536 31.3653C88.4998 31.6442 88.6141 31.9459 88.6964 32.2705C88.7787 32.5951 88.8198 32.9379 88.8198 33.2991Z" fill="#222222"/>
<path d="M82.1921 35.1162V30.4534H86.1144V35.1162H85.2779V31.2351H83.0287V35.1162H82.1921Z" fill="#222222"/>
<path d="M80.4043 35.1162V31.5779L78.0591 35.1162H77.1746V30.4534H78.0043V33.9642L80.3151 30.4534H81.234V35.1162H80.4043Z" fill="#222222"/>
<path d="M74.5676 31.1322C74.2338 31.1322 73.9733 31.2099 73.7858 31.3653C73.5984 31.5162 73.4704 31.7219 73.4018 31.9825L72.579 31.8385C72.6704 31.3859 72.883 31.0316 73.2167 30.7756C73.555 30.5151 74.0053 30.3848 74.5676 30.3848C75.107 30.3848 75.5344 30.4991 75.8498 30.7276C76.1698 30.9516 76.3298 31.2831 76.3298 31.7219C76.3298 31.9825 76.2658 32.1996 76.1378 32.3733C76.0144 32.5471 75.8293 32.6705 75.5824 32.7436C75.8476 32.8122 76.0533 32.9333 76.1996 33.1071C76.3458 33.2762 76.419 33.5048 76.419 33.7928C76.419 34.2225 76.2613 34.5631 75.9458 34.8145C75.6304 35.0613 75.1664 35.1848 74.5538 35.1848C73.9641 35.1848 73.4978 35.0613 73.155 34.8145C72.8121 34.5631 72.6064 34.1951 72.5378 33.7105L73.3607 33.5802C73.4064 33.8499 73.5276 34.0602 73.7241 34.2111C73.9207 34.3619 74.1973 34.4373 74.5538 34.4373C74.8967 34.4373 75.1527 34.3756 75.3218 34.2522C75.491 34.1288 75.5756 33.9551 75.5756 33.7311C75.5756 33.5299 75.5024 33.3768 75.3561 33.2716C75.2144 33.1665 74.9904 33.1139 74.6841 33.1139H73.9847V32.4008H74.691C74.979 32.4008 75.1847 32.3482 75.3081 32.2431C75.4316 32.1379 75.4933 31.9893 75.4933 31.7973C75.4933 31.5916 75.4133 31.4293 75.2533 31.3105C75.0978 31.1916 74.8693 31.1322 74.5676 31.1322Z" fill="#222222"/>
<path d="M70.0652 33.2442C70.0652 32.883 70.1086 32.5425 70.1955 32.2225C70.2823 31.9025 70.3989 31.6076 70.5452 31.3379C70.6915 31.0682 70.8652 30.8213 71.0663 30.5973C71.272 30.3688 71.4915 30.1676 71.7246 29.9939L72.1223 30.5013C71.944 30.6476 71.7749 30.819 71.6149 31.0156C71.4595 31.2076 71.3246 31.4179 71.2103 31.6465C71.096 31.875 71.0046 32.1242 70.936 32.3939C70.872 32.6636 70.84 32.947 70.84 33.2442C70.84 33.8156 70.952 34.3436 71.176 34.8282C71.4046 35.3082 71.7132 35.7128 72.1018 36.0419L71.7109 36.5493C71.4732 36.3756 71.2538 36.1722 71.0526 35.939C70.8515 35.7059 70.6778 35.4499 70.5315 35.171C70.3852 34.8922 70.2709 34.5905 70.1886 34.2659C70.1063 33.9413 70.0652 33.6008 70.0652 33.2442Z" fill="#222222"/>
<path d="M64.5378 35.1162V30.4534H66.5881C67.0727 30.4534 67.4407 30.5608 67.6921 30.7757C67.9436 30.9905 68.0693 31.2991 68.0693 31.7014C68.0693 31.9345 68.0167 32.1471 67.9116 32.3391C67.8064 32.5265 67.635 32.6614 67.3973 32.7437C67.6624 32.8077 67.8613 32.9357 67.9938 33.1277C68.1264 33.3151 68.1927 33.5437 68.1927 33.8134C68.1927 34.2385 68.0533 34.5631 67.7744 34.7871C67.5001 35.0065 67.107 35.1162 66.595 35.1162H64.5378ZM66.4716 31.1665H65.3676V32.4145H66.4716C66.755 32.4145 66.9538 32.3597 67.0681 32.2499C67.187 32.1357 67.2464 31.9802 67.2464 31.7837C67.2464 31.5779 67.1893 31.4248 67.075 31.3242C66.9653 31.2191 66.7641 31.1665 66.4716 31.1665ZM66.4921 33.1071H65.3676V34.4031H66.4921C66.7938 34.4031 67.0133 34.3505 67.1504 34.2454C67.2921 34.1357 67.363 33.9757 67.363 33.7654C67.363 33.5414 67.2944 33.3768 67.1573 33.2717C67.0247 33.1619 66.803 33.1071 66.4921 33.1071Z" fill="#222222"/>
<path d="M61.4883 35.1848C61.15 35.1848 60.8391 35.1345 60.5557 35.0339C60.2769 34.9288 60.0369 34.7756 59.8357 34.5745C59.6346 34.3733 59.4769 34.1242 59.3626 33.8271C59.2529 33.5253 59.198 33.1779 59.198 32.7848C59.198 32.4008 59.2529 32.0579 59.3626 31.7562C59.4769 31.4545 59.6346 31.2031 59.8357 31.0019C60.0369 30.8008 60.2769 30.6476 60.5557 30.5425C60.8391 30.4373 61.15 30.3848 61.4883 30.3848C61.8311 30.3848 62.1443 30.4373 62.4277 30.5425C62.7111 30.6476 62.9511 30.8008 63.1477 31.0019C63.3489 31.2031 63.5043 31.4545 63.614 31.7562C63.7283 32.0579 63.7854 32.4008 63.7854 32.7848C63.7854 33.1779 63.7283 33.5253 63.614 33.8271C63.5043 34.1242 63.3489 34.3733 63.1477 34.5745C62.9511 34.7756 62.7111 34.9288 62.4277 35.0339C62.1443 35.1345 61.8311 35.1848 61.4883 35.1848ZM61.4883 34.4373C61.95 34.4373 62.3066 34.2888 62.558 33.9916C62.8094 33.6899 62.9351 33.2876 62.9351 32.7848C62.9351 32.2773 62.8094 31.8751 62.558 31.5779C62.3066 31.2808 61.95 31.1322 61.4883 31.1322C61.0311 31.1322 60.6746 31.2808 60.4186 31.5779C60.1671 31.8751 60.0414 32.2773 60.0414 32.7848C60.0414 33.2876 60.1671 33.6899 60.4186 33.9916C60.6746 34.2888 61.0311 34.4373 61.4883 34.4373Z" fill="#222222"/>
<path d="M55.1023 35.1162V30.4534H57.0977C57.628 30.4534 58.0303 30.5722 58.3046 30.8099C58.5834 31.0477 58.7229 31.4248 58.7229 31.9414C58.7229 32.4397 58.5834 32.8168 58.3046 33.0728C58.0257 33.3288 57.6212 33.4568 57.0909 33.4568H55.9389V35.1162H55.1023ZM55.9389 32.7231H57.0223C57.324 32.7231 57.5434 32.6591 57.6806 32.5311C57.8177 32.3985 57.8863 32.2065 57.8863 31.9551C57.8863 31.6945 57.8177 31.5025 57.6806 31.3791C57.5434 31.2511 57.324 31.1871 57.0223 31.1871H55.9389V32.7231Z" fill="#222222"/>
<path d="M52.0527 35.1848C51.7145 35.1848 51.4036 35.1345 51.1202 35.0339C50.8413 34.9288 50.6013 34.7756 50.4002 34.5745C50.199 34.3733 50.0413 34.1242 49.927 33.8271C49.8173 33.5253 49.7625 33.1779 49.7625 32.7848C49.7625 32.4008 49.8173 32.0579 49.927 31.7562C50.0413 31.4545 50.199 31.2031 50.4002 31.0019C50.6013 30.8008 50.8413 30.6476 51.1202 30.5425C51.4036 30.4373 51.7145 30.3848 52.0527 30.3848C52.3956 30.3848 52.7087 30.4373 52.9922 30.5425C53.2756 30.6476 53.5156 30.8008 53.7122 31.0019C53.9133 31.2031 54.0687 31.4545 54.1785 31.7562C54.2927 32.0579 54.3499 32.4008 54.3499 32.7848C54.3499 33.1779 54.2927 33.5253 54.1785 33.8271C54.0687 34.1242 53.9133 34.3733 53.7122 34.5745C53.5156 34.7756 53.2756 34.9288 52.9922 35.0339C52.7087 35.1345 52.3956 35.1848 52.0527 35.1848ZM52.0527 34.4373C52.5145 34.4373 52.871 34.2888 53.1225 33.9916C53.3739 33.6899 53.4996 33.2876 53.4996 32.7848C53.4996 32.2773 53.3739 31.8751 53.1225 31.5779C52.871 31.2808 52.5145 31.1322 52.0527 31.1322C51.5956 31.1322 51.239 31.2808 50.983 31.5779C50.7316 31.8751 50.6059 32.2773 50.6059 32.7848C50.6059 33.2876 50.7316 33.6899 50.983 33.9916C51.239 34.2888 51.5956 34.4373 52.0527 34.4373Z" fill="#222222"/>
<path d="M45.5984 35.1162V30.4534H48.931V31.2077H46.435V32.3117H47.6075C48.1424 32.3117 48.5447 32.4191 48.8144 32.6339C49.0887 32.8488 49.2258 33.2077 49.2258 33.7105C49.2258 34.1951 49.0887 34.5517 48.8144 34.7802C48.5447 35.0042 48.1447 35.1162 47.6144 35.1162H45.5984ZM47.5595 33.0385H46.435V34.3825H47.5595C47.8521 34.3825 48.0624 34.3299 48.1904 34.2248C48.323 34.1197 48.3892 33.9505 48.3892 33.7174C48.3892 33.4797 48.323 33.3082 48.1904 33.2031C48.0624 33.0934 47.8521 33.0385 47.5595 33.0385Z" fill="#222222"/>
<path d="M43.8105 35.1162V31.5779L41.4654 35.1162H40.5808V30.4534H41.4105V33.9642L43.7214 30.4534H44.6402V35.1162H43.8105Z" fill="#222222"/>
<path d="M36.2842 35.1162V30.4533H38.2796C38.8099 30.4533 39.2122 30.5722 39.4865 30.8099C39.7653 31.0476 39.9048 31.4248 39.9048 31.9413C39.9048 32.4396 39.7653 32.8168 39.4865 33.0728C39.2076 33.3288 38.803 33.4568 38.2728 33.4568H37.1208V35.1162H36.2842ZM37.1208 32.7231H38.2042C38.5059 32.7231 38.7253 32.6591 38.8625 32.5311C38.9996 32.3985 39.0682 32.2065 39.0682 31.9551C39.0682 31.6945 38.9996 31.5025 38.8625 31.3791C38.7253 31.2511 38.5059 31.1871 38.2042 31.1871H37.1208V32.7231Z" fill="#222222"/>
<path d="M31.3992 35.1162V30.4534H35.3215V35.1162H34.4849V31.2351H32.2357V35.1162H31.3992Z" fill="#222222"/>
<path d="M116.22 28.1162L115.013 26.3334L113.834 28.1162H112.833L114.506 25.7025L112.901 23.4534H113.93L115.075 25.1265L116.179 23.4534H117.18L115.582 25.7711L117.249 28.1162H116.22Z" fill="#222222"/>
<path d="M111.491 28.1162V23.4534H112.328V28.1162H111.491ZM109.208 28.1162H107.274V23.4534H108.111V25.1265H109.235C109.761 25.1265 110.163 25.2477 110.442 25.4899C110.721 25.7277 110.86 26.1048 110.86 26.6214C110.86 27.1105 110.719 27.4831 110.435 27.7391C110.156 27.9905 109.747 28.1162 109.208 28.1162ZM109.153 27.3757C109.459 27.3757 109.681 27.3139 109.818 27.1905C109.955 27.0625 110.024 26.8705 110.024 26.6145C110.024 26.3677 109.955 26.1825 109.818 26.0591C109.686 25.9311 109.468 25.8671 109.167 25.8671H108.111V27.3757H109.153Z" fill="#222222"/>
<path d="M102.37 28.1162V23.4533H103.206V25.3802H105.476V23.4533H106.313V28.1162H105.476V26.1551H103.206V28.1162H102.37Z" fill="#222222"/>
<path d="M98.0261 23.4534H98.8627V25.1265H100.028C100.554 25.1265 100.956 25.2477 101.235 25.4899C101.514 25.7277 101.654 26.1048 101.654 26.6214C101.654 27.1105 101.512 27.4831 101.228 27.7391C100.95 27.9905 100.54 28.1162 100.001 28.1162H98.0261V23.4534ZM99.9461 27.3757C100.252 27.3757 100.474 27.3139 100.611 27.1905C100.748 27.0625 100.817 26.8705 100.817 26.6145C100.817 26.3677 100.748 26.1825 100.611 26.0591C100.479 25.9311 100.259 25.8671 99.953 25.8671H98.8627V27.3757H99.9461Z" fill="#222222"/>
<path d="M93.6754 26.5185C93.68 26.3357 93.6846 26.1231 93.6892 25.8808C93.6937 25.6339 93.696 25.3757 93.696 25.1059C93.7006 24.8362 93.7029 24.5597 93.7029 24.2762C93.7074 23.9882 93.7097 23.7139 93.7097 23.4534H97.0697V28.1162H96.2332V24.2351H94.5257C94.5257 24.4225 94.5235 24.6237 94.5189 24.8385C94.5189 25.0488 94.5166 25.2614 94.512 25.4762C94.512 25.6865 94.5097 25.8922 94.5052 26.0934C94.5006 26.2899 94.496 26.4682 94.4915 26.6282C94.4732 27.1677 94.3543 27.5517 94.1349 27.7802C93.9155 28.0042 93.5749 28.1162 93.1132 28.1162H92.7566V27.3208H92.9897C93.1909 27.3208 93.3532 27.2682 93.4766 27.1631C93.6 27.0579 93.6663 26.8431 93.6754 26.5185Z" fill="#222222"/>
<path d="M89.0669 28.1162V23.4533H92.3926V24.1939H89.9035V25.4076H92.2966V26.1276H89.9035V27.3756H92.372V28.1162H89.0669Z" fill="#222222"/>
<path d="M84.3855 24.2351V23.4534H88.5204V24.2351H86.8746V28.1162H86.0381V24.2351H84.3855Z" fill="#222222"/>
<path d="M83.0241 23.4534L84.7864 28.1162H83.895L83.463 26.9368H81.4881L81.0699 28.1162H80.1921L81.9407 23.4534H83.0241ZM81.7624 26.1825H83.1887L82.4687 24.2008L81.7624 26.1825Z" fill="#222222"/>
<path d="M76.4575 24.2351V23.4533H80.5924V24.2351H78.9467V28.1162H78.1101V24.2351H76.4575Z" fill="#222222"/>
<path d="M75.0616 28.1162V23.4534H75.8982V28.1162H75.0616ZM72.7782 28.1162H70.8445V23.4534H71.6811V25.1265H72.8056C73.3313 25.1265 73.7336 25.2477 74.0125 25.4899C74.2913 25.7277 74.4308 26.1048 74.4308 26.6214C74.4308 27.1105 74.2891 27.4831 74.0056 27.7391C73.7268 27.9905 73.3176 28.1162 72.7782 28.1162ZM72.7233 27.3757C73.0296 27.3757 73.2513 27.3139 73.3885 27.1905C73.5256 27.0625 73.5942 26.8705 73.5942 26.6145C73.5942 26.3677 73.5256 26.1825 73.3885 26.0591C73.2559 25.9311 73.0388 25.8671 72.7371 25.8671H71.6811V27.3757H72.7233Z" fill="#222222"/>
<path d="M65.9597 28.1162V23.4534H69.882V28.1162H69.0454V24.2351H66.7963V28.1162H65.9597Z" fill="#222222"/>
<path d="M63.1727 27.4373C63.543 27.4373 63.8264 27.3528 64.0229 27.1836C64.2241 27.0099 64.3544 26.7813 64.4138 26.4979L65.2367 26.6351C65.1407 27.1379 64.9212 27.5219 64.5784 27.7871C64.2355 28.0522 63.767 28.1848 63.1727 28.1848C62.8344 28.1848 62.5281 28.1322 62.2538 28.0271C61.9795 27.9219 61.7441 27.7688 61.5475 27.5676C61.3555 27.3619 61.2069 27.1105 61.1018 26.8133C60.9967 26.5162 60.9441 26.1756 60.9441 25.7916C60.9441 25.3985 60.9989 25.0511 61.1087 24.7493C61.2184 24.4476 61.3715 24.1962 61.5681 23.9951C61.7647 23.7939 62.0001 23.6431 62.2744 23.5425C62.5487 23.4373 62.8504 23.3848 63.1795 23.3848C63.7692 23.3848 64.2355 23.5196 64.5784 23.7893C64.9258 24.0591 65.1429 24.4385 65.2298 24.9276L64.4069 25.0648C64.3384 24.7951 64.2081 24.5733 64.0161 24.3996C63.8241 24.2213 63.5452 24.1322 63.1795 24.1322C62.7407 24.1322 62.3978 24.2808 62.1509 24.5779C61.9087 24.8705 61.7875 25.2751 61.7875 25.7916C61.7875 26.2991 61.9109 26.7013 62.1578 26.9985C62.4047 27.2911 62.743 27.4373 63.1727 27.4373Z" fill="#222222"/>
<path d="M59.3535 28.1162V24.5779L57.0084 28.1162H56.1238V23.4534H56.9535V26.9642L59.2644 23.4534H60.1832V28.1162H59.3535Z" fill="#222222"/>
<path d="M49.321 29.0968V27.3345H49.7873C49.9336 27.2065 50.0548 27.0122 50.1508 26.7516C50.2513 26.4911 50.3062 26.2031 50.3153 25.8876C50.329 25.5585 50.3382 25.1882 50.3428 24.7768C50.3473 24.3653 50.3496 23.9242 50.3496 23.4533H53.6479V27.3345H54.2925V29.0968H53.4833V28.1162H50.1302V29.0968H49.321ZM51.1176 25.9425C51.1039 26.2168 51.065 26.4705 51.001 26.7036C50.9416 26.9368 50.8456 27.1471 50.713 27.3345H52.8113V24.2351H51.1588C51.1542 24.4911 51.1473 24.7768 51.1382 25.0922C51.1336 25.4076 51.1268 25.6911 51.1176 25.9425Z" fill="#222222"/>
<path d="M46.9746 28.1848C46.6363 28.1848 46.3255 28.1345 46.042 28.0339C45.7632 27.9288 45.5232 27.7756 45.322 27.5745C45.1209 27.3733 44.9632 27.1242 44.8489 26.8271C44.7392 26.5253 44.6843 26.1779 44.6843 25.7848C44.6843 25.4008 44.7392 25.0579 44.8489 24.7562C44.9632 24.4545 45.1209 24.2031 45.322 24.0019C45.5232 23.8008 45.7632 23.6476 46.042 23.5425C46.3255 23.4373 46.6363 23.3848 46.9746 23.3848C47.3175 23.3848 47.6306 23.4373 47.914 23.5425C48.1975 23.6476 48.4375 23.8008 48.634 24.0019C48.8352 24.2031 48.9906 24.4545 49.1003 24.7562C49.2146 25.0579 49.2718 25.4008 49.2718 25.7848C49.2718 26.1779 49.2146 26.5253 49.1003 26.8271C48.9906 27.1242 48.8352 27.3733 48.634 27.5745C48.4375 27.7756 48.1975 27.9288 47.914 28.0339C47.6306 28.1345 47.3175 28.1848 46.9746 28.1848ZM46.9746 27.4373C47.4363 27.4373 47.7929 27.2888 48.0443 26.9916C48.2958 26.6899 48.4215 26.2876 48.4215 25.7848C48.4215 25.2773 48.2958 24.8751 48.0443 24.5779C47.7929 24.2808 47.4363 24.1322 46.9746 24.1322C46.5175 24.1322 46.1609 24.2808 45.9049 24.5779C45.6535 24.8751 45.5278 25.2773 45.5278 25.7848C45.5278 26.2876 45.6535 26.6899 45.9049 26.9916C46.1609 27.2888 46.5175 27.4373 46.9746 27.4373Z" fill="#222222"/>
<path d="M40.4871 28.1162V23.4534H42.5373C43.0219 23.4534 43.3899 23.5608 43.6413 23.7757C43.8928 23.9905 44.0185 24.2991 44.0185 24.7014C44.0185 24.9345 43.9659 25.1471 43.8608 25.3391C43.7556 25.5265 43.5842 25.6614 43.3465 25.7437C43.6116 25.8077 43.8105 25.9357 43.9431 26.1277C44.0756 26.3151 44.1419 26.5437 44.1419 26.8134C44.1419 27.2385 44.0025 27.5631 43.7236 27.7871C43.4493 28.0065 43.0562 28.1162 42.5442 28.1162H40.4871ZM42.4208 24.1665H41.3168V25.4145H42.4208C42.7042 25.4145 42.9031 25.3597 43.0173 25.2499C43.1362 25.1357 43.1956 24.9802 43.1956 24.7837C43.1956 24.5779 43.1385 24.4248 43.0242 24.3242C42.9145 24.2191 42.7133 24.1665 42.4208 24.1665ZM42.4413 26.1071H41.3168V27.4031H42.4413C42.7431 27.4031 42.9625 27.3505 43.0996 27.2454C43.2413 27.1357 43.3122 26.9757 43.3122 26.7654C43.3122 26.5414 43.2436 26.3768 43.1065 26.2717C42.9739 26.1619 42.7522 26.1071 42.4413 26.1071Z" fill="#222222"/>
<path d="M38.1628 23.4534L39.9251 28.1162H39.0337L38.6017 26.9368H36.6268L36.2085 28.1162H35.3308L37.0794 23.4534H38.1628ZM36.9011 26.1825H38.3274L37.6074 24.2008L36.9011 26.1825Z" fill="#222222"/>
<path d="M33.2023 24.1322C32.8686 24.1322 32.608 24.2099 32.4206 24.3653C32.2332 24.5162 32.1052 24.7219 32.0366 24.9825L31.2138 24.8385C31.3052 24.3859 31.5178 24.0316 31.8515 23.7756C32.1898 23.5151 32.64 23.3848 33.2023 23.3848C33.7418 23.3848 34.1692 23.4991 34.4846 23.7276C34.8046 23.9516 34.9646 24.2831 34.9646 24.7219C34.9646 24.9825 34.9006 25.1996 34.7726 25.3733C34.6492 25.5471 34.464 25.6705 34.2172 25.7436C34.4823 25.8122 34.688 25.9333 34.8343 26.1071C34.9806 26.2762 35.0538 26.5048 35.0538 26.7928C35.0538 27.2225 34.896 27.5631 34.5806 27.8145C34.2652 28.0613 33.8012 28.1848 33.1886 28.1848C32.5989 28.1848 32.1326 28.0613 31.7898 27.8145C31.4469 27.5631 31.2412 27.1951 31.1726 26.7105L31.9955 26.5802C32.0412 26.8499 32.1623 27.0602 32.3589 27.2111C32.5555 27.3619 32.832 27.4373 33.1886 27.4373C33.5315 27.4373 33.7875 27.3756 33.9566 27.2522C34.1258 27.1288 34.2103 26.9551 34.2103 26.7311C34.2103 26.5299 34.1372 26.3768 33.9909 26.2716C33.8492 26.1665 33.6252 26.1139 33.3189 26.1139H32.6195V25.4008H33.3258C33.6138 25.4008 33.8195 25.3482 33.9429 25.2431C34.0663 25.1379 34.128 24.9893 34.128 24.7973C34.128 24.5916 34.048 24.4293 33.888 24.3105C33.7326 24.1916 33.504 24.1322 33.2023 24.1322Z" fill="#222222"/>
<path d="M0.678467 25.394L0.724689 17.2426L14.8546 2.90492L12.7992 0.864258L21.2961 0.864258L21.2264 8.86116L19.2182 6.85297L5.11632 20.9558L14.2723 30.1118L21.3283 23.0557V31.563L17.7753 35.1161L10.3722 35.0877L0.678467 25.394Z" fill="#222222"/>
<path d="M7.83862 21.0854L14.1598 14.7643L20.4809 21.0854L14.1598 27.4066L7.83862 21.0854Z" fill="#222222"/>
<path d="M0.726642 17.2426L0.68042 25.394L5.11828 20.9558L19.2202 6.85297L21.2283 8.86116L21.2981 0.864258L12.8012 0.864258L14.8565 2.90492L0.726642 17.2426Z" fill="#D70408"/>
</svg>
