<svg width="145" height="36" viewBox="0 0 145 36" fill="none" xmlns="http://www.w3.org/2000/svg"><path d="M133.932 13.43V.35h5.597c1.488 0 2.616.333 3.386 1 .782.667 1.173 1.725 1.173 3.174 0 1.397-.391 2.455-1.173 3.174-.783.718-1.918 1.077-3.405 1.077h-3.232v4.655h-2.346zm2.346-6.713h3.04c.846 0 1.461-.18 1.846-.54.385-.371.577-.91.577-1.615 0-.73-.192-1.27-.577-1.616-.385-.359-1-.538-1.846-.538h-3.04v4.309zm-10.32 6.905c-.949 0-1.821-.141-2.616-.423a5.621 5.621 0 01-2.02-1.289c-.564-.564-1.006-1.263-1.327-2.097-.308-.846-.462-1.82-.462-2.923 0-1.078.154-2.04.462-2.886.321-.846.763-1.551 1.327-2.116A5.623 5.623 0 01123.342.6c.795-.295 1.667-.443 2.616-.443.962 0 1.84.148 2.635.443a5.415 5.415 0 012.02 1.288c.564.565 1 1.27 1.308 2.116.32.847.481 1.808.481 2.886 0 1.102-.161 2.077-.481 2.923-.308.834-.744 1.533-1.308 2.097a5.414 5.414 0 01-2.02 1.289c-.795.282-1.673.423-2.635.423zm0-2.097c1.295 0 2.295-.416 3.001-1.25.705-.846 1.058-1.975 1.058-3.385 0-1.424-.353-2.552-1.058-3.386-.706-.833-1.706-1.25-3.001-1.25-1.282 0-2.283.417-3.001 1.25-.705.834-1.058 1.962-1.058 3.386 0 1.41.353 2.539 1.058 3.385.718.834 1.719 1.25 3.001 1.25zM108.43 13.43V.35h9.348v2.115h-7.002v3.097h3.29c1.5 0 2.628.302 3.385.904.769.603 1.154 1.61 1.154 3.02 0 1.36-.385 2.36-1.154 3.001-.757.629-1.879.943-3.366.943h-5.655zm5.501-5.829h-3.155v3.77h3.155c.821 0 1.411-.147 1.77-.442.372-.295.557-.77.557-1.423 0-.667-.185-1.148-.557-1.443-.359-.308-.949-.462-1.77-.462zm-9.943 5.829V3.504l-6.579 9.926h-2.481V.35h2.327v9.848L103.738.35h2.577v13.08h-2.327zm-20.533 0V.35h5.598c1.487 0 2.616.333 3.385 1 .782.667 1.173 1.725 1.173 3.174 0 1.397-.39 2.455-1.173 3.174-.782.718-1.917 1.077-3.405 1.077h-3.231v4.655h-2.347zm2.347-6.713h3.039c.846 0 1.462-.18 1.847-.54.384-.371.577-.91.577-1.615 0-.73-.193-1.27-.577-1.616-.385-.359-1-.538-1.847-.538h-3.04v4.309zM70.326 13.43V.35H81.33v13.08h-2.347V2.542h-6.31V13.43h-2.346z" fill="#141414"/><path d="M57.173 4.024c0 .884.237 1.526.712 1.923.474.398 1.211.596 2.212.596.513.013.98-.006 1.404-.057a15.42 15.42 0 001.308-.212V.37h2.347v13.08h-2.347V8.332c-.41.09-.891.173-1.443.25-.538.064-1.109.097-1.712.097-1.628 0-2.84-.347-3.635-1.04-.795-.704-1.193-1.82-1.193-3.346V.35h2.347v3.674zm-9.821 9.598c-.949 0-1.82-.141-2.616-.423a5.62 5.62 0 01-2.02-1.289c-.564-.564-1.006-1.263-1.327-2.097-.308-.846-.462-1.82-.462-2.923 0-1.078.154-2.04.462-2.886.32-.846.763-1.551 1.327-2.116A5.621 5.621 0 0144.736.6c.795-.295 1.667-.443 2.616-.443.962 0 1.84.148 2.635.443a5.41 5.41 0 012.02 1.288c.564.565 1 1.27 1.308 2.116.32.847.48 1.808.48 2.886 0 1.102-.16 2.077-.48 2.923-.308.834-.744 1.533-1.308 2.097a5.408 5.408 0 01-2.02 1.289c-.795.282-1.673.423-2.635.423zm0-2.097c1.295 0 2.296-.416 3-1.25.706-.846 1.059-1.975 1.059-3.385 0-1.424-.353-2.552-1.058-3.386-.706-.833-1.706-1.25-3-1.25-1.283 0-2.284.417-3.002 1.25-.705.834-1.058 1.962-1.058 3.386 0 1.41.353 2.539 1.058 3.385.718.834 1.719 1.25 3.001 1.25zM29.385 2.542V.35h11.599v2.192h-4.617V13.43h-2.346V2.542h-4.636z" fill="#D70408"/><path d="M87.032 32.592a3.887 3.887 0 01-.487 1.892 3.78 3.78 0 01-.528.755c-.201.229-.416.43-.644.604l-.398-.508a3.85 3.85 0 00.494-.521 3.252 3.252 0 00.678-1.378c.069-.27.103-.551.103-.844a3.75 3.75 0 00-.329-1.59 3.326 3.326 0 00-.926-1.2l.391-.515c.238.174.457.377.659.61.2.229.374.483.52.762a4.12 4.12 0 01.467 1.933zm-6.628 1.817v-4.663h3.923v4.663h-.837v-3.881h-2.25v3.881h-.836zm-1.788 0v-3.538l-2.345 3.538h-.884v-4.663h.83v3.511l2.31-3.51h.92v4.662h-.83zm-5.836-3.984c-.334 0-.595.078-.782.233a1.144 1.144 0 00-.384.617l-.823-.144c.092-.452.304-.806.638-1.062.338-.261.788-.391 1.35-.391.54 0 .968.114 1.283.343.32.224.48.555.48.994 0 .26-.064.478-.192.651-.123.174-.309.297-.555.37.265.07.47.19.617.364.146.17.22.398.22.686 0 .43-.159.77-.474 1.021-.315.247-.78.37-1.392.37-.59 0-1.056-.123-1.399-.37-.343-.251-.548-.619-.617-1.104l.823-.13c.046.27.167.48.363.631.197.15.473.226.83.226.343 0 .599-.061.768-.185a.608.608 0 00.254-.521.53.53 0 00-.22-.46c-.141-.105-.365-.157-.672-.157h-.7v-.713h.707c.288 0 .494-.053.617-.158.124-.105.185-.254.185-.446a.574.574 0 00-.24-.487c-.155-.118-.384-.178-.685-.178zm-4.503 2.112c0-.36.044-.701.13-1.021.088-.32.204-.615.35-.885.147-.27.32-.517.521-.74a4.54 4.54 0 01.659-.604l.398.508a3.61 3.61 0 00-.508.514 3.45 3.45 0 00-.404.63 3.712 3.712 0 00-.275.748c-.064.27-.096.553-.096.85 0 .572.112 1.1.336 1.584.229.48.537.885.926 1.214l-.39.508a4.056 4.056 0 01-1.522-2.283 4.142 4.142 0 01-.125-1.023zm-5.527 1.872v-4.663h2.05c.485 0 .853.108 1.104.322.252.215.377.524.377.926 0 .233-.052.446-.157.638a.896.896 0 01-.515.404c.266.064.464.192.597.384.133.188.199.416.199.686 0 .425-.14.75-.418.974-.275.22-.668.329-1.18.329H62.75zm1.934-3.95H63.58v1.248h1.104c.283 0 .482-.055.596-.164a.617.617 0 00.179-.467c0-.205-.058-.358-.172-.459-.11-.105-.31-.158-.603-.158zm.02 1.94H63.58v1.297h1.124c.302 0 .521-.053.659-.158.141-.11.212-.27.212-.48 0-.224-.068-.389-.206-.494-.132-.11-.354-.164-.665-.164zM59.7 34.478c-.338 0-.649-.05-.932-.151a2.003 2.003 0 01-.72-.46 2.111 2.111 0 01-.473-.747 3.042 3.042 0 01-.165-1.042c0-.384.055-.727.165-1.029a2.1 2.1 0 01.473-.754c.201-.201.441-.354.72-.46.283-.105.594-.157.932-.157.343 0 .656.052.94.157a1.949 1.949 0 011.186 1.214c.114.302.172.645.172 1.029 0 .393-.058.74-.172 1.042a2.04 2.04 0 01-.466.747 1.929 1.929 0 01-.72.46c-.284.1-.597.15-.94.15zm0-.748c.462 0 .819-.148 1.07-.445.252-.302.377-.704.377-1.207 0-.508-.125-.91-.377-1.207-.251-.297-.608-.446-1.07-.446-.457 0-.813.149-1.07.446-.25.297-.376.7-.376 1.207 0 .503.125.905.377 1.207.256.297.612.445 1.07.445zm-6.385.679v-4.663h1.995c.53 0 .932.119 1.207.357.279.237.418.614.418 1.131 0 .498-.14.875-.418 1.131-.28.256-.684.384-1.214.384h-1.152v1.66h-.837zm.836-2.393h1.083c.302 0 .522-.064.659-.192.137-.133.206-.325.206-.576 0-.26-.07-.453-.206-.576-.137-.128-.357-.192-.659-.192h-1.083v1.536zm-3.886 2.462c-.338 0-.65-.05-.933-.151a2.005 2.005 0 01-.72-.46 2.112 2.112 0 01-.473-.747 3.042 3.042 0 01-.164-1.042c0-.384.054-.727.164-1.029.114-.302.272-.553.473-.754.201-.201.441-.354.72-.46.284-.105.595-.157.933-.157.343 0 .656.052.94.157a1.949 1.949 0 011.186 1.214c.114.302.171.645.171 1.029 0 .393-.057.74-.171 1.042a2.03 2.03 0 01-.467.747 1.927 1.927 0 01-.72.46c-.283.1-.596.15-.94.15zm0-.748c.462 0 .818-.148 1.07-.445.251-.302.377-.704.377-1.207 0-.508-.126-.91-.377-1.207-.252-.297-.608-.446-1.07-.446-.457 0-.814.149-1.07.446-.251.297-.377.7-.377 1.207 0 .503.126.905.377 1.207.256.297.613.445 1.07.445zm-6.455.679v-4.663h3.333v.754h-2.496v1.104h1.173c.535 0 .937.108 1.206.323.275.215.412.573.412 1.076 0 .485-.137.841-.412 1.07-.27.224-.67.336-1.2.336H43.81zm1.962-2.078h-1.125v1.344h1.125c.292 0 .503-.052.63-.157.133-.106.2-.275.2-.508 0-.238-.067-.409-.2-.514-.127-.11-.338-.165-.63-.165zm-3.749 2.078v-3.538l-2.346 3.538h-.884v-4.663h.83v3.511l2.31-3.51h.92v4.662h-.83zm-7.527 0v-4.663h1.996c.53 0 .932.119 1.207.357.278.237.418.614.418 1.131 0 .498-.14.875-.418 1.131-.28.256-.684.384-1.214.384h-1.152v1.66h-.837zm.837-2.393h1.083c.302 0 .521-.064.659-.192.137-.133.205-.325.205-.576 0-.26-.068-.453-.206-.576-.137-.128-.356-.192-.658-.192h-1.083v1.536zm-5.722 2.393v-4.663h3.923v4.663h-.837v-3.881h-2.25v3.881h-.836zm84.821-7l-1.207-1.783-1.179 1.783h-1.001l1.673-2.414-1.605-2.249h1.029l1.145 1.673 1.104-1.673h1.001l-1.597 2.318 1.666 2.345h-1.029zm-4.729 0v-4.663h.837v4.663h-.837zm-2.283 0h-1.934v-4.663h.837v1.673h1.124c.526 0 .928.121 1.207.364.279.237.419.614.419 1.131 0 .49-.142.862-.426 1.118-.278.251-.688.377-1.227.377zm-.055-.74c.306 0 .528-.062.665-.186.137-.128.206-.32.206-.576 0-.247-.069-.432-.206-.555-.132-.128-.349-.192-.651-.192h-1.056v1.508h1.042zm-6.783.74v-4.663h.836v1.927h2.27v-1.927h.837v4.663h-.837v-1.961h-2.27v1.961h-.836zm-4.344-4.663h.837v1.673h1.166c.525 0 .928.121 1.206.364.28.237.419.614.419 1.131 0 .49-.142.862-.425 1.118-.28.251-.688.377-1.228.377h-1.975v-4.663zm1.92 3.922c.307 0 .528-.061.665-.185.138-.128.206-.32.206-.576 0-.247-.068-.432-.206-.555-.132-.128-.352-.192-.658-.192h-1.09v1.508h1.083zm-6.27-.857l.013-.637a38.5 38.5 0 00.007-.775c.005-.27.007-.547.007-.83.005-.288.007-.562.007-.823h3.36v4.663h-.837v-3.881h-1.707c0 .187-.002.388-.007.603 0 .21-.002.423-.007.638a27 27 0 01-.007.617l-.013.535c-.019.54-.137.923-.357 1.152-.22.224-.56.336-1.022.336h-.356v-.796h.233a.725.725 0 00.487-.157c.123-.105.19-.32.199-.645zm-4.608 1.598v-4.663h3.325v.74h-2.49V24.7h2.394v.72h-2.393v1.248h2.468v.741H87.28zm-4.682-3.881v-.782h4.135v.782h-1.646v3.881h-.837v-3.881h-1.652zm-1.362-.782L83 27.41h-.892l-.432-1.18H79.7l-.418 1.18h-.878l1.749-4.663h1.083zm-1.261 2.73H81.4l-.72-1.982-.706 1.981zm-5.305-1.948v-.782h4.135v.782h-1.646v3.881h-.837v-3.881H74.67zm-1.396 3.881v-4.663h.836v4.663h-.836zm-2.284 0h-1.933v-4.663h.836v1.673h1.125c.525 0 .928.121 1.207.364.279.237.418.614.418 1.131 0 .49-.142.862-.425 1.118-.28.251-.688.377-1.228.377zm-.054-.74c.306 0 .527-.062.665-.186.137-.128.205-.32.205-.576 0-.247-.068-.432-.205-.555-.133-.128-.35-.192-.652-.192h-1.056v1.508h1.043zm-6.764.74v-4.663h3.922v4.663h-.836v-3.881h-2.25v3.881h-.836zm-2.787-.679c.37 0 .654-.084.85-.253a1.21 1.21 0 00.391-.686l.823.137c-.096.503-.316.887-.658 1.152-.343.265-.812.398-1.406.398-.338 0-.645-.053-.919-.158a1.948 1.948 0 01-.706-.46 2.13 2.13 0 01-.446-.754 3.053 3.053 0 01-.158-1.021c0-.394.055-.741.165-1.043a2.08 2.08 0 01.46-.754c.196-.201.431-.352.706-.453a2.51 2.51 0 01.905-.157c.59 0 1.056.135 1.398.404.348.27.565.65.652 1.139l-.823.137a1.308 1.308 0 00-.39-.665c-.193-.179-.472-.268-.837-.268-.44 0-.782.149-1.029.446-.242.292-.363.697-.363 1.214 0 .507.123.91.37 1.206.247.293.585.44 1.015.44zm-3.819.679v-3.538l-2.346 3.538h-.884v-4.663h.83v3.511l2.31-3.51h.92v4.662h-.83zm-10.033.981v-1.763H48c.147-.128.268-.322.364-.583.1-.26.155-.548.165-.864.013-.329.022-.699.027-1.11.005-.412.007-.853.007-1.324h3.298v3.881h.645v1.763h-.81v-.981h-3.353v.98h-.809zm1.797-3.155a3.54 3.54 0 01-.117.761c-.06.234-.155.444-.288.631h2.099v-3.1H49.37a77.12 77.12 0 01-.02.858c-.005.315-.012.599-.021.85zm-4.143 2.243c-.338 0-.65-.05-.933-.151a2.003 2.003 0 01-.72-.46 2.111 2.111 0 01-.473-.747 3.04 3.04 0 01-.164-1.042c0-.384.054-.727.164-1.029a2.1 2.1 0 01.473-.754c.201-.201.441-.354.72-.46.284-.105.595-.157.933-.157.343 0 .656.052.94.157a1.949 1.949 0 011.185 1.214c.115.302.172.645.172 1.029 0 .393-.057.74-.172 1.042a2.04 2.04 0 01-.466.747 1.929 1.929 0 01-.72.46c-.283.1-.596.15-.94.15zm0-.748c.462 0 .818-.148 1.07-.445.25-.302.377-.704.377-1.207 0-.508-.126-.91-.377-1.207-.252-.297-.608-.446-1.07-.446-.457 0-.814.149-1.07.446-.251.297-.377.7-.377 1.207 0 .503.126.905.377 1.207.256.297.613.445 1.07.445zm-6.487.679v-4.663h2.05c.484 0 .852.108 1.103.322.252.215.378.524.378.926 0 .233-.053.446-.158.638a.896.896 0 01-.514.404c.265.064.464.192.596.384.133.188.2.416.2.686 0 .425-.14.75-.42.974-.274.22-.667.329-1.179.329H38.7zm1.933-3.95h-1.104v1.248h1.104c.283 0 .482-.055.596-.164a.616.616 0 00.179-.467c0-.205-.057-.358-.172-.459-.11-.105-.31-.158-.603-.158zm.02 1.94H39.53v1.297h1.124c.302 0 .522-.053.659-.158.142-.11.212-.27.212-.48 0-.224-.068-.389-.205-.494-.133-.11-.355-.164-.666-.164zm-4.278-2.653l1.762 4.663h-.891l-.432-1.18h-1.975l-.418 1.18h-.878l1.748-4.663h1.084zm-1.262 2.73h1.426l-.72-1.982-.706 1.981zm-3.698-2.051c-.334 0-.595.078-.782.233a1.133 1.133 0 00-.384.617l-.823-.144c.091-.452.304-.806.638-1.062.338-.261.788-.391 1.35-.391.54 0 .967.114 1.283.343.32.224.48.555.48.994 0 .26-.064.478-.192.651-.124.174-.309.297-.556.37.265.07.471.19.617.364.147.17.22.398.22.686 0 .43-.158.77-.473 1.021-.316.247-.78.37-1.392.37-.59 0-1.056-.123-1.4-.37-.342-.251-.548-.619-.616-1.104l.823-.13c.045.27.167.48.363.631.197.15.473.226.83.226.343 0 .599-.061.768-.185a.608.608 0 00.254-.521.53.53 0 00-.22-.46c-.142-.105-.366-.157-.672-.157h-.7v-.713h.707c.288 0 .494-.053.617-.158.123-.105.185-.254.185-.446a.574.574 0 00-.24-.487c-.155-.118-.384-.178-.686-.178z" fill="#141414"/><path d="M17.632 34.409H9.385L20.43 23.363v8.252l-2.798 2.794z" fill="#D70408"/><path d="M17.631 34.41H9.384L0 24.923v-8.23l17.631 17.715zM13.5 27.428l-6.592-6.593 6.593-6.594 6.59 6.594-6.59 6.593z" fill="#141414"/><path d="M20.43.35h-7.38l1.641 1.626L0 16.654v8.251L18.83 6.088l1.6 1.584V.35z" fill="#D70408"/></svg>4.409H42.0227Z" fill="#141414"/>
<path d="M34.4962 34.409V29.7461H36.4916C37.0219 29.7461 37.4242 29.865 37.6985 30.1027C37.9774 30.3404 38.1168 30.7175 38.1168 31.2341C38.1168 31.7324 37.9774 32.1095 37.6985 32.3655C37.4196 32.6215 37.0151 32.7495 36.4848 32.7495H35.3328V34.409H34.4962ZM35.3328 32.0158H36.4162C36.7179 32.0158 36.9374 31.9518 37.0745 31.8238C37.2116 31.6912 37.2802 31.4992 37.2802 31.2478C37.2802 30.9872 37.2116 30.7952 37.0745 30.6718C36.9374 30.5438 36.7179 30.4798 36.4162 30.4798H35.3328V32.0158Z" fill="#141414"/>
<path d="M29.6113 34.409V29.7461H33.5336V34.409H32.697V30.5278H30.4479V34.409H29.6113Z" fill="#141414"/>
<path d="M114.432 27.409L113.225 25.6261L112.046 27.409H111.045L112.718 24.9952L111.113 22.7461H112.142L113.287 24.4192L114.391 22.7461H115.392L113.795 25.0638L115.461 27.409H114.432Z" fill="#141414"/>
<path d="M109.703 27.409V22.7461H110.54V27.409H109.703ZM107.42 27.409H105.486V22.7461H106.323V24.4192H107.447C107.973 24.4192 108.375 24.5404 108.654 24.7827C108.933 25.0204 109.073 25.3975 109.073 25.9141C109.073 26.4032 108.931 26.7758 108.647 27.0318C108.369 27.2832 107.959 27.409 107.42 27.409ZM107.365 26.6684C107.671 26.6684 107.893 26.6067 108.03 26.4832C108.167 26.3552 108.236 26.1632 108.236 25.9072C108.236 25.6604 108.167 25.4752 108.03 25.3518C107.898 25.2238 107.681 25.1598 107.379 25.1598H106.323V26.6684H107.365Z" fill="#141414"/>
<path d="M100.582 27.409V22.7461H101.418V24.673H103.688V22.7461H104.525V27.409H103.688V25.4478H101.418V27.409H100.582Z" fill="#141414"/>
<path d="M96.2383 22.7461H97.0749V24.4192H98.2406C98.7663 24.4192 99.1686 24.5404 99.4474 24.7827C99.7263 25.0204 99.8657 25.3975 99.8657 25.9141C99.8657 26.4032 99.724 26.7758 99.4406 27.0318C99.1617 27.2832 98.7526 27.409 98.2131 27.409H96.2383V22.7461ZM98.1583 26.6684C98.4646 26.6684 98.6863 26.6067 98.8234 26.4832C98.9606 26.3552 99.0291 26.1632 99.0291 25.9072C99.0291 25.6604 98.9606 25.4752 98.8234 25.3518C98.6909 25.2238 98.4714 25.1598 98.1651 25.1598H97.0749V26.6684H98.1583Z" fill="#141414"/>
<path d="M91.8876 25.8112C91.8922 25.6284 91.8968 25.4158 91.9013 25.1735C91.9059 24.9267 91.9082 24.6684 91.9082 24.3987C91.9128 24.129 91.915 23.8524 91.915 23.569C91.9196 23.281 91.9219 23.0067 91.9219 22.7461H95.2819V27.409H94.4453V23.5278H92.7379C92.7379 23.7152 92.7356 23.9164 92.731 24.1312C92.731 24.3415 92.7287 24.5541 92.7242 24.769C92.7242 24.9792 92.7219 25.185 92.7173 25.3861C92.7128 25.5827 92.7082 25.761 92.7036 25.921C92.6853 26.4604 92.5665 26.8444 92.347 27.073C92.1276 27.297 91.787 27.409 91.3253 27.409H90.9688V26.6135H91.2019C91.403 26.6135 91.5653 26.561 91.6888 26.4558C91.8122 26.3507 91.8785 26.1358 91.8876 25.8112Z" fill="#141414"/>
<path d="M87.2791 27.409V22.7461H90.6048V23.4867H88.1156V24.7004H90.5088V25.4204H88.1156V26.6684H90.5842V27.409H87.2791Z" fill="#141414"/>
<path d="M82.5977 23.5278V22.7461H86.7325V23.5278H85.0868V27.409H84.2502V23.5278H82.5977Z" fill="#141414"/>
<path d="M81.2363 22.7461L82.9986 27.409H82.1072L81.6752 26.2295H79.7003L79.282 27.409H78.4043L80.1529 22.7461H81.2363ZM79.9746 25.4752H81.4009L80.6809 23.4935L79.9746 25.4752Z" fill="#141414"/>
<path d="M74.6697 23.5278V22.7461H78.8045V23.5278H77.1588V27.409H76.3223V23.5278H74.6697Z" fill="#141414"/>
<path d="M73.2738 27.409V22.7461H74.1104V27.409H73.2738ZM70.9904 27.409H69.0566V22.7461H69.8932V24.4192H71.0178C71.5435 24.4192 71.9458 24.5404 72.2246 24.7827C72.5035 25.0204 72.6429 25.3975 72.6429 25.9141C72.6429 26.4032 72.5012 26.7758 72.2178 27.0318C71.9389 27.2832 71.5298 27.409 70.9904 27.409ZM70.9355 26.6684C71.2418 26.6684 71.4635 26.6067 71.6006 26.4832C71.7378 26.3552 71.8064 26.1632 71.8064 25.9072C71.8064 25.6604 71.7378 25.4752 71.6006 25.3518C71.4681 25.2238 71.2509 25.1598 70.9492 25.1598H69.8932V26.6684H70.9355Z" fill="#141414"/>
<path d="M64.1719 27.409V22.7461H68.0942V27.409H67.2576V23.5278H65.0084V27.409H64.1719Z" fill="#141414"/>
<path d="M61.3848 26.7303C61.7551 26.7303 62.0385 26.6457 62.2351 26.4766C62.4363 26.3029 62.5665 26.0743 62.626 25.7909L63.4488 25.928C63.3528 26.4309 63.1334 26.8149 62.7905 27.08C62.4477 27.3452 61.9791 27.4777 61.3848 27.4777C61.0465 27.4777 60.7403 27.4252 60.466 27.32C60.1917 27.2149 59.9562 27.0617 59.7597 26.8606C59.5677 26.6549 59.4191 26.4034 59.314 26.1063C59.2088 25.8092 59.1562 25.4686 59.1562 25.0846C59.1562 24.6914 59.2111 24.344 59.3208 24.0423C59.4305 23.7406 59.5837 23.4892 59.7803 23.288C59.9768 23.0869 60.2123 22.936 60.4865 22.8354C60.7608 22.7303 61.0625 22.6777 61.3917 22.6777C61.9814 22.6777 62.4477 22.8126 62.7905 23.0823C63.138 23.352 63.3551 23.7314 63.442 24.2206L62.6191 24.3577C62.5505 24.088 62.4202 23.8663 62.2282 23.6926C62.0362 23.5143 61.7574 23.4252 61.3917 23.4252C60.9528 23.4252 60.61 23.5737 60.3631 23.8709C60.1208 24.1634 59.9997 24.568 59.9997 25.0846C59.9997 25.592 60.1231 25.9943 60.37 26.2914C60.6168 26.584 60.9551 26.7303 61.3848 26.7303Z" fill="#141414"/>
<path d="M57.5657 27.409V23.8707L55.2205 27.409H54.3359V22.7461H55.1657V26.257L57.4765 22.7461H58.3954V27.409H57.5657Z" fill="#141414"/>
<path d="M47.5332 28.3895V26.6272H47.9995C48.1458 26.4992 48.2669 26.305 48.3629 26.0444C48.4635 25.7838 48.5183 25.4958 48.5275 25.1804C48.5412 24.8512 48.5503 24.481 48.5549 24.0695C48.5595 23.6581 48.5618 23.217 48.5618 22.7461H51.8601V26.6272H52.5046V28.3895H51.6955V27.409H48.3423V28.3895H47.5332ZM49.3298 25.2352C49.3161 25.5095 49.2772 25.7632 49.2132 25.9964C49.1538 26.2295 49.0578 26.4398 48.9252 26.6272H51.0235V23.5278H49.3709C49.3663 23.7838 49.3595 24.0695 49.3503 24.385C49.3458 24.7004 49.3389 24.9838 49.3298 25.2352Z" fill="#141414"/>
<path d="M45.1868 27.4777C44.8485 27.4777 44.5376 27.4274 44.2542 27.3269C43.9753 27.2217 43.7353 27.0686 43.5342 26.8674C43.3331 26.6663 43.1753 26.4172 43.0611 26.12C42.9513 25.8183 42.8965 25.4709 42.8965 25.0777C42.8965 24.6937 42.9513 24.3509 43.0611 24.0492C43.1753 23.7474 43.3331 23.496 43.5342 23.2949C43.7353 23.0937 43.9753 22.9406 44.2542 22.8354C44.5376 22.7303 44.8485 22.6777 45.1868 22.6777C45.5296 22.6777 45.8428 22.7303 46.1262 22.8354C46.4096 22.9406 46.6496 23.0937 46.8462 23.2949C47.0473 23.496 47.2028 23.7474 47.3125 24.0492C47.4268 24.3509 47.4839 24.6937 47.4839 25.0777C47.4839 25.4709 47.4268 25.8183 47.3125 26.12C47.2028 26.4172 47.0473 26.6663 46.8462 26.8674C46.6496 27.0686 46.4096 27.2217 46.1262 27.3269C45.8428 27.4274 45.5296 27.4777 45.1868 27.4777ZM45.1868 26.7303C45.6485 26.7303 46.0051 26.5817 46.2565 26.2846C46.5079 25.9829 46.6336 25.5806 46.6336 25.0777C46.6336 24.5703 46.5079 24.168 46.2565 23.8709C46.0051 23.5737 45.6485 23.4252 45.1868 23.4252C44.7296 23.4252 44.3731 23.5737 44.1171 23.8709C43.8656 24.168 43.7399 24.5703 43.7399 25.0777C43.7399 25.5806 43.8656 25.9829 44.1171 26.2846C44.3731 26.5817 44.7296 26.7303 45.1868 26.7303Z" fill="#141414"/>
<path d="M38.6992 27.409V22.7461H40.7495C41.2341 22.7461 41.6021 22.8535 41.8535 23.0684C42.1049 23.2832 42.2306 23.5918 42.2306 23.9941C42.2306 24.2272 42.1781 24.4398 42.0729 24.6318C41.9678 24.8192 41.7964 24.9541 41.5586 25.0364C41.8238 25.1004 42.0226 25.2284 42.1552 25.4204C42.2878 25.6078 42.3541 25.8364 42.3541 26.1061C42.3541 26.5312 42.2146 26.8558 41.9358 27.0798C41.6615 27.2992 41.2684 27.409 40.7564 27.409H38.6992ZM40.6329 23.4592H39.5289V24.7072H40.6329C40.9164 24.7072 41.1152 24.6524 41.2295 24.5427C41.3484 24.4284 41.4078 24.273 41.4078 24.0764C41.4078 23.8707 41.3506 23.7175 41.2364 23.617C41.1266 23.5118 40.9255 23.4592 40.6329 23.4592ZM40.6535 25.3998H39.5289V26.6958H40.6535C40.9552 26.6958 41.1746 26.6432 41.3118 26.5381C41.4535 26.4284 41.5244 26.2684 41.5244 26.0581C41.5244 25.8341 41.4558 25.6695 41.3186 25.5644C41.1861 25.4547 40.9644 25.3998 40.6535 25.3998Z" fill="#141414"/>
<path d="M36.375 22.7461L38.1373 27.409H37.2458L36.8138 26.2295H34.839L34.4207 27.409H33.543L35.2915 22.7461H36.375ZM35.1133 25.4752H36.5395L35.8195 23.4935L35.1133 25.4752Z" fill="#141414"/>
<path d="M31.4145 23.4252C31.0808 23.4252 30.8202 23.5029 30.6328 23.6583C30.4453 23.8092 30.3173 24.0149 30.2488 24.2754L29.4259 24.1314C29.5173 23.6789 29.7299 23.3246 30.0636 23.0686C30.4019 22.808 30.8522 22.6777 31.4145 22.6777C31.9539 22.6777 32.3813 22.792 32.6968 23.0206C33.0168 23.2446 33.1768 23.576 33.1768 24.0149C33.1768 24.2754 33.1128 24.4926 32.9848 24.6663C32.8613 24.84 32.6762 24.9634 32.4293 25.0366C32.6945 25.1052 32.9002 25.2263 33.0465 25.4C33.1928 25.5692 33.2659 25.7977 33.2659 26.0857C33.2659 26.5154 33.1082 26.856 32.7928 27.1074C32.4773 27.3543 32.0133 27.4777 31.4008 27.4777C30.8111 27.4777 30.3448 27.3543 30.0019 27.1074C29.6591 26.856 29.4533 26.488 29.3848 26.0034L30.2076 25.8732C30.2533 26.1429 30.3745 26.3532 30.5711 26.504C30.7676 26.6549 31.0442 26.7303 31.4008 26.7303C31.7436 26.7303 31.9996 26.6686 32.1688 26.5452C32.3379 26.4217 32.4225 26.248 32.4225 26.024C32.4225 25.8229 32.3493 25.6697 32.2031 25.5646C32.0613 25.4594 31.8373 25.4069 31.5311 25.4069H30.8316V24.6937H31.5379C31.8259 24.6937 32.0316 24.6412 32.1551 24.536C32.2785 24.4309 32.3402 24.2823 32.3402 24.0903C32.3402 23.8846 32.2602 23.7223 32.1002 23.6034C31.9448 23.4846 31.7162 23.4252 31.4145 23.4252Z" fill="#141414"/>
<path d="M17.6317 34.4089H9.38489L20.4305 23.3633V31.6146L17.6317 34.4089Z" fill="#D70408"/>
<path d="M17.6312 34.4092H9.38437L0.000244141 24.9244V16.6938L17.6312 34.4092Z" fill="#141414"/>
<path d="M13.5006 27.4281L6.90784 20.8354L13.5006 14.2412L20.0918 20.8354L13.5006 27.4281Z" fill="#141414"/>
<path d="M20.4298 0.349609H13.0492L14.6915 1.97558L0 16.6537V24.905L18.8305 6.08789L20.4298 7.67239V0.349609Z" fill="#D70408"/>
</svg>
