<svg width="1401" height="24" viewBox="0 0 1401 24" fill="none" xmlns="http://www.w3.org/2000/svg">
<line x1="0.5" y1="2.18558e-08" x2="0.499999" y2="24" stroke="#C8C8C8"/>
<line x1="12.4658" y1="6" x2="12.4658" y2="18" stroke="#C8C8C8"/>
<line x1="24.4316" y1="6" x2="24.4316" y2="18" stroke="#C8C8C8"/>
<line x1="36.3975" y1="6" x2="36.3975" y2="18" stroke="#C8C8C8"/>
<line x1="48.3633" y1="6" x2="48.3633" y2="18" stroke="#C8C8C8"/>
<line x1="60.3291" y1="6" x2="60.3291" y2="18" stroke="#C8C8C8"/>
<line x1="72.2949" y1="6" x2="72.2949" y2="18" stroke="#C8C8C8"/>
<line x1="84.2607" y1="6" x2="84.2607" y2="18" stroke="#C8C8C8"/>
<line x1="96.2266" y1="6" x2="96.2266" y2="18" stroke="#C8C8C8"/>
<line x1="108.192" y1="6" x2="108.192" y2="18" stroke="#C8C8C8"/>
<line x1="120.158" y1="6" x2="120.158" y2="18" stroke="#C8C8C8"/>
<line x1="132.124" y1="6" x2="132.124" y2="18" stroke="#C8C8C8"/>
<line x1="144.09" y1="6" x2="144.09" y2="18" stroke="#C8C8C8"/>
<line x1="156.056" y1="6" x2="156.056" y2="18" stroke="#C8C8C8"/>
<line x1="168.021" y1="6" x2="168.021" y2="18" stroke="#C8C8C8"/>
<line x1="179.987" y1="6" x2="179.987" y2="18" stroke="#C8C8C8"/>
<line x1="191.953" y1="6" x2="191.953" y2="18" stroke="#C8C8C8"/>
<line x1="203.919" y1="6" x2="203.919" y2="18" stroke="#C8C8C8"/>
<line x1="215.885" y1="6" x2="215.885" y2="18" stroke="#C8C8C8"/>
<line x1="227.85" y1="2.18558e-08" x2="227.85" y2="24" stroke="#C8C8C8"/>
<line x1="239.816" y1="6" x2="239.816" y2="18" stroke="#C8C8C8"/>
<line x1="251.782" y1="6" x2="251.782" y2="18" stroke="#C8C8C8"/>
<line x1="263.748" y1="6" x2="263.748" y2="18" stroke="#C8C8C8"/>
<line x1="275.714" y1="6" x2="275.714" y2="18" stroke="#C8C8C8"/>
<line x1="287.679" y1="6" x2="287.679" y2="18" stroke="#C8C8C8"/>
<line x1="299.645" y1="6" x2="299.645" y2="18" stroke="#C8C8C8"/>
<line x1="311.611" y1="6" x2="311.611" y2="18" stroke="#C8C8C8"/>
<line x1="323.577" y1="6" x2="323.577" y2="18" stroke="#C8C8C8"/>
<line x1="335.543" y1="6" x2="335.543" y2="18" stroke="#C8C8C8"/>
<line x1="347.509" y1="6" x2="347.509" y2="18" stroke="#C8C8C8"/>
<line x1="359.474" y1="6" x2="359.474" y2="18" stroke="#C8C8C8"/>
<line x1="371.44" y1="6" x2="371.44" y2="18" stroke="#C8C8C8"/>
<line x1="383.406" y1="6" x2="383.406" y2="18" stroke="#C8C8C8"/>
<line x1="395.372" y1="6" x2="395.372" y2="18" stroke="#C8C8C8"/>
<line x1="407.338" y1="6" x2="407.338" y2="18" stroke="#C8C8C8"/>
<line x1="419.303" y1="6" x2="419.303" y2="18" stroke="#C8C8C8"/>
<line x1="431.269" y1="6" x2="431.269" y2="18" stroke="#C8C8C8"/>
<line x1="443.235" y1="6" x2="443.235" y2="18" stroke="#C8C8C8"/>
<line x1="455.201" y1="6" x2="455.201" y2="18" stroke="#C8C8C8"/>
<line x1="467.167" y1="2.18558e-08" x2="467.167" y2="24" stroke="#C8C8C8"/>
<line x1="479.133" y1="6" x2="479.133" y2="18" stroke="#C8C8C8"/>
<line x1="491.098" y1="6" x2="491.098" y2="18" stroke="#C8C8C8"/>
<line x1="503.064" y1="6" x2="503.064" y2="18" stroke="#C8C8C8"/>
<line x1="515.03" y1="6" x2="515.03" y2="18" stroke="#C8C8C8"/>
<line x1="526.996" y1="6" x2="526.996" y2="18" stroke="#C8C8C8"/>
<line x1="538.962" y1="6" x2="538.962" y2="18" stroke="#C8C8C8"/>
<line x1="550.927" y1="6" x2="550.927" y2="18" stroke="#C8C8C8"/>
<line x1="562.893" y1="6" x2="562.893" y2="18" stroke="#C8C8C8"/>
<line x1="574.859" y1="6" x2="574.859" y2="18" stroke="#C8C8C8"/>
<line x1="586.825" y1="6" x2="586.825" y2="18" stroke="#C8C8C8"/>
<line x1="598.791" y1="6" x2="598.791" y2="18" stroke="#C8C8C8"/>
<line x1="610.757" y1="6" x2="610.757" y2="18" stroke="#C8C8C8"/>
<line x1="622.722" y1="6" x2="622.722" y2="18" stroke="#C8C8C8"/>
<line x1="634.688" y1="6" x2="634.688" y2="18" stroke="#C8C8C8"/>
<line x1="646.654" y1="6" x2="646.654" y2="18" stroke="#C8C8C8"/>
<line x1="658.62" y1="6" x2="658.62" y2="18" stroke="#C8C8C8"/>
<line x1="670.586" y1="6" x2="670.586" y2="18" stroke="#C8C8C8"/>
<line x1="682.552" y1="6" x2="682.552" y2="18" stroke="#C8C8C8"/>
<line x1="694.518" y1="6" x2="694.518" y2="18" stroke="#C8C8C8"/>
<line x1="706.483" y1="2.18558e-08" x2="706.483" y2="24" stroke="#C8C8C8"/>
<line x1="718.449" y1="6" x2="718.449" y2="18" stroke="#C8C8C8"/>
<line x1="730.415" y1="6" x2="730.415" y2="18" stroke="#C8C8C8"/>
<line x1="742.381" y1="6" x2="742.381" y2="18" stroke="#C8C8C8"/>
<line x1="754.347" y1="6" x2="754.347" y2="18" stroke="#C8C8C8"/>
<line x1="766.312" y1="6" x2="766.312" y2="18" stroke="#C8C8C8"/>
<line x1="778.278" y1="6" x2="778.278" y2="18" stroke="#C8C8C8"/>
<line x1="790.244" y1="6" x2="790.244" y2="18" stroke="#C8C8C8"/>
<line x1="802.21" y1="6" x2="802.21" y2="18" stroke="#C8C8C8"/>
<line x1="814.176" y1="6" x2="814.176" y2="18" stroke="#C8C8C8"/>
<line x1="826.142" y1="6" x2="826.142" y2="18" stroke="#C8C8C8"/>
<line x1="838.107" y1="6" x2="838.107" y2="18" stroke="#C8C8C8"/>
<line x1="850.073" y1="6" x2="850.073" y2="18" stroke="#C8C8C8"/>
<line x1="862.039" y1="6" x2="862.039" y2="18" stroke="#C8C8C8"/>
<line x1="874.005" y1="6" x2="874.005" y2="18" stroke="#C8C8C8"/>
<line x1="885.971" y1="6" x2="885.971" y2="18" stroke="#C8C8C8"/>
<line x1="897.937" y1="6" x2="897.937" y2="18" stroke="#C8C8C8"/>
<line x1="909.902" y1="6" x2="909.902" y2="18" stroke="#C8C8C8"/>
<line x1="921.868" y1="6" x2="921.868" y2="18" stroke="#C8C8C8"/>
<line x1="933.834" y1="6" x2="933.834" y2="18" stroke="#C8C8C8"/>
<line x1="945.8" y1="2.18558e-08" x2="945.8" y2="24" stroke="#C8C8C8"/>
<line x1="957.766" y1="6" x2="957.766" y2="18" stroke="#C8C8C8"/>
<line x1="969.731" y1="6" x2="969.731" y2="18" stroke="#C8C8C8"/>
<line x1="981.697" y1="6" x2="981.697" y2="18" stroke="#C8C8C8"/>
<line x1="993.663" y1="6" x2="993.663" y2="18" stroke="#C8C8C8"/>
<line x1="1005.63" y1="6" x2="1005.63" y2="18" stroke="#C8C8C8"/>
<line x1="1017.59" y1="6" x2="1017.59" y2="18" stroke="#C8C8C8"/>
<line x1="1029.56" y1="6" x2="1029.56" y2="18" stroke="#C8C8C8"/>
<line x1="1041.53" y1="6" x2="1041.53" y2="18" stroke="#C8C8C8"/>
<line x1="1053.49" y1="6" x2="1053.49" y2="18" stroke="#C8C8C8"/>
<line x1="1065.46" y1="6" x2="1065.46" y2="18" stroke="#C8C8C8"/>
<line x1="1077.42" y1="6" x2="1077.42" y2="18" stroke="#C8C8C8"/>
<line x1="1089.39" y1="6" x2="1089.39" y2="18" stroke="#C8C8C8"/>
<line x1="1101.36" y1="6" x2="1101.36" y2="18" stroke="#C8C8C8"/>
<line x1="1113.32" y1="6" x2="1113.32" y2="18" stroke="#C8C8C8"/>
<line x1="1125.29" y1="6" x2="1125.29" y2="18" stroke="#C8C8C8"/>
<line x1="1137.25" y1="6" x2="1137.25" y2="18" stroke="#C8C8C8"/>
<line x1="1149.22" y1="6" x2="1149.22" y2="18" stroke="#C8C8C8"/>
<line x1="1161.18" y1="6" x2="1161.18" y2="18" stroke="#C8C8C8"/>
<line x1="1173.15" y1="2.18558e-08" x2="1173.15" y2="24" stroke="#C8C8C8"/>
<line x1="1185.12" y1="6" x2="1185.12" y2="18" stroke="#C8C8C8"/>
<line x1="1197.08" y1="6" x2="1197.08" y2="18" stroke="#C8C8C8"/>
<line x1="1209.05" y1="6" x2="1209.05" y2="18" stroke="#C8C8C8"/>
<line x1="1221.01" y1="6" x2="1221.01" y2="18" stroke="#C8C8C8"/>
<line x1="1232.98" y1="6" x2="1232.98" y2="18" stroke="#C8C8C8"/>
<line x1="1244.95" y1="6" x2="1244.95" y2="18" stroke="#C8C8C8"/>
<line x1="1256.91" y1="6" x2="1256.91" y2="18" stroke="#C8C8C8"/>
<line x1="1268.88" y1="6" x2="1268.88" y2="18" stroke="#C8C8C8"/>
<line x1="1280.84" y1="6" x2="1280.84" y2="18" stroke="#C8C8C8"/>
<line x1="1292.81" y1="6" x2="1292.81" y2="18" stroke="#C8C8C8"/>
<line x1="1304.77" y1="6" x2="1304.77" y2="18" stroke="#C8C8C8"/>
<line x1="1316.74" y1="6" x2="1316.74" y2="18" stroke="#C8C8C8"/>
<line x1="1328.71" y1="6" x2="1328.71" y2="18" stroke="#C8C8C8"/>
<line x1="1340.67" y1="6" x2="1340.67" y2="18" stroke="#C8C8C8"/>
<line x1="1352.64" y1="6" x2="1352.64" y2="18" stroke="#C8C8C8"/>
<line x1="1364.6" y1="6" x2="1364.6" y2="18" stroke="#C8C8C8"/>
<line x1="1376.57" y1="6" x2="1376.57" y2="18" stroke="#C8C8C8"/>
<line x1="1388.54" y1="6" x2="1388.54" y2="18" stroke="#C8C8C8"/>
<line x1="1400.5" y1="2.18558e-08" x2="1400.5" y2="24" stroke="#C8C8C8"/>
</svg>
