<svg width="120" height="43" viewBox="0 0 120 43" fill="none" xmlns="http://www.w3.org/2000/svg"><g clip-path="url(#clip0_2986_18204)"><path d="M24.52 24.564a4.404 4.404 0 01-2.2 1.346 4.336 4.336 0 01-2.562-.127 4.428 4.428 0 01-2.061-1.558 4.58 4.58 0 01-.246-5.002 4.453 4.453 0 011.898-1.76 4.341 4.341 0 012.537-.388c.864.13 1.672.517 2.32 1.115a4.5 4.5 0 011.033 1.412 4.579 4.579 0 01-.72 4.962z" fill="url(#paint0_radial_2986_18204)"/><path d="M24.52 24.564a4.404 4.404 0 01-2.2 1.346 4.336 4.336 0 01-2.562-.127 4.428 4.428 0 01-2.061-1.558 4.58 4.58 0 01-.246-5.002 4.453 4.453 0 011.898-1.76 4.341 4.341 0 012.537-.388c.864.13 1.672.517 2.32 1.115a4.5 4.5 0 011.033 1.412 4.579 4.579 0 01-.72 4.962z" fill="#1D1D1D"/><path d="M22.398 6.088c.366.373.712.752 1.018 1.132a17.79 17.79 0 012.612 4.303c1.047.199 2.114.275 3.179.226h.359a12.023 12.023 0 007.644-3.756l.268-.28a21.65 21.65 0 00-1.267-1.432C32.617 2.625 27.852.412 22.79.045A20.841 20.841 0 008.637 4.283c6.463-3.21 10.947-1 13.761 1.805z" fill="url(#paint1_linear_2986_18204)"/><path d="M22.398 6.088c.366.373.712.752 1.018 1.132a17.79 17.79 0 012.612 4.303c1.047.199 2.114.275 3.179.226h.359a12.023 12.023 0 007.644-3.756l.268-.28a21.65 21.65 0 00-1.267-1.432C32.617 2.625 27.852.412 22.79.045A20.841 20.841 0 008.637 4.283c6.463-3.21 10.947-1 13.761 1.805z" fill="#323232"/><path d="M7.436 27.974c.13-.513.28-1.006.444-1.465a18.002 18.002 0 012.35-4.456 14.105 14.105 0 00-1.397-2.918l-.105-.166-.098-.14a12.1 12.1 0 00-6.952-4.842l-.372-.113c-.216.6-.412 1.205-.581 1.831a21.965 21.965 0 001.408 14.977c2.216 4.658 6 8.347 10.662 10.393-5.973-4.13-6.345-9.218-5.36-13.101z" fill="url(#paint2_linear_2986_18204)"/><path d="M7.436 27.974c.13-.513.28-1.006.444-1.465a18.002 18.002 0 012.35-4.456 14.105 14.105 0 00-1.397-2.918l-.105-.166-.098-.14a12.1 12.1 0 00-6.952-4.842l-.372-.113c-.216.6-.412 1.205-.581 1.831a21.965 21.965 0 001.408 14.977c2.216 4.658 6 8.347 10.662 10.393-5.973-4.13-6.345-9.218-5.36-13.101z" fill="#323232"/><path d="M33.555 30.285c-.503.14-1 .253-1.476.34a17.107 17.107 0 01-4.954.146 13.99 13.99 0 00-1.776 2.665c0 .06-.059.113-.085.173-.027.052-.05.105-.072.16a12.546 12.546 0 00-.653 8.578c0 .127.072.253.111.38a22.87 22.87 0 001.848-.4c4.892-1.35 9.145-4.448 11.987-8.729a21.92 21.92 0 003.498-14.596c-.523 7.347-4.655 10.21-8.428 11.283z" fill="url(#paint3_linear_2986_18204)"/><path d="M33.555 30.285c-.503.14-1 .253-1.476.34a17.107 17.107 0 01-4.954.146 13.99 13.99 0 00-1.776 2.665c0 .06-.059.113-.085.173-.027.052-.05.105-.072.16a12.546 12.546 0 00-.653 8.578c0 .127.072.253.111.38a22.87 22.87 0 001.848-.4c4.892-1.35 9.145-4.448 11.987-8.729a21.92 21.92 0 003.498-14.596c-.523 7.347-4.655 10.21-8.428 11.283z" fill="#323232"/><path d="M8.604 4.283a20.328 20.328 0 00-6.979 8.812 12.53 12.53 0 015.846 3.037 12.904 12.904 0 013.562 5.621c.58-.38 2.37-1.825 3.57-5.794 1.456-4.803 4.211-8.346 7.795-9.891 0 .02-4.537-6.568-13.794-1.785z" fill="url(#paint4_linear_2986_18204)"/><path d="M8.604 4.283a20.328 20.328 0 00-6.979 8.812 12.53 12.53 0 015.846 3.037 12.904 12.904 0 013.562 5.621c.58-.38 2.37-1.825 3.57-5.794 1.456-4.803 4.211-8.346 7.795-9.891 0 .02-4.537-6.568-13.794-1.785z" fill="#1D1D1D"/><path d="M23.136 38.857a12.994 12.994 0 013.31-8.692l.032-.046c-.437-.473-1.958-1.632-5.875-.726-4.772 1.112-10.073.985-13.167-1.419 0 0-3.33 7.326 5.36 13.088a19.61 19.61 0 0010.953 1.765 12.516 12.516 0 01-.613-3.97z" fill="url(#paint5_linear_2986_18204)"/><path d="M23.136 38.857a12.994 12.994 0 013.31-8.692l.032-.046c-.437-.473-1.958-1.632-5.875-.726-4.772 1.112-10.073.985-13.167-1.419 0 0-3.33 7.326 5.36 13.088a19.61 19.61 0 0010.953 1.765 12.516 12.516 0 01-.613-3.97z" fill="#1D1D1D"/><path d="M37.994 8.432a12.503 12.503 0 01-4.219 3.187 12.274 12.274 0 01-5.13 1.136 13.448 13.448 0 01-2.774-.3h-.046c-.183.666-.326 2.564 2.318 5.468 3.349 3.69 5.875 8.433 5.411 12.369 0 0 7.834-.713 8.428-11.283a20.638 20.638 0 00-3.988-10.577z" fill="url(#paint6_linear_2986_18204)"/><path d="M37.994 8.432a12.503 12.503 0 01-4.219 3.187 12.274 12.274 0 01-5.13 1.136 13.448 13.448 0 01-2.774-.3h-.046c-.183.666-.326 2.564 2.318 5.468 3.349 3.69 5.875 8.433 5.411 12.369 0 0 7.834-.713 8.428-11.283a20.638 20.638 0 00-3.988-10.577zm13.735 18.57h-2.2V16.538h3.531c2.612 0 4.205 1.092 4.205 3.497 0 2.404-1.672 3.696-4.387 3.696h-1.15v3.27zm-.046-5.249h1.195c1.305 0 2.108-.52 2.108-1.625 0-1.106-.737-1.612-2.108-1.612h-1.195v3.237zm7.181.02c0-3.517 2.096-5.415 4.922-5.415 3.166 0 5 2.052 5 5.415 0 3.723-2.127 5.408-4.941 5.408-2.97 0-4.981-1.871-4.981-5.408zm7.592 0c0-2.378-1.07-3.437-2.67-3.437-1.449 0-2.611 1.106-2.611 3.437 0 2.331 1.188 3.437 2.729 3.437 1.54 0 2.552-1.092 2.552-3.437zm12.11 4.809a5.347 5.347 0 01-2.774.6c-3.134 0-5.223-1.839-5.223-5.276 0-3.603 2.063-5.548 5.418-5.548a6.376 6.376 0 012.612.493l-.483 1.885a6.154 6.154 0 00-1.79-.313c-2.023 0-3.4 1.032-3.4 3.33 0 2.211 1.305 3.33 3.388 3.33a5.089 5.089 0 001.815-.4l.437 1.899zm8.043-2.372h-4.355l-.992 2.792h-1.305l3.916-10.464h1.306l3.839 10.464H87.64l-1.03-2.792zm-3.956-1.225h3.518l-1.71-4.922h-.059l-1.75 4.922zm10.895 4.017h-1.306v-9.205h-3.035v-1.259h7.383v1.259h-3.042v9.205zm4.426-5.229c0-3.33 1.893-5.382 4.57-5.382 3.048 0 4.687 2.212 4.687 5.382 0 3.557-1.958 5.382-4.641 5.382-2.814 0-4.616-2.065-4.616-5.382zm7.886 0c0-2.87-1.26-4.13-3.264-4.13-1.802 0-3.192 1.333-3.192 4.13 0 2.797 1.345 4.123 3.368 4.123 1.9 0 3.088-1.419 3.088-4.123zM120 27.002h-1.306l-.652-8.173-2.612 8.173h-1.377l-2.572-8.146-.653 8.146h-1.306l.875-10.464h1.613l2.768 8.998 2.728-8.998h1.613L120 27.002z" fill="#1D1D1D"/></g><defs><linearGradient id="paint1_linear_2986_18204" x1="35.859" y1="3.572" x2="30.143" y2="17.699" gradientUnits="userSpaceOnUse"><stop stop-color="#4495D1"/><stop offset="1" stop-color="#15256D"/></linearGradient><linearGradient id="paint2_linear_2986_18204" x1="12.078" y1="22.147" x2="-2.628" y2="29.121" gradientUnits="userSpaceOnUse"><stop stop-color="#4495D1"/><stop offset="1" stop-color="#15256D"/></linearGradient><linearGradient id="paint3_linear_2986_18204" x1="41.111" y1="26.218" x2="25.108" y2="38.504" gradientUnits="userSpaceOnUse"><stop stop-color="#4495D1"/><stop offset="1" stop-color="#15256D"/></linearGradient><linearGradient id="paint4_linear_2986_18204" x1="7.755" y1="15.952" x2="16.342" y2="3.035" gradientUnits="userSpaceOnUse"><stop stop-color="#4495D1"/><stop offset="1" stop-color="#15256D"/></linearGradient><linearGradient id="paint5_linear_2986_18204" x1="23.553" y1="34.588" x2="8.572" y2="36.086" gradientUnits="userSpaceOnUse"><stop stop-color="#4495D1"/><stop offset="1" stop-color="#15256D"/></linearGradient><linearGradient id="paint6_linear_2986_18204" x1="33.195" y1="12.488" x2="36.364" y2="28.189" gradientUnits="userSpaceOnUse"><stop stop-color="#4495D1"/><stop offset="1" stop-color="#15256D"/></linearGradient><radialGradient id="paint0_radial_2986_18204" cx="0" cy="0" r="1" gradientUnits="userSpaceOnUse" gradientTransform="matrix(6.20675 0 0 6.33258 19.864 18.355)"><stop stop-color="#4495D1"/><stop offset="1" stop-color="#15256D"/></radialGradient><clipPath id="clip0_2986_18204"><path fill="#fff" d="M0 0h120v43H0z"/></clipPath></defs></svg>