<svg width="143" height="34" viewBox="0 0 143 34" fill="none" xmlns="http://www.w3.org/2000/svg"><g clip-path="url(#clip0_2986_18236)" fill-rule="evenodd" clip-rule="evenodd"><path d="M43.353 8.116h2.01v3.452l3.183-3.452h2.602l-3.783 3.91 3.948 4.463h-2.714l-3.235-3.87v3.87h-2.011V8.116zm22.333 2.138l-2.324 6.235h-2.305l3.633-8.373h1.991l3.634 8.373H68.01l-2.324-6.235zm-9.536 0l-1.159 3.109h2.318l-1.16-3.109zm-1.73 4.641l-.594 1.594H51.52l3.634-8.373h1.991l3.634 8.373h-2.305l-.594-1.594h-3.46zm20.929-4.641l-1.159 3.109h2.317l-1.158-3.109zm-1.73 4.641l-.594 1.594h-2.306l3.634-8.373h1.991l3.634 8.373h-2.305l-.594-1.594h-3.46zm7.866-6.779h2.078v6.76H86.3v-6.76h2.078v6.76h2.737v-6.76h2.078v8.373H81.485V8.116zm30.241 0h2.078v8.373h-2.078v-5.32l-3.343 5.32h-2.176V8.116h2.078v5.686l3.441-5.686zm-13.752 3.27h3.44v-3.27h2.078v8.373h-2.078V13h-3.44v3.489h-2.078V8.116h2.078v3.27zm18.664-3.27h2.011v3.452l3.182-3.452h2.603l-3.784 3.91 3.948 4.463h-2.714l-3.235-3.87v3.87h-2.011V8.116zm12.971-.346c2.61 0 4.725 2.03 4.725 4.533 0 2.502-2.115 4.531-4.725 4.531-2.608 0-4.723-2.03-4.723-4.531 0-2.503 2.115-4.533 4.723-4.533zm.001 1.883c1.37 0 2.48 1.186 2.48 2.65 0 1.463-1.11 2.649-2.48 2.649-1.37 0-2.48-1.186-2.48-2.65 0-1.463 1.11-2.649 2.48-2.649zm6.566-1.537h4.329c1.148 0 2.08.908 2.08 2.027 0 .918-.627 1.692-1.485 1.942 1.016.228 1.774 1.115 1.774 2.174 0 1.231-1.025 2.23-2.289 2.23h-4.409V8.116zm3.659 4.931a.98.98 0 01.991.966.979.979 0 01-.991.966h-1.581v-1.931l1.581-.001zm-.152-3.318c.484 0 .875.382.875.853 0 .47-.392.852-.875.852h-1.429V9.73h1.429zm-96.33 8.965h2.01v3.453l3.183-3.453h2.602l-3.783 3.91 3.948 4.463h-2.714l-3.235-3.87v3.87h-2.011v-8.373zm58.612 3.27h3.441v-3.27h2.078v8.373h-2.078v-3.489h-3.441v3.489h-2.078v-8.373h2.078v3.27zm-10.299-3.27h3.91c1.483 0 2.685 1.172 2.685 2.616 0 1.444-1.203 2.616-2.685 2.616h-1.832v3.141h-2.078v-8.373zm2.078 1.614v2.004h1.416c.568 0 1.03-.449 1.03-1.002 0-.553-.462-1.002-1.03-1.002h-1.416zm-4.432-1.614v1.614h-3.79v1.657h3.615v1.613h-3.616v1.767h3.928v1.722h-6.006v-8.373h5.869zM73.11 27.067v-8.373h2.078v6.76h3.44v-6.76h2.078v6.76h.913v3.51h-1.794v-1.897H73.11zm-8.122-5.102h3.44v-3.27h2.079v8.372H68.43v-3.489h-3.441v3.489h-2.078v-8.373h2.078v3.27zm-8.649-3.616c2.61 0 4.725 2.03 4.725 4.532 0 2.502-2.115 4.532-4.725 4.532-2.608 0-4.723-2.03-4.723-4.532 0-2.503 2.115-4.532 4.723-4.532zm0 1.882c1.37 0 2.481 1.186 2.481 2.65 0 1.463-1.11 2.65-2.48 2.65-1.37 0-2.48-1.187-2.48-2.65 0-1.464 1.11-2.65 2.48-2.65z" fill="#1D1D1D"/><path d="M6.379 6.215h22.208l-11.104 10.82 11.104 10.82H6.38V6.214z" fill="#6B6B6B"/><path d="M0 0h34.968L26.27 8.471H8.694v17.127h17.578l8.696 8.471H0V0z" fill="#1D1D1D"/></g><defs><clipPath id="clip0_2986_18236"><path fill="#fff" d="M0 0h143v34H0z"/></clipPath></defs></svg>