<svg width="175" height="17" viewBox="0 0 175 17" fill="none" xmlns="http://www.w3.org/2000/svg"><g clip-path="url(#clip0_2986_18197)" fill-rule="evenodd" clip-rule="evenodd" fill="#1D1D1D"><path d="M18.287 0h.79c.314.025.623.075.934.125-.803 1.162-1.604 2.324-2.415 3.482.517-.881 1.066-1.744 1.59-2.621-1.161-.102-2.373.131-3.338.754-.52.331-.87.83-1.218 1.305-.97 1.383-1.82 2.833-2.764 4.228-.676 1.002-1.377 1.997-2.239 2.871-.428.415-.896.834-1.491 1.029-.522.14-1.068.138-1.604.195.519-.09 1.077-.068 1.555-.304.737-.387 1.266-1.026 1.766-1.645 1.78-2.32 2.98-4.964 4.572-7.391-1.881-1.201-4.3-1.647-6.53-1.17A8.531 8.531 0 003.2 3.615a3.835 3.835 0 00-1.761.213 8.798 8.798 0 012.929-2.572C5.963.381 7.867 0 9.715.172c1.73.15 3.397.8 4.742 1.815C15.23.741 16.793.117 18.287 0z"/><path d="M.663 5.123a7.5 7.5 0 00-.49 4.676c.333 1.593 1.21 3.077 2.445 4.226 2.297 2.239 6.075 2.993 9.186 1.917 1.508-.526 2.912-1.375 3.906-2.56-1.533.64-3.267.824-4.928.587-3-.429-5.86-2.08-7.33-4.573-.604-1.056-1.082-2.311-.668-3.5.225-.574.529-1.242 1.217-1.446-.602-.209-1.251-.356-1.898-.263-.6.079-1.178.419-1.44.936z"/><path d="M17.455 5.508c-.495.055-1.006.166-1.406.454-.685.475-1.244 1.083-1.787 1.69-.897 1.038-1.842 2.037-2.783 3.04-.448.465-.95.927-1.604 1.131-.85.26-1.768.247-2.64.089.566.337 1.132.682 1.746.942 1.103.13 2.214-.188 3.135-.738 1.416-.812 2.452-2.071 3.892-2.85.47-.284.984-.522 1.547-.59a88.719 88.719 0 002.479-3.045c-.85-.13-1.72-.209-2.579-.123z"/><path d="M17.568 8.679c.835-.118 1.693.047 2.457.364-.953 1.174-1.913 2.35-3.017 3.408-.916.895-2.295 1.213-3.586 1.258-1.518.034-3.056-.247-4.43-.852 1.102.129 2.214-.188 3.135-.739 1.415-.811 2.451-2.07 3.891-2.85.473-.284.987-.524 1.55-.59zm9.647-6.971c3.943-.004 7.89-.002 11.833-.002l-.48 3.436H34.56l-1.406 9.528h-4.872l1.406-9.528c-1.647-.003-3.294.002-4.94-.003.812-1.146 1.649-2.282 2.467-3.43zm13.309.01c-.417 3.364-.832 6.73-1.246 10.095-.108.955-.287 1.906-.43 2.857h4.929c.124-.813.243-1.627.368-2.44 1.582-.002 3.163.005 4.745-.005 1.433-.019 2.863-.967 3.047-2.254.284-2.027.571-4.055.85-6.085.128-.789-.398-1.601-1.224-1.923-.455-.2-.972-.248-1.479-.238l-9.56-.007zm4.66 3.426h2.569c-.174 1.082-.342 2.163-.515 3.243a.438.438 0 01-.455.403c-.72.014-1.438 0-2.159.002.19-1.215.366-2.433.56-3.648zm11.268-2.73c.165-.458.712-.725 1.243-.708 2.34.002 4.683-.002 7.023.002.45-.024.934.241.942.67.52 4.098 1.035 8.196 1.552 12.292h-4.997c-.09-.75-.176-1.501-.265-2.254-1.582.012-3.166.033-4.75.047-.288.727-.548 1.466-.848 2.19-.55-.05-1.105-.01-1.655-.021-1.105.01-2.208-.02-3.31.014 1.669-4.084 3.38-8.156 5.065-12.232zm3.667 3.192c-.507 1.19-1.013 2.38-1.517 3.57h2.942c-.147-1.19-.301-2.378-.45-3.57h-.975zm10.254-3.9h4.921c-.244 1.625-.482 3.252-.723 4.877.926.003 1.852 0 2.778.003.247-1.628.483-3.255.727-4.882 1.73.002 3.464-.003 5.194.002-.631 4.32-1.254 8.642-1.885 12.962h-5.19c.226-1.537.456-3.074.68-4.61h-2.781c-.227 1.536-.455 3.073-.68 4.61h-4.92l1.879-12.962zm28.5 0c1.639.002 3.277 0 4.916 0-.239 1.627-.483 3.252-.72 4.88h2.781c.243-1.628.479-3.255.726-4.882 1.73.002 3.461 0 5.191.002-.628 4.322-1.253 8.642-1.882 12.964h-5.192c.23-1.537.455-3.074.683-4.608h-2.785l-.682 4.61h-4.92c.63-4.322 1.255-8.646 1.884-12.966zm49.081 0c4.864 0 9.726-.002 14.59 0l-2.37 3.436h-3.515c-.474 3.176-.94 6.352-1.408 9.528-1.625.002-3.251 0-4.873 0 .466-3.176.937-6.352 1.403-9.528h-4.309c.16-1.144.32-2.29.482-3.436zm15.37 0c-.631 4.313-1.265 8.623-1.871 12.938.739-.031 1.481-.003 2.223-.012 2.535.014 5.073-.027 7.611.021 1.034-.071 2.042-.586 2.548-1.394.32-.486.331-1.062.42-1.606.252-1.682.477-3.369.745-5.048v-.4c-.073-.673-.569-1.283-1.262-1.566-.664-.3-1.43-.24-2.147-.243h-3.752l.417-2.688c-1.643-.002-3.288-.002-4.932-.002zm3.516 9.54l.52-3.41h2.551c-.168 1.001-.287 2.009-.506 3-.052.153-.084.424-.328.403-.745.016-1.49.002-2.237.007zM84.391 4.579c-.354 2.326-.682 4.654-1.031 6.981-.112.594-.063 1.225.278 1.756.512.849 1.585 1.34 2.652 1.406h5.972c1.641-.176 3.217-1.198 3.602-2.654.163-.77.22-1.551.341-2.325h-4.902c-.073.421-.146.843-.214 1.265-.932.005-1.86-.003-2.79.005.29-1.95.623-3.894.91-5.843.946.01 1.89.012 2.837.02-.071.421-.139.845-.21 1.27h4.892c.1-.799.236-1.597.325-2.398a1.75 1.75 0 00-.682-1.58c-.74-.562-1.758-.724-2.709-.721-1.8.007-3.604-.01-5.406.007-1.795.05-3.578 1.208-3.865 2.811zm29.023-2.818c-.625 4.32-1.253 8.64-1.879 12.959h12.03c.16-1.132.32-2.266.477-3.398-2.372-.002-4.745 0-7.118 0 .084-.538.171-1.074.258-1.613 2.367-.005 4.731-.021 7.096-.021l.43-2.936c-2.367.003-4.737.022-7.104.022.084-.539.171-1.075.258-1.613h7.106c.16-1.134.32-2.266.477-3.4h-12.031zm13.439 1.45c.542-.91 1.712-1.462 2.869-1.443 4.409.002 8.815-.002 13.222.002.793.01 1.652-.066 2.367.303.769.352 1.213 1.141 1.089 1.892-.277 2.003-.558 4.005-.837 6.006-.158 1.296-1.582 2.271-3.02 2.3-1.595.01-3.19 0-4.783.002-.122.815-.249 1.63-.369 2.444h-4.937c.146-.814.263-1.634.395-2.451h-4.525c-.466 0-.94-.053-1.36-.239-.679-.28-1.197-.874-1.262-1.539-.04-.457.078-.91.136-1.365.219-1.527.441-3.054.66-4.582.06-.448.1-.922.355-1.33zm3.922 5.621h2.543c.22-1.212.404-2.43.547-3.65h-2.564c-.177 1.218-.352 2.433-.526 3.65zm7.465.008c.736-.005 1.472.01 2.209-.005a.377.377 0 00.399-.372l.517-3.269h-2.57c-.187 1.213-.371 2.43-.555 3.646z"/></g><defs><clipPath id="clip0_2986_18197"><path fill="#fff" d="M0 0h175v17H0z"/></clipPath></defs></svg>