<svg width="91" height="59" viewBox="0 0 91 59" fill="none" xmlns="http://www.w3.org/2000/svg"><g clip-path="url(#clip0_2986_18220)" fill="#1D1D1D"><path opacity=".6" fill-rule="evenodd" clip-rule="evenodd" d="M45.5 8.922l.247-.07c-12.313 3.9-22.056 10.58-22.256 15.487-.215 5.252 10.584 6.483 24.114 2.753 13.529-3.73 24.674-11.016 24.887-16.267.111-2.721-2.739-4.362-7.39-4.794 5.685.26 9.247 1.95 9.247 4.97 0 5.754-12.918 14.155-28.85 18.763-15.93 4.608-28.849 3.675-28.849-2.08 0-5.753 12.92-14.155 28.85-18.761"/><path fill-rule="evenodd" clip-rule="evenodd" d="M22.91 39.178L62.902 0l-3.625 30.798-6.613-7.726-29.756 16.106z"/><path d="M7.06 52.26c0 1.655-1.167 3.253-3.188 3.253h-2.05v3.254H0v-9.761h3.416c2.49 0 3.644 1.365 3.644 3.254zm-1.822 0c0-.916-.711-1.395-1.594-1.395H1.822v2.789h1.822c.883 0 1.594-.581 1.594-1.394zm13.042 1.625c0 1.012-.293 2-.844 2.842a5.035 5.035 0 01-2.248 1.884 4.919 4.919 0 01-2.896.292 4.98 4.98 0 01-2.566-1.4 5.147 5.147 0 01-1.372-2.618 5.21 5.21 0 01.285-2.955 5.093 5.093 0 011.845-2.295 4.94 4.94 0 012.785-.862 4.97 4.97 0 013.54 1.5 5.176 5.176 0 011.471 3.612zm-1.822 0c0-.643-.187-1.272-.538-1.807a3.204 3.204 0 00-1.431-1.198 3.129 3.129 0 00-1.842-.185 3.17 3.17 0 00-1.633.89 3.274 3.274 0 00-.872 1.666 3.316 3.316 0 00.181 1.88 3.24 3.24 0 001.174 1.46 3.144 3.144 0 004.029-.403c.296-.302.531-.661.691-1.056.16-.396.242-.82.24-1.247zm10.577 2.253l.697 1.686a4.755 4.755 0 01-3.103 1.177c-2.805 0-5.096-2.296-5.096-5.114s2.291-5.112 5.096-5.112c1.067 0 2.292.406 3.103 1.162l-.698 1.685a3.355 3.355 0 00-2.376-.988c-1.823 0-3.303 1.452-3.303 3.253 0 1.801 1.48 3.255 3.303 3.255a3.24 3.24 0 001.288-.255 3.293 3.293 0 001.09-.749zm10.799 2.629h-2.306l-3.617-4.27v4.27H30.09v-9.761h1.822v4.038l3.389-4.038h2.306l-4.1 4.662 4.328 5.1zm10.401-4.882c0 1.012-.293 2-.844 2.842a5.035 5.035 0 01-2.248 1.884 4.918 4.918 0 01-2.896.291 4.98 4.98 0 01-2.566-1.399 5.147 5.147 0 01-1.372-2.619 5.211 5.211 0 01.285-2.955 5.092 5.092 0 011.846-2.295 4.94 4.94 0 012.785-.861 4.968 4.968 0 013.54 1.5 5.174 5.174 0 011.47 3.612zm-1.822 0a3.3 3.3 0 00-.537-1.807 3.203 3.203 0 00-1.432-1.198 3.13 3.13 0 00-1.842-.185 3.17 3.17 0 00-1.632.89 3.276 3.276 0 00-.873 1.667 3.316 3.316 0 00.182 1.88 3.24 3.24 0 001.174 1.46 3.143 3.143 0 004.028-.404 3.298 3.298 0 00.932-2.303zm10.577 2.253l.697 1.685A4.756 4.756 0 0154.584 59c-2.805 0-5.096-2.296-5.096-5.114s2.291-5.112 5.096-5.112c1.068 0 2.291.407 3.103 1.162l-.698 1.685a3.355 3.355 0 00-2.376-.987c-1.822 0-3.303 1.451-3.303 3.252 0 1.801 1.48 3.255 3.303 3.255.441.004.88-.083 1.288-.255a3.293 3.293 0 001.088-.748zm13.56 2.629h-1.936l-.797-6.391-2.504 6.391h-.911l-2.506-6.391-.797 6.391h-1.936l1.366-9.761h1.822l2.506 6.276 2.506-6.276h1.822l1.365 9.761zm10.997-4.882c0 1.012-.293 2-.843 2.842a5.035 5.035 0 01-2.25 1.884 4.919 4.919 0 01-2.895.292 4.98 4.98 0 01-2.566-1.4 5.147 5.147 0 01-1.372-2.618 5.211 5.211 0 01.285-2.955 5.093 5.093 0 011.845-2.295 4.94 4.94 0 012.785-.862 4.968 4.968 0 013.54 1.5 5.174 5.174 0 011.471 3.612zm-1.822 0c0-.643-.187-1.273-.538-1.807a3.204 3.204 0 00-1.43-1.198 3.13 3.13 0 00-1.843-.185 3.17 3.17 0 00-1.633.89 3.276 3.276 0 00-.872 1.667 3.317 3.317 0 00.182 1.88 3.24 3.24 0 001.174 1.46 3.143 3.143 0 004.028-.404c.297-.302.531-.661.691-1.056.16-.396.242-.82.241-1.247zm10.577 2.253L91 57.823A4.756 4.756 0 0187.897 59c-2.804 0-5.096-2.296-5.096-5.114s2.291-5.112 5.096-5.112c1.068 0 2.291.407 3.103 1.162l-.698 1.685a3.354 3.354 0 00-2.376-.987c-1.822 0-3.303 1.451-3.303 3.252 0 1.801 1.48 3.255 3.303 3.255a3.24 3.24 0 001.288-.255 3.294 3.294 0 001.088-.748z"/></g><defs><clipPath id="clip0_2986_18220"><path fill="#fff" d="M0 0h91v59H0z"/></clipPath></defs></svg>