<svg width="142" height="101" viewBox="0 0 142 101" fill="none" xmlns="http://www.w3.org/2000/svg">
<path d="M114.018 7.21063H27.9648V93.7724H114.018V7.21063Z" fill="#1D1D1D"/>
<path d="M77.6875 44.723C72.9311 44.723 69.0855 40.8547 69.0855 36.0702C69.0855 31.2857 72.9311 27.4174 77.6875 27.4174C79.5428 27.4174 81.2632 28.0113 82.68 29.0292L86.0027 24.3296C83.6582 22.6499 80.7909 21.6489 77.6875 21.6489C72.0034 21.6489 67.0952 24.9743 64.7845 29.7758C62.4569 24.9573 57.5487 21.6489 51.8815 21.6489C43.9542 21.6489 37.5449 28.1131 37.5449 36.0702C37.5449 44.0444 43.9711 50.4915 51.8815 50.4915C57.5656 50.4915 62.4738 47.1661 64.7845 42.3647C67.1121 47.1831 72.0203 50.4915 77.6875 50.4915C80.7909 50.4915 83.6582 49.4905 86.0027 47.8109L82.68 43.1112C81.28 44.1292 79.5597 44.723 77.6875 44.723ZM51.8815 44.723C47.1252 44.723 43.2796 40.8547 43.2796 36.0702C43.2796 31.2857 47.1252 27.4174 51.8815 27.4174C56.6379 27.4174 60.4835 31.2857 60.4835 36.0702C60.4835 40.8547 56.6211 44.723 51.8815 44.723Z" fill="white"/>
<path d="M104.472 21.8865H96.1057L84.8726 36.0702L96.1057 50.254H104.472L91.8047 36.0702L104.472 21.8865Z" fill="white"/>
<path d="M42.521 70.2572C42.3861 70.6135 42.2343 70.868 42.0656 71.0037C41.897 71.1564 41.6777 71.2243 41.4247 71.2243H41.0199V70.6135H41.3572C41.4584 70.6135 41.5259 70.5965 41.5765 70.5626C41.6271 70.5286 41.6777 70.4777 41.7114 70.3929C41.7114 70.3759 41.7283 70.359 41.7283 70.342C41.7283 70.325 41.7452 70.3081 41.7452 70.2911L40.5308 67.322H41.3235L41.7789 68.5775C41.8464 68.7472 41.897 68.9168 41.9476 69.0526C41.9982 69.2053 42.0319 69.324 42.0656 69.4258H42.0994L42.403 68.5266C42.403 68.5097 42.4198 68.4588 42.4536 68.3909C42.4704 68.323 42.5042 68.2552 42.5379 68.1703C42.5716 68.0855 42.6054 68.0007 42.6391 67.8989C42.6728 67.814 42.7066 67.7122 42.7403 67.6444C42.774 67.5596 42.7909 67.4917 42.8078 67.4408C42.8246 67.3899 42.8415 67.339 42.8415 67.339H43.6005L42.521 70.2572Z" fill="white"/>
<path d="M44.7303 70.4947C44.8146 70.4268 44.8821 70.359 44.9496 70.2742C45.017 70.1893 45.0508 70.0875 45.1014 69.9518C45.1351 69.833 45.1688 69.6803 45.1857 69.5107C45.2026 69.341 45.2194 69.1374 45.2363 68.9169L45.3038 67.339H47.9012C47.9012 67.8649 47.9012 68.4079 47.9012 68.9338C47.9012 69.4598 47.9012 69.9857 47.9012 70.5286H48.2386V72.0556H47.547V71.1903H45.152V72.0556H44.4604V70.5117H44.7303V70.4947ZM45.9953 68.0007L45.9447 68.9169C45.9447 69.0865 45.9278 69.2392 45.911 69.3749C45.8941 69.5276 45.8772 69.6634 45.8604 69.7991C45.8435 69.9348 45.8098 70.0536 45.7592 70.1724C45.7254 70.2911 45.658 70.3929 45.5905 70.4947H47.1254V68.0007H45.9953Z" fill="white"/>
<path d="M52.6409 69.9518C52.6409 70.1554 52.6072 70.342 52.5228 70.4947C52.4385 70.6474 52.3373 70.7831 52.2024 70.8849C52.0674 70.9867 51.9156 71.0716 51.7301 71.1225C51.5446 71.1734 51.359 71.2073 51.1566 71.2073C50.9542 71.2073 50.7687 71.1734 50.5832 71.1225C50.3976 71.0716 50.2458 70.9867 50.1109 70.8849C49.976 70.7831 49.8748 70.6474 49.7904 70.4947C49.7061 70.342 49.6724 70.1554 49.6724 69.9518V68.5436C49.6724 68.34 49.7061 68.1534 49.7904 68.0007C49.8748 67.848 49.976 67.7122 50.1109 67.6104C50.2458 67.5086 50.3976 67.4238 50.5832 67.3729C50.7687 67.322 50.9374 67.2881 51.1398 67.2881C51.3253 67.2881 51.5108 67.322 51.6964 67.3729C51.8819 67.4238 52.0337 67.5086 52.1686 67.6104C52.3036 67.7122 52.4216 67.848 52.4891 68.0007C52.5734 68.1534 52.6072 68.34 52.6072 68.5436V69.9518H52.6409ZM51.8819 68.6963C51.8819 68.5775 51.865 68.4588 51.8144 68.3739C51.7807 68.2891 51.7132 68.2212 51.6458 68.1534C51.5783 68.1025 51.5108 68.0516 51.4265 68.0346C51.3422 68.0007 51.2578 68.0007 51.1735 68.0007C51.0892 68.0007 51.0048 68.0176 50.9205 68.0346C50.8362 68.0685 50.7518 68.1025 50.7012 68.1534C50.6338 68.2043 50.5832 68.2891 50.5326 68.3739C50.4988 68.4588 50.4651 68.5606 50.4651 68.6963V69.8161C50.4651 69.9348 50.482 70.0536 50.5326 70.1384C50.5663 70.2232 50.6338 70.3081 50.7012 70.359C50.7687 70.4099 50.8362 70.4608 50.9205 70.4777C51.0048 70.4947 51.0892 70.5117 51.1735 70.5117C51.2578 70.5117 51.3422 70.4947 51.4265 70.4777C51.5108 70.4608 51.5783 70.4099 51.6458 70.359C51.7132 70.3081 51.7638 70.2232 51.8144 70.1384C51.8482 70.0536 51.8819 69.9348 51.8819 69.8161V68.6963Z" fill="white"/>
<path d="M56.4696 68.2552C56.3516 68.1534 56.2166 68.0855 56.0817 68.0516C55.9468 68.0176 55.8118 68.0007 55.6769 68.0007C55.5926 68.0007 55.5082 68.0176 55.4239 68.0346C55.3396 68.0516 55.2552 68.1025 55.2046 68.1534C55.1372 68.2043 55.0866 68.2891 55.036 68.3739C54.9854 68.4588 54.9685 68.5775 54.9685 68.6963V69.8161C54.9685 69.9348 54.9854 70.0536 55.036 70.1384C55.0866 70.2232 55.1372 70.2911 55.2046 70.359C55.2721 70.4099 55.3564 70.4608 55.4239 70.4777C55.5082 70.5117 55.5926 70.5117 55.6769 70.5117C55.8118 70.5117 55.9299 70.4947 56.0648 70.4608C56.1998 70.4268 56.3347 70.359 56.4696 70.2572L56.8238 70.851C56.6889 70.9698 56.5034 71.0546 56.301 71.1225C56.0986 71.1903 55.8793 71.2242 55.66 71.2242C55.4745 71.2242 55.3058 71.1903 55.1203 71.1394C54.9516 71.0885 54.783 71.0037 54.648 70.9019C54.5131 70.8001 54.395 70.6644 54.3107 70.5117C54.2264 70.359 54.1758 70.1723 54.1758 69.9687V68.5436C54.1758 68.34 54.2095 68.1534 54.2938 68.0007C54.3782 67.848 54.4794 67.7122 54.6143 67.6104C54.7492 67.5086 54.901 67.4238 55.0697 67.3729C55.2384 67.322 55.4239 67.2881 55.6094 67.2881C55.8287 67.2881 56.048 67.322 56.2504 67.3729C56.4528 67.4238 56.6383 67.5256 56.7732 67.6613L56.4696 68.2552Z" fill="white"/>
<path d="M59.8765 68.0176V71.1734H59.1175V68.0176H58.1055V67.339H60.8885V68.0176H59.8765Z" fill="white"/>
<path d="M64.1098 67.339C64.2953 67.339 64.464 67.3729 64.5989 67.4408C64.7338 67.5087 64.8519 67.6105 64.9362 67.7292C65.0206 67.848 65.088 67.9667 65.1386 68.1194C65.1892 68.2552 65.2061 68.4079 65.2061 68.5436C65.2061 68.6793 65.1892 68.832 65.1386 68.9677C65.088 69.1035 65.0206 69.2392 64.9194 69.358C64.8182 69.4767 64.717 69.5616 64.5652 69.6464C64.4302 69.7143 64.2616 69.7482 64.0929 69.7482H63.1652V71.1903H62.4062V67.339H64.1098ZM63.1652 69.0526H63.9411C64.1098 69.0526 64.2447 69.0017 64.329 68.8999C64.4134 68.7981 64.464 68.6793 64.464 68.5266C64.464 68.3739 64.4134 68.2552 64.329 68.1534C64.2447 68.0516 64.1098 68.0007 63.9411 68.0007H63.1652V69.0526Z" fill="white"/>
<path d="M69.5071 69.9518C69.5071 70.1554 69.4734 70.342 69.389 70.4947C69.3047 70.6474 69.2035 70.7831 69.0686 70.8849C68.9336 70.9867 68.7818 71.0716 68.5963 71.1225C68.4108 71.1734 68.2252 71.2073 68.0228 71.2073C67.8204 71.2073 67.6349 71.1734 67.4494 71.1225C67.2638 71.0716 67.112 70.9867 66.9771 70.8849C66.8422 70.7831 66.741 70.6474 66.6566 70.4947C66.5723 70.342 66.5386 70.1554 66.5386 69.9518V68.5436C66.5386 68.34 66.5723 68.1534 66.6566 68.0007C66.741 67.848 66.8422 67.7122 66.9771 67.6104C67.112 67.5086 67.2638 67.4238 67.4494 67.3729C67.6349 67.322 67.8036 67.2881 68.006 67.2881C68.1915 67.2881 68.377 67.322 68.5626 67.3729C68.7481 67.4238 68.8999 67.5086 69.0348 67.6104C69.1698 67.7122 69.2878 67.848 69.3553 68.0007C69.4396 68.1534 69.4734 68.34 69.4734 68.5436V69.9518H69.5071ZM68.7481 68.6963C68.7481 68.5775 68.7312 68.4588 68.6806 68.3739C68.6469 68.2891 68.5794 68.2212 68.512 68.1534C68.4445 68.1025 68.377 68.0516 68.2927 68.0346C68.2084 68.0007 68.124 68.0007 68.0397 68.0007C67.9554 68.0007 67.871 68.0176 67.7867 68.0346C67.7024 68.0685 67.618 68.1025 67.5674 68.1534C67.5 68.2043 67.4494 68.2891 67.3988 68.3739C67.365 68.4588 67.3313 68.5606 67.3313 68.6963V69.8161C67.3313 69.9348 67.3482 70.0536 67.3988 70.1384C67.4325 70.2232 67.5 70.3081 67.5674 70.359C67.6349 70.4099 67.7024 70.4608 67.7867 70.4777C67.871 70.4947 67.9554 70.5117 68.0397 70.5117C68.124 70.5117 68.2084 70.4947 68.2927 70.4777C68.377 70.4608 68.4445 70.4099 68.512 70.359C68.5794 70.3081 68.63 70.2232 68.6806 70.1384C68.7144 70.0536 68.7481 69.9348 68.7481 69.8161V68.6963Z" fill="white"/>
<path d="M73.4875 68.6793L73.1164 69.2731C73.0658 69.341 73.0152 69.4258 72.9478 69.5276C72.8803 69.6294 72.8128 69.7482 72.7285 69.867C72.6442 69.9857 72.5767 70.1045 72.4924 70.2402C72.408 70.359 72.3237 70.4947 72.2562 70.6135C72.1888 70.7322 72.1044 70.851 72.037 70.9528C71.9695 71.0546 71.9189 71.1394 71.8683 71.2073H71.1768V67.356H71.9358V69.8839H71.9526L72.7454 68.6284L73.555 67.356H74.2465V71.2073H73.4875V68.6963V68.6793Z" fill="white"/>
<path d="M77.5522 68.0176V71.1734H76.7932V68.0176H75.7812V67.339H78.5642V68.0176H77.5522Z" fill="white"/>
<path d="M80.0654 67.339H82.6966V68.0176H80.8244V68.8999H82.4268V69.5785H80.8244V70.4777H82.6966V71.1564H80.0654V67.339Z" fill="white"/>
<path d="M85.6317 68.0176V69.0356C85.6317 69.358 85.6149 69.6464 85.5811 69.9009C85.5474 70.1554 85.4799 70.3929 85.3787 70.5795C85.2775 70.7662 85.1426 70.9189 84.9739 71.0376C84.8053 71.1564 84.586 71.2243 84.3161 71.2582L84.1475 70.6304C84.2993 70.5795 84.4342 70.5117 84.5354 70.4268C84.6366 70.342 84.7041 70.2402 84.7547 70.1214C84.8053 70.0027 84.839 69.85 84.8559 69.6634C84.8727 69.4937 84.8896 69.2901 84.8896 69.0356V67.3051H87.4027V71.1564H86.6268V68.0007L85.6317 68.0176Z" fill="white"/>
<path d="M89.1567 71.1734V67.322H89.9157V68.7811H90.7928C90.9783 68.7811 91.147 68.8151 91.2988 68.8659C91.4506 68.9338 91.5687 69.0017 91.6699 69.1204C91.7711 69.2222 91.8554 69.358 91.906 69.4937C91.9566 69.6464 91.9903 69.7991 91.9903 69.9688C91.9903 70.1045 91.9735 70.2572 91.9229 70.3929C91.8723 70.5286 91.8048 70.6644 91.7205 70.7831C91.6193 70.9019 91.5012 70.9867 91.3494 71.0716C91.1976 71.1394 91.0289 71.1734 90.8097 71.1734H89.1567ZM89.9157 70.4947H90.7085C90.8771 70.4947 91.0121 70.4438 91.1133 70.342C91.2145 70.2402 91.2651 70.1215 91.2651 69.9857C91.2651 69.833 91.2145 69.7143 91.1133 69.6294C91.0121 69.5446 90.8771 69.4937 90.6916 69.4937H89.9157V70.4947Z" fill="white"/>
<path d="M95.6001 71.1734V69.5616H94.1833V71.1734H93.4243V67.322H94.1833V68.8829H95.6001V67.322H96.376V71.1734H95.6001Z" fill="white"/>
<path d="M38.8271 68.2552C38.709 68.1534 38.5741 68.0855 38.4391 68.0516C38.3042 68.0176 38.1693 68.0007 38.0343 68.0007C37.95 68.0007 37.8657 68.0176 37.7813 68.0346C37.697 68.0516 37.6127 68.1025 37.5621 68.1534C37.4946 68.2043 37.444 68.2891 37.3934 68.3739C37.3428 68.4588 37.3259 68.5775 37.3259 68.6963V69.8161C37.3259 69.9348 37.3428 70.0536 37.3934 70.1384C37.444 70.2232 37.4946 70.2911 37.5621 70.359C37.6295 70.4099 37.7139 70.4608 37.7813 70.4777C37.8657 70.5117 37.95 70.5117 38.0343 70.5117C38.1693 70.5117 38.2873 70.4947 38.4223 70.4608C38.5572 70.4268 38.6921 70.359 38.8271 70.2572L39.1813 70.851C39.0463 70.9698 38.8608 71.0546 38.6584 71.1225C38.456 71.1903 38.2367 71.2242 38.0175 71.2242C37.8319 71.2242 37.6633 71.1903 37.4777 71.1394C37.3091 71.0885 37.1404 71.0037 37.0055 70.9019C36.8705 70.8001 36.7525 70.6644 36.6681 70.5117C36.5838 70.359 36.5332 70.1723 36.5332 69.9687V68.5436C36.5332 68.34 36.5669 68.1534 36.6513 68.0007C36.7356 67.848 36.8368 67.7122 36.9717 67.6104C37.1067 67.5086 37.2585 67.4238 37.4271 67.3729C37.5958 67.322 37.7813 67.2881 37.9669 67.2881C38.1861 67.2881 38.4054 67.322 38.6078 67.3729C38.8102 67.4238 38.9957 67.5256 39.1307 67.6613L38.8271 68.2552Z" fill="white"/>
<path d="M100.171 70.3929H98.8385L98.5855 71.1903H97.7759L99.1252 67.339H99.9011L101.234 71.1903H100.407L100.171 70.3929ZM99.0577 69.7482H99.9854L99.8336 69.2562L99.53 68.2382H99.5131L99.2264 69.2392L99.0577 69.7482Z" fill="white"/>
<path d="M105.416 67.339V71.1903H104.657V69.6634H104.219C104.134 69.6634 104.067 69.6634 104.016 69.6803C103.949 69.6973 103.898 69.7143 103.848 69.7652C103.797 69.7991 103.746 69.85 103.713 69.9179C103.679 69.9857 103.628 70.0706 103.612 70.1724L103.325 71.1903H102.481L102.802 70.1384C102.853 70.0027 102.903 69.867 102.954 69.7652C103.004 69.6634 103.089 69.5616 103.207 69.5107C103.089 69.4767 103.004 69.4258 102.92 69.358C102.836 69.2901 102.785 69.2053 102.734 69.1204C102.684 69.0356 102.65 68.9338 102.633 68.832C102.616 68.7302 102.6 68.6284 102.6 68.5266C102.6 68.3739 102.616 68.2382 102.667 68.1025C102.718 67.9667 102.785 67.831 102.886 67.7292C102.987 67.6274 103.106 67.5256 103.257 67.4578C103.409 67.3899 103.578 67.356 103.78 67.356H105.416V67.339ZM104.691 68.0176H103.932C103.746 68.0176 103.612 68.0685 103.51 68.1534C103.426 68.2382 103.375 68.3739 103.375 68.5266C103.375 68.6793 103.426 68.7811 103.51 68.866C103.595 68.9338 103.73 68.9847 103.915 68.9847H104.691V68.0176Z" fill="white"/>
<path d="M49.0986 79.3511V75.4998H49.8576V77.0437H50.2456C50.313 77.0437 50.3974 77.0437 50.448 77.0267C50.5154 77.0098 50.566 76.9928 50.6335 76.9589C50.6841 76.9249 50.7347 76.874 50.7853 76.8062C50.8359 76.7383 50.8696 76.6535 50.9034 76.5517L51.2407 75.4998H52.0166L51.6792 76.6195C51.6118 76.8062 51.5443 76.9758 51.46 77.0946C51.3756 77.2133 51.2576 77.2982 51.1395 77.3491C51.2913 77.4 51.4262 77.4848 51.5106 77.6205C51.5949 77.7563 51.6792 77.909 51.7298 78.0956L52.1009 79.3341H51.2744L50.954 78.2144C50.9202 78.1126 50.8865 78.0277 50.8528 77.9599C50.8022 77.892 50.7684 77.8411 50.701 77.8072C50.6504 77.7732 50.5829 77.7393 50.5154 77.7393C50.448 77.7223 50.3805 77.7223 50.2962 77.7223H49.8745V79.3511H49.0986Z" fill="white"/>
<path d="M69.9798 78.1295C69.9798 78.3331 69.946 78.5197 69.8617 78.6724C69.7774 78.8251 69.6762 78.9609 69.5412 79.0627C69.4063 79.1645 69.2545 79.2493 69.069 79.3002C68.8834 79.3511 68.6979 79.385 68.4955 79.385C68.2931 79.385 68.1076 79.3511 67.922 79.3002C67.7365 79.2493 67.5847 79.1645 67.4498 79.0627C67.3148 78.9609 67.2136 78.8251 67.1293 78.6724C67.045 78.5197 67.0112 78.3331 67.0112 78.1295V76.7213C67.0112 76.5177 67.045 76.3311 67.1293 76.1784C67.2136 76.0257 67.3148 75.89 67.4498 75.7882C67.5847 75.6864 67.7365 75.6016 67.922 75.5507C68.1076 75.4998 68.2762 75.4658 68.4786 75.4658C68.6642 75.4658 68.8497 75.4998 69.0352 75.5507C69.2208 75.6016 69.3726 75.6864 69.5075 75.7882C69.6424 75.89 69.7605 76.0257 69.828 76.1784C69.9123 76.3311 69.946 76.5177 69.946 76.7213V78.1295H69.9798ZM69.2208 76.874C69.2208 76.7553 69.2039 76.6365 69.1533 76.5517C69.1196 76.4668 69.0521 76.399 68.9846 76.3311C68.9172 76.2802 68.8497 76.2293 68.7654 76.2123C68.681 76.1784 68.5967 76.1784 68.5124 76.1784C68.428 76.1784 68.3437 76.1954 68.2594 76.2123C68.175 76.2463 68.0907 76.2802 68.0401 76.3311C67.9726 76.382 67.922 76.4668 67.8714 76.5517C67.8377 76.6365 67.804 76.7383 67.804 76.874V77.9938C67.804 78.1126 67.8208 78.2313 67.8714 78.3162C67.9052 78.401 67.9726 78.4858 68.0401 78.5367C68.1076 78.5876 68.175 78.6385 68.2594 78.6555C68.3437 78.6724 68.428 78.6894 68.5124 78.6894C68.5967 78.6894 68.681 78.6724 68.7654 78.6555C68.8497 78.6385 68.9172 78.5876 68.9846 78.5367C69.0521 78.4858 69.1027 78.401 69.1533 78.3162C69.187 78.2313 69.2208 78.1126 69.2208 77.9938V76.874Z" fill="white"/>
<path d="M73.37 75.4998C73.5556 75.4998 73.7242 75.5337 73.8592 75.6016C73.9941 75.6694 74.1122 75.7712 74.1965 75.89C74.2808 76.0087 74.3483 76.1275 74.3989 76.2802C74.4495 76.4159 74.4664 76.5686 74.4664 76.7044C74.4664 76.8401 74.4495 76.9928 74.3989 77.1285C74.3483 77.2642 74.2808 77.4 74.1796 77.5187C74.0784 77.6375 73.9772 77.7223 73.8254 77.8072C73.6905 77.875 73.5218 77.909 73.3532 77.909H72.4255V79.3511H71.6665V75.4998H73.37ZM72.4255 77.2133H73.2014C73.37 77.2133 73.505 77.1624 73.5893 77.0607C73.6736 76.9589 73.7242 76.8401 73.7242 76.6874C73.7242 76.5347 73.6736 76.4159 73.5893 76.3141C73.505 76.2123 73.37 76.1614 73.2014 76.1614H72.4255V77.2133Z" fill="white"/>
<path d="M64.5991 79.3511V76.1954H63.1823V79.3511H62.4233V75.4998H65.3581V79.3511H64.5991Z" fill="white"/>
<path d="M59.8598 75.4998C60.0453 75.4998 60.214 75.5337 60.3489 75.6016C60.4838 75.6694 60.6019 75.7712 60.6862 75.89C60.7706 76.0087 60.838 76.1275 60.8886 76.2802C60.9392 76.4159 60.9561 76.5686 60.9561 76.7044C60.9561 76.8401 60.9392 76.9928 60.8886 77.1285C60.838 77.2642 60.7706 77.4 60.6694 77.5187C60.5682 77.6375 60.467 77.7223 60.3152 77.8072C60.1802 77.875 60.0116 77.909 59.8429 77.909H58.9152V79.3511H58.1562V75.4998H59.8598ZM58.9152 77.2133H59.6911C59.8598 77.2133 59.9947 77.1624 60.079 77.0607C60.1634 76.9589 60.214 76.8401 60.214 76.6874C60.214 76.5347 60.1634 76.4159 60.079 76.3141C59.9947 76.2123 59.8598 76.1614 59.6911 76.1614H58.9152V77.2133Z" fill="white"/>
<path d="M56.4695 78.1295C56.4695 78.3331 56.4358 78.5197 56.3514 78.6724C56.2671 78.8251 56.1659 78.9609 56.031 79.0627C55.896 79.1645 55.7442 79.2493 55.5587 79.3002C55.3732 79.3511 55.1876 79.385 54.9852 79.385C54.7828 79.385 54.5973 79.3511 54.4118 79.3002C54.2262 79.2493 54.0744 79.1645 53.9395 79.0627C53.8046 78.9609 53.7034 78.8251 53.619 78.6724C53.5347 78.5197 53.501 78.3331 53.501 78.1295V76.7213C53.501 76.5177 53.5347 76.3311 53.619 76.1784C53.7034 76.0257 53.8046 75.89 53.9395 75.7882C54.0744 75.6864 54.2262 75.6016 54.4118 75.5507C54.5973 75.4998 54.766 75.4658 54.9684 75.4658C55.1539 75.4658 55.3394 75.4998 55.525 75.5507C55.7105 75.6016 55.8623 75.6864 55.9972 75.7882C56.1322 75.89 56.2502 76.0257 56.3177 76.1784C56.402 76.3311 56.4358 76.5177 56.4358 76.7213V78.1295H56.4695ZM55.7105 76.874C55.7105 76.7553 55.6936 76.6365 55.643 76.5517C55.6093 76.4668 55.5418 76.399 55.4744 76.3311C55.4069 76.2802 55.3394 76.2293 55.2551 76.2123C55.1708 76.1784 55.0864 76.1784 55.0021 76.1784C54.9178 76.1784 54.8334 76.1954 54.7491 76.2123C54.6648 76.2463 54.5804 76.2802 54.5298 76.3311C54.4624 76.382 54.4118 76.4668 54.3612 76.5517C54.3274 76.6365 54.2937 76.7383 54.2937 76.874V77.9938C54.2937 78.1126 54.3106 78.2313 54.3612 78.3162C54.3949 78.401 54.4624 78.4858 54.5298 78.5367C54.5973 78.5876 54.6648 78.6385 54.7491 78.6555C54.8334 78.6724 54.9178 78.6894 55.0021 78.6894C55.0864 78.6894 55.1708 78.6724 55.2551 78.6555C55.3394 78.6385 55.4069 78.5876 55.4744 78.5367C55.5418 78.4858 55.5924 78.401 55.643 78.3162C55.6768 78.2313 55.7105 78.1126 55.7105 77.9938V76.874Z" fill="white"/>
<path d="M77.8731 78.5537H76.5406L76.2876 79.3511H75.478L76.8274 75.4998H77.6032L78.9357 79.3511H78.1092L77.8731 78.5537ZM76.743 77.9259H77.6707L77.5189 77.4339L77.2153 76.4159H77.1984L76.9117 77.4169L76.743 77.9259Z" fill="white"/>
<path d="M83.2873 75.4998V78.6724H83.6247V80.2164H82.9331V79.3511H80.3525V75.4998H81.1115V78.6724H82.5283V75.4998H83.2873Z" fill="white"/>
<path d="M87.487 76.8401L87.1159 77.4339C87.0653 77.5018 87.0147 77.5866 86.9473 77.6884C86.8798 77.7902 86.8123 77.909 86.728 78.0277C86.6437 78.1465 86.5762 78.2653 86.4919 78.401C86.4075 78.5367 86.3401 78.6555 86.2557 78.7742C86.1883 78.893 86.1039 79.0118 86.0365 79.1136C85.969 79.2154 85.9184 79.3002 85.8678 79.3681H85.1763V75.4998H85.9353V78.0447H85.9521L86.7449 76.7892L87.5545 75.5167H88.246V79.3681H87.487V76.8571V76.8401Z" fill="white"/>
<path d="M92.9011 75.4998V79.3511H92.1421V77.8241H91.7036C91.6192 77.8241 91.5518 77.8241 91.5012 77.8411C91.4337 77.8581 91.3831 77.875 91.3325 77.9259C91.2819 77.9599 91.2313 78.0108 91.1976 78.0786C91.1638 78.1465 91.1132 78.2313 91.0964 78.3331L90.8096 79.3511H89.9663L90.2868 78.2992C90.3374 78.1635 90.388 78.0277 90.4386 77.9259C90.4892 77.8241 90.5735 77.7223 90.6916 77.6714C90.5735 77.6375 90.4892 77.5866 90.4048 77.5187C90.3205 77.4509 90.2699 77.366 90.2193 77.2812C90.1687 77.1964 90.135 77.0946 90.1181 76.9928C90.1012 76.891 90.0844 76.7892 90.0844 76.6874C90.0844 76.5347 90.1012 76.399 90.1518 76.2632C90.2024 76.1275 90.2699 75.9918 90.3711 75.89C90.4723 75.7882 90.5904 75.6864 90.7422 75.6185C90.894 75.5507 91.0626 75.5167 91.265 75.5167H92.9011V75.4998ZM92.1421 76.1954H91.3831C91.1976 76.1954 91.0626 76.2463 90.9614 76.3311C90.8771 76.4159 90.8265 76.5517 90.8265 76.7044C90.8265 76.8571 90.8771 76.9589 90.9614 77.0437C91.0458 77.1115 91.1807 77.1624 91.3662 77.1624H92.1421V76.1954Z" fill="white"/>
<path d="M53.7204 62.9956V59.8229H52.5903V59.1613H54.4794V60.6203H55.3733C55.5589 60.6203 55.7275 60.6543 55.8793 60.7052C56.0311 60.773 56.1492 60.8409 56.2504 60.9597C56.3516 61.0615 56.4359 61.1972 56.4865 61.3329C56.5371 61.4856 56.5709 61.6383 56.5709 61.808C56.5709 61.9437 56.554 62.0964 56.5034 62.2321C56.4528 62.3679 56.3853 62.5036 56.301 62.6224C56.1998 62.7411 56.0817 62.826 55.9299 62.8938C55.7781 62.9617 55.6095 62.9956 55.3902 62.9956H53.7204ZM54.4794 62.317H55.2721C55.4408 62.317 55.5757 62.2661 55.6769 62.1643C55.7781 62.0625 55.8287 61.9437 55.8287 61.808C55.8287 61.6553 55.7781 61.5365 55.6769 61.4517C55.5757 61.3669 55.4408 61.316 55.2721 61.316H54.4794V62.317Z" fill="white"/>
<path d="M57.9878 59.1613H60.619V59.8399H58.7468V60.7221H60.3491V61.4008H58.7468V62.3H60.619V62.9787H57.9878V59.1613Z" fill="white"/>
<path d="M92.6314 62.2152H91.2989L91.0459 63.0126H90.2363L91.5857 59.1613H92.3615L93.694 63.0126H92.8675L92.6314 62.2152ZM91.5182 61.5705H92.4459L92.2941 61.0784L91.9905 60.0605H91.9736L91.6869 61.0615L91.5182 61.5705Z" fill="white"/>
<path d="M97.8769 59.1613V63.0126H97.118V61.4856H96.6794C96.5951 61.4856 96.5276 61.4856 96.4602 61.5026C96.3927 61.5196 96.3421 61.5365 96.2915 61.5874C96.2409 61.6214 96.1903 61.6723 96.1566 61.7401C96.1228 61.808 96.0891 61.8928 96.0554 61.9946L95.7686 63.0126H94.9253L95.2458 61.9607C95.2964 61.825 95.347 61.6892 95.3976 61.5874C95.4482 61.4856 95.5325 61.3838 95.6506 61.3329C95.5325 61.299 95.4482 61.2481 95.3638 61.1802C95.2795 61.1124 95.2289 61.0275 95.1783 60.9427C95.1277 60.8579 95.094 60.7561 95.0771 60.6543C95.0602 60.5525 95.0434 60.4507 95.0434 60.3489C95.0434 60.1962 95.0602 60.0605 95.1108 59.9247C95.1614 59.789 95.2289 59.6533 95.3301 59.5515C95.4313 59.4497 95.5494 59.3479 95.7012 59.28C95.853 59.2122 96.0216 59.1782 96.224 59.1782H97.8769V59.1613ZM97.1348 59.8399H96.3758C96.1903 59.8399 96.0554 59.8908 95.9542 59.9756C95.8698 60.0605 95.8192 60.1962 95.8192 60.3489C95.8192 60.5016 95.8698 60.6034 95.9542 60.6882C96.0385 60.7561 96.1734 60.807 96.359 60.807H97.1348V59.8399Z" fill="white"/>
<path d="M69.6594 60.5016L69.2883 61.0954C69.2377 61.1633 69.1871 61.2481 69.1196 61.3499C69.0522 61.4517 68.9847 61.5705 68.9004 61.6892C68.816 61.808 68.7486 61.9268 68.6642 62.0625C68.5799 62.1812 68.5124 62.317 68.4281 62.4357C68.3438 62.5545 68.2763 62.6733 68.2088 62.7751C68.1414 62.8769 68.0908 62.9617 68.0402 63.0296H67.3486V59.1782H68.1076V61.7062H68.1245L68.9172 60.4507L69.7268 59.1782H70.4184V63.0296H69.6594V60.5186V60.5016Z" fill="white"/>
<path d="M74.3818 62.9956V61.3838H72.9651V62.9956H72.2061V59.1443H72.9651V60.7052H74.3818V59.1443H75.1577V62.9956H74.3818Z" fill="white"/>
<path d="M76.9287 59.1613H79.5599V59.8399H77.6877V60.7221H79.29V61.4008H77.6877V62.3H79.5599V62.9787H76.9287V59.1613Z" fill="white"/>
<path d="M83.3384 62.9956V61.3838H81.9216V62.9956H81.1626V59.1443H81.9216V60.7052H83.3384V59.1443H84.1143V62.9956H83.3384Z" fill="white"/>
<path d="M88.044 62.9956V61.3838H86.6272V62.9956H85.8682V59.1443H86.6272V60.7052H88.044V59.1443H88.8198V62.9956H88.044Z" fill="white"/>
<path d="M62.2884 62.3339C62.3727 62.2661 62.4402 62.1982 62.5077 62.1134C62.5752 62.0286 62.6089 61.9268 62.6595 61.791C62.6932 61.6723 62.727 61.5196 62.7438 61.3499C62.7607 61.1802 62.7775 60.9766 62.7944 60.7561L62.8619 59.1782H65.4425C65.4425 59.7042 65.4425 60.2471 65.4425 60.7731C65.4425 61.299 65.4425 61.825 65.4425 62.3679H65.7798V63.8948H65.1051V63.0296H62.7101V63.8948H62.0186V62.3509H62.2884V62.3339ZM63.5534 59.8229L63.5028 60.7391C63.5028 60.9088 63.4859 61.0615 63.4691 61.1972C63.4522 61.3499 63.4353 61.4856 63.4185 61.6214C63.4016 61.7571 63.3679 61.8759 63.3173 61.9946C63.2835 62.1134 63.2161 62.2152 63.1486 62.317H64.6835V59.8229H63.5534Z" fill="white"/>
<path d="M48.7446 59.1613H51.2409V59.8399H49.5036V60.6203H50.3807C50.5662 60.6203 50.7518 60.6543 50.8867 60.7052C51.0385 60.773 51.1566 60.8409 51.2746 60.9597C51.3758 61.0615 51.4602 61.1972 51.5108 61.3329C51.5614 61.4856 51.5951 61.6383 51.5951 61.808C51.5951 61.9437 51.5782 62.0964 51.5276 62.2321C51.477 62.3679 51.4096 62.5036 51.3084 62.6224C51.2072 62.7411 51.0891 62.826 50.9373 62.8938C50.7855 62.9617 50.6 62.9956 50.3976 62.9956H48.7446V59.1613ZM49.4193 62.317H50.1952C50.3638 62.317 50.4988 62.2661 50.6168 62.1643C50.7349 62.0625 50.7686 61.9437 50.7686 61.808C50.7686 61.6553 50.718 61.5365 50.6168 61.4517C50.5156 61.3669 50.3638 61.316 50.1952 61.316H49.4193V62.317Z" fill="white"/>
<path d="M47.0579 61.7741C47.0579 61.9776 47.0241 62.1643 46.9398 62.317C46.8555 62.4697 46.7543 62.6054 46.6193 62.7072C46.4844 62.809 46.3326 62.8938 46.1471 62.9447C45.9616 62.9956 45.776 63.0296 45.5736 63.0296C45.3712 63.0296 45.1857 62.9956 45.0002 62.9447C44.8146 62.8938 44.6628 62.809 44.5279 62.7072C44.393 62.6054 44.2918 62.4697 44.2074 62.317C44.1231 62.1643 44.0894 61.9776 44.0894 61.7741V60.3659C44.0894 60.1623 44.1231 59.9756 44.2074 59.8229C44.2918 59.6702 44.393 59.5345 44.5279 59.4327C44.6628 59.3309 44.8146 59.2461 45.0002 59.1952C45.1857 59.1443 45.3544 59.1104 45.5568 59.1104C45.7423 59.1104 45.9278 59.1443 46.1133 59.1952C46.2989 59.2461 46.4507 59.3309 46.5856 59.4327C46.7205 59.5345 46.8386 59.6702 46.9061 59.8229C46.9904 59.9756 47.0241 60.1623 47.0241 60.3659V61.7741H47.0579ZM46.2989 60.5186C46.2989 60.3998 46.282 60.281 46.2314 60.1962C46.1977 60.1114 46.1302 60.0435 46.0628 59.9756C45.9953 59.9247 45.9278 59.8738 45.8435 59.8569C45.7591 59.8229 45.6748 59.8229 45.5905 59.8229C45.5061 59.8229 45.4218 59.8399 45.3375 59.8569C45.2532 59.8908 45.1688 59.9247 45.1182 59.9756C45.0508 60.0265 45.0002 60.1114 44.9496 60.1962C44.9158 60.281 44.8821 60.3828 44.8821 60.5186V61.6383C44.8821 61.7571 44.899 61.8759 44.9496 61.9607C44.9833 62.0455 45.0508 62.1303 45.1182 62.1812C45.1857 62.2321 45.2532 62.283 45.3375 62.3C45.4218 62.317 45.5061 62.3339 45.5905 62.3339C45.6748 62.3339 45.7591 62.317 45.8435 62.3C45.9278 62.283 45.9953 62.2321 46.0628 62.1812C46.1302 62.1303 46.1808 62.0455 46.2314 61.9607C46.2652 61.8759 46.2989 61.7571 46.2989 61.6383V60.5186Z" fill="white"/>
</svg>
