<svg width="142" height="101" viewBox="0 0 142 101" fill="none" xmlns="http://www.w3.org/2000/svg"><path d="M114.018 7.21H27.965v86.562h86.053V7.211z" fill="#1D1D1D"/><path d="M77.688 44.723c-4.757 0-8.603-3.868-8.603-8.653 0-4.784 3.846-8.653 8.603-8.653a8.52 8.52 0 014.992 1.612l3.323-4.7a14.23 14.23 0 00-8.316-2.68c-5.684 0-10.592 3.325-12.903 8.127-2.327-4.819-7.235-8.127-12.903-8.127-7.927 0-14.336 6.464-14.336 14.421 0 7.974 6.426 14.422 14.337 14.422 5.684 0 10.592-3.326 12.902-8.127 2.328 4.818 7.236 8.127 12.903 8.127 3.104 0 5.971-1.002 8.316-2.681l-3.323-4.7a8.443 8.443 0 01-4.993 1.612zm-25.806 0c-4.757 0-8.602-3.868-8.602-8.653 0-4.784 3.845-8.653 8.602-8.653 4.756 0 8.602 3.869 8.602 8.653 0 4.785-3.863 8.653-8.602 8.653z" fill="#fff"/><path d="M104.472 21.887h-8.366L84.873 36.07l11.233 14.184h8.366L91.805 36.07l12.667-14.183zm-61.951 48.37c-.135.356-.287.611-.455.747-.169.152-.388.22-.641.22h-.405v-.61h.337a.381.381 0 00.22-.051.354.354 0 00.134-.17c0-.017.017-.034.017-.051 0-.017.017-.034.017-.05l-1.214-2.97h.793l.455 1.255c.067.17.118.34.169.476.05.152.084.271.118.373h.033l.304-.9a.46.46 0 01.05-.135c.017-.068.051-.136.085-.22.034-.086.067-.17.101-.272.034-.085.068-.187.101-.255.034-.084.05-.152.068-.203l.034-.102h.758l-1.079 2.918zm2.209.238c.085-.068.152-.136.22-.22.067-.086.1-.188.151-.323a2.56 2.56 0 00.085-.441c.017-.17.033-.374.05-.594l.068-1.578H47.9v3.19h.338v1.527h-.692v-.866h-2.395v.866h-.692v-1.544h.27v-.017zM45.995 68l-.05.916c0 .17-.017.322-.034.458-.017.153-.034.288-.05.424a1.334 1.334 0 01-.102.373c-.034.12-.101.22-.169.323h1.535V68h-1.13zm6.645 1.952c0 .203-.033.39-.117.543a1.203 1.203 0 01-.32.39 1.378 1.378 0 01-.473.237 2.13 2.13 0 01-.573.085 2.13 2.13 0 01-.574-.084 1.377 1.377 0 01-.472-.238 1.12 1.12 0 01-.438-.933v-1.408a1.12 1.12 0 01.438-.934c.135-.101.287-.186.472-.237.186-.051.354-.085.557-.085.185 0 .37.034.556.085.186.05.338.136.473.237.135.102.253.238.32.39.084.153.118.34.118.544v1.408h.034zm-.758-1.256a.65.65 0 00-.068-.322.666.666 0 00-.168-.22c-.068-.051-.135-.102-.22-.12-.084-.033-.168-.033-.253-.033-.084 0-.168.017-.253.034a.672.672 0 00-.219.118.762.762 0 00-.168.22.832.832 0 00-.068.323v1.12a.64.64 0 00.068.322c.033.085.1.17.168.221.068.05.135.102.22.119.084.017.168.034.252.034.085 0 .17-.017.253-.034.085-.017.152-.068.22-.119.067-.05.118-.136.168-.22a.907.907 0 00.068-.323v-1.12zm4.588-.441a.953.953 0 00-.388-.203 1.651 1.651 0 00-.405-.051c-.084 0-.169.017-.253.034a.46.46 0 00-.22.118.762.762 0 00-.168.22.65.65 0 00-.068.323v1.12a.64.64 0 00.068.322c.05.085.101.153.169.221.067.05.151.102.219.119.084.034.169.034.253.034.135 0 .253-.017.388-.051.135-.034.27-.102.405-.204l.354.594c-.135.119-.32.204-.523.272a2.03 2.03 0 01-.641.101c-.185 0-.354-.034-.54-.085a1.548 1.548 0 01-.472-.237 1.252 1.252 0 01-.337-.39 1.125 1.125 0 01-.135-.543v-1.425a1.12 1.12 0 01.438-.934c.135-.101.287-.186.456-.237a1.89 1.89 0 01.54-.085c.219 0 .438.034.64.085.203.05.388.153.523.288l-.303.594zm3.407-.237v3.155h-.76v-3.155h-1.011v-.679h2.782v.679h-1.011zm4.233-.679c.185 0 .354.034.489.102.135.068.253.17.337.288.085.119.152.238.203.39.05.136.067.289.067.425a1.24 1.24 0 01-.64 1.102 1.072 1.072 0 01-.473.102h-.928v1.442h-.759v-3.85h1.704zm-.945 1.714h.776c.169 0 .304-.051.388-.153a.56.56 0 00.135-.373.56.56 0 00-.135-.374c-.084-.101-.22-.152-.388-.152h-.776v1.052zm6.342.899c0 .203-.034.39-.118.543a1.203 1.203 0 01-.32.39 1.378 1.378 0 01-.473.237 2.13 2.13 0 01-.573.085 2.13 2.13 0 01-.574-.084 1.377 1.377 0 01-.472-.238 1.12 1.12 0 01-.438-.933v-1.408a1.12 1.12 0 01.438-.934c.135-.101.287-.186.472-.237.186-.051.355-.085.557-.085.186 0 .371.034.557.085.185.05.337.136.472.237.135.102.253.238.32.39.085.153.118.34.118.544v1.408h.034zm-.759-1.256a.65.65 0 00-.067-.322c-.034-.085-.102-.153-.169-.22a.564.564 0 00-.22-.12c-.084-.033-.168-.033-.252-.033-.085 0-.169.017-.253.034a.672.672 0 00-.22.118.762.762 0 00-.168.22.832.832 0 00-.068.323v1.12a.64.64 0 00.068.322c.034.085.101.17.168.221.068.05.135.102.22.119.084.017.168.034.253.034.084 0 .168-.017.253-.034.084-.017.151-.068.219-.119.067-.05.118-.136.169-.22a.907.907 0 00.067-.323v-1.12zm4.739-.016l-.37.593c-.051.068-.102.153-.17.255-.067.101-.134.22-.219.339-.084.119-.151.237-.236.373a4.556 4.556 0 00-.236.374c-.067.118-.152.237-.219.339-.068.102-.118.186-.169.254h-.691v-3.851h.759v2.528h.017l.792-1.256.81-1.272h.691v3.851h-.758V68.68zm4.065-.662v3.155h-.759v-3.155h-1.012v-.679h2.783v.679h-1.012zm2.513-.679h2.632v.679h-1.873v.882h1.603v.678h-1.603v.9h1.873v.678h-2.632V67.34zm5.567.679v1.018c0 .322-.017.61-.05.865a1.999 1.999 0 01-.203.678 1.32 1.32 0 01-.405.459c-.169.118-.388.186-.658.22l-.169-.628a1.2 1.2 0 00.388-.203.785.785 0 00.22-.306c.05-.118.084-.271.1-.458a5.75 5.75 0 00.035-.627v-1.73h2.513v3.85h-.776v-3.155l-.995.017zm3.525 3.155v-3.851h.759v1.46h.877c.185 0 .354.033.506.084a.97.97 0 01.37.254c.102.102.186.238.237.374.05.152.084.305.084.475 0 .136-.016.288-.067.424-.05.136-.118.271-.203.39-.1.119-.219.204-.37.289a1.295 1.295 0 01-.54.101h-1.653zm.759-.678h.793a.544.544 0 00.404-.153.49.49 0 00.152-.356.44.44 0 00-.152-.357.63.63 0 00-.421-.135h-.776v1zm5.684.678v-1.611h-1.417v1.611h-.759v-3.851h.76v1.56H95.6v-1.56h.776v3.851H95.6zm-56.773-2.918a.953.953 0 00-.388-.203 1.65 1.65 0 00-.405-.051c-.084 0-.168.017-.253.034a.46.46 0 00-.219.118c-.067.051-.118.136-.169.22a.65.65 0 00-.067.323v1.12c0 .119.017.238.067.322.051.085.102.153.17.221a.697.697 0 00.471.153c.135 0 .253-.017.388-.051a1.14 1.14 0 00.405-.204l.354.594c-.135.119-.32.204-.523.272a2.03 2.03 0 01-.64.101 1.98 1.98 0 01-.54-.085 1.548 1.548 0 01-.473-.237 1.253 1.253 0 01-.337-.39 1.125 1.125 0 01-.135-.543v-1.425c0-.204.034-.39.118-.543a1.21 1.21 0 01.32-.39 1.46 1.46 0 01.456-.238 1.89 1.89 0 01.54-.085c.22 0 .438.034.64.085.203.05.389.153.524.288l-.304.594zm61.344 2.138h-1.333l-.252.797h-.81l1.35-3.851h.775l1.333 3.851h-.827l-.236-.797zm-1.113-.645h.927l-.151-.492-.304-1.018h-.017l-.287 1.001-.168.51zm6.358-2.409v3.851h-.759v-1.527h-.438c-.085 0-.152 0-.203.017a.319.319 0 00-.168.085.39.39 0 00-.135.153c-.034.068-.085.153-.101.254l-.287 1.018h-.844l.321-1.052c.051-.135.101-.271.152-.373a.526.526 0 01.253-.254.777.777 0 01-.287-.153.839.839 0 01-.186-.238.853.853 0 01-.101-.288 1.864 1.864 0 01-.033-.305c0-.153.016-.289.067-.424a1.05 1.05 0 01.219-.374c.101-.102.22-.203.371-.271.152-.068.321-.102.523-.102h1.636v-.017zm-.725.679h-.759a.63.63 0 00-.422.135.531.531 0 00-.135.374.45.45 0 00.135.339c.085.068.22.119.405.119h.776v-.967zM49.099 79.351V75.5h.759v1.544h.388c.067 0 .151 0 .202-.017a.819.819 0 00.185-.068.649.649 0 00.152-.153.891.891 0 00.118-.254l.338-1.052h.776l-.338 1.12a2.08 2.08 0 01-.219.475.767.767 0 01-.32.254.67.67 0 01.37.272c.085.135.17.288.22.475l.37 1.238h-.826l-.32-1.12a1.992 1.992 0 00-.101-.254c-.05-.068-.085-.119-.152-.153a.352.352 0 00-.186-.068c-.067-.017-.135-.017-.219-.017h-.422v1.63H49.1zM69.98 78.13a1.12 1.12 0 01-.439.933 1.377 1.377 0 01-.472.237 2.128 2.128 0 01-.573.085 2.13 2.13 0 01-.574-.085 1.377 1.377 0 01-.472-.237 1.12 1.12 0 01-.439-.933v-1.41a1.12 1.12 0 01.439-.933c.135-.102.287-.186.472-.237.186-.051.354-.085.557-.085.185 0 .37.034.556.085.186.05.338.135.472.237.135.102.253.238.321.39.084.153.118.34.118.543v1.408h.034zm-.76-1.256a.649.649 0 00-.067-.322.666.666 0 00-.168-.22.554.554 0 00-.22-.12c-.084-.034-.168-.034-.253-.034-.084 0-.168.017-.253.034a.66.66 0 00-.219.12.76.76 0 00-.169.22.833.833 0 00-.067.322v1.12a.65.65 0 00.067.322c.034.085.102.17.17.22a.55.55 0 00.218.12c.085.016.169.033.253.033.085 0 .169-.017.253-.033a.554.554 0 00.22-.12.74.74 0 00.168-.22.91.91 0 00.068-.322v-1.12zm4.15-1.374a1.1 1.1 0 01.49.102.93.93 0 01.337.288c.084.119.151.237.202.39.05.136.067.289.067.424a1.24 1.24 0 01-.64 1.103 1.073 1.073 0 01-.473.102h-.927v1.442h-.76V75.5h1.704zm-.945 1.713h.776c.169 0 .304-.05.388-.152a.561.561 0 00.135-.374.561.561 0 00-.135-.373c-.084-.102-.219-.153-.388-.153h-.775v1.052zM64.6 79.351v-3.156h-1.418v3.156h-.759V75.5h2.935v3.851H64.6zM59.86 75.5c.185 0 .354.034.489.102a.93.93 0 01.337.288c.085.119.152.237.203.39.05.136.067.289.067.424a1.24 1.24 0 01-.64 1.103 1.073 1.073 0 01-.473.102h-.928v1.442h-.759V75.5h1.704zm-.945 1.713h.776c.169 0 .304-.05.388-.152a.56.56 0 00.135-.374.56.56 0 00-.135-.373c-.084-.102-.22-.153-.388-.153h-.776v1.052zm-2.445.917c0 .203-.034.39-.119.542a1.204 1.204 0 01-.32.39 1.378 1.378 0 01-.472.238 2.13 2.13 0 01-.574.085 2.13 2.13 0 01-.573-.085 1.376 1.376 0 01-.472-.237 1.12 1.12 0 01-.439-.933v-1.41a1.12 1.12 0 01.439-.933 1.36 1.36 0 01.472-.237 2 2 0 01.556-.085c.186 0 .371.034.557.085.186.05.337.135.472.237.135.102.253.238.32.39.085.153.119.34.119.543v1.408h.033zm-.76-1.256a.649.649 0 00-.067-.322.683.683 0 00-.169-.22.555.555 0 00-.219-.12c-.084-.034-.169-.034-.253-.034-.084 0-.169.017-.253.034-.084.034-.169.068-.22.12a.76.76 0 00-.168.22.831.831 0 00-.067.322v1.12a.65.65 0 00.067.322.54.54 0 00.169.22.551.551 0 00.22.12c.083.016.168.033.252.033.084 0 .169-.017.253-.033a.555.555 0 00.22-.12c.067-.05.117-.135.168-.22a.908.908 0 00.068-.322v-1.12zm22.163 1.68h-1.332l-.253.797h-.81l1.35-3.851h.775l1.333 3.851h-.827l-.236-.797zm-1.13-.628h.928l-.152-.492-.304-1.018h-.017l-.286 1-.169.51zm6.544-2.426v3.172h.338v1.544h-.692v-.865h-2.58V75.5h.759v3.172h1.416V75.5h.76zm4.2 1.34l-.371.594c-.05.068-.101.153-.169.254-.067.102-.135.221-.219.34-.084.118-.152.237-.236.373-.085.136-.152.255-.236.373-.068.119-.152.238-.22.34-.067.101-.118.186-.168.254h-.692V75.5h.76v2.545h.016l.793-1.256.81-1.272h.691v3.851h-.759V76.84zm5.414-1.34v3.851h-.759v-1.527h-.438c-.085 0-.152 0-.203.017a.32.32 0 00-.169.085.4.4 0 00-.134.153c-.034.068-.085.152-.102.254l-.286 1.018h-.844l.32-1.052c.051-.136.102-.271.153-.373a.528.528 0 01.253-.255.775.775 0 01-.287-.152c-.085-.068-.135-.153-.186-.238a.839.839 0 01-.1-.288 1.876 1.876 0 01-.035-.306 1.178 1.178 0 01.287-.797 1.24 1.24 0 01.371-.272c.152-.067.32-.101.523-.101h1.636V75.5zm-.759.695h-.759a.63.63 0 00-.422.136.53.53 0 00-.135.373.45.45 0 00.135.34.64.64 0 00.405.118h.776v-.967zM53.72 62.996v-3.173h-1.13v-.662h1.89v1.46h.893c.186 0 .355.033.506.084.152.068.27.136.371.255.102.102.186.237.236.373.051.153.085.305.085.475 0 .136-.017.288-.068.424-.05.136-.118.272-.202.39a1 1 0 01-.371.272c-.152.068-.32.102-.54.102h-1.67zm.76-.679h.792a.54.54 0 00.405-.153.49.49 0 00.152-.356.44.44 0 00-.152-.356.613.613 0 00-.405-.136h-.793v1.001zm3.508-3.156h2.631v.679h-1.872v.882h1.602v.679h-1.602v.899h1.872v.679h-2.631V59.16zm34.643 3.054H91.3l-.253.798h-.81l1.35-3.852h.776l1.332 3.852h-.826l-.237-.798zm-1.113-.645h.928l-.152-.492-.303-1.018h-.017l-.287 1.002-.169.509zm6.359-2.409v3.852h-.759v-1.527h-.439c-.084 0-.151 0-.219.017a.32.32 0 00-.168.084.4.4 0 00-.135.153 1.97 1.97 0 00-.102.255l-.286 1.018h-.844l.32-1.052c.051-.136.102-.272.153-.374a.528.528 0 01.253-.254.775.775 0 01-.287-.153c-.085-.068-.135-.152-.186-.237a.839.839 0 01-.1-.289 1.876 1.876 0 01-.035-.305 1.178 1.178 0 01.287-.797 1.24 1.24 0 01.371-.272c.152-.068.32-.102.523-.102h1.653v-.017zm-.742.679h-.76c-.185 0-.32.05-.42.136a.53.53 0 00-.136.373c0 .153.05.254.135.34a.64.64 0 00.405.118h.776v-.967zm-27.475.662l-.372.593c-.05.068-.1.153-.168.255-.068.102-.135.22-.22.34-.084.118-.151.237-.236.373-.084.118-.152.254-.236.373-.084.118-.152.237-.22.34-.067.1-.117.186-.168.254h-.691v-3.852h.759v2.528h.016l.793-1.255.81-1.273h.691v3.852h-.759v-2.528zm4.722 2.494v-1.612h-1.417v1.612h-.759v-3.852h.76v1.561h1.416v-1.56h.776v3.85h-.776zm2.547-3.835h2.63v.679h-1.871v.882h1.602v.679h-1.602v.899h1.872v.679h-2.631V59.16zm6.409 3.835v-1.612h-1.416v1.612h-.76v-3.852h.76v1.561h1.416v-1.56h.776v3.85h-.776zm4.706 0v-1.612h-1.417v1.612h-.759v-3.852h.76v1.561h1.416v-1.56h.776v3.85h-.776zm-25.756-.662c.085-.068.152-.136.22-.22.067-.085.1-.187.151-.323.034-.119.068-.271.085-.441.017-.17.034-.373.05-.594l.068-1.578h2.58v3.19h.338v1.527h-.675v-.865H62.71v.865h-.691V62.35h.27v-.017zm1.265-2.511l-.05.916c0 .17-.017.323-.034.458-.017.153-.034.289-.05.424a1.35 1.35 0 01-.102.374c-.034.118-.1.22-.168.322h1.534v-2.494h-1.13zm-14.808-.662h2.496v.679h-1.737v.78h.877c.185 0 .37.034.506.085.151.068.27.136.388.255.1.102.185.237.236.373.05.153.084.305.084.475a1.24 1.24 0 01-.287.814.988.988 0 01-.37.272 1.332 1.332 0 01-.54.102h-1.653V59.16zm.674 3.156h.776a.61.61 0 00.422-.153.433.433 0 00.152-.356.44.44 0 00-.152-.356.661.661 0 00-.422-.136h-.776v1.001zm-2.361-.543a1.12 1.12 0 01-.439.933 1.377 1.377 0 01-.472.238 2.13 2.13 0 01-.573.085 2.13 2.13 0 01-.574-.085 1.376 1.376 0 01-.472-.238 1.12 1.12 0 01-.439-.933v-1.408a1.12 1.12 0 01.439-.933 1.38 1.38 0 01.472-.238c.186-.05.354-.085.557-.085.185 0 .37.034.556.085.186.051.338.136.473.238.135.102.253.237.32.39.084.153.118.34.118.543v1.408h.034zm-.76-1.255a.65.65 0 00-.067-.323c-.033-.085-.1-.152-.168-.22-.068-.051-.135-.102-.22-.12-.084-.033-.168-.033-.253-.033-.084 0-.168.017-.253.034-.084.034-.168.068-.219.119a.74.74 0 00-.168.22.831.831 0 00-.068.323v1.12a.65.65 0 00.068.322c.033.084.1.17.168.22.068.051.135.102.22.119.084.017.168.034.252.034.085 0 .17-.017.253-.034a.555.555 0 00.22-.119c.067-.05.118-.136.168-.22a.907.907 0 00.068-.323v-1.12z" fill="#fff"/></svg>