<svg width="176" height="54" viewBox="0 0 176 54" fill="none" xmlns="http://www.w3.org/2000/svg"><g clip-path="url(#clip0_2986_18316)" fill="#1D1D1D"><path d="M11.537 46.058C4.06 46.058 0 40.743 0 34.083c0-6.731 4.78-12.238 12.628-12.238 2.083 0 3.893.269 5.462 1.077v4.34a9.857 9.857 0 00-5.29-1.456c-5.324 0-7.289 3.883-7.289 7.942 0 4.54 2.477 8.14 6.811 8.14 1.911 0 3.448-.522 5.295-1.497l1.327 3.517c-2.763 1.716-5.122 2.153-7.407 2.153m84.067 0c-5.528 0-8.372-4.003-8.372-8.782 0-5.34 3.755-8.881 8.774-8.881 2.216 0 3.378.437 4.299.97v3.836c-1.231-.874-2.216-1.177-3.583-1.177-2.834 0-4.656 2.053-4.656 5.012 0 2.657 1.413 5.25 4.587 5.25.887 0 2.061-.379 3.325-1.017l1.182 3.17c-1.436.941-3.825 1.614-5.566 1.614m15.384-13.49v13.152h-4.925v-13.15h-4.76v-3.835h15.087l-1.066 3.835-4.336-.002zm23.768-1.85c0 5.92-.247 9.014-1.33 10.437a3.6 3.6 0 01-2.288 1.313l1.365 3.6c1.127-.035 2.868-.505 4.063-1.683 1.571-1.514 2.08-3.432 2.319-5.451.22-1.831.334-3.673.343-5.517v-.84h3.853v13.153h4.925v-16.99h-13.24l-.01 1.978zm-55.722-2.318c-1.91 0-3.378.91-4.642 1.886l-.546-1.549h-4.13v25.267l4.925-1.48v-7.17a7.176 7.176 0 003.312.706c5.085 0 8.156-4.272 8.156-9.318-.01-5.383-3.113-8.342-7.075-8.342zM76.74 42.563a3.684 3.684 0 01-2.118-.672v-8.044c.581-.874 2.118-1.917 3.413-1.917 1.97 0 3.14 1.245 3.14 4.745 0 2.888-1.09 5.886-4.435 5.886v.002zm46.706-14.165c-2.322 0-4.57.354-6.929 1.86l1.477 2.931a9.018 9.018 0 014.393-1.15c1.704 0 3.229.742 3.229 2.529v.289l-2.98.111c-4.349.144-7.286 2.003-7.286 5.583 0 3.364 2.462 5.507 5.727 5.507a6.984 6.984 0 004.861-1.823l.764 1.488h3.846V34.69c.01-4.47-2.529-6.291-7.102-6.291zm2.18 13.121a4.747 4.747 0 01-2.758.787c-1.672 0-2.613-.823-2.613-2.107 0-1.284 1.014-2.002 3.12-2.075l2.251-.07v3.465zm31.909-7.267h-2.527v-6.26l-4.925 1.3v16.431h6.287c4.573 0 8.84-1.213 8.84-5.888.005-3.969-3.442-5.585-7.675-5.585v.002zm-.82 8.122h-1.707V37.62h1.64c1.739 0 3.652.27 3.652 2.287s-1.64 2.463-3.585 2.463v.003zm-109.09-5.9v-.137c1.604-.335 2.936-1.378 2.936-3.6 0-2.65-2.258-3.616-4.477-3.91-.68-.09-2.17-.092-2.999-.092h-7.026v16.99h5.91c.653 0 1.626 0 2.384-.024 3.103-.145 6.935-1.237 6.935-5.191-.01-2.425-1.343-3.636-3.662-4.04v.003zM41.07 31.97h2.024c2.012 0 2.765.607 2.765 1.65 0 1.311-1.231 1.714-3.277 1.714H41.08l-.01-3.364zm1.91 10.531h-2.014v-4.174h1.776c2.354 0 3.617.538 3.617 2.053 0 1.61-1.672 2.119-3.379 2.119v.002zm-8.54-5.422c0-5.25-3.277-8.682-7.988-8.682-5.154 0-8.055 4.104-8.055 8.884 0 4.473 2.527 8.779 8.67 8.779a12.606 12.606 0 006.792-1.942l-1.093-3.06c-1.945.91-3.201 1.213-4.88 1.213-2.288 0-4.473-1.413-4.576-3.702h11.13v-1.49zm-11.23-1.85c0-1.548 1.127-3.298 3.104-3.298 2.086 0 3.005 1.682 3.108 3.299h-6.213zm45.09 1.85c0-5.25-3.278-8.682-7.988-8.682-5.154 0-8.055 4.104-8.055 8.884 0 4.473 2.526 8.779 8.67 8.779a12.601 12.601 0 006.792-1.942l-1.093-3.06c-1.943.91-3.202 1.213-4.881 1.213-2.285 0-4.47-1.413-4.573-3.702H68.3v-1.49zm-11.231-1.85c0-1.548 1.127-3.298 3.105-3.298 2.083 0 3.004 1.682 3.107 3.299H57.07zM173.964 16.73a3.23 3.23 0 01-.862.433c-.985.303-2.172.024-3.251-.41a17.295 17.295 0 01-2.415-1.219 28.225 28.225 0 001.206-3.612 24.94 24.94 0 00.86-5.522 16.082 16.082 0 00-.126-2.73c-.153-1.138-.505-2.296-1.258-2.98a3.477 3.477 0 00-.855-.535 23.204 23.204 0 014.113-.09c1.268.107 2.558.416 3.312 1.144.753.728 1.086 1.997 1.231 3.24a20.565 20.565 0 01-.025 4.046 31.772 31.772 0 01-.926 5.024c-.3 1.15-.65 2.258-1.004 3.212zm-18.58-.941a3.183 3.183 0 01.052-.954c.219-.971 1.064-1.864 1.985-2.568a17.167 17.167 0 012.29-1.456 28.162 28.162 0 002.568 2.844 25.631 25.631 0 004.433 3.496c.783.486 1.607.907 2.462 1.26 1.076.438 2.27.727 3.248.412a3.27 3.27 0 00.896-.461 22.22 22.22 0 01-1.97 3.555c-.738 1.03-1.642 1.979-2.659 2.255-1.017.277-2.298-.07-3.448-.58a21.387 21.387 0 01-3.563-2.039 32.866 32.866 0 01-3.94-3.303 27.81 27.81 0 01-2.354-2.461zM165.48.393c.296.132.57.307.813.52.751.68 1.106 1.842 1.263 2.98.114.885.156 1.778.126 2.67a28.542 28.542 0 00-3.775.777 25.9 25.9 0 00-5.282 2.024c-.82.426-1.601.919-2.337 1.473-.924.7-1.766 1.58-1.987 2.566a3.152 3.152 0 00-.042.997 22.323 22.323 0 01-2.138-3.466c-.539-1.138-.916-2.393-.652-3.398.263-1.004 1.214-1.927 2.241-2.67a21.402 21.402 0 013.573-2.021 33.235 33.235 0 014.878-1.721 41.304 41.304 0 013.319-.73z"/></g><defs><clipPath id="clip0_2986_18316"><path fill="#fff" d="M0 0h176v54H0z"/></clipPath></defs></svg>