<svg width="115" height="56" viewBox="0 0 115 56" fill="none" xmlns="http://www.w3.org/2000/svg"><path d="M35.968 36.255h7.15v2.315h-3.401v16.267h-3.749V36.255zM47.356 47.86L48 38.57h.215l.642 9.29h-1.5zm-4.15 6.977h3.67l.347-4.935h1.767l.35 4.935h3.668l-1.955-18.582H45.16l-1.955 18.582zm15.17-6.504v3.503c0 .472.369.61.584.61a.6.6 0 00.6-.61v-4.325c0-.58-.108-1.219-1.507-1.219h-1.521v-2.04h1.583c1.06 0 1.444-.245 1.444-1.387V39.18a.6.6 0 00-.599-.609c-.215 0-.584.122-.584.61v3.03h-3.75v-2.635c0-1.294.154-3.32 2.782-3.32h3.104c2.628 0 2.797 2.026 2.797 3.32v2.97c0 2.026-1.429 2.574-2.55 2.529v.182c2.52-.06 2.55 1.859 2.55 2.514v3.746c0 1.31-.169 3.32-2.797 3.32h-3.104c-2.628 0-2.782-2.01-2.782-3.32v-3.183h3.75zm7.393-12.078h8.683v18.582h-3.75V38.57h-1.183v16.267h-3.75V36.255zm14.892 10.22V38.57h.492c.4 0 .692.335.692.93v6.046c0 .594-.293.929-.692.929h-.492zm-3.75 8.362h3.75v-6.321h2.152c2.612 0 2.782-2.01 2.782-3.32v-5.62c0-1.295-.17-3.32-2.782-3.32H76.91v18.58zm16.076-3.001a.6.6 0 01-.6.61c-.215 0-.584-.138-.584-.61V39.18c0-.487.37-.609.585-.609a.6.6 0 01.599.61v12.656zm-4.933-.32c0 1.31.168 3.32 2.781 3.32h3.12c2.613 0 2.782-2.01 2.782-3.32v-11.94c0-1.295-.17-3.32-2.782-3.32h-3.12c-2.612 0-2.781 2.025-2.781 3.32v11.94zm20.886-15.261h4.887v18.582h-3.75V43.185h-.138l-1.937 11.652h-2.996l-1.922-11.652h-.138v11.652h-3.75V36.255h4.872l2.444 13.068 2.428-13.068zM31.108 10.85c-1.148-4.98-4.025-9.032-4.421-9.687-.627.93-2.922 4.509-4.088 8.469-1.274 4.432-1.462 8.361-1.022 12.215.436 3.868 2.085 7.844 2.085 7.844.876 2.071 2.189 4.31 3.043 5.406 1.253-1.614 4.132-6.427 5.029-12.702.5-3.503.521-6.564-.626-11.545zm-4.42 23c-.564-1.051-1.44-3.046-1.523-6.154-.022-2.985 1.188-5.559 1.541-6.092.315.533 1.357 2.772 1.482 5.833.084 2.986-.918 5.346-1.5 6.413zm4.088-14.546c-.043 1.904-.272 3.915-.564 5.118.104-2.072-.146-4.98-.626-7.265-.48-2.27-1.836-6.077-2.92-7.829-1 1.675-2.233 4.965-2.878 7.813-.649 2.849-.667 6.306-.667 7.342-.172-.869-.603-3.99-.481-7.113.101-2.574.71-5.24 1.043-6.458 1.273-4.066 2.713-6.67 2.983-7.082.27.411 2.084 3.625 3.025 6.99.936 3.367 1.125 6.596 1.085 8.484z" fill="#1D1D1D"/><path d="M28.634 36.255h-8.728v5.803c.008 0 .014-.015.022-.015a5.297 5.297 0 017.449 0 5.175 5.175 0 010 7.371c-.01.016-.018.016-.028.03-.01 0-.021.016-.03.031a10.56 10.56 0 01-7.413 3.016c-2.693 0-5.385-1.005-7.438-3.046a10.351 10.351 0 01-1.29-13.19c.372-.548.8-1.066 1.29-1.553 2.053-2.041 4.745-3.047 7.438-3.047V17.704c-10.346 0-18.733 8.3-18.733 18.551 0 10.25 8.387 18.566 18.733 18.566 5.395 0 10.254-2.27 13.672-5.879V36.255h-4.944z" fill="#1D1D1D"/></svg>