<svg width="24" height="25" viewBox="0 0 24 25" fill="none" xmlns="http://www.w3.org/2000/svg"><path d="M5.143 17.529h-.915A1.829 1.829 0 012.4 15.7V7.471c0-1.01.819-1.828 1.828-1.828h8.229c1.01 0 1.829.819 1.829 1.828V15.7a1.83 1.83 0 01-1.829 1.829h-.914m4.114 0H15.2a.914.914 0 01-.914-.915V8.843c0-.505.409-.914.914-.914h2.303c.278 0 .54.126.714.343l3.183 3.977c.13.163.2.364.2.572v3.793c0 .505-.41.915-.914.915m-10.057-.458a2.286 2.286 0 11-4.572 0 2.286 2.286 0 014.572 0zm9.6 0a2.286 2.286 0 11-4.572 0 2.286 2.286 0 014.572 0z" stroke="#919191" stroke-linecap="round"/></svg>