<svg width="16" height="16" viewBox="0 0 16 16" fill="none" xmlns="http://www.w3.org/2000/svg"><path fill-rule="evenodd" clip-rule="evenodd" d="M2.134 8.071l.001.003c.046.11.119.27.22.463.205.387.526.906.988 1.426.919 1.033 2.394 2.07 4.665 2.107 2.26.037 3.729-.994 4.646-2.044a7.283 7.283 0 001.213-1.951 7.368 7.368 0 00-1.195-1.998C11.76 4.996 10.29 3.927 8 3.927s-3.76 1.07-4.672 2.148a7.37 7.37 0 00-1.19 1.985l-.004.01zM14.4 8.08l.477-.15v-.002l-.002-.004-.005-.014a7.36 7.36 0 00-.326-.777 8.367 8.367 0 00-1.108-1.7C12.383 4.183 10.652 2.927 8 2.927c-2.653 0-4.383 1.256-5.436 2.503a8.37 8.37 0 00-1.358 2.267 4.96 4.96 0 00-.076.211l-.005.014-.001.004v.002l.476.15-.477-.15-.05.158.054.155.473-.163-.473.163v.001l.001.002.002.004.004.013a2.992 2.992 0 00.08.202c.056.132.14.317.257.539a8.258 8.258 0 001.125 1.624c1.06 1.193 2.785 2.4 5.396 2.443 2.622.043 4.353-1.17 5.415-2.386a8.282 8.282 0 001.381-2.22 5.024 5.024 0 00.08-.207l.004-.013.002-.005v-.001l-.474-.159zm0 0l.474.158.051-.153-.048-.155-.477.15zM8 6.962c-.62 0-1.1.486-1.1 1.057S7.38 9.076 8 9.076c.62 0 1.1-.486 1.1-1.057 0-.57-.48-1.057-1.1-1.057zM5.9 8.02c0-1.148.953-2.057 2.1-2.057 1.147 0 2.1.909 2.1 2.057 0 1.15-.953 2.057-2.1 2.057-1.147 0-2.1-.908-2.1-2.057z" fill="currentColor"/></svg>