<svg width="24" height="24" viewBox="0 0 24 24" fill="none" xmlns="http://www.w3.org/2000/svg"><path d="M21.504 18.38h-2.282c-.863 0-1.123-.698-2.67-2.246-1.352-1.303-1.923-1.465-2.265-1.465-.473 0-.602.13-.602.78v2.053c0 .555-.18.88-1.63.88a8.9 8.9 0 01-6.955-4.17 18.2 18.2 0 01-3.6-7.558c0-.342.13-.652.782-.652h2.28c.586 0 .797.261 1.027.864 1.107 3.258 2.996 6.092 3.763 6.092.294 0 .422-.13.422-.863V8.739c-.097-1.531-.91-1.66-.91-2.214a.563.563 0 01.585-.523h3.584c.49 0 .652.244.652.83v4.53c0 .489.21.65.358.65.294 0 .52-.161 1.059-.7a18.797 18.797 0 002.802-4.659.98.98 0 01.993-.65h2.281c.684 0 .829.342.684.83a28.502 28.502 0 01-3.062 5.262c-.246.375-.344.57 0 1.01.226.342 1.026 1.01 1.563 1.645.782.78 1.431 1.682 1.922 2.67.196.636-.13.96-.781.96z" fill="currentColor"/></svg>