<svg width="155" height="159" viewBox="0 0 155 159" fill="none" xmlns="http://www.w3.org/2000/svg">
<path d="M134.742 90.6219L174.949 112.713L87.34 157.765L1 110.326L41.0351 89.739" stroke="#6F6F6F"/>
<line x1="88.1577" y1="50.6104" x2="88.1577" y2="133.863" stroke="#C8C8C8" stroke-dasharray="4 4"/>
<line x1="135.541" y1="26.5645" x2="135.541" y2="109.129" stroke="#C8C8C8" stroke-dasharray="4 4"/>
<line x1="41.6426" y1="25.8765" x2="41.6426" y2="108.319" stroke="#C8C8C8" stroke-dasharray="4 4"/>
<line x1="62.5737" y1="37.2732" x2="62.5737" y2="120.526" stroke="#C8C8C8" stroke-dasharray="4 4"/>
<line x1="112.538" y1="38.4819" x2="112.538" y2="120.439" stroke="#C8C8C8" stroke-dasharray="4 4"/>
<line y1="-0.5" x2="53.8808" y2="-0.5" transform="matrix(-0.888142 0.45957 0.45957 0.888142 135.511 109.13)" stroke="#6F6F6F"/>
<line y1="-0.5" x2="53.8808" y2="-0.5" transform="matrix(-0.876776 -0.480898 -0.480898 0.876776 87.6577 133.863)" stroke="#6F6F6F"/>
<line y1="-0.5" x2="53.8808" y2="-0.5" transform="matrix(-0.876776 -0.480898 -0.480898 0.876776 87.6577 107.405)" stroke="#6F6F6F"/>
<line y1="-0.5" x2="53.8808" y2="-0.5" transform="matrix(-0.876776 -0.480898 -0.480898 0.876776 87.9746 79.8845)" stroke="#6F6F6F"/>
<line y1="-0.5" x2="53.8808" y2="-0.5" transform="matrix(-0.888142 0.45957 0.45957 0.888142 135.511 82.6426)" stroke="#6F6F6F"/>
<line x1="135.579" y1="55.22" x2="87.8881" y2="80.0041" stroke="#6F6F6F"/>
<rect x="0.882864" y="0.0121154" width="52.7677" height="52.969" transform="matrix(0.889306 -0.457312 0.876423 0.481543 40.8217 25.5865)" stroke="#CA0001"/>
</svg>
