<svg width="146" height="166" viewBox="0 0 146 166" fill="none" xmlns="http://www.w3.org/2000/svg">
<rect x="0.882027" y="0.0121329" width="97.0963" height="97.1059" transform="matrix(0.888506 -0.458865 0.875548 0.483131 0.0877178 119.013)" stroke="#6F6F6F"/>
<line opacity="0.2" x1="1.27148" y1="46.5874" x2="1.27149" y2="118.788" stroke="#6F6F6F" stroke-dasharray="4 4"/>
<rect x="0.881997" y="0.0141851" width="96.13" height="96.7986" transform="matrix(0.889571 -0.456796 0.874422 0.485167 0.881869 44.7788)" stroke="#CA0001"/>
<g clip-path="url(#clip0_2986_18050)">
<path d="M107.398 28.8489C105.913 28.4766 104.109 28.3919 102.389 28.548C97.5431 29.0651 92.8764 31.3379 91.5029 33.8477C90.6755 35.1737 91.2474 36.6547 92.626 37.7713C94.8325 39.6362 98.3559 41.3903 102.673 41.4101C107.463 41.2996 111.685 39.6379 114.089 37.4219C114.216 37.324 114.591 36.9974 114.755 36.7203L114.81 36.6476C115.417 35.8828 115.709 34.9971 115.507 34.1067C114.748 31.8912 111.19 29.8241 107.398 28.8489ZM108.343 35.1107C108.762 35.464 108.954 35.9557 108.581 36.3627C108.066 37.053 106.719 37.6324 105.406 37.816C104.205 37.9147 103.29 37.5123 102.419 37.134C100.814 36.3309 99.0757 35.5005 98.1059 34.5088C97.5766 33.8577 98.2919 33.2496 99.0755 32.7744C99.9673 32.313 100.97 31.9374 102.234 32.0416C103.088 32.1433 103.735 32.5195 104.405 32.8133C105.65 33.5189 107.279 34.286 108.343 35.1107ZM82.6047 49.8989C81.8032 50.2649 81.0222 50.7388 80.2016 51.0687L72.4033 46.7852L72.3844 46.7258L74.6277 45.5419C73.3819 44.8363 72.043 44.081 70.8162 43.4851L62.1654 47.9355L60.7692 48.6839C61.9265 49.34 63.3063 50.0937 64.5332 50.7398C65.3359 50.3499 66.0431 49.9585 66.8685 49.6056L74.4428 53.7426L74.7319 53.9241L72.5115 55.1216C73.6891 55.815 74.9154 56.4848 76.1875 57.1294L86.2807 51.9073L82.6047 49.8989ZM113.354 39.6751C113.754 40.9149 113.855 42.2604 113.553 43.5041C113.574 43.5671 113.411 43.6236 113.303 43.6112C112.374 43.714 111.465 43.8747 110.56 43.9655C110.425 43.112 110.266 42.2702 109.854 41.4607L109.142 41.8291C109.4 42.5754 109.672 43.3582 109.65 44.149C108.242 44.4518 106.971 44.7307 105.672 45.1164L105.472 45.1292C105.182 44.8005 105.056 44.4161 104.701 44.1255L104.084 44.4451L104.67 45.4221C103.032 45.9619 101.386 46.6459 99.9242 47.3084C99.655 47.2351 99.456 47.0297 99.1861 46.9789L98.5911 47.2868C98.8119 47.4576 99.1298 47.5079 99.2145 47.7005C97.86 48.47 96.6448 49.2664 95.5887 50.1L93.784 49.7739C93.5576 49.8911 93.2602 49.9995 93.1687 50.1177L95.0543 50.5404L95.0511 50.6113C94.3193 51.3026 93.6609 52.0156 93.0789 52.7471L92.9422 52.7691C91.6093 52.7242 90.2369 52.632 88.975 52.479C88.4806 52.3296 88.2454 52.6883 87.9485 52.7942C89.4774 53.0472 91.0797 53.141 92.7033 53.2502C92.4432 53.7651 92.2264 54.3013 91.875 54.7942C89.4188 54.9416 86.9272 54.8787 84.4945 54.6078C84.1756 54.7263 84.0142 54.8309 83.7614 54.9871C87.9493 55.5217 92.7403 55.4115 96.733 54.7441C96.733 54.7441 96.7131 54.7332 96.7378 54.7205C96.7573 54.7104 96.8442 54.7092 96.8219 54.7457C99.5003 54.2843 102.048 53.6295 104.351 52.7232C112.291 49.5858 116.036 44.4983 114.086 39.2974C113.818 39.4096 113.573 39.5362 113.354 39.6751ZM105.817 45.707L105.84 45.6477C107.049 45.2588 108.298 44.9449 109.59 44.7252C109.679 45.5537 109.455 46.4296 109.188 47.2074C108.973 47.6491 108.782 48.1069 108.498 48.5364L107.093 48.8134L107.006 48.6945C106.74 47.6715 106.358 46.6832 105.817 45.707ZM100.638 47.6753C101.968 47.0131 103.406 46.4106 104.906 45.9415L104.998 45.966C105.56 46.9534 105.918 48.003 106.139 49.0472C105.793 49.2746 105.275 49.379 104.862 49.5671L104.425 49.7445C103.066 49.0495 101.883 48.4292 100.638 47.6753ZM96.6234 50.1786C97.5907 49.4412 98.648 48.7049 99.9289 48.0421L103.722 50.0886C103.348 50.3966 102.822 50.6689 102.478 50.9683C100.445 50.8561 98.4863 50.613 96.5974 50.2862L96.6234 50.1786ZM94.1408 52.7439C94.6111 52.049 95.2342 51.3928 95.9512 50.7633L96.0676 50.728C97.955 51.0551 99.9376 51.2604 101.92 51.4671C101.781 51.7296 101.497 51.9907 101.359 52.2548C99.054 52.6419 96.6361 52.8192 94.2065 52.7792L94.1414 52.7437L94.1408 52.7439ZM100.904 53.2964C98.4892 54.0225 95.8563 54.4847 93.0522 54.7055L92.983 54.6677C93.2013 54.2026 93.3952 53.722 93.7405 53.2799C96.3196 53.3 98.627 53.1253 101.003 52.8652C101.023 52.9972 100.974 53.1651 100.904 53.2964ZM109.682 49.0608C107.772 50.5973 105.09 52.0062 102.087 52.9449C101.93 52.9083 102.067 52.8121 102.07 52.7412C102.838 50.8968 106.155 49.1805 109.709 48.904C109.911 48.9423 109.685 49.0135 109.682 49.0608ZM111.258 47.5842L110.516 48.3226C110.243 48.3691 109.95 48.3784 109.654 48.3887L109.632 48.3276C110.254 47.1089 110.553 45.8611 110.587 44.5403C111.45 44.3541 112.382 44.2296 113.31 44.1504C113.034 45.3645 112.211 46.4979 111.258 47.5842ZM65.6219 44.347C65.412 43.6302 65.2946 42.9075 65.2706 42.1839C65.3067 41.5729 65.3236 40.9956 65.5626 40.4436C66.5366 40.3421 67.5147 40.1714 68.4416 40.0694C68.5972 40.9085 68.7372 41.7642 69.1442 42.5462C69.3731 42.5019 69.65 42.3354 69.8317 42.1905C69.5802 41.4454 69.3724 40.6767 69.3717 39.8943C70.7109 39.5817 72.0509 39.2898 73.3278 38.9147L73.5051 38.9171L74.226 39.917C74.5264 39.8124 74.6632 39.7167 74.8888 39.574C74.7178 39.2622 74.4549 38.9493 74.3029 38.6228C75.9231 38.094 77.4747 37.4562 78.937 36.7455C79.2769 36.7379 79.4729 36.9902 79.7411 37.0635L80.3587 36.744C80.2073 36.5897 79.8688 36.5009 79.7608 36.3458C81.0203 35.6206 82.282 34.8255 83.2559 33.9896L83.3907 33.9447L85.1648 34.2563C85.3712 34.1495 85.6932 34.0338 85.7598 33.8998L83.8976 33.4926L83.9006 33.4434C84.684 32.7536 85.269 32.0246 85.8756 31.2851C87.322 31.3183 88.8525 31.4504 90.2933 31.6023C90.5438 31.4727 90.8203 31.3556 90.9335 31.2224C90.1534 31.097 89.354 31.0111 88.5461 30.9658C87.8171 30.8891 87.0786 30.8445 86.338 30.8322L86.2225 30.7691L86.913 29.442L87.0551 29.2739C89.4934 29.1236 91.9676 29.178 94.3877 29.4352C94.6624 29.2931 94.9854 29.2255 95.1025 29.0454C87.4913 28.1535 79.5124 29.1741 73.6244 31.7732L73.6435 31.8093L73.5536 31.8098C72.8708 32.0933 72.0866 32.4714 71.4894 32.8502C71.219 32.9696 70.9416 33.1336 70.6692 33.3021C65.5978 36.3734 63.3267 40.5121 64.9101 44.738C65.1177 44.6079 65.4829 44.5152 65.6219 44.347ZM73.1641 38.3628L73.092 38.4206C71.9099 38.7742 70.701 39.0887 69.4539 39.3325L69.3643 39.2366C69.4428 37.9405 69.7889 36.718 70.498 35.5474C70.9767 35.4419 71.4301 35.3248 71.9312 35.2337L72.0379 35.3635C72.2387 36.3999 72.7098 37.3856 73.1641 38.3628ZM78.3166 36.3346C77.7664 36.714 77.0852 36.9507 76.3925 37.2566C75.6879 37.5259 74.8435 37.8942 74.0224 38.1026C73.4667 37.093 73.0631 36.0436 72.9117 34.9639L74.5748 34.3138C75.7991 34.9104 77.0905 35.6649 78.3166 36.3346ZM79.0496 35.9809C77.8199 35.3573 76.5309 34.6281 75.3268 33.9475C75.7212 33.6742 76.1531 33.3771 76.5465 33.1038C78.5511 33.2497 80.5631 33.4214 82.3782 33.7794C81.4373 34.5817 80.32 35.3206 79.0496 35.9809ZM84.791 31.3491C84.2735 32.0177 83.7141 32.6869 82.9359 33.307C81.0459 33.0288 79.0877 32.7865 77.0747 32.6147C77.2211 32.3534 77.4786 32.0779 77.6436 31.8038C79.8684 31.4338 82.3546 31.2601 84.7655 31.2882L84.791 31.3491ZM78.0502 30.7853C80.4642 30.0588 83.1177 29.5849 85.9243 29.365L85.9676 29.4373L85.2575 30.7275L85.141 30.7878C82.7311 30.7597 80.2654 30.9217 77.9953 31.2172C77.8848 31.1083 78.0024 30.9279 78.0502 30.7853ZM76.9121 31.1362L76.9594 31.162C76.3888 32.9696 73.2967 34.7122 69.8776 35.083C69.6705 35.0954 69.4014 35.1887 69.2206 35.1162C71.0937 33.5575 73.9081 32.0537 76.9121 31.1362ZM65.7139 39.8699C66.1109 38.5517 66.9326 37.2974 68.0919 36.1286C68.0915 36.0546 68.0701 35.996 68.1604 35.9492L68.2062 35.9742C68.4327 35.9035 68.3689 35.7218 68.6608 35.7114C68.9144 35.703 69.1641 35.6674 69.3879 35.6695C68.837 36.8768 68.4668 38.1605 68.4298 39.5038C67.5929 39.7041 66.6869 39.8154 65.7571 39.894L65.7139 39.8699ZM93.3534 44.5226C91.7825 45.9526 89.004 46.9196 85.8418 46.8469C85.4368 46.8195 85.0558 46.7343 84.6502 46.7083L81.5829 48.318C83.338 49.3286 85.3889 50.4717 87.2423 51.4092L90.6521 49.6218L89.6278 49.0137C90.1965 48.9087 90.8084 48.8285 91.3964 48.7369C94.7581 48.0415 98.045 46.5779 99.1988 44.7C99.9834 43.3015 99.0954 41.8423 96.9006 40.9121C94.7586 40.0087 91.2103 40.0189 88.8916 40.7226L81.7681 42.7243L81.157 42.8263C80.8191 42.8367 80.5047 42.7873 80.3022 42.6292C80.0037 42.0036 81.2348 41.6036 82.0099 41.2237C83.835 40.5168 86.0171 39.9563 88.4051 40.2619C89.4108 39.7415 90.5971 39.1483 91.6521 38.557C89.8725 37.5353 88.2048 36.6932 86.3279 35.697C85.2746 36.2171 84.0152 36.8687 83.0336 37.4263C83.2524 37.595 83.7201 37.7543 83.8741 37.9602L82.2648 38.2001C78.6993 38.9316 75.0649 40.6957 74.4035 42.7677C73.9826 44.1209 75.444 45.4045 77.5257 46.1277C79.4235 46.8491 82.1616 46.6896 84.2053 46.2228C86.9541 45.558 89.5973 44.7389 92.3504 44.0479C92.6452 43.9917 93.1213 43.9601 93.3218 44.1166C93.5206 44.2241 93.4276 44.3939 93.3534 44.5226Z" fill="#CA0001"/>
</g>
<g clip-path="url(#clip1_2986_18050)">
<path d="M107.398 102.849C105.913 102.477 104.109 102.392 102.389 102.548C97.5431 103.065 92.8764 105.338 91.5029 107.848C90.6755 109.174 91.2474 110.655 92.626 111.771C94.8325 113.636 98.3559 115.39 102.673 115.41C107.463 115.3 111.685 113.638 114.089 111.422C114.216 111.324 114.591 110.997 114.755 110.72L114.81 110.648C115.417 109.883 115.709 108.997 115.507 108.107C114.748 105.891 111.19 103.824 107.398 102.849ZM108.343 109.111C108.762 109.464 108.954 109.956 108.581 110.363C108.066 111.053 106.719 111.632 105.406 111.816C104.205 111.915 103.29 111.512 102.419 111.134C100.814 110.331 99.0757 109.5 98.1059 108.509C97.5766 107.858 98.2919 107.25 99.0755 106.774C99.9673 106.313 100.97 105.937 102.234 106.042C103.088 106.143 103.735 106.519 104.405 106.813C105.65 107.519 107.279 108.286 108.343 109.111ZM82.6047 123.899C81.8032 124.265 81.0222 124.739 80.2016 125.069L72.4033 120.785L72.3844 120.726L74.6277 119.542C73.3819 118.836 72.043 118.081 70.8162 117.485L62.1654 121.936L60.7692 122.684C61.9265 123.34 63.3063 124.094 64.5332 124.74C65.3359 124.35 66.0431 123.959 66.8685 123.606L74.4428 127.743L74.7319 127.924L72.5115 129.122C73.6891 129.815 74.9154 130.485 76.1875 131.129L86.2807 125.907L82.6047 123.899ZM113.354 113.675C113.754 114.915 113.855 116.26 113.553 117.504C113.574 117.567 113.411 117.624 113.303 117.611C112.374 117.714 111.465 117.875 110.56 117.966C110.425 117.112 110.266 116.27 109.854 115.461L109.142 115.829C109.4 116.575 109.672 117.358 109.65 118.149C108.242 118.452 106.971 118.731 105.672 119.116L105.472 119.129C105.182 118.801 105.056 118.416 104.701 118.125L104.084 118.445L104.67 119.422C103.032 119.962 101.386 120.646 99.9242 121.308C99.655 121.235 99.456 121.03 99.1861 120.979L98.5911 121.287C98.8119 121.458 99.1298 121.508 99.2145 121.7C97.86 122.47 96.6448 123.266 95.5887 124.1L93.784 123.774C93.5576 123.891 93.2602 124 93.1687 124.118L95.0543 124.54L95.0511 124.611C94.3193 125.303 93.6609 126.016 93.0789 126.747L92.9422 126.769C91.6093 126.724 90.2369 126.632 88.975 126.479C88.4806 126.33 88.2454 126.688 87.9485 126.794C89.4774 127.047 91.0797 127.141 92.7033 127.25C92.4432 127.765 92.2264 128.301 91.875 128.794C89.4188 128.942 86.9272 128.879 84.4945 128.608C84.1756 128.726 84.0142 128.831 83.7614 128.987C87.9493 129.522 92.7403 129.412 96.733 128.744C96.733 128.744 96.7131 128.733 96.7378 128.72C96.7573 128.71 96.8442 128.709 96.8219 128.746C99.5003 128.284 102.048 127.63 104.351 126.723C112.291 123.586 116.036 118.498 114.086 113.297C113.818 113.41 113.573 113.536 113.354 113.675ZM105.817 119.707L105.84 119.648C107.049 119.259 108.298 118.945 109.59 118.725C109.679 119.554 109.455 120.43 109.188 121.207C108.973 121.649 108.782 122.107 108.498 122.536L107.093 122.813L107.006 122.694C106.74 121.671 106.358 120.683 105.817 119.707ZM100.638 121.675C101.968 121.013 103.406 120.411 104.906 119.942L104.998 119.966C105.56 120.953 105.918 122.003 106.139 123.047C105.793 123.275 105.275 123.379 104.862 123.567L104.425 123.744C103.066 123.05 101.883 122.429 100.638 121.675ZM96.6234 124.179C97.5907 123.441 98.648 122.705 99.9289 122.042L103.722 124.089C103.348 124.397 102.822 124.669 102.478 124.968C100.445 124.856 98.4863 124.613 96.5974 124.286L96.6234 124.179ZM94.1408 126.744C94.6111 126.049 95.2342 125.393 95.9512 124.763L96.0676 124.728C97.955 125.055 99.9376 125.26 101.92 125.467C101.781 125.73 101.497 125.991 101.359 126.255C99.054 126.642 96.6361 126.819 94.2065 126.779L94.1414 126.744L94.1408 126.744ZM100.904 127.296C98.4892 128.023 95.8563 128.485 93.0522 128.705L92.983 128.668C93.2013 128.203 93.3952 127.722 93.7405 127.28C96.3196 127.3 98.627 127.125 101.003 126.865C101.023 126.997 100.974 127.165 100.904 127.296ZM109.682 123.061C107.772 124.597 105.09 126.006 102.087 126.945C101.93 126.908 102.067 126.812 102.07 126.741C102.838 124.897 106.155 123.181 109.709 122.904C109.911 122.942 109.685 123.014 109.682 123.061ZM111.258 121.584L110.516 122.323C110.243 122.369 109.95 122.378 109.654 122.389L109.632 122.328C110.254 121.109 110.553 119.861 110.587 118.54C111.45 118.354 112.382 118.23 113.31 118.15C113.034 119.365 112.211 120.498 111.258 121.584ZM65.6219 118.347C65.412 117.63 65.2946 116.907 65.2706 116.184C65.3067 115.573 65.3236 114.996 65.5626 114.444C66.5366 114.342 67.5147 114.171 68.4416 114.069C68.5972 114.908 68.7372 115.764 69.1442 116.546C69.3731 116.502 69.65 116.335 69.8317 116.191C69.5802 115.445 69.3724 114.677 69.3717 113.894C70.7109 113.582 72.0509 113.29 73.3278 112.915L73.5051 112.917L74.226 113.917C74.5264 113.812 74.6632 113.717 74.8888 113.574C74.7178 113.262 74.4549 112.949 74.3029 112.623C75.9231 112.094 77.4747 111.456 78.937 110.746C79.2769 110.738 79.4729 110.99 79.7411 111.064L80.3587 110.744C80.2073 110.59 79.8688 110.501 79.7608 110.346C81.0203 109.621 82.282 108.826 83.2559 107.99L83.3907 107.945L85.1648 108.256C85.3712 108.149 85.6932 108.034 85.7598 107.9L83.8976 107.493L83.9006 107.443C84.684 106.754 85.269 106.025 85.8756 105.285C87.322 105.318 88.8525 105.45 90.2933 105.602C90.5438 105.473 90.8203 105.356 90.9335 105.222C90.1534 105.097 89.354 105.011 88.5461 104.966C87.8171 104.889 87.0786 104.844 86.338 104.832L86.2225 104.769L86.913 103.442L87.0551 103.274C89.4934 103.124 91.9676 103.178 94.3877 103.435C94.6624 103.293 94.9854 103.225 95.1025 103.045C87.4913 102.154 79.5124 103.174 73.6244 105.773L73.6435 105.809L73.5536 105.81C72.8708 106.093 72.0866 106.471 71.4894 106.85C71.219 106.97 70.9416 107.134 70.6692 107.302C65.5978 110.373 63.3267 114.512 64.9101 118.738C65.1177 118.608 65.4829 118.515 65.6219 118.347ZM73.1641 112.363L73.092 112.421C71.9099 112.774 70.701 113.089 69.4539 113.333L69.3643 113.237C69.4428 111.941 69.7889 110.718 70.498 109.547C70.9767 109.442 71.4301 109.325 71.9312 109.234L72.0379 109.364C72.2387 110.4 72.7098 111.386 73.1641 112.363ZM78.3166 110.335C77.7664 110.714 77.0852 110.951 76.3925 111.257C75.6879 111.526 74.8435 111.894 74.0224 112.103C73.4667 111.093 73.0631 110.044 72.9117 108.964L74.5748 108.314C75.7991 108.91 77.0905 109.665 78.3166 110.335ZM79.0496 109.981C77.8199 109.357 76.5309 108.628 75.3268 107.947C75.7212 107.674 76.1531 107.377 76.5465 107.104C78.5511 107.25 80.5631 107.421 82.3782 107.779C81.4373 108.582 80.32 109.321 79.0496 109.981ZM84.791 105.349C84.2735 106.018 83.7141 106.687 82.9359 107.307C81.0459 107.029 79.0877 106.786 77.0747 106.615C77.2211 106.353 77.4786 106.078 77.6436 105.804C79.8684 105.434 82.3546 105.26 84.7655 105.288L84.791 105.349ZM78.0502 104.785C80.4642 104.059 83.1177 103.585 85.9243 103.365L85.9676 103.437L85.2575 104.727L85.141 104.788C82.7311 104.76 80.2654 104.922 77.9953 105.217C77.8848 105.108 78.0024 104.928 78.0502 104.785ZM76.9121 105.136L76.9594 105.162C76.3888 106.97 73.2967 108.712 69.8776 109.083C69.6705 109.095 69.4014 109.189 69.2206 109.116C71.0937 107.557 73.9081 106.054 76.9121 105.136ZM65.7139 113.87C66.1109 112.552 66.9326 111.297 68.0919 110.129C68.0915 110.055 68.0701 109.996 68.1604 109.949L68.2062 109.974C68.4327 109.904 68.3689 109.722 68.6608 109.711C68.9144 109.703 69.1641 109.667 69.3879 109.67C68.837 110.877 68.4668 112.16 68.4298 113.504C67.5929 113.704 66.6869 113.815 65.7571 113.894L65.7139 113.87ZM93.3534 118.523C91.7825 119.953 89.004 120.92 85.8418 120.847C85.4368 120.82 85.0558 120.734 84.6502 120.708L81.5829 122.318C83.338 123.329 85.3889 124.472 87.2423 125.409L90.6521 123.622L89.6278 123.014C90.1965 122.909 90.8084 122.829 91.3964 122.737C94.7581 122.042 98.045 120.578 99.1988 118.7C99.9834 117.301 99.0954 115.842 96.9006 114.912C94.7586 114.009 91.2103 114.019 88.8916 114.723L81.7681 116.724L81.157 116.826C80.8191 116.837 80.5047 116.787 80.3022 116.629C80.0037 116.004 81.2348 115.604 82.0099 115.224C83.835 114.517 86.0171 113.956 88.4051 114.262C89.4108 113.742 90.5971 113.148 91.6521 112.557C89.8725 111.535 88.2048 110.693 86.3279 109.697C85.2746 110.217 84.0152 110.869 83.0336 111.426C83.2524 111.595 83.7201 111.754 83.8741 111.96L82.2648 112.2C78.6993 112.932 75.0649 114.696 74.4035 116.768C73.9826 118.121 75.444 119.405 77.5257 120.128C79.4235 120.849 82.1616 120.69 84.2053 120.223C86.9541 119.558 89.5973 118.739 92.3504 118.048C92.6452 117.992 93.1213 117.96 93.3218 118.117C93.5206 118.224 93.4276 118.394 93.3534 118.523Z" fill="#C8C8C8"/>
</g>
<defs>
<clipPath id="clip0_2986_18050">
<rect width="48.7664" height="39.7356" fill="white" transform="matrix(0.888164 -0.459526 0.87762 0.479358 51 43.4097)"/>
</clipPath>
<clipPath id="clip1_2986_18050">
<rect width="48.7664" height="39.7356" fill="white" transform="matrix(0.888164 -0.459526 0.87762 0.479358 51 117.41)"/>
</clipPath>
</defs>
</svg>
