<svg width="159" height="166" viewBox="0 0 159 166" fill="none" xmlns="http://www.w3.org/2000/svg"><path transform="matrix(.8885 -.45887 .87555 .48313 .088 119.012)" stroke="#6F6F6F" d="M.882.012h97.096v97.106H.882z"/><path opacity=".2" stroke="#6F6F6F" stroke-dasharray="4 4" d="M1.271 46.587v72.201"/><path transform="matrix(.88957 -.4568 .87442 .48517 .882 44.779)" stroke="#CA0001" d="M.882.014h96.13v96.799H.882z"/><g clip-path="url(#clip0_2986_17927)" fill="#CA0001"><path d="M68.37 56.382l3.366-1.715L55.117 52 53 53.08l1.078 2.27 9.897 1.576c.777.122 1.59.136 2.353.032.764-.086 1.479-.29 2.043-.577zm-13.837.003l4.299 8.945 2.854.454 3.127-1.593-2.55-5.321c-.196-.418-.596-.785-1.166-1.101-.553-.307-1.26-.535-2.02-.666l-4.544-.718zM73.61 54.96l-7.33 3.736c-.564.288-.977.659-1.204 1.06-.21.41-.217.843-.021 1.242l1.193 2.461 12.337-6.287-.735-1.534-4.24-.677zm8.067-6.145a3.83 3.83 0 00-1.119.035 4.78 4.78 0 00-1.14.385l-1.795.915 4.076 2.259.957-.488-1.124-.623.837-.427c.325-.165.6-.358.773-.59.155-.186.193-.401.112-.592-.099-.2-.281-.392-.567-.55a3.166 3.166 0 00-1.01-.324zm.287 1.014c.05.064.065.145.064.217-.036.144-.191.294-.482.442l-.786.4-1.409-.78.786-.4c.29-.149.58-.225.851-.238.136.002.288.014.406.043.118.029.236.076.336.132.1.055.168.11.234.184zM96.06 41.77l.667 1.552-.171.087-1.778-.985-.923.47 3.12 1.73 1.128-.575-.65-1.56.153-.079 1.778.986.923-.47-3.12-1.73-1.128.575zm4.185-2.132l.651 1.56-.154.078-1.778-.985-.923.47 3.12 1.73 1.128-.576-.668-1.551.154-.078 1.778.985.923-.47-3.12-1.73-1.111.567zm-9.675 7.089c.167.183.096.344-.177.484a1.125 1.125 0 01-.307.102 1.296 1.296 0 01-.373.012c-.27-.023-.54-.1-.808-.248-.269-.15-.418-.305-.45-.45-.016-.063.02-.134.038-.197a.646.646 0 01.205-.158 1.325 1.325 0 01.933-.083l.068.019.99-.505-.1-.038c-.404-.151-.877-.213-1.369-.195a3.511 3.511 0 00-1.31.347c-.29.148-.513.333-.636.538a.592.592 0 00.007.603c.131.219.348.412.65.579a3.6 3.6 0 001.06.37c.372.06.762.076 1.135.028a3.38 3.38 0 001.039-.315c.375-.173.6-.413.689-.672.072-.251-.042-.514-.293-.726l-.066-.055-.991.505.066.055zm3.64-1.854c.166.183.096.343-.178.483a1.123 1.123 0 01-.306.102 1.296 1.296 0 01-.373.012 1.99 1.99 0 01-.809-.248c-.268-.149-.418-.305-.45-.45-.015-.063.02-.134.038-.197a.646.646 0 01.206-.158 1.322 1.322 0 01.933-.083l.067.02.991-.506-.1-.038a3.596 3.596 0 00-1.369-.195 3.42 3.42 0 00-1.293.338c-.29.148-.514.333-.636.538a.593.593 0 00.007.604c.131.218.348.411.65.578.302.168.656.291 1.06.37.372.06.761.076 1.135.029.39-.056.748-.167 1.038-.315.376-.174.6-.413.69-.673.072-.25-.042-.514-.293-.725l-.067-.055-.99.505.049.064zm-9.02 2.562c-.39.057-.748.167-1.056.324-.29.148-.514.333-.653.547a.627.627 0 00-.028.621c.115.227.332.42.634.587.301.168.655.29 1.077.361.388.07.778.068 1.168.011a3.377 3.377 0 001.04-.315c.29-.148.53-.342.652-.547a.692.692 0 00.045-.63c-.115-.226-.314-.428-.633-.587a3.242 3.242 0 00-1.078-.36 3.915 3.915 0 00-1.168-.012zm1.668 1.47c-.036.09-.139.178-.258.239a1.26 1.26 0 01-.324.111 1.11 1.11 0 01-.39.02 1.796 1.796 0 01-.826-.24c-.268-.148-.401-.294-.415-.447a.276.276 0 01.088-.206.82.82 0 01.223-.167 1.43 1.43 0 01.73-.14c.271.004.558.09.826.239.168.093.285.194.35.303a.29.29 0 01-.004.288zm-10.795.398l-4.06-2.25 1.521-.775 2.295.472.154-.078-.826-1.221 1.521-.775 4.076 2.259-.905.461-2.986-1.654-.188.096.806 1.355-.786.4-2.549-.467-.154.079 2.986 1.654-.889.453-.016-.01zm9.705-4.946l-3.12-1.73.923-.47 1.224.68 1.384-.706-1.224-.679.922-.47 3.12 1.729-.922.47-1.175-.65-1.384.705 1.175.65-.923.47zm.964-3.811l3.12 1.73.905-.462-2.382-1.32 1.333-.68 2.382 1.32.923-.47-3.12-1.729-3.161 1.611zm19.308-9.84l-3.076 1.568.738.409 1.077-.549 2.382 1.32.923-.47-2.382-1.32 1.076-.549-.738-.409zm10.731-5.468l-2.546 1.297 3.12 1.73.922-.471-2.382-1.32 1.624-.827-.738-.41zm-36.105 18.4l.65 1.56-.154.078-1.778-.985-.922.47 3.12 1.73 1.127-.575-.65-1.56.154-.079 1.778.986.923-.47-3.12-1.73-1.128.575zm24.752-9.296l-3.137-1.72-1.043.531.691 1.165-.171.087-2.092-.45-1.144.583 3.119 1.729.838-.427-1.929-1.069.153-.078 1.519.314.752-.383-.511-.828.171-.087 1.946 1.078.854-.435-.016-.01zm-8.18.975c-.39.056-.748.167-1.056.324-.29.148-.514.333-.653.547a.603.603 0 00-.01.63c.114.227.33.42.633.587a3.6 3.6 0 001.06.37c.388.07.778.068 1.185.02.39-.056.748-.166 1.039-.315.29-.148.53-.341.653-.546a.693.693 0 00.045-.63c-.115-.227-.315-.429-.634-.587a3.242 3.242 0 00-1.077-.361 3.28 3.28 0 00-1.185-.039zm1.685 1.461c-.035.09-.155.169-.275.23a1.258 1.258 0 01-.324.111 1.11 1.11 0 01-.39.02 1.795 1.795 0 01-.825-.24c-.268-.148-.401-.294-.416-.448a.38.38 0 01.072-.215.746.746 0 01.223-.167 1.43 1.43 0 01.73-.14c.271.005.558.09.826.24.168.092.285.193.35.303.066.109.082.208.03.306zm10.071-7.452a3.396 3.396 0 00-1.056.324c-.29.148-.514.333-.653.547a.603.603 0 00-.011.63c.115.227.332.42.634.587.301.167.655.29 1.077.361.388.07.795.077 1.185.02a3.377 3.377 0 001.039-.315c.29-.148.531-.341.653-.546a.693.693 0 00.045-.63c-.115-.227-.315-.429-.634-.587a3.243 3.243 0 00-1.077-.361 4.49 4.49 0 00-1.202-.03zm1.668 1.47c-.053.098-.155.168-.275.229a1.267 1.267 0 01-.324.112c-.119.024-.255.04-.39.02a1.791 1.791 0 01-.825-.24c-.269-.149-.402-.295-.416-.448a.379.379 0 01.071-.215.744.744 0 01.224-.167 1.431 1.431 0 01.73-.14c.271.004.558.09.826.239a.908.908 0 01.35.303c.066.11.081.209.029.307zM94.63 37.27a3.762 3.762 0 00-1.1-.045 2.844 2.844 0 00-.953.271c-.393.2-.448.443-.418.623l-.153.079-.302-.168-.94.48 4.16 2.305.923-.47-1.359-.753.154-.079c.338.024.83.006 1.188-.177.274-.14.463-.307.55-.495a.675.675 0 00-.056-.595c-.132-.219-.349-.412-.668-.57-.268-.203-.638-.335-1.026-.405zm.437 1.152c.05.1.065.2.012.297-.035.09-.139.178-.258.239a1.32 1.32 0 01-.46.127 1.858 1.858 0 01-1.097-.208.884.884 0 01-.334-.294c-.049-.1-.064-.2-.011-.297.035-.09.138-.178.258-.239.137-.07.29-.112.476-.136.187-.024.373-.011.542.01.203.04.405.097.539.19.15.1.267.202.333.311zm19.076-11.096a3.762 3.762 0 00-1.1-.046 2.843 2.843 0 00-.953.272c-.393.2-.448.442-.4.614l-.154.078-.302-.167-.923.47 4.16 2.306.923-.47-1.359-.753.154-.079c.338.024.83.006 1.189-.177.273-.14.462-.307.55-.495a.677.677 0 00-.057-.595c-.132-.219-.349-.412-.668-.57a3.093 3.093 0 00-1.06-.388zm.437 1.151c.049.1.065.2.012.298-.035.09-.138.178-.258.239a1.24 1.24 0 01-.459.127 1.856 1.856 0 01-1.098-.208.882.882 0 01-.333-.294c-.049-.1-.065-.2-.012-.298.035-.09.139-.178.258-.239.137-.07.29-.111.477-.135.186-.024.372-.012.558.018.203.04.405.098.556.181.134.093.251.194.299.311z"/></g><g clip-path="url(#clip1_2986_17927)" fill="#C8C8C8"><path d="M68.846 126.765l3.366-1.715-16.618-2.666-2.119 1.08 1.078 2.269 9.897 1.577a8.22 8.22 0 002.354.032c.763-.086 1.478-.29 2.042-.577zm-13.836.003l4.298 8.944 2.855.455 3.127-1.593-2.55-5.321c-.196-.418-.596-.785-1.166-1.101-.554-.307-1.261-.535-2.021-.666l-4.543-.718zm19.077-1.425l-7.33 3.736c-.564.288-.977.659-1.204 1.06-.21.41-.218.843-.022 1.242l1.194 2.461 12.337-6.287-.736-1.535-4.239-.677zm8.066-6.145a3.85 3.85 0 00-1.118.035 4.73 4.73 0 00-1.141.385l-1.794.914 4.076 2.259.957-.487-1.124-.623.837-.427c.325-.165.599-.359.772-.59.156-.186.194-.402.112-.592-.098-.2-.28-.392-.566-.55a3.18 3.18 0 00-1.01-.324zm.288 1.014c.05.064.065.145.064.217-.037.143-.192.294-.482.442l-.786.4-1.41-.781.787-.4a2.1 2.1 0 01.85-.237c.136.002.288.014.406.043.118.029.236.076.337.131.1.056.167.111.234.185zm14.095-8.058l.667 1.551-.17.087-1.779-.985-.922.47 3.12 1.729 1.127-.575-.65-1.56.154-.078 1.778.985.922-.47-3.12-1.729-1.127.575zm4.186-2.134l.65 1.561-.154.078-1.778-.985-.922.47 3.12 1.729 1.127-.575-.667-1.551.154-.079 1.778.986.922-.47-3.12-1.73-1.11.566zm-9.675 7.09c.166.183.096.344-.178.483a1.102 1.102 0 01-.306.103 1.296 1.296 0 01-.373.012c-.27-.023-.54-.1-.809-.249-.268-.148-.418-.304-.45-.449-.015-.063.02-.134.038-.197a.655.655 0 01.206-.159 1.32 1.32 0 01.933-.082l.067.019.991-.505-.1-.038c-.404-.151-.878-.213-1.369-.195a3.519 3.519 0 00-1.31.347c-.29.148-.514.333-.636.538a.591.591 0 00.006.603c.132.219.349.411.65.579.303.167.656.29 1.061.369.372.061.761.077 1.135.029.39-.056.748-.167 1.038-.315.376-.174.6-.413.69-.672.071-.251-.043-.514-.293-.726l-.067-.055-.99.505.066.055zm3.64-1.855c.166.183.095.344-.178.484a1.134 1.134 0 01-.307.102 1.296 1.296 0 01-.373.012c-.27-.023-.54-.1-.808-.248-.269-.149-.418-.305-.45-.449-.016-.064.02-.135.038-.198a.638.638 0 01.206-.158 1.32 1.32 0 01.933-.083l.067.019.991-.505-.101-.038c-.404-.151-.877-.213-1.368-.195a3.428 3.428 0 00-1.293.338c-.29.148-.514.333-.636.538a.593.593 0 00.006.604c.132.218.349.411.65.578.303.168.656.291 1.061.37.372.06.76.076 1.134.029.39-.057.748-.168 1.039-.316.376-.173.6-.412.689-.672.072-.251-.042-.514-.292-.725l-.067-.056-.991.505.05.064zm-9.021 2.563c-.39.056-.748.167-1.055.324-.29.148-.514.333-.654.547a.627.627 0 00-.027.621c.114.227.331.42.633.587.302.167.656.291 1.078.361.388.07.778.068 1.168.011a3.38 3.38 0 001.039-.315c.29-.148.53-.342.653-.547a.691.691 0 00.044-.629c-.114-.227-.314-.429-.633-.588a3.248 3.248 0 00-1.078-.361 3.938 3.938 0 00-1.168-.011zm1.668 1.47c-.035.089-.138.178-.258.239a1.27 1.27 0 01-.324.111 1.094 1.094 0 01-.39.02 1.808 1.808 0 01-.825-.239c-.269-.149-.402-.295-.416-.449a.275.275 0 01.088-.205.831.831 0 01.224-.168 1.27 1.27 0 01.323-.111 1.42 1.42 0 01.407-.029c.271.005.558.091.826.24a.91.91 0 01.35.303.29.29 0 01-.005.288zm-10.794.398l-4.06-2.25 1.52-.775 2.296.472.153-.078-.825-1.221 1.52-.775 4.077 2.259-.906.461-2.986-1.654-.188.095.807 1.356-.786.401-2.55-.468-.153.078 2.986 1.655-.889.453-.017-.009zm9.705-4.946l-3.12-1.73.922-.47 1.225.679 1.384-.705-1.225-.679.923-.47 3.12 1.729-.923.47-1.174-.651-1.384.706 1.174.65-.922.471zm.964-3.811l3.12 1.729.905-.461-2.382-1.32 1.333-.68 2.382 1.321.923-.471-3.12-1.729-3.162 1.611zm19.308-9.84l-3.076 1.568.738.409 1.076-.549 2.382 1.32.923-.47-2.382-1.32 1.077-.549-.738-.409zm10.73-5.469l-2.546 1.298 3.12 1.73.923-.471-2.382-1.32 1.623-.828-.738-.408zm-36.105 18.401l.65 1.56-.153.078-1.778-.985-.923.47 3.12 1.729 1.128-.575-.65-1.56.153-.078 1.779.985.922-.47-3.12-1.729-1.128.575zm24.752-9.296l-3.137-1.72-1.042.531.691 1.165-.171.087-2.092-.451-1.145.584 3.12 1.729.837-.427-1.929-1.069.154-.078 1.519.314.752-.383-.511-.828.171-.087 1.946 1.078.854-.435-.017-.01zm-8.179.975a3.375 3.375 0 00-1.056.324c-.29.148-.514.333-.653.547a.603.603 0 00-.011.63c.114.227.331.42.633.587a3.58 3.58 0 001.06.37c.39.07.779.067 1.186.02.39-.056.748-.167 1.038-.315.291-.148.531-.342.654-.547a.692.692 0 00.044-.629c-.114-.227-.314-.429-.633-.588a3.248 3.248 0 00-1.078-.36 3.28 3.28 0 00-1.184-.039zm1.685 1.461c-.036.089-.156.168-.275.229a1.233 1.233 0 01-.324.112c-.119.025-.255.04-.39.02a1.808 1.808 0 01-.826-.239c-.268-.149-.4-.296-.415-.449a.38.38 0 01.071-.215.754.754 0 01.223-.167 1.27 1.27 0 01.324-.111 1.42 1.42 0 01.407-.029c.27.004.557.09.826.239a.91.91 0 01.35.303c.066.11.081.209.029.307zm10.07-7.452a3.38 3.38 0 00-1.055.324c-.291.148-.514.333-.653.547a.603.603 0 00-.011.63c.114.227.331.42.633.587.302.167.656.291 1.078.361.388.07.794.077 1.185.02.39-.056.748-.167 1.038-.315.291-.148.531-.342.653-.547a.689.689 0 00.045-.629c-.114-.227-.314-.429-.633-.587a3.23 3.23 0 00-1.078-.361 4.493 4.493 0 00-1.202-.03zm1.668 1.469c-.052.099-.155.169-.275.23a1.257 1.257 0 01-.323.111 1.118 1.118 0 01-.39.021 1.8 1.8 0 01-.826-.24c-.268-.149-.401-.295-.415-.448a.379.379 0 01.071-.215.745.745 0 01.223-.167 1.417 1.417 0 01.731-.141c.271.005.557.091.825.24.168.093.285.194.351.303.066.109.081.208.028.306zm-16.032 6.476a3.728 3.728 0 00-1.1-.046c-.356.038-.696.14-.953.271-.393.2-.448.443-.417.623l-.154.079-.302-.168-.94.479 4.16 2.306.923-.471-1.358-.753.153-.078c.339.024.83.005 1.189-.177.273-.14.462-.308.55-.495a.675.675 0 00-.057-.595c-.132-.219-.348-.412-.668-.57-.267-.203-.637-.336-1.026-.405zm.438 1.151c.049.1.064.199.011.297-.035.09-.138.178-.258.239a1.32 1.32 0 01-.46.127 1.862 1.862 0 01-1.097-.208.886.886 0 01-.333-.294c-.049-.1-.064-.199-.012-.298.036-.089.139-.177.258-.238.137-.07.29-.112.477-.136a2.17 2.17 0 01.542.009c.202.04.405.098.538.19.151.102.268.203.334.312zM114.62 97.71a3.763 3.763 0 00-1.1-.047 2.836 2.836 0 00-.953.272c-.393.2-.448.442-.401.614l-.153.078-.302-.167-.923.47 4.16 2.306.923-.471-1.359-.753.154-.078c.338.024.829.005 1.188-.177.274-.14.463-.308.551-.495a.674.674 0 00-.058-.595c-.131-.219-.348-.412-.667-.57a3.1 3.1 0 00-1.06-.388zm.437 1.15c.049.1.064.2.012.298-.036.09-.139.177-.258.238-.137.07-.29.112-.46.127a1.856 1.856 0 01-1.097-.208.885.885 0 01-.334-.294c-.049-.1-.064-.199-.011-.297.035-.09.138-.178.258-.239.136-.07.29-.112.476-.135a1.94 1.94 0 01.559.018c.202.04.405.097.556.181.133.092.25.193.299.311z"/></g><defs><clipPath id="clip0_2986_17927"><path fill="#fff" transform="matrix(.89097 -.45407 .87466 .48473 44.523 57.4)" d="M0 0h76.328v18.411H0z"/></clipPath><clipPath id="clip1_2986_17927"><path fill="#fff" transform="matrix(.89097 -.45407 .87466 .48473 45 127.783)" d="M0 0h76.328v18.411H0z"/></clipPath></defs></svg>