<svg width="149" height="163" viewBox="0 0 149 163" fill="none" xmlns="http://www.w3.org/2000/svg">
<path d="M1.13409 115.171L86.5019 162.277M133 138.405L90.9642 115.209L46.109 138.374M88.2893 70.4424L173.393 117.403M173.659 117.407L86.5 162.419M88.2913 70.3002L1.40033 115.175" stroke="#C8C8C8" stroke-dasharray="4 4"/>
<rect x="0.882027" y="0.0121329" width="97.0963" height="97.1059" transform="matrix(0.888506 -0.458865 0.875548 0.483131 1.08772 115.651)" stroke="#6F6F6F"/>
<line opacity="0.2" x1="90.5" y1="47" x2="90.5" y2="115" stroke="#6F6F6F" stroke-dasharray="4 4"/>
<line opacity="0.2" x1="45.5" y1="67" x2="45.5" y2="137.88" stroke="#6F6F6F" stroke-dasharray="4 4"/>
<line opacity="0.2" x1="132.5" y1="70" x2="132.5" y2="138" stroke="#6F6F6F" stroke-dasharray="4 4"/>
<line x1="2.27148" y1="43.2256" x2="2.27149" y2="115.426" stroke="#6F6F6F"/>
<mask id="path-7-inside-1_2986_18036" fill="white">
<path fill-rule="evenodd" clip-rule="evenodd" d="M176.06 49.9258L91.2246 0.710938L1.99989 43.9998L44.4174 68.6071L89.0291 46.963L131.447 71.5705L176.06 49.9258Z"/>
</mask>
<path d="M91.2246 0.710938L92.1243 0.274432L91.2593 -0.227364L90.3596 0.209142L91.2246 0.710938ZM176.06 49.9258L176.925 50.4276L177.825 49.9911L176.96 49.4893L176.06 49.9258ZM1.99989 43.9998L1.13491 43.498L0.235206 43.9345L1.10019 44.4363L1.99989 43.9998ZM44.4174 68.6071L43.5177 69.0436L44.3827 69.5454L45.2824 69.1089L44.4174 68.6071ZM89.0291 46.963L89.9288 46.5264L89.0638 46.0247L88.1641 46.4612L89.0291 46.963ZM131.447 71.5705L130.547 72.007L131.412 72.5088L132.312 72.0723L131.447 71.5705ZM90.3249 1.14744L175.161 50.3623L176.96 49.4893L92.1243 0.274432L90.3249 1.14744ZM2.86488 44.5016L92.0896 1.21273L90.3596 0.209142L1.13491 43.498L2.86488 44.5016ZM45.3171 68.1706L2.8996 43.5633L1.10019 44.4363L43.5177 69.0436L45.3171 68.1706ZM45.2824 69.1089L89.8941 47.4647L88.1641 46.4612L43.5524 68.1053L45.2824 69.1089ZM88.1294 47.3995L130.547 72.007L132.347 71.134L89.9288 46.5264L88.1294 47.3995ZM175.195 49.424L130.582 71.0687L132.312 72.0723L176.925 50.4276L175.195 49.424Z" fill="#CA0001" mask="url(#path-7-inside-1_2986_18036)"/>
</svg>
