<svg width="156" height="102" viewBox="0 0 156 102" fill="none" xmlns="http://www.w3.org/2000/svg"><path d="M141.621 37.825l33.732 18.534-87.435 44.961L1.75 53.976l39.592-20.36m74.782-9.777l-9.403-5.193" stroke="#6F6F6F"/><path d="M20.436 45.212l16.305 8.96-17.621 9.06m86.158 28.596l-16.571-9.105M37.923 36.22l1.682.895m83.16 45.72l-16.571-9.104m34.057.112l-16.57-9.104m34.057.112l-16.57-9.105M36.353 72.702l17.622-9.062 17.233 9.469-17.621 9.062M158.25 46.96l-17.083 8.785m-70.082 36.04l17.555-9.027.067-.034m52.461-26.978l-17.487 8.993m0 0l-17.487 8.992m0 0l-17.487 8.993" stroke="#C8C8C8" stroke-dasharray="4 4"/><path d="M141.569 55.493l-40.741 20.909" stroke="#CA0001"/><path transform="matrix(.89036 -.45525 .8753 .48358 48.44 22.071)" stroke="#CA0001" d="M.883.014h45.09v19.122H.883z"/><path transform="matrix(.89036 -.45525 .8753 .48358 83.246 41.084)" stroke="#CA0001" d="M.883.014h45.264v19.073H.883z"/><path d="M48.791 29.833l-7.17 3.734m24.32 5.6l-7.48 3.898m0 0l-16.84-9.498m16.84 9.498l-4.476 9.958M41.62 33.567l-4.868 9.81m17.233 9.646l-17.233-9.645m17.233 9.645v10.716M36.752 43.378v10.716l17.233 9.645m0 0l12.157-6.396" stroke="#6F6F6F"/><path stroke="#CA0001" d="M106.438 28.82V10.451m34.686 45.192V29.368M65.642 57.612v-26.08m34.686 44.87V50.107m-51.65-20.604l17.295 9.174m-17.599-8.648V21.59m35.252 26.815L65.94 57.467"/><path d="M83.692 48.404l-7.721 3.954m24.521 5.5l-7.68 3.998m0 0L75.97 52.358m16.84 9.498l-4.476 9.958M75.971 52.358l-4.869 9.811m17.233 9.645L71.102 62.17m17.233 9.645V82.9M71.102 62.17v10.715L88.335 82.9m0 0l12.157-6.396" stroke="#6F6F6F"/><path stroke="#CA0001" d="M83.142 48.723v-8.048m.365 7.428l17.297 9.495"/></svg>