<svg width="153" height="164" viewBox="0 0 153 164" fill="none" xmlns="http://www.w3.org/2000/svg"><path stroke="#C8C8C8" stroke-dasharray="4 4" d="M3.256 45.075v69.844"/><path d="M124.749 92.419L88.457 72.637l-84.7 43.916 36.292 19.782m84.7-43.916l-.245-2.775m.245 2.775l-5.212-.2m-68.571 50.065l36.292 19.782 84.7-43.917-36.292-19.782m-84.7 43.917l.245 2.775m-.245-2.775l5.211.2" stroke="#6F6F6F"/><path d="M124.277 21.07L87.984 1.287l-84.7 43.916 36.292 19.782m84.701-43.917l-.246-2.774m.246 2.774l-5.212-.2M50.493 70.934l36.292 19.782 84.7-43.916-36.292-19.782m-84.7 43.916l.246 2.775m-.246-2.775l5.212.2" stroke="#CA0001"/><path d="M91.971 51.197l-2.645 1.271-2.133-1.248 2.645-1.27-1.866-1.093-2.645 1.272-2.133-1.248 2.645-1.272-9.57-5.6 5.874-2.823c.89-.428 1.86-.751 2.905-.97a14.483 14.483 0 013.069-.281c1.037.013 2.067.171 3.093.445 1.027.274 1.993.662 2.9 1.192.853.5 1.514 1.034 2.01 1.563.47.541.693 1.087.698 1.654.004.566-.238 1.136-.752 1.696-.515.589-1.356 1.135-2.47 1.67l-3.118 1.498 1.866 1.092 6.18-2.97 2.134 1.248-6.181 2.97 2.959 1.732-2.506 1.204-2.959-1.732zm-11.064-9.144l7.438 4.352 3.118-1.498c1.337-.642 2.046-1.295 2.1-1.975.082-.665-.544-1.387-1.877-2.167-2.426-1.42-4.96-1.508-7.578-.25l-3.201 1.538z" fill="#CA0001"/><path d="M91.971 124.512l-2.645 1.271-2.133-1.248 2.645-1.271-1.866-1.092-2.645 1.271-2.133-1.248 2.645-1.271-9.57-5.6 5.874-2.823c.89-.428 1.86-.751 2.905-.97a14.443 14.443 0 013.069-.281c1.037.013 2.067.171 3.093.445 1.027.274 1.993.662 2.9 1.192.853.499 1.514 1.034 2.01 1.563.47.541.693 1.087.698 1.653.004.567-.238 1.137-.752 1.697-.515.589-1.356 1.135-2.47 1.67l-3.118 1.498 1.866 1.092 6.18-2.97 2.134 1.248-6.181 2.97 2.959 1.732-2.506 1.204-2.959-1.732zm-11.064-9.144l7.438 4.352 3.118-1.498c1.337-.642 2.046-1.296 2.1-1.975.082-.665-.544-1.387-1.877-2.167-2.426-1.419-4.96-1.508-7.578-.251l-3.201 1.539z" fill="#C8C8C8"/></svg>