<svg width="129" height="156" viewBox="0 0 129 156" fill="none" xmlns="http://www.w3.org/2000/svg"><path d="M1 108.058L86.436 155l86.692-44.58" stroke="#6F6F6F"/><path stroke="#C8C8C8" stroke-dasharray="4 4" d="M1.5 75.686v31.393m85.894 15.26v31.393"/><path fill-rule="evenodd" clip-rule="evenodd" d="M20.548 66.27l-.75-.413.387-.2.75.414-.387.199zm17.338-8.916l-.75-.413.387-.2.751.414-.388.199zm17.339-8.916l-.751-.413.388-.2.75.414-.387.199zm17.338-8.916l-.75-.413.387-.2.751.414-.388.199zm-49.01 28.399l-1.503-.826.388-.2 1.502.826-.388.2zm17.338-8.916l-1.502-.826.387-.2 1.503.826-.388.2zm17.338-8.916l-1.502-.826.388-.199 1.502.825-.388.2zm17.339-8.916l-1.503-.826.388-.199 1.502.825-.387.2zM26.557 69.57l-1.502-.825.387-.2 1.503.826-.388.2zm17.338-8.916l-1.502-.825.388-.2 1.502.826-.388.2zm17.338-8.916l-1.502-.825.388-.2 1.502.826-.388.2zm17.339-8.916l-1.502-.825.388-.2 1.502.826-.388.2zm-49.01 28.4l-1.503-.826.388-.2 1.502.826-.388.2zM46.9 62.305l-1.503-.825.388-.2 1.502.826-.387.2zm17.338-8.916l-1.502-.825.388-.2 1.502.826-.388.2zm17.338-8.916l-1.502-.825.388-.2 1.502.826-.388.2zm-49.01 28.399l-1.503-.826.388-.199 1.502.825-.388.2zm17.338-8.916l-1.502-.826.387-.199 1.503.825-.388.2zm17.338-8.916l-1.502-.825.388-.2 1.502.825-.388.2zm17.339-8.916l-1.503-.825.388-.2 1.35.742.152.084-.152.078-.235.12zM35.57 74.523l-1.502-.825.387-.2 1.503.826-.388.2zm17.338-8.915l-1.502-.826.388-.2 1.502.826-.388.2zm17.339-8.917l-1.503-.825.388-.2 1.502.826-.387.2zM19.649 83.334l-.772.397-.382-.21.772-.397.382.21zm3.087-1.587l-1.544.794-.382-.21 1.544-.794.382.21zm3.086-1.587l-1.543.793-.382-.21 1.543-.793.382.21zm3.087-1.588l-1.543.794-.383-.21 1.544-.793.382.21zm3.087-1.587l-1.544.794-.382-.21 1.543-.794.383.21zm3.086-1.587l-1.543.794-.382-.21 1.543-.794.382.21zm3.087-1.587l-1.544.793-.382-.21 1.544-.793.382.21zm3.086-1.588l-1.543.794-.382-.21 1.543-.793.382.21zm3.087-1.587l-1.543.794-.383-.21 1.544-.794.382.21zm3.087-1.587l-1.544.794-.382-.21 1.543-.794.383.21zm3.086-1.587l-1.543.793-.382-.21 1.543-.793.382.21zm3.087-1.587l-1.544.793-.382-.21 1.544-.793.382.21zm3.086-1.588l-1.543.794-.382-.21 1.543-.794.382.21zm3.087-1.587l-1.543.794-.383-.21 1.544-.794.382.21zm3.087-1.587l-1.544.793-.382-.21 1.543-.793.383.21zm3.086-1.587l-1.543.793-.382-.21 1.543-.793.382.21zm3.087-1.588l-1.543.794-.383-.21 1.544-.794.382.21zm3.086-1.587l-1.543.794-.382-.21 1.543-.794.382.21zm3.087-1.587l-1.543.794-.383-.21 1.544-.794.382.21zm3.087-1.587l-1.544.793-.382-.21 1.543-.793.383.21zm3.086-1.588l-1.543.794-.382-.21 1.543-.794.382.21zm3.087-1.587l-1.544.794-.382-.21 1.544-.794.382.21zm9.26-4.762l-1.544.794-.382-.21 1.543-.794.383.21zm3.086-1.587l-1.543.794-.382-.21 1.543-.794.382.21zm3.087-1.587l-1.543.794-.383-.21 1.544-.794.382.21zm3.086-1.587l-1.543.793-.382-.21 1.543-.793.382.21zm2.315-1.19l-.233.12-.538.276-.382-.21.538-.277.233-.12.382.21zM38.574 76.173l-1.502-.825.388-.2 1.502.826-.388.2zm17.339-8.916l-1.503-.825.388-.2 1.502.826-.387.2zm17.338-8.916l-1.502-.825.388-.2 1.502.826-.388.2zM41.578 77.825l-1.502-.826.388-.199 1.502.826-.388.199zm17.339-8.916l-1.502-.825.388-.2 1.502.826-.388.199zm17.338-8.916l-1.502-.825.388-.2 1.502.826-.388.199zm17.339-8.916l-1.503-.825.388-.2 1.502.826-.387.199zM44.583 79.476l-1.502-.826.387-.2 1.503.826-.388.2zM61.92 70.56l-1.502-.826.388-.2 1.502.826-.388.2zm17.339-8.916l-1.503-.826.388-.2 1.502.826-.387.2zm17.338-8.916l-1.502-.826.388-.2 1.502.826-.388.2zm-49.01 28.398l-1.503-.825.388-.2 1.502.826-.388.2zm17.338-8.916l-1.503-.825.388-.2 1.502.826-.387.2zm17.338-8.916l-1.502-.825.388-.2 1.502.826-.388.2zm17.338-8.916l-1.502-.825.388-.2 1.502.826-.388.2zm-49.01 28.399l-1.503-.825.388-.2 1.502.826-.387.199zm17.338-8.916l-1.502-.825.388-.2 1.502.826-.388.199zm34.677-17.832l-1.503-.825.388-.2 1.502.826-.387.2zm-49.01 28.399l-1.502-.826.387-.199 1.503.825-.388.2zm16.603-9.32l-.767-.422.388-.199 1.502.825-.388.2-.353-.195-1.435.739-.383-.21 1.436-.738zM105.61 57.68l-1.502-.826.388-.199 1.502.825-.388.2zM36.736 92.722l-.771.396-.383-.21.772-.396.382.21zm3.087-1.588l-1.544.794-.382-.21 1.544-.794.382.21zm3.086-1.587l-1.543.794-.382-.21 1.543-.794.382.21zm3.087-1.587l-1.543.794-.382-.21 1.543-.794.382.21zm3.087-1.587l-1.544.793-.382-.21 1.544-.793.382.21zm3.086-1.588l-1.543.794-.382-.21 1.543-.794.382.21zm3.087-1.587l-1.544.794-.382-.21 1.544-.794.382.21zm3.087-1.587l-1.544.793-.382-.21 1.543-.793.383.21zm3.086-1.587l-1.543.793-.382-.21 1.543-.793.382.21zm3.087-1.588l-1.544.794-.382-.21 1.543-.793.383.21zm3.086-1.587l-1.543.794-.382-.21 1.543-.794.382.21zm6.173-3.174l-1.543.793-.382-.21 1.543-.793.382.21zm3.087-1.587l-1.543.793-.382-.21 1.543-.794.382.21zM79.95 70.5l-1.544.794-.382-.21 1.544-.794.382.21zm3.086-1.587l-1.543.794-.382-.21 1.543-.794.382.21zm9.26-4.762l-1.543.794-.312-.171-.07-.04.07-.035 1.473-.758.382.21zm3.087-1.587l-1.544.794-.382-.21L95 62.354l.382.21zm3.086-1.587l-1.543.793-.382-.21 1.543-.793.382.21zm3.087-1.587l-1.543.793-.383-.21 1.544-.793.382.21zm3.087-1.588l-1.544.794-.382-.21 1.543-.794.383.21zm3.086-1.587l-1.543.794-.382-.21 1.543-.794.382.21zm3.087-1.587l-1.544.793-.382-.21 1.544-.793.382.21zm3.086-1.587l-1.543.793-.382-.21 1.543-.793.382.21zm3.087-1.588l-1.543.794-.382-.21 1.543-.794.382.21zm3.087-1.587l-1.544.794-.382-.21 1.543-.794.383.21zm2.315-1.19l-.234.12-.538.276-.382-.21.538-.276.233-.12.383.21zM56.6 86.078l-1.502-.825.388-.2 1.502.826-.388.2zm17.339-8.916l-1.503-.825.388-.2 1.502.826-.387.2zm34.676-17.832l-1.502-.825.388-.2 1.502.826-.388.2zm-49.01 28.4l-1.503-.826.388-.2 1.502.826-.387.2zm17.338-8.917l-1.502-.825.388-.2 1.502.826-.388.2zm17.338-8.916l-1.502-.825.388-.2 1.502.826-.388.2zm17.339-8.916l-1.503-.825.388-.2 1.502.826-.387.2zM62.609 89.38l-1.502-.825.388-.2 1.502.825-.388.2zm17.338-8.916l-1.502-.826.388-.199.974.535.528.29-.388.2zm17.339-8.916l-1.503-.826.388-.199 1.502.826-.387.199zm17.338-8.916l-1.502-.825.388-.2 1.502.825-.388.2zM65.614 91.03l-1.503-.826.388-.2 1.502.826-.388.2zm17.338-8.916l-1.503-.826.388-.2 1.502.826-.387.2zm17.338-8.916l-1.502-.826.388-.2 1.502.826-.388.2zm17.338-8.916l-1.502-.826.388-.2 1.502.826-.388.2zM68.618 92.68l-1.503-.825.388-.2 1.502.826-.387.2zm17.338-8.916l-1.502-.825.388-.2 1.502.826-.388.2zm17.338-8.916l-1.502-.825.388-.2 1.502.826-.388.2zm17.339-8.916l-1.503-.825.388-.2 1.502.826-.387.2zM53.821 102.11l-.77.396-.381-.21.769-.396.382.21zm3.077-1.582l-1.539.791-.382-.21 1.539-.791.382.21zm3.077-1.582l-1.538.79-.383-.21 1.539-.79.382.21zm3.077-1.583l-1.538.791-.382-.21 1.538-.79.382.21zm3.077-1.582l-1.538.791-.382-.21 1.538-.791.382.21zm3.077-1.582l-1.538.79-.382-.21 1.538-.79.382.21zm3.078-1.583l-1.54.791-.381-.21 1.538-.79.383.21zm3.077-1.582l-1.539.791-.382-.21 1.538-.791.383.21zm3.077-1.582l-1.539.79-.382-.21 1.538-.79.383.21zm3.077-1.583l-1.539.791-.382-.21 1.539-.79.382.21zm3.077-1.582l-1.539.79-.382-.209 1.539-.791.382.21zm3.076-1.582l-1.538.79-.382-.21 1.539-.79.172.094.387-.199 1.502.826-.388.199-1.292-.71zm3.078-1.583l-1.539.791-.382-.21 1.539-.79.382.21zm3.077-1.582l-1.538.79-.383-.209 1.539-.791.382.21zm3.077-1.583l-1.538.792-.382-.21 1.538-.791.382.21zm3.077-1.582l-1.538.791-.382-.21 1.538-.79.382.21zm3.077-1.582l-1.538.79-.382-.21 1.538-.79.382.21zm1.952-1.004l-.413.213-.382-.21 1.538-.792.382.21-.737.38 1.292.71-.387.199-1.293-.71zm4.202-2.16l-1.538.79-.382-.21 1.538-.79.382.21zm3.078-1.583l-1.539.79-.382-.21 1.538-.79.383.21zm3.077-1.583l-1.539.791-.382-.21 1.538-.79.383.21zm3.077-1.582l-1.539.791-.382-.21 1.539-.79.382.209zm3.077-1.582l-1.539.79-.382-.21 1.539-.79.382.21zm3.077-1.583l-1.539.791-.382-.21 1.539-.79.382.21zm3.077-1.582l-1.539.791-.382-.21 1.539-.79.382.209zm3.077-1.582l-1.539.79-.382-.21 1.539-.79.382.21zm3.077-1.583l-1.538.791-.383-.21 1.539-.79.382.21zm3.077-1.582l-1.538.791-.383-.21 1.539-.791.382.21zm2.308-1.187l-.769.396-.382-.21.769-.396.382.21zM71.622 94.332l-1.502-.825.387-.2 1.503.826-.388.199zm52.015-26.748l-1.502-.825.388-.2 1.502.826-.388.199zm-49.01 28.399l-1.503-.826.388-.2 1.502.826-.388.2zm17.338-8.916l-1.503-.826.388-.2 1.502.826-.387.2zm17.338-8.916l-1.502-.826.387-.199 1.503.825-.388.2zm17.338-8.916l-1.502-.826.388-.199 1.502.825-.388.2zm-49.01 28.398l-1.503-.825.388-.2 1.502.826-.388.2zm17.338-8.916l-1.502-.825.388-.2 1.502.826-.388.2zm17.338-8.916l-1.502-.825.388-.2 1.502.826-.388.2zm17.339-8.916l-1.503-.825.388-.2 1.502.826-.387.2zm-49.011 28.4l-1.502-.826.388-.2 1.502.826-.388.2zm17.338-8.917l-1.502-.825.388-.2 1.502.826-.388.2zm17.339-8.916l-1.503-.825.388-.2 1.502.826-.387.2zm17.338-8.916l-1.502-.825.388-.2 1.502.826-.388.2zm-49.01 28.399l-1.503-.826.388-.199 1.502.825-.388.2zm17.338-8.916l-1.503-.826.388-.199 1.502.825-.387.2zm17.338-8.916l-1.502-.825.388-.2 1.502.825-.388.2zm17.338-8.916l-1.502-.825.388-.2 1.502.825-.388.2zm-49.01 28.398l-1.503-.825.388-.199 1.502.825-.387.199zm17.338-8.915l-1.502-.826.387-.2 1.503.826-.388.2zm17.338-8.916l-1.502-.826.388-.2 1.502.826-.388.2zm17.339-8.916l-1.503-.826.388-.2 1.502.826-.387.2zm-67.486 35.805l-.771.397-.382-.21.771-.397.382.21zm3.087-1.587l-1.543.793-.382-.21 1.543-.793.382.21zm3.087-1.588l-1.544.794-.382-.21 1.543-.794.383.21zm3.086-1.587l-1.543.794-.382-.21 1.543-.794.382.21zm3.087-1.587l-1.543.793-.383-.209 1.544-.794.382.21zm3.087-1.587l-1.544.793-.382-.21 1.543-.793.382.21zm3.086-1.588l-1.543.794-.382-.21 1.543-.794.382.21zm3.087-1.587l-1.544.794-.382-.21 1.543-.794.383.21zm3.086-1.587l-1.543.794-.382-.21 1.543-.794.382.21zm3.087-1.587l-1.543.793-.383-.21 1.544-.793.382.21zm3.086-1.588l-1.543.794-.382-.21 1.543-.794.382.21zm3.087-1.587l-1.543.794-.382-.21 1.543-.794.382.21zm3.087-1.587l-1.544.793-.382-.21 1.544-.793.382.21zm3.086-1.587l-1.543.793-.382-.21 1.543-.793.382.21zm3.087-1.588l-1.543.794-.383-.21 1.544-.793.382.21zm3.087-1.587l-1.544.794-.382-.21 1.543-.794.383.21zm3.086-1.587l-1.543.794-.382-.21 1.543-.794.382.21zm3.087-1.587l-1.544.793-.382-.21 1.544-.793.382.21zm3.086-1.587l-1.543.793-.382-.21 1.543-.794.382.21zm3.087-1.588l-1.543.794-.382-.21 1.543-.794.382.21zm3.087-1.587l-1.544.794-.382-.21 1.543-.794.383.21zm3.086-1.587l-1.543.793-.382-.21 1.543-.793.382.21zm3.087-1.588l-1.544.794-.382-.21 1.544-.793.382.21zm3.086-1.587l-1.543.794-.382-.21 1.543-.794.382.21zm3.087-1.587l-1.543.794-.382-.21 1.543-.794.382.21zm3.087-1.587l-1.544.793-.382-.21 1.543-.793.383.21zm3.086-1.587l-1.543.793-.382-.21 1.543-.793.382.21zm3.087-1.588l-1.544.794-.382-.21 1.544-.794.382.21zm2.315-1.19l-.234.12-.538.277-.382-.21.538-.277.234-.12.382.21zm-67.18 36.639l-1.501-.825.388-.2 1.502.826-.388.199zm17.339-8.916l-1.502-.825.388-.2 1.502.826-.388.2zm17.339-8.916l-1.503-.825.388-.2 1.502.826-.387.2zm17.338-8.916l-1.502-.825.388-.2 1.502.826-.388.2zm-49.01 28.399l-1.503-.825.388-.2 1.502.826-.388.199zm17.338-8.916l-1.503-.825.388-.2 1.502.826-.387.199zm17.338-8.916l-1.502-.825.388-.2 1.502.826-.388.199zm17.338-8.916l-1.502-.825.388-.2 1.502.826-.388.199zm-49.01 28.399l-1.503-.826.388-.199 1.502.825-.387.2zm17.338-8.916l-1.502-.826.388-.2 1.502.826-.388.2zm17.338-8.916l-1.502-.826.388-.2 1.502.826-.388.2zm17.339-8.916l-1.503-.826.388-.2 1.502.826-.387.2zm-49.011 28.398l-1.502-.825.387-.199 1.503.825-.388.199zm17.338-8.916l-1.502-.825.388-.2 1.502.826-.388.199zm17.339-8.916l-1.503-.825.388-.2 1.502.826-.387.2zm17.338-8.916l-1.502-.825.388-.2 1.502.826-.388.2zm-49.011 28.399l-1.502-.825.388-.2 1.502.826-.388.199zm17.339-8.916l-1.503-.825.388-.2 1.502.826-.387.199zm17.338-8.916l-1.502-.825.388-.2 1.502.826-.388.2zm17.338-8.916l-1.502-.825.388-.2 1.502.826-.388.2zm-49.761 27.986l-.752-.413.388-.199.751.413-.387.199zm17.338-8.916l-.751-.413.387-.199.752.413-.388.199zm17.338-8.916l-.751-.413.388-.199.751.413-.388.2zm17.339-8.916l-.752-.413.388-.199.751.413-.387.2z" fill="#6F6F6F"/><path fill-rule="evenodd" clip-rule="evenodd" d="M83.466 45.1l1.35.742v.162l-.235.12-1.503-.825.388-.199zm.688 18.82l.662.364v.412l-1.05-.576.388-.2zm7.123 4.326l-.837-.437v-.435l1.225.673-.388.2zm-.525-3.301l-.312-.171v-.075l1.473-.758.382.21-1.543.794zm13.397-25.47l.538-.278.382.21-.538.277-.382-.21zm17.087 9.387l.538-.276.382.21-.538.276-.382-.21zm34.437 18.922l.538-.277.382.21-.538.277-.382-.21zM20.548 66.27l-.75-.413.387-.2.75.414-.387.199zm17.338-8.916l-.75-.413.387-.2.751.414-.388.199zm17.339-8.916l-.751-.413.388-.2.75.414-.387.199zm17.338-8.916l-.75-.413.387-.2.751.414-.388.199zm-49.01 28.399l-1.503-.826.388-.2 1.502.826-.388.2zm17.338-8.916l-1.502-.826.387-.2 1.503.826-.388.2zm17.338-8.916l-1.502-.826.388-.199 1.502.825-.388.2zm17.339-8.916l-1.503-.826.388-.199 1.502.825-.387.2zM26.557 69.57l-1.502-.825.387-.2 1.503.826-.388.2zm17.338-8.916l-1.502-.825.388-.2 1.502.826-.388.2zm17.338-8.916l-1.502-.825.388-.2 1.502.826-.388.2zm17.339-8.916l-1.502-.825.388-.2 1.502.826-.388.2zm-49.01 28.4l-1.503-.826.388-.2 1.502.826-.388.2zM46.9 62.305l-1.503-.825.388-.2 1.502.826-.387.2zm17.338-8.916l-1.502-.825.388-.2 1.502.826-.388.2zm17.338-8.916l-1.502-.825.388-.2 1.502.826-.388.2zm-49.01 28.399l-1.503-.826.388-.199 1.502.825-.388.2zm17.338-8.916l-1.502-.826.387-.199 1.503.825-.388.2zm17.338-8.916l-1.502-.825.388-.2 1.502.825-.388.2zM35.57 74.524l-1.502-.826.387-.2 1.503.826-.388.2zm17.338-8.916l-1.502-.826.388-.2 1.502.826-.388.2zm17.339-8.917l-1.503-.825.388-.2 1.502.826-.387.2zM19.649 83.334l-.772.397-.382-.21.772-.397.382.21zm3.087-1.587l-1.544.794-.382-.21 1.544-.794.382.21zm3.086-1.587l-1.543.793-.382-.21 1.543-.793.382.21zm3.087-1.588l-1.543.794-.383-.21 1.544-.793.382.21zm3.087-1.587l-1.544.794-.382-.21 1.543-.794.383.21zm3.086-1.587l-1.543.794-.382-.21 1.543-.794.382.21zm3.087-1.587l-1.544.793-.382-.21 1.544-.793.382.21zm3.086-1.588l-1.543.794-.382-.21 1.543-.793.382.21zm3.087-1.587l-1.543.794-.383-.21 1.544-.794.382.21zm3.087-1.587l-1.544.794-.382-.21 1.543-.794.383.21zm3.086-1.587l-1.543.793-.382-.21 1.543-.793.382.21zm3.087-1.587l-1.544.793-.382-.21 1.544-.793.382.21zm3.086-1.588l-1.543.794-.382-.21 1.543-.794.382.21zm3.087-1.587l-1.543.794-.383-.21 1.544-.794.382.21zm3.087-1.587l-1.544.793-.382-.21 1.543-.793.383.21zm3.086-1.587l-1.543.793-.382-.21 1.543-.793.382.21zm3.087-1.588l-1.543.794-.383-.21 1.544-.794.382.21zm3.086-1.587l-1.543.794-.382-.21 1.543-.794.382.21zm3.087-1.587l-1.543.794-.383-.21 1.544-.794.382.21zm3.087-1.587l-1.544.793-.382-.21 1.543-.793.383.21zm3.086-1.588l-1.543.794-.382-.21 1.543-.794.382.21zm3.087-1.587l-1.544.794-.382-.21 1.544-.794.382.21zm9.26-4.762l-1.544.794-.382-.21 1.543-.794.383.21zm3.086-1.587l-1.543.794-.382-.21 1.543-.794.382.21zm3.087-1.587l-1.543.794-.383-.21 1.544-.794.382.21zm3.086-1.587l-1.543.793-.382-.21 1.543-.793.382.21zM38.574 76.174l-1.502-.825.388-.2 1.502.826-.388.2zm17.339-8.916l-1.503-.825.388-.2 1.502.826-.387.2zm17.338-8.916l-1.502-.825.388-.2 1.502.826-.388.2zM41.578 77.825l-1.502-.826.388-.199 1.502.826-.388.199zm17.339-8.916l-1.502-.825.388-.2 1.502.826-.388.199zm17.338-8.916l-1.502-.825.388-.2 1.502.826-.388.199zm17.339-8.916l-1.503-.825.388-.2 1.502.826-.387.199zM44.583 79.476l-1.502-.826.387-.2 1.503.826-.388.2zM61.92 70.56l-1.502-.826.388-.2 1.502.826-.388.2zm17.339-8.916l-1.503-.826.388-.2 1.502.826-.387.2zm17.338-8.916l-1.502-.826.388-.2 1.502.826-.388.2zm-49.01 28.398l-1.503-.825.388-.2 1.502.826-.388.2zm17.338-8.916l-1.503-.825.388-.2 1.502.826-.387.2zm17.338-8.916l-1.502-.825.388-.2 1.502.826-.388.2zm17.338-8.916l-1.502-.825.388-.2 1.502.826-.388.2zm-49.01 28.399l-1.503-.825.388-.2 1.502.826-.387.199zm17.338-8.916l-1.502-.825.388-.2 1.502.826-.388.199zm34.677-17.832l-1.503-.825.388-.2 1.502.826-.387.2zm-49.01 28.399l-1.502-.826.387-.199 1.503.825-.388.2zm16.603-9.32l-.767-.422.388-.199 1.502.825-.388.2-.353-.195-1.435.739-.383-.21 1.436-.738zM105.61 57.68l-1.502-.826.388-.199 1.502.825-.388.2zM36.736 92.722l-.771.396-.383-.21.772-.396.382.21zm3.087-1.588l-1.544.794-.382-.21 1.544-.794.382.21zm3.086-1.587l-1.543.794-.382-.21 1.543-.794.382.21zm3.087-1.587l-1.543.794-.382-.21 1.543-.794.382.21zm3.087-1.587l-1.544.793-.382-.21 1.544-.793.382.21zm3.086-1.588l-1.543.794-.382-.21 1.543-.794.382.21zm3.087-1.587l-1.544.794-.382-.21 1.544-.794.382.21zm3.087-1.587l-1.544.793-.382-.21 1.543-.793.383.21zm3.086-1.587l-1.543.793-.382-.21 1.543-.793.382.21zm3.087-1.588l-1.544.794-.382-.21 1.543-.793.383.21zm3.086-1.587l-1.543.794-.382-.21 1.543-.794.382.21zm6.173-3.174l-1.543.793-.382-.21 1.543-.793.382.21zm3.087-1.587l-1.543.793-.382-.21 1.543-.794.382.21zM79.95 70.5l-1.544.794-.382-.21 1.544-.794.382.21zm3.086-1.587l-1.543.794-.382-.21 1.543-.794.382.21zm12.347-6.349l-1.544.794-.382-.21L95 62.354l.382.21zm3.086-1.587l-1.543.793-.382-.21 1.543-.793.382.21zm3.087-1.587l-1.543.793-.383-.21 1.544-.793.382.21zm3.087-1.588l-1.544.794-.382-.21 1.543-.794.383.21zm3.086-1.587l-1.543.794-.382-.21 1.543-.794.382.21zm3.087-1.587l-1.544.793-.382-.21 1.544-.793.382.21zm3.086-1.587l-1.543.793-.382-.21 1.543-.793.382.21zm3.087-1.588l-1.543.794-.382-.21 1.543-.794.382.21zm3.087-1.587l-1.544.794-.382-.21 1.543-.794.383.21zM56.6 86.078l-1.502-.825.388-.2 1.502.826-.388.2zm17.339-8.916l-1.503-.825.388-.2 1.502.826-.387.2zm34.676-17.832l-1.502-.825.388-.2 1.502.826-.388.2zm-49.01 28.4l-1.503-.826.388-.2 1.502.826-.387.2zm17.338-8.917l-1.502-.825.388-.2 1.502.826-.388.2zm17.338-8.916l-1.502-.825.388-.2 1.502.826-.388.2zm17.339-8.916l-1.503-.825.388-.2 1.502.826-.387.2zM62.609 89.38l-1.502-.825.388-.2 1.502.825-.388.2zm17.338-8.916l-1.502-.826.388-.199.974.535.528.29-.388.2zm17.339-8.916l-1.503-.826.388-.199 1.502.826-.387.199zm17.338-8.916l-1.502-.825.388-.2 1.502.825-.388.2zM65.614 91.03l-1.503-.826.388-.2 1.502.826-.388.2zm17.338-8.916l-1.503-.826.388-.2 1.502.826-.387.2zm17.338-8.916l-1.502-.826.388-.2 1.502.826-.388.2zm17.338-8.916l-1.502-.826.388-.2 1.502.826-.388.2zM68.618 92.68l-1.503-.825.388-.2 1.502.826-.387.2zm17.338-8.916l-1.502-.825.388-.2 1.502.826-.388.2zm17.338-8.916l-1.502-.825.388-.2 1.502.826-.388.2zm17.339-8.916l-1.503-.825.388-.2 1.502.826-.387.2zM53.821 102.11l-.77.396-.381-.21.769-.396.382.21zm3.077-1.582l-1.539.791-.382-.21 1.539-.791.382.21zm3.077-1.582l-1.538.79-.383-.21 1.539-.79.382.21zm3.077-1.583l-1.538.791-.382-.21 1.538-.79.382.21zm3.077-1.582l-1.538.791-.382-.21 1.538-.791.382.21zm3.077-1.582l-1.538.79-.382-.21 1.538-.79.382.21zm3.078-1.583l-1.54.791-.381-.21 1.538-.79.383.21zm3.077-1.582l-1.539.791-.382-.21 1.538-.791.383.21zm3.077-1.582l-1.539.79-.382-.21 1.538-.79.383.21zm3.077-1.583l-1.539.791-.382-.21 1.539-.79.382.21zm3.077-1.582l-1.539.79-.382-.209 1.539-.791.382.21zm3.076-1.582l-1.538.79-.382-.21 1.539-.79.172.094.387-.199 1.502.826-.388.199-1.292-.71zm3.078-1.583l-1.539.791-.382-.21 1.539-.79.382.21zm3.077-1.582l-1.538.79-.383-.209 1.539-.791.382.21zm3.077-1.583l-1.538.792-.382-.21 1.538-.791.382.21zm3.077-1.582l-1.538.791-.382-.21 1.538-.79.382.21zm3.077-1.582l-1.538.79-.382-.21 1.538-.79.382.21zm1.952-1.004l-.413.213-.382-.21 1.538-.792.382.21-.737.38 1.292.71-.387.199-1.293-.71zm4.202-2.16l-1.538.79-.382-.21 1.538-.79.382.21zm3.078-1.583l-1.539.79-.382-.21 1.538-.79.383.21zm3.077-1.583l-1.539.791-.382-.21 1.538-.79.383.21zm3.077-1.582l-1.539.791-.382-.21 1.539-.79.382.209zm3.077-1.582l-1.539.79-.382-.21 1.539-.79.382.21zm3.077-1.583l-1.539.791-.382-.21 1.539-.79.382.21zm3.077-1.582l-1.539.791-.382-.21 1.539-.79.382.209zm3.077-1.582l-1.539.79-.382-.21 1.539-.79.382.21zm3.077-1.583l-1.538.791-.383-.21 1.539-.79.382.21zm3.077-1.582l-1.538.791-.383-.21 1.539-.791.382.21zm2.308-1.187l-.769.396-.382-.21.769-.396.382.21zM71.622 94.332l-1.502-.825.387-.2 1.503.826-.388.199zm52.015-26.748l-1.502-.825.388-.2 1.502.826-.388.199zm-49.01 28.399l-1.503-.826.388-.2 1.502.826-.388.2zm17.338-8.916l-1.503-.826.388-.2 1.502.826-.387.2zm17.338-8.916l-1.502-.826.387-.199 1.503.825-.388.2zm17.338-8.916l-1.502-.826.388-.199 1.502.825-.388.2zm-49.01 28.398l-1.503-.825.388-.2 1.502.826-.388.2zm17.338-8.916l-1.502-.825.388-.2 1.502.826-.388.2zm17.338-8.916l-1.502-.825.388-.2 1.502.826-.388.2zm17.339-8.916l-1.503-.825.388-.2 1.502.826-.387.2zm-49.011 28.4l-1.502-.826.388-.2 1.502.826-.388.2zm17.338-8.917l-1.502-.825.388-.2 1.502.826-.388.2zm17.339-8.916l-1.503-.825.388-.2 1.502.826-.387.2zm17.338-8.916l-1.502-.825.388-.2 1.502.826-.388.2zm-49.01 28.399l-1.503-.826.388-.199 1.502.825-.388.2zm17.338-8.916l-1.503-.826.388-.199 1.502.825-.387.2zm17.338-8.916l-1.502-.825.388-.2 1.502.825-.388.2zm17.338-8.916l-1.502-.825.388-.2 1.502.825-.388.2zm-49.01 28.398l-1.503-.825.388-.199 1.502.825-.387.199zm17.338-8.915l-1.502-.826.387-.2 1.503.826-.388.2zm17.338-8.916l-1.502-.826.388-.2 1.502.826-.388.2zm17.339-8.916l-1.503-.826.388-.2 1.502.826-.387.2zm-67.486 35.805l-.771.397-.382-.21.771-.397.382.21zm3.087-1.587l-1.543.793-.382-.21 1.543-.793.382.21zm3.087-1.588l-1.544.794-.382-.21 1.543-.794.383.21zm3.086-1.587l-1.543.794-.382-.21 1.543-.794.382.21zm3.087-1.587l-1.543.793-.383-.209 1.544-.794.382.21zm3.087-1.587l-1.544.793-.382-.21 1.543-.793.382.21zm3.086-1.588l-1.543.794-.382-.21 1.543-.794.382.21zm3.087-1.587l-1.544.794-.382-.21 1.543-.794.383.21zm3.086-1.587l-1.543.794-.382-.21 1.543-.794.382.21zm3.087-1.587l-1.543.793-.383-.21 1.544-.793.382.21zm3.086-1.588l-1.543.794-.382-.21 1.543-.794.382.21zm3.087-1.587l-1.543.794-.382-.21 1.543-.794.382.21zm3.087-1.587l-1.544.793-.382-.21 1.544-.793.382.21zm3.086-1.587l-1.543.793-.382-.21 1.543-.793.382.21zm3.087-1.588l-1.543.794-.383-.21 1.544-.793.382.21zm3.087-1.587l-1.544.794-.382-.21 1.543-.794.383.21zm3.086-1.587l-1.543.794-.382-.21 1.543-.794.382.21zm3.087-1.587l-1.544.793-.382-.21 1.544-.793.382.21zm3.086-1.587l-1.543.793-.382-.21 1.543-.794.382.21zm3.087-1.588l-1.543.794-.382-.21 1.543-.794.382.21zm3.087-1.587l-1.544.794-.382-.21 1.543-.794.383.21zm3.086-1.587l-1.543.793-.382-.21 1.543-.793.382.21zm3.087-1.588l-1.544.794-.382-.21 1.544-.793.382.21zm3.086-1.587l-1.543.794-.382-.21 1.543-.794.382.21zm3.087-1.587l-1.543.794-.382-.21 1.543-.794.382.21zm3.087-1.587l-1.544.793-.382-.21 1.543-.793.383.21zm3.086-1.587l-1.543.793-.382-.21 1.543-.793.382.21zm3.087-1.588l-1.544.794-.382-.21 1.544-.794.382.21zm-64.864 35.449l-1.502-.825.388-.2 1.502.826-.388.199zm17.338-8.916l-1.502-.825.388-.2 1.502.826-.388.2zm17.339-8.916l-1.503-.825.388-.2 1.502.826-.387.2zm17.338-8.916l-1.502-.825.388-.2 1.502.826-.388.2zm-49.01 28.399l-1.503-.825.388-.2 1.502.826-.388.199zm17.338-8.916l-1.503-.825.388-.2 1.502.826-.387.199zm17.338-8.916l-1.502-.825.388-.2 1.502.826-.388.199zm17.338-8.916l-1.502-.825.388-.2 1.502.826-.388.199zm-49.01 28.399l-1.503-.826.388-.199 1.502.825-.387.2zm17.338-8.916l-1.502-.826.388-.2 1.502.826-.388.2zm17.338-8.916l-1.502-.826.388-.2 1.502.826-.388.2zm17.339-8.916l-1.503-.826.388-.2 1.502.826-.387.2zm-49.011 28.398l-1.502-.825.387-.199 1.503.825-.388.199zm17.338-8.916l-1.502-.825.388-.2 1.502.826-.388.199zm17.339-8.916l-1.503-.825.388-.2 1.502.826-.387.2zm17.338-8.916l-1.502-.825.388-.2 1.502.826-.388.2zm-49.011 28.399l-1.502-.825.388-.2 1.502.826-.388.199zm17.339-8.916l-1.503-.825.388-.2 1.502.826-.387.199zm17.338-8.916l-1.502-.825.388-.2 1.502.826-.388.2zm17.338-8.916l-1.502-.825.388-.2 1.502.826-.388.2zm-49.761 27.986l-.752-.413.388-.199.751.413-.387.199zm17.338-8.916l-.751-.413.387-.199.752.413-.388.199zm17.338-8.916l-.751-.413.388-.199.751.413-.388.2zm17.339-8.916l-.752-.413.388-.199.751.413-.387.2z" fill="#6F6F6F"/><path fill-rule="evenodd" clip-rule="evenodd" d="M83.078 45.3l1.503.825.235-.121.152-.078-.152-.084-1.35-.742-.388.2zm73.515 22.417l.234-.12-.382-.21-.234.12-.538.277.382.21.538-.277zm-34.437-18.921l.234-.12-.383-.21-.233.12-.538.276.382.21.538-.276zm-17.087-9.389l.233-.12-.382-.21-.233.12-.538.277.382.21.538-.277zM84.816 64.284l-.662-.364-.388.2 1.05.576v-.412zm5.624 3.525l.837.438.388-.2-1.225-.673v.435zm0-3.035l.312.17 1.543-.793-.382-.21-1.473.758-.07.036.07.039zm-70.643 1.083l.751.413.388-.2-.751-.412-.388.2zm17.338-8.916l.752.413.387-.2-.75-.412-.389.2zm17.339-8.916l.75.413.389-.2-.752-.412-.387.2zm17.338-8.916l.751.413.388-.2-.751-.412-.388.2zM22.05 67.095l1.502.826.388-.2-1.502-.825-.388.2zm17.34-8.915l1.502.826.388-.2-1.503-.825-.387.2zm17.338-8.916l1.502.826.388-.2-1.502-.825-.388.2zm17.338-8.916l1.503.826.387-.2-1.502-.825-.388.2zm-49.01 28.399l1.502.825.388-.199-1.503-.825-.387.199zm17.338-8.916l1.502.825.388-.199-1.502-.825-.388.199zm17.338-8.916l1.502.825.388-.199-1.502-.825-.388.2zm17.339-8.916l1.502.825.388-.199-1.502-.825-.388.2zM28.059 70.397l1.502.825.388-.2-1.502-.825-.388.2zm17.338-8.916l1.503.825.387-.2-1.502-.825-.388.2zm17.339-8.916l1.502.825.388-.2-1.503-.825-.387.2zm17.338-8.916l1.502.825.388-.2-1.502-.825-.388.2zm-49.01 28.398l1.502.826.387-.2-1.502-.825-.388.2zm17.338-8.916l1.502.826.388-.2-1.503-.825-.387.2zm17.338-8.916l1.502.826.388-.2-1.502-.825-.388.2zM34.068 73.698l1.502.826.388-.2-1.503-.825-.387.2zm17.338-8.916l1.502.826.388-.2-1.502-.825-.388.2zm17.338-8.916l1.503.825.387-.199-1.502-.825-.388.2zM18.877 83.73l.772-.397-.382-.21-.772.397.382.21zm2.315-1.19l1.544-.794-.383-.21-1.543.794.382.21zm3.087-1.588l1.543-.793-.382-.21-1.543.793.382.21zm3.087-1.587l1.543-.793-.382-.21-1.544.793.383.21zm3.086-1.587l1.543-.794-.382-.21-1.543.794.382.21zm3.087-1.587l1.543-.794-.382-.21-1.543.794.382.21zm3.086-1.588l1.544-.793-.382-.21-1.544.793.382.21zm3.087-1.587l1.543-.794-.382-.21-1.543.794.382.21zm3.087-1.587l1.543-.794-.382-.21-1.544.794.383.21zm3.086-1.587l1.544-.794-.383-.21-1.543.794.382.21zm3.087-1.588l1.543-.793-.382-.21-1.543.793.382.21zm3.086-1.587l1.544-.793-.382-.21-1.544.793.382.21zm3.087-1.587l1.543-.794-.382-.21-1.543.794.382.21zm3.087-1.587l1.543-.794-.382-.21-1.544.794.383.21zm3.086-1.588l1.544-.793-.383-.21-1.543.794.382.21zm3.087-1.587l1.543-.793-.382-.21-1.543.793.382.21zm3.087-1.587l1.543-.794-.382-.21-1.544.794.383.21zm3.086-1.587l1.543-.794-.382-.21-1.543.794.382.21zm3.087-1.587l1.543-.794-.382-.21-1.543.794.382.21zm3.086-1.588l1.544-.793-.383-.21-1.543.793.382.21zm3.087-1.587l1.543-.794-.382-.21-1.543.794.382.21zm3.087-1.587L84.468 50l-.382-.21-1.544.794.382.21zm9.26-4.762l1.543-.794-.382-.21-1.544.794.382.21zm3.086-1.587l1.543-.794-.382-.21-1.543.794.382.21zm3.087-1.587l1.543-.794-.382-.21-1.544.794.383.21zm3.086-1.588l1.543-.793-.382-.21-1.543.793.382.21zM37.072 75.35l1.502.825.388-.2-1.502-.825-.388.2zm17.338-8.916l1.503.825.387-.2-1.502-.825-.388.2zm17.339-8.916l1.502.825.388-.2-1.502-.825-.388.2zM40.076 76.999l1.502.826.388-.2-1.502-.825-.388.2zm17.339-8.915l1.502.825.388-.2-1.502-.825-.388.2zm17.338-8.916l1.502.825.388-.2-1.502-.825-.388.2zm17.338-8.916l1.503.825.387-.2-1.502-.825-.388.2zM43.081 78.65l1.502.826.388-.2-1.503-.825-.387.2zm17.338-8.916l1.502.826.388-.2-1.502-.825-.388.2zm17.338-8.916l1.503.826.387-.2-1.502-.825-.388.2zm17.339-8.916l1.502.826.388-.2-1.502-.825-.388.2zM46.085 80.301l1.502.825.388-.2-1.502-.824-.388.199zm17.338-8.916l1.503.825.387-.2-1.502-.824-.388.199zm17.339-8.916l1.502.825.388-.199-1.502-.825-.388.199zM98.1 53.553l1.502.825.388-.199-1.502-.825-.388.199zM49.09 81.952l1.502.825.387-.2-1.502-.825-.388.2zm17.338-8.916l1.502.825.388-.2-1.502-.825-.388.2zm34.676-17.832l1.503.825.387-.2-1.502-.825-.388.2zm-49.01 28.398l1.502.826.388-.2-1.503-.825-.387.2zm17.338-8.916l.767.422-1.436.738.383.21 1.435-.739.353.195.388-.2-1.502-.825-.388.2zm34.677-17.832l1.502.826.388-.2-1.502-.825-.388.2zM35.965 93.118l.771-.396-.382-.21-.772.396.383.21zm2.314-1.19l1.544-.794-.382-.21-1.544.794.383.21zm3.087-1.587l1.543-.794-.382-.21-1.543.794.382.21zm3.087-1.587l1.543-.794-.382-.21-1.543.793.382.21zm3.086-1.588l1.544-.793-.383-.21-1.543.793.382.21zm3.087-1.587l1.543-.794-.382-.21-1.543.794.382.21zm3.087-1.587l1.543-.794-.382-.21-1.544.794.383.21zm3.086-1.588l1.544-.793-.383-.21-1.543.794.382.21zm3.087-1.587l1.543-.793-.382-.21-1.543.793.382.21zm3.086-1.587l1.544-.794-.383-.21-1.543.794.382.21zm3.087-1.587l1.543-.794-.382-.21-1.543.794.382.21zm6.173-3.175l1.543-.793-.382-.21-1.543.793.382.21zm3.087-1.587l1.543-.793-.382-.21-1.543.793.382.21zm3.086-1.587l1.544-.794-.382-.21-1.544.794.382.21zm3.087-1.587l1.543-.794-.382-.21-1.543.794.382.21zm12.346-6.35l1.544-.793-.382-.21-1.544.794.382.21zm3.087-1.587l1.543-.793-.382-.21-1.543.793.382.21zm3.087-1.587l1.543-.794-.382-.21-1.544.794.383.21zm3.086-1.587l1.544-.794-.383-.21-1.543.794.382.21zm3.087-1.587l1.543-.794-.382-.21-1.543.794.382.21zm3.086-1.588l1.544-.793-.382-.21-1.544.794.382.21zm3.087-1.587l1.543-.793-.382-.21-1.543.793.382.21zm3.087-1.587l1.543-.794-.382-.21-1.543.794.382.21zm3.086-1.587l1.544-.794-.383-.21-1.543.794.382.21zM55.098 85.253l1.502.825.388-.199-1.502-.825-.388.2zm17.338-8.916l1.503.825.387-.199-1.502-.825-.388.2zm34.677-17.832l1.502.825.388-.199-1.502-.825-.388.2zm-49.01 28.399l1.502.825.387-.2-1.502-.825-.388.2zm17.338-8.916l1.502.825.388-.2-1.502-.825-.388.2zm17.338-8.916l1.502.825.388-.2-1.502-.825-.388.2zm17.338-8.916l1.503.825.387-.2-1.502-.825-.388.2zm-49.01 28.399l1.502.825.388-.2-1.502-.825-.388.2zm17.338-8.917l1.502.826.388-.2-.528-.29-.974-.535-.388.2zm17.338-8.916l1.503.826.387-.2-1.502-.825-.388.2zm17.339-8.915l1.502.825.388-.2-1.502-.825-.388.2zM64.111 90.205l1.502.826.388-.2-1.502-.825-.388.2zm17.338-8.916l1.503.826.387-.2-1.502-.825-.388.2zm17.339-8.916l1.502.826.388-.2-1.502-.825-.388.2zm17.338-8.916l1.502.826.388-.2-1.502-.825-.388.2zm-49.01 28.399l1.502.825.387-.2-1.502-.825-.388.2zm17.338-8.916l1.502.825.388-.2-1.502-.825-.388.2zm17.338-8.916l1.502.825.388-.2-1.502-.824-.388.199zm17.338-8.916l1.503.825.387-.2-1.502-.824-.388.199zm-66.078 37.399l.769-.396-.382-.21-.77.396.383.21zm2.307-1.187l1.54-.791-.383-.21-1.539.791.383.21zm3.078-1.582l1.538-.791-.382-.21-1.539.79.383.21zm3.077-1.583l1.538-.79-.382-.21-1.538.79.382.21zm3.077-1.582l1.538-.791-.382-.21-1.538.791.382.21zm3.077-1.582l1.538-.791-.382-.21-1.538.79.382.21zm3.077-1.583l1.538-.79-.382-.21-1.538.79.382.21zm3.077-1.582l1.539-.791-.383-.21-1.538.791.382.21zm3.077-1.582l1.539-.791-.383-.21-1.538.79.382.21zm3.077-1.583l1.539-.79-.382-.21-1.539.79.382.21zm3.077-1.582l1.539-.791-.382-.21-1.539.791.382.21zm3.077-1.582l1.538-.791 1.292.71.388-.2-1.502-.825-.387.2-.172-.095-1.539.79.382.21zm3.077-1.583l1.539-.79-.382-.21-1.539.79.382.21zm3.078-1.582l1.538-.791-.382-.21-1.539.791.382.21zm3.077-1.582l1.538-.792-.382-.21-1.538.792.382.21zm3.077-1.583l1.538-.79-.382-.21-1.538.79.382.21zm3.077-1.582l1.538-.791-.382-.21-1.538.79.382.21zm3.077-1.582l.413-.213 1.293.71.387-.2-1.292-.71.737-.379-.382-.21-1.538.792.382.21zm3.077-1.583l1.538-.79-.382-.21-1.538.79.382.21zm3.077-1.582l1.539-.791-.383-.21-1.538.79.382.21zm3.077-1.582l1.539-.792-.383-.21-1.538.792.382.21zm3.077-1.583l1.539-.791-.382-.21-1.539.791.382.21zm3.077-1.582l1.539-.791-.382-.21-1.539.79.382.21zm3.077-1.582l1.539-.792-.382-.21-1.539.792.382.21zm3.077-1.583l1.539-.791-.382-.21-1.539.791.382.21zm3.077-1.582l1.539-.791-.382-.21-1.539.79.382.21zm3.078-1.583l1.538-.79-.382-.21-1.539.79.383.21zm3.077-1.582l1.538-.791-.382-.21-1.539.791.383.21zm3.077-1.582l.769-.396-.382-.21-.769.396.382.21zM70.12 93.507l1.502.825.388-.2-1.503-.825-.387.2zm52.015-26.748l1.502.825.388-.2-1.502-.825-.388.2zM73.124 95.157l1.502.826.388-.2-1.502-.825-.388.2zm17.338-8.916l1.503.826.387-.2-1.502-.825-.388.2zm17.339-8.916l1.502.826.388-.2-1.503-.825-.387.2zm17.338-8.916l1.502.826.388-.2-1.502-.825-.388.2zm-49.01 28.399l1.501.825.388-.199-1.502-.825-.388.199zm17.338-8.916l1.502.825.388-.199-1.502-.825-.388.199zm17.338-8.916l1.502.825.388-.199-1.502-.825-.388.2zm17.338-8.916l1.503.825.387-.199-1.502-.825-.388.2zm-49.01 28.4l1.502.825.388-.2-1.502-.825-.388.2zm17.338-8.916l1.502.825.388-.2-1.502-.825-.388.2zm17.338-8.916l1.503.825.387-.2-1.502-.825-.388.2zm17.339-8.916l1.502.825.388-.2-1.502-.825-.388.2zm-49.01 28.398l1.501.826.388-.2-1.502-.825-.388.199zm17.337-8.915l1.503.825.387-.2-1.502-.825-.388.2zm17.339-8.916l1.502.825.388-.2-1.502-.825-.388.2zm17.338-8.916l1.502.825.388-.2-1.502-.825-.388.2zm-49.01 28.398l1.502.825.387-.199-1.502-.825-.388.199zm17.338-8.916l1.502.826.388-.2-1.503-.825-.387.2zm17.338-8.916l1.502.826.388-.2-1.502-.825-.388.2zm17.338-8.916l1.503.826.387-.2-1.502-.825-.388.2zM70.402 112.04l.771-.397-.382-.21-.771.397.382.21zm2.315-1.191l1.543-.793-.382-.21-1.543.793.382.21zm3.086-1.587l1.544-.794-.382-.21-1.544.794.382.21zm3.087-1.587l1.543-.794-.382-.21-1.543.794.382.21zm3.087-1.588l1.543-.793-.382-.21-1.544.794.383.209zm3.086-1.587l1.543-.793-.382-.21-1.543.793.382.21zm3.087-1.587l1.543-.794-.382-.21-1.543.794.382.21zm3.086-1.587l1.544-.794-.383-.21-1.543.794.382.21zm3.087-1.587l1.543-.794-.382-.21-1.543.793.382.21zm3.087-1.588l1.543-.793-.382-.21-1.544.793.383.21zm3.086-1.587l1.543-.794-.382-.21-1.543.794.382.21zm3.087-1.587l1.543-.794-.382-.21-1.543.794.382.21zm3.086-1.588l1.544-.793-.382-.21-1.544.794.382.21zm3.087-1.587l1.543-.793-.382-.21-1.543.793.382.21zm3.087-1.587l1.543-.794-.382-.21-1.544.794.383.21zm3.086-1.587l1.544-.794-.383-.21-1.543.794.382.21zm3.087-1.587l1.543-.794-.382-.21-1.543.794.382.21zm3.086-1.588l1.544-.793-.382-.21-1.544.793.382.21zm3.087-1.587l1.543-.793-.382-.21-1.543.793.382.21zm3.087-1.587l1.543-.794-.382-.21-1.543.794.382.21zm3.086-1.587l1.544-.794-.383-.21-1.543.794.382.21zm3.087-1.588l1.543-.793-.382-.21-1.543.793.382.21zm3.086-1.587l1.544-.793-.382-.21-1.544.793.382.21zm3.087-1.587l1.543-.794-.382-.21-1.543.794.382.21zm3.087-1.587l1.543-.794-.382-.21-1.543.794.382.21zm3.086-1.588l1.544-.793-.383-.21-1.543.794.382.21zm3.087-1.587l1.543-.793-.382-.21-1.543.793.382.21zm3.086-1.587l1.544-.794-.382-.21-1.544.794.382.21zm-64.822 33.83l1.502.825.388-.199-1.502-.826-.388.2zm17.338-8.916l1.502.825.388-.2-1.502-.825-.388.2zm17.338-8.916l1.503.825.387-.2-1.502-.825-.388.2zm17.339-8.916l1.502.825.388-.2-1.502-.825-.388.2zm-49.01 28.399l1.501.825.388-.199-1.502-.826-.388.2zm17.337-8.916l1.503.825.387-.2-1.502-.825-.388.2zm17.339-8.916l1.502.825.388-.2-1.502-.825-.388.2zm17.338-8.916l1.502.825.388-.2-1.502-.825-.388.2zm-49.01 28.398l1.502.826.387-.2-1.502-.825-.388.199zm17.338-8.916l1.502.826.388-.2-1.502-.825-.388.2zm17.338-8.916l1.502.826.388-.2-1.502-.825-.388.2zm17.338-8.916l1.503.826.387-.2-1.502-.825-.388.2zm-49.01 28.399l1.502.825.388-.199-1.503-.825-.387.199zm17.338-8.916l1.502.825.388-.199-1.502-.825-.388.199zm17.338-8.916l1.503.825.387-.199-1.502-.825-.388.199zm17.339-8.916l1.502.825.388-.199-1.502-.825-.388.199zm-49.011 28.399l1.502.825.388-.199-1.502-.826-.388.2zm17.338-8.916l1.503.825.387-.199-1.502-.826-.388.2zm17.339-8.916l1.502.825.388-.2-1.502-.825-.388.2zm17.338-8.916l1.502.825.388-.2-1.502-.825-.388.2zm-49.011 28.398l.752.413.387-.199-.751-.413-.388.199zm17.339-8.916l.751.413.388-.199-.752-.413-.387.199zm17.338-8.916l.751.413.388-.2-.751-.412-.388.2zm17.338-8.916l.752.413.387-.2-.751-.412-.388.2z" fill="#C8C8C8"/><path fill-rule="evenodd" clip-rule="evenodd" d="M85.052 40.623c-4.648-.391-8.598-1.801-11.333-3.461l-.555.168L1 74.44l85.897 47.195 87.159-44.82L102.139 37.3l-.544-.174c-2.737 1.675-6.71 3.103-11.391 3.497a30.655 30.655 0 01-5.152 0zm19.868-1.546l.382.21-.233.12 16.705 9.179.233-.12.383.21-.234.12 34.055 18.711.234-.12.382.21-.234.12 16.535 9.085-86.224 44.339L1.928 74.452l71.669-36.855c2.75 1.646 6.65 3.028 11.218 3.443v4.802l.152.084-.152.078v29.757l2.812.627 2.812-.627V64.774l-.07-.04.07-.035V41.04c4.598-.417 8.52-1.816 11.274-3.476l2.973 1.633.233-.12zM85.252 75.412l2.376.529 2.376-.53V41.078a31.127 31.127 0 01-4.752 0v34.335z" fill="#6F6F6F"/><path fill-rule="evenodd" clip-rule="evenodd" d="M71.014 5.762c-.903.896-1.363 1.766-1.363 2.518v3.467l.027 3.78c.123.725.672 1.582 1.619 2.47.948.888 2.27 1.786 3.884 2.588 3.228 1.604 7.6 2.814 12.412 2.814 4.98 0 9.486-1.255 12.742-2.921 1.628-.834 2.936-1.767 3.834-2.69.904-.93 1.366-1.821 1.366-2.575V8.28c0-.752-.46-1.622-1.363-2.518-.897-.892-2.205-1.782-3.833-2.573C97.083 1.607 92.575.436 87.593.436c-4.983 0-9.49 1.17-12.746 2.753-1.628.791-2.936 1.681-3.833 2.573zm34.521 10.954a6.602 6.602 0 01-1.053 1.376c-.94.966-2.291 1.925-3.949 2.774-3.317 1.698-7.89 2.97-12.94 2.97-4.883 0-9.32-1.228-12.606-2.86-1.642-.817-3.003-1.737-3.988-2.662-.582-.545-1.041-1.1-1.348-1.642v15.874c0 .625.344 1.38 1.037 2.19.689.806 1.704 1.642 2.996 2.427 2.735 1.66 6.685 3.07 11.333 3.461a30.658 30.658 0 005.152 0c4.681-.394 8.654-1.822 11.391-3.497 1.274-.78 2.274-1.61 2.953-2.409.683-.803 1.022-1.552 1.022-2.172v-15.83zm.436 15.83c0 .77-.413 1.616-1.126 2.455-.716.843-1.755 1.7-3.058 2.498-2.798 1.713-6.837 3.16-11.582 3.56a31.097 31.097 0 01-5.225 0c-4.711-.397-8.727-1.827-11.522-3.524-1.32-.801-2.375-1.666-3.101-2.515-.723-.845-1.142-1.698-1.142-2.474V8.28c0-.923.556-1.899 1.491-2.828.941-.934 2.293-1.85 3.95-2.655C77.974 1.185 82.546 0 87.593 0s9.62 1.185 12.936 2.797c1.658.805 3.01 1.72 3.95 2.655.936.93 1.492 1.905 1.492 2.828v24.266zM72.594 63.478l8.648 6.067-.25.357-8.648-6.067.25-.357zm31.132 1.224l-8.648 6.066-.25-.357 8.647-6.066.251.357zm-35.58 10.003h12.106v.436H68.146v-.436zm39.778 1.303H95.818v-.436h12.106v.436zM71.479 86.01l8.648-6.066.25.357-8.647 6.066-.25-.357zm32.861 1.224l-8.647-6.067.25-.357 8.648 6.067-.251.357z" fill="#CA0001"/></svg>