<svg width="170" height="150" viewBox="0 0 170 150" fill="none" xmlns="http://www.w3.org/2000/svg"><path d="M159.252 78.948l36.146 19.86L97.793 149 1.602 96.149l37-19.028" stroke="#6F6F6F"/><path d="M22.462 86.366l16.342 9.519-18.72 10.218m97.089 32.301l-18.384-10.101m37.905.063l-18.27-10.039-19.635 9.976m39.495-20.014l17.931 10.038m20.777-10.584l-17.732-9.726 18.332-8.894M59.424 106.674L40.23 117.053m19.238 10.57l19.535-10.191 19.785 10.871m-19.785 10.053l19.785-10.053" stroke="#C8C8C8" stroke-dasharray="4 4"/><path stroke="#CA0001" d="M98.935 64.423v42.579"/><path transform="matrix(.89036 -.45525 .8753 .48358 58.41 43.097)" stroke="#CA0001" d="M.883.014h22.151V45.06H.883z"/><path stroke="#CA0001" d="M58.825 42.663v21.289M39.506 74.086l19.324-9.88 19.695 10.88 19.694 10.88-19.324 9.881-19.694-10.88-19.695-10.881zm19.882 11.181v21.29M39.123 74.178v21.289"/><path transform="matrix(.89036 -.45525 .8753 .48358 118.431 54.74)" stroke="#CA0001" d="M.883.014h22.371v22.151H.883z"/><path stroke="#CA0001" d="M159.253 54.87v43.049"/><path transform="matrix(.89036 -.45525 .8753 .48358 98.519 22.35)" stroke="#CA0001" d="M.883.014h22.151v22.151H.883z"/><path stroke="#CA0001" d="M119.201 33.136v42.578m20.396-53.223V43.78M98.935 22.045v21.29"/><path transform="matrix(.89036 -.45525 .8753 .48358 78.633 11.279)" stroke="#CA0001" d="M.883.014h22.151v22.561H.883z"/><path stroke="#CA0001" d="M79.048 10.975v21.29M38.566 95.654l39.808 21.993 20.613-10.54M79.09 96.358v21.289m19.896-10.751l20.264 11.195 39.798-20.35"/><path transform="matrix(.89036 -.45525 .8753 .48358 98.353 86.41)" stroke="#CA0001" d="M.883.014H23.16V22.08H.883z"/><path stroke="#CA0001" d="M119.201 96.802v21.289m19.89-53.012v42.881"/></svg>