<svg width="146" height="166" viewBox="0 0 146 166" fill="none" xmlns="http://www.w3.org/2000/svg"><path transform="matrix(.8885 -.45887 .87555 .48313 .088 119.013)" stroke="#6F6F6F" d="M.882.012h97.096v97.106H.882z"/><path opacity=".2" stroke="#6F6F6F" stroke-dasharray="4 4" d="M1.271 46.587v72.201"/><path transform="matrix(.88957 -.4568 .87442 .48517 .882 44.779)" stroke="#CA0001" d="M.882.014h96.13v96.799H.882z"/><g clip-path="url(#clip0_2986_18050)"><path d="M107.398 28.849c-1.485-.372-3.289-.457-5.009-.301-4.846.517-9.513 2.79-10.886 5.3-.828 1.326-.256 2.807 1.123 3.923 2.206 1.865 5.73 3.62 10.047 3.64 4.79-.111 9.012-1.773 11.416-3.99.127-.097.502-.424.666-.7l.055-.073c.607-.765.899-1.65.697-2.541-.759-2.216-4.317-4.283-8.109-5.258zm.945 6.262c.419.353.611.845.238 1.252-.515.69-1.862 1.27-3.175 1.453-1.201.099-2.116-.304-2.987-.682-1.605-.803-3.343-1.633-4.313-2.625-.53-.651.186-1.26.97-1.735.891-.461 1.894-.837 3.158-.732.854.101 1.501.477 2.171.771 1.245.706 2.874 1.473 3.938 2.298zM82.605 49.899c-.802.366-1.583.84-2.403 1.17l-7.799-4.284-.019-.06 2.244-1.183c-1.246-.706-2.585-1.461-3.812-2.057l-8.65 4.45-1.397.749c1.157.656 2.537 1.41 3.764 2.056.803-.39 1.51-.782 2.335-1.134l7.575 4.137.289.181-2.22 1.198a66.369 66.369 0 003.675 2.007l10.094-5.222-3.676-2.008zm30.749-10.224c.4 1.24.501 2.585.199 3.83.021.062-.142.119-.25.106-.929.103-1.838.264-2.743.355-.135-.854-.294-1.696-.706-2.505l-.712.368c.258.746.53 1.53.508 2.32-1.408.303-2.679.582-3.978.967l-.2.013c-.29-.328-.416-.713-.771-1.003l-.617.32.586.976c-1.638.54-3.284 1.224-4.746 1.886-.269-.073-.468-.278-.738-.33l-.595.309c.22.17.539.22.624.413-1.355.77-2.57 1.566-3.626 2.4l-1.805-.326c-.226.117-.524.225-.615.344l1.885.422-.003.071a20.532 20.532 0 00-1.972 2.136l-.137.022a46.694 46.694 0 01-3.967-.29c-.494-.15-.73.21-1.026.315 1.528.253 3.13.347 4.754.456-.26.515-.477 1.051-.828 1.544a43.466 43.466 0 01-7.38-.186c-.32.118-.48.223-.734.38 4.188.534 8.98.423 12.972-.244 0 0-.02-.01.005-.023.02-.01.106-.012.084.025 2.678-.462 5.226-1.117 7.529-2.023 7.94-3.137 11.685-8.225 9.735-13.426a4.9 4.9 0 00-.732.378zm-7.537 6.032l.023-.06a27.031 27.031 0 013.75-.922c.089.829-.135 1.705-.402 2.482-.215.442-.406.9-.69 1.33l-1.405.276-.087-.119a12.681 12.681 0 00-1.189-2.987zm-5.179 1.968a29.165 29.165 0 014.268-1.733l.092.024c.562.987.92 2.037 1.141 3.081-.346.228-.864.332-1.277.52l-.437.178c-1.359-.695-2.542-1.316-3.787-2.07zm-4.015 2.504c.968-.738 2.025-1.474 3.306-2.137l3.793 2.047c-.374.308-.9.58-1.244.88a50.874 50.874 0 01-5.88-.683l.025-.107zm-2.482 2.565c.47-.695 1.093-1.351 1.81-1.98l.117-.036c1.887.327 3.87.532 5.852.74-.139.262-.423.523-.561.787a39.484 39.484 0 01-7.152.524l-.066-.035zm6.763.552c-2.415.727-5.048 1.189-7.852 1.41l-.069-.038c.218-.465.412-.946.757-1.388 2.58.02 4.887-.155 7.263-.415.02.132-.029.3-.099.431zm8.778-4.235c-1.91 1.536-4.592 2.945-7.595 3.884-.157-.037-.02-.133-.017-.204.768-1.844 4.085-3.56 7.639-3.837.202.038-.024.11-.027.157zm1.576-1.477l-.742.739c-.273.046-.566.055-.862.066l-.022-.061a8.656 8.656 0 00.955-3.788c.863-.186 1.795-.31 2.723-.39-.276 1.215-1.099 2.348-2.052 3.434zm-45.636-3.237a8.706 8.706 0 01-.351-2.163c.036-.611.053-1.188.292-1.74.974-.102 1.952-.273 2.879-.375.155.84.295 1.695.702 2.477.23-.044.506-.21.688-.355-.252-.746-.46-1.514-.46-2.297 1.339-.312 2.679-.604 3.956-.98l.177.003.721 1c.3-.105.437-.2.663-.343-.171-.312-.434-.625-.586-.951a36.606 36.606 0 004.634-1.877c.34-.008.536.244.804.317l.618-.319c-.152-.154-.49-.243-.598-.398 1.26-.725 2.521-1.52 3.495-2.356l.135-.045 1.774.311c.206-.106.528-.222.595-.356l-1.862-.407.003-.05c.783-.69 1.368-1.418 1.975-2.158 1.446.033 2.977.165 4.417.317.25-.13.527-.246.64-.38-.78-.125-1.579-.21-2.387-.256a25.114 25.114 0 00-2.208-.134l-.115-.063.69-1.327.142-.168a44.046 44.046 0 017.333.161c.274-.142.597-.21.715-.39-7.612-.892-15.59.13-21.479 2.728l.02.036h-.09c-.683.284-1.467.662-2.065 1.041-.27.12-.547.284-.82.452-5.071 3.071-7.342 7.21-5.759 11.436.208-.13.573-.223.712-.391zm7.542-5.984l-.072.058a38.36 38.36 0 01-3.638.912l-.09-.096c.079-1.297.425-2.519 1.134-3.69.479-.105.932-.222 1.433-.313l.107.13c.2 1.036.672 2.022 1.126 2.999zm5.153-2.028c-.55.379-1.232.616-1.924.922-.705.269-1.55.637-2.37.846-.556-1.01-.96-2.06-1.111-3.14l1.663-.65c1.224.597 2.516 1.352 3.742 2.022zm.733-.354c-1.23-.624-2.52-1.353-3.723-2.034l1.22-.843c2.004.146 4.016.317 5.831.675-.94.803-2.058 1.542-3.328 2.202zm5.741-4.632c-.517.669-1.077 1.338-1.855 1.958a96.687 96.687 0 00-5.861-.692c.146-.262.404-.537.569-.811 2.224-.37 4.71-.544 7.121-.516l.026.061zm-6.74-.564c2.413-.726 5.067-1.2 7.873-1.42l.044.072-.71 1.29-.117.06a51.598 51.598 0 00-7.146.43c-.11-.109.007-.29.055-.432zm-1.139.351l.047.026c-.57 1.808-3.662 3.55-7.081 3.921-.207.012-.477.106-.657.033 1.873-1.559 4.687-3.062 7.691-3.98zM65.714 39.87c.397-1.318 1.219-2.573 2.378-3.741 0-.074-.022-.133.068-.18l.046.025c.227-.07.163-.252.455-.263.253-.008.503-.044.727-.041-.551 1.207-.921 2.49-.958 3.834-.837.2-1.743.311-2.673.39l-.043-.024zm27.64 4.653c-1.572 1.43-4.35 2.397-7.512 2.324-.405-.028-.786-.113-1.192-.139l-3.067 1.61c1.755 1.01 3.806 2.154 5.66 3.091l3.41-1.787-1.025-.608c.569-.105 1.18-.186 1.768-.277 3.362-.696 6.649-2.16 7.803-4.037.784-1.399-.104-2.858-2.298-3.788-2.142-.903-5.69-.893-8.01-.19l-7.123 2.002-.611.102c-.338.01-.652-.039-.855-.197-.298-.625.933-1.025 1.708-1.405 1.825-.707 4.007-1.268 6.395-.962 1.006-.52 2.192-1.114 3.247-1.705-1.78-1.022-3.447-1.864-5.324-2.86a69.364 69.364 0 00-3.294 1.73c.218.168.686.327.84.533l-1.61.24c-3.565.732-7.2 2.496-7.86 4.568-.421 1.353 1.04 2.636 3.122 3.36 1.898.721 4.636.562 6.68.095 2.748-.665 5.391-1.484 8.144-2.175.295-.056.771-.088.972.069.199.107.106.277.031.406z" fill="#CA0001"/></g><g clip-path="url(#clip1_2986_18050)"><path d="M107.398 102.849c-1.485-.372-3.289-.457-5.009-.301-4.846.517-9.513 2.79-10.886 5.3-.828 1.326-.256 2.807 1.123 3.923 2.206 1.865 5.73 3.619 10.047 3.639 4.79-.11 9.012-1.772 11.416-3.988.127-.098.502-.425.666-.702l.055-.072c.607-.765.899-1.651.697-2.541-.759-2.216-4.317-4.283-8.109-5.258zm.945 6.262c.419.353.611.845.238 1.252-.515.69-1.862 1.269-3.175 1.453-1.201.099-2.116-.304-2.987-.682-1.605-.803-3.343-1.634-4.313-2.625-.53-.651.186-1.259.97-1.735.891-.461 1.894-.837 3.158-.732.854.101 1.501.477 2.171.771 1.245.706 2.874 1.473 3.938 2.298zm-25.738 14.788c-.802.366-1.583.84-2.403 1.17l-7.799-4.284-.019-.059 2.244-1.184c-1.246-.706-2.585-1.461-3.812-2.057l-8.65 4.451-1.397.748c1.157.656 2.537 1.41 3.764 2.056.803-.39 1.51-.781 2.335-1.134l7.575 4.137.289.181-2.22 1.198a66.232 66.232 0 003.675 2.007l10.094-5.222-3.676-2.008zm30.749-10.224c.4 1.24.501 2.585.199 3.829.021.063-.142.12-.25.107-.929.103-1.838.264-2.743.355-.135-.854-.294-1.696-.706-2.505l-.712.368c.258.746.53 1.529.508 2.32-1.408.303-2.679.582-3.978.967l-.2.013c-.29-.328-.416-.713-.771-1.004l-.617.32.586.977c-1.638.54-3.284 1.224-4.746 1.886-.269-.073-.468-.278-.738-.329l-.595.308c.22.171.539.221.624.413-1.355.77-2.57 1.566-3.626 2.4l-1.805-.326c-.226.117-.524.226-.615.344l1.885.422-.003.071a20.656 20.656 0 00-1.972 2.136l-.137.022a46.735 46.735 0 01-3.967-.29c-.494-.149-.73.209-1.026.315 1.528.253 3.13.347 4.754.456-.26.515-.477 1.051-.828 1.544a43.393 43.393 0 01-7.38-.186c-.32.118-.48.223-.734.379 4.188.535 8.98.425 12.972-.243 0 0-.02-.011.005-.024.02-.01.106-.011.084.026 2.678-.462 5.226-1.116 7.529-2.023 7.94-3.137 11.685-8.225 9.735-13.426a4.967 4.967 0 00-.732.378zm-7.537 6.032l.023-.059a27.06 27.06 0 013.75-.923c.089.829-.135 1.705-.402 2.482-.215.442-.406.9-.69 1.329l-1.405.277-.087-.119a12.674 12.674 0 00-1.189-2.987zm-5.179 1.968a29.174 29.174 0 014.268-1.733l.092.024c.562.987.92 2.037 1.141 3.081-.346.228-.864.332-1.277.52l-.437.177c-1.359-.694-2.542-1.315-3.787-2.069zm-4.015 2.504c.968-.738 2.025-1.474 3.306-2.137l3.793 2.047c-.374.308-.9.58-1.244.879a50.787 50.787 0 01-5.88-.682l.025-.107zm-2.482 2.565c.47-.695 1.093-1.351 1.81-1.981l.117-.035c1.887.327 3.87.532 5.852.739-.139.263-.423.524-.561.788a39.493 39.493 0 01-7.152.524l-.066-.035zm6.763.552c-2.415.727-5.048 1.189-7.852 1.409l-.069-.037c.218-.465.412-.946.757-1.388 2.58.02 4.887-.155 7.263-.415.02.132-.029.3-.099.431zm8.778-4.235c-1.91 1.536-4.592 2.945-7.595 3.884-.157-.037-.02-.133-.017-.204.768-1.844 4.085-3.56 7.639-3.837.202.038-.024.11-.027.157zm1.576-1.477l-.742.739c-.273.046-.566.055-.862.066l-.022-.061a8.66 8.66 0 00.955-3.788c.863-.186 1.795-.31 2.723-.39-.276 1.215-1.099 2.348-2.052 3.434zm-45.636-3.237a8.712 8.712 0 01-.351-2.163c.036-.611.053-1.188.292-1.74.974-.102 1.952-.273 2.879-.375.155.839.295 1.695.702 2.477.23-.044.506-.211.688-.355-.252-.746-.46-1.514-.46-2.297 1.339-.312 2.679-.604 3.956-.979l.177.002.721 1c.3-.105.437-.2.663-.343-.171-.312-.434-.625-.586-.951a36.739 36.739 0 004.634-1.877c.34-.008.536.244.804.318l.618-.32c-.152-.154-.49-.243-.598-.398 1.26-.725 2.521-1.52 3.495-2.356l.135-.045 1.774.311c.206-.107.528-.222.595-.356l-1.862-.407.003-.05c.783-.689 1.368-1.418 1.975-2.158 1.446.033 2.977.165 4.417.317.25-.129.527-.246.64-.38a23.292 23.292 0 00-2.387-.256 24.885 24.885 0 00-2.208-.134l-.115-.063.69-1.327.142-.168a44.1 44.1 0 017.333.161c.274-.142.597-.21.715-.39-7.612-.891-15.59.129-21.479 2.728l.02.036-.09.001c-.683.283-1.467.661-2.065 1.04-.27.12-.547.284-.82.452-5.071 3.071-7.342 7.21-5.759 11.436.208-.13.573-.223.712-.391zm7.542-5.984l-.072.058a38.604 38.604 0 01-3.638.912l-.09-.096c.079-1.296.425-2.519 1.134-3.69.479-.105.932-.222 1.433-.313l.107.13c.2 1.036.672 2.022 1.126 2.999zm5.153-2.028c-.55.379-1.232.616-1.924.922-.705.269-1.55.637-2.37.846-.556-1.01-.96-2.059-1.111-3.139l1.663-.65c1.224.596 2.516 1.351 3.742 2.021zm.733-.354c-1.23-.624-2.52-1.353-3.723-2.034l1.22-.843c2.004.146 4.016.317 5.831.675-.94.803-2.058 1.542-3.328 2.202zm5.741-4.632c-.517.669-1.077 1.338-1.855 1.958a96.213 96.213 0 00-5.861-.692c.146-.262.404-.537.569-.811 2.224-.37 4.71-.544 7.121-.516l.026.061zm-6.74-.564c2.413-.726 5.067-1.2 7.873-1.42l.044.072-.71 1.29-.117.061a51.692 51.692 0 00-7.146.429c-.11-.109.007-.289.055-.432zm-1.139.351l.047.026c-.57 1.808-3.662 3.55-7.081 3.921-.207.012-.477.106-.657.033 1.873-1.559 4.687-3.062 7.691-3.98zm-11.198 8.734c.397-1.318 1.219-2.573 2.378-3.741 0-.074-.022-.133.068-.18l.046.025c.227-.07.163-.252.455-.263.253-.008.503-.044.727-.041-.551 1.207-.921 2.49-.958 3.834-.837.2-1.743.311-2.673.39l-.043-.024zm27.64 4.653c-1.572 1.43-4.35 2.397-7.512 2.324-.405-.027-.786-.113-1.192-.139l-3.067 1.61c1.755 1.011 3.806 2.154 5.66 3.091l3.41-1.787-1.025-.608c.569-.105 1.18-.185 1.768-.277 3.362-.695 6.649-2.159 7.803-4.037.784-1.399-.104-2.858-2.298-3.788-2.142-.903-5.69-.893-8.01-.189l-7.123 2.001-.611.102c-.338.011-.652-.039-.855-.197-.298-.625.933-1.025 1.708-1.405 1.825-.707 4.007-1.268 6.395-.962 1.006-.52 2.192-1.114 3.247-1.705-1.78-1.022-3.447-1.864-5.324-2.86a69.827 69.827 0 00-3.294 1.729c.218.169.686.328.84.534l-1.61.24c-3.565.732-7.2 2.496-7.86 4.568-.421 1.353 1.04 2.637 3.122 3.36 1.898.721 4.636.562 6.68.095 2.748-.665 5.391-1.484 8.144-2.175.295-.056.771-.088.972.069.199.107.106.277.031.406z" fill="#C8C8C8"/></g><defs><clipPath id="clip0_2986_18050"><path fill="#fff" transform="matrix(.88816 -.45953 .87762 .47936 51 43.41)" d="M0 0h48.766v39.736H0z"/></clipPath><clipPath id="clip1_2986_18050"><path fill="#fff" transform="matrix(.88816 -.45953 .87762 .47936 51 117.41)" d="M0 0h48.766v39.736H0z"/></clipPath></defs></svg>