<svg width="159" height="166" viewBox="0 0 159 166" fill="none" xmlns="http://www.w3.org/2000/svg">
<rect x="0.882027" y="0.0121329" width="97.0963" height="97.1059" transform="matrix(0.888506 -0.458865 0.875548 0.483131 0.0877178 119.012)" stroke="#6F6F6F"/>
<line opacity="0.2" x1="1.27148" y1="46.5867" x2="1.27149" y2="118.788" stroke="#6F6F6F" stroke-dasharray="4 4"/>
<rect x="0.881997" y="0.0141851" width="96.13" height="96.7986" transform="matrix(0.889571 -0.456796 0.874422 0.485167 0.881869 44.7788)" stroke="#CA0001"/>
<g clip-path="url(#clip0_2986_17927)">
<path d="M68.3695 56.3823L71.7356 54.6668L55.1173 52.0009L52.9985 53.0807L54.0768 55.3506L63.9737 56.9273C64.7507 57.0488 65.5633 57.0629 66.3272 56.9591C67.0908 56.8733 67.8057 56.6696 68.3695 56.3823Z" fill="#CA0001"/>
<path d="M54.5331 56.3852L58.8318 65.3296L61.6861 65.7844L64.8129 64.1908L62.2634 58.8697C62.0674 58.4521 61.6674 58.0849 61.097 57.7689C60.5435 57.4621 59.8362 57.2337 59.0763 57.1034L54.5331 56.3852Z" fill="#CA0001"/>
<path d="M73.6105 54.9606L66.2802 58.6963C65.7164 58.9837 65.3035 59.3547 65.0763 59.756C64.866 60.1666 64.8585 60.5987 65.0547 60.9983L66.2483 63.4593L78.585 57.1721L77.8496 55.6375L73.6105 54.9606Z" fill="#CA0001"/>
<path d="M81.6769 48.8153C81.3051 48.7728 80.8984 48.7838 80.5585 48.8499C80.1336 48.9416 79.7418 49.0699 79.4172 49.2353L77.623 50.1497L81.6992 52.4086L82.656 51.921L81.5322 51.2981L82.3694 50.8714C82.6941 50.706 82.9684 50.5126 83.1418 50.2815C83.2974 50.0951 83.335 49.8797 83.2537 49.6891C83.1555 49.4893 82.9726 49.2971 82.6874 49.139C82.4023 48.981 82.0484 48.8758 81.6769 48.8153ZM81.9641 49.8288C82.0138 49.8927 82.0294 49.974 82.0281 50.0461C81.9917 50.1895 81.8367 50.3399 81.5462 50.4879L80.7602 50.8885L79.3512 50.1076L80.1372 49.7071C80.4277 49.559 80.7169 49.483 80.9881 49.4697C81.1236 49.4721 81.2758 49.4837 81.3938 49.5128C81.5119 49.5418 81.6296 49.5889 81.7302 49.6447C81.8309 49.7005 81.8977 49.7556 81.9641 49.8288Z" fill="#CA0001"/>
<path d="M96.0592 41.7709L96.7266 43.3224L96.5557 43.4094L94.7777 42.424L93.855 42.8943L96.975 44.6234L98.1027 44.0486L97.4524 42.4885L97.6062 42.4101L99.3842 43.3955L100.307 42.9253L97.1869 41.1962L96.0592 41.7709Z" fill="#CA0001"/>
<path d="M100.245 39.6376L100.896 41.1978L100.742 41.2761L98.9637 40.2907L98.041 40.761L101.161 42.4901L102.289 41.9153L101.621 40.3639L101.775 40.2855L103.553 41.2709L104.476 40.8007L101.356 39.0716L100.245 39.6376Z" fill="#CA0001"/>
<path d="M90.5704 46.7274C90.7366 46.9103 90.666 47.0712 90.3926 47.2105C90.3072 47.2541 90.1879 47.297 90.086 47.3133C89.967 47.3382 89.8316 47.3359 89.7132 47.3248C89.4426 47.3021 89.173 47.2254 88.9046 47.0766C88.6362 46.9279 88.4865 46.7722 88.4552 46.6276C88.4393 46.5643 88.4744 46.4928 88.4925 46.4301C88.5443 46.368 88.613 46.3152 88.6984 46.2716C88.818 46.2107 88.9883 46.1596 89.1579 46.1445C89.3275 46.1295 89.4965 46.1504 89.6313 46.1888L89.6987 46.2079L90.6898 45.7029L90.5888 45.6651C90.185 45.514 89.7119 45.4518 89.2204 45.4702C88.7287 45.5067 88.2692 45.6338 87.9104 45.8167C87.6199 45.9647 87.3965 46.15 87.2744 46.3549C87.1694 46.5512 87.1656 46.7673 87.2809 46.9584C87.4125 47.1768 87.6294 47.3696 87.9313 47.537C88.2332 47.7043 88.5867 47.8275 88.9918 47.9066C89.3634 47.9671 89.7526 47.9828 90.126 47.9353C90.5165 47.879 90.8741 47.7682 91.1646 47.6201C91.5402 47.4466 91.7645 47.2073 91.8537 46.9477C91.9258 46.6969 91.8118 46.4337 91.5614 46.2223L91.4946 46.1671L90.5036 46.6722L90.5704 46.7274Z" fill="#CA0001"/>
<path d="M94.21 44.8725C94.3762 45.0555 94.3057 45.2164 94.0323 45.3557C93.9468 45.3993 93.8276 45.4422 93.7257 45.4584C93.6067 45.4834 93.4712 45.481 93.3529 45.47C93.0823 45.4473 92.8127 45.3705 92.5443 45.2218C92.2759 45.0731 92.1262 44.9174 92.0948 44.7728C92.079 44.7095 92.1141 44.638 92.1321 44.5753C92.184 44.5132 92.2527 44.4603 92.3381 44.4168C92.4577 44.3558 92.6279 44.3048 92.7976 44.2897C92.9672 44.2746 93.1362 44.2956 93.271 44.3339L93.3384 44.3531L94.3294 43.8481L94.2285 43.8103C93.8246 43.6592 93.3515 43.597 92.8601 43.6154C92.3683 43.6519 91.9259 43.7703 91.5671 43.9532C91.2766 44.1012 91.0532 44.2864 90.9311 44.4914C90.8261 44.6877 90.8224 44.9038 90.9376 45.0949C91.0693 45.3133 91.2861 45.5061 91.588 45.6735C91.89 45.8408 92.2435 45.964 92.6486 46.0431C93.0201 46.1035 93.4093 46.1193 93.7827 46.0718C94.1732 46.0155 94.5308 45.9047 94.8213 45.7566C95.1969 45.583 95.4212 45.3438 95.5104 45.0842C95.5825 44.8333 95.4685 44.5702 95.2182 44.3588L95.1514 44.3036L94.1603 44.8086L94.21 44.8725Z" fill="#CA0001"/>
<path d="M85.1896 47.4353C84.7991 47.4916 84.4415 47.6024 84.134 47.7592C83.8435 47.9072 83.6201 48.0924 83.4809 48.3061C83.3588 48.5111 83.3551 48.7272 83.4532 48.927C83.5678 49.1541 83.7846 49.3469 84.0866 49.5143C84.3885 49.6816 84.742 49.8048 85.1642 49.8752C85.5525 49.945 85.942 49.9427 86.3325 49.8865C86.723 49.8302 87.0806 49.7194 87.3711 49.5713C87.6616 49.4233 87.902 49.2294 88.0241 49.0244C88.1463 48.8194 88.15 48.6033 88.0689 48.3948C87.9543 48.1677 87.7546 47.9661 87.4356 47.8075C87.1337 47.6402 86.7634 47.5077 86.358 47.4466C85.9864 47.3861 85.5801 47.3791 85.1896 47.4353ZM86.8577 48.905C86.8222 48.9945 86.7191 49.0827 86.5995 49.1437C86.497 49.1959 86.3947 49.2302 86.2758 49.2551C86.1568 49.2801 86.021 49.2957 85.8859 49.2754C85.615 49.2707 85.3286 49.1847 85.0602 49.0359C84.7918 48.8872 84.6589 48.7408 84.6446 48.5875C84.6459 48.5154 84.6639 48.4527 84.7329 48.3819C84.8018 48.311 84.8705 48.2582 84.9559 48.2147C85.0584 48.1624 85.1606 48.1282 85.2796 48.1032C85.3986 48.0783 85.5344 48.0626 85.6866 48.0743C85.9575 48.079 86.2439 48.165 86.5123 48.3137C86.68 48.4067 86.7968 48.5078 86.8627 48.617C86.912 48.6989 86.9102 48.8069 86.8577 48.905Z" fill="#CA0001"/>
<path d="M76.0628 49.3029L72.0034 47.0532L73.5241 46.2782L75.8192 46.7503L75.973 46.6719L75.1474 45.4509L76.6681 44.6759L80.7443 46.9349L79.8387 47.3964L76.8528 45.7417L76.6649 45.8375L77.4712 47.1932L76.6852 47.5938L74.136 47.1263L73.9823 47.2047L76.9681 48.8594L76.0795 49.3122L76.0628 49.3029Z" fill="#CA0001"/>
<path d="M85.7679 44.3568L82.6479 42.6277L83.5706 42.1574L84.7952 42.8361L86.1792 42.1307L84.9547 41.4521L85.8774 40.9819L88.9974 42.7109L88.0747 43.1812L86.9005 42.5304L85.5164 43.2358L86.6906 43.8865L85.7679 44.3568Z" fill="#CA0001"/>
<path d="M86.7317 40.5464L89.8517 42.2755L90.7573 41.8139L88.3754 40.4939L89.7081 39.8147L92.0901 41.1347L93.0128 40.6645L89.8928 38.9354L86.7317 40.5464Z" fill="#CA0001"/>
<path d="M106.04 30.7065L102.964 32.2739L103.702 32.683L104.779 32.1343L107.161 33.4544L108.084 32.9842L105.702 31.6641L106.778 31.1155L106.04 30.7065Z" fill="#CA0001"/>
<path d="M116.771 25.2376L114.225 26.5352L117.345 28.2642L118.267 27.794L115.885 26.4739L117.509 25.6467L116.771 25.2376Z" fill="#CA0001"/>
<path d="M80.6659 43.6379L81.3162 45.198L81.1624 45.2764L79.3844 44.291L78.4617 44.7612L81.5817 46.4903L82.7094 45.9156L82.0591 44.3555L82.2129 44.2771L83.9909 45.2625L84.9136 44.7922L81.7936 43.0632L80.6659 43.6379Z" fill="#CA0001"/>
<path d="M105.418 34.3424L102.281 32.6221L101.238 33.1533L101.929 34.3179L101.758 34.405L99.6663 33.9544L98.5215 34.5378L101.641 36.2669L102.479 35.8402L100.55 34.7712L100.703 34.6928L102.222 35.0073L102.974 34.6242L102.463 33.7959L102.634 33.7088L104.58 34.7871L105.434 34.3517L105.418 34.3424Z" fill="#CA0001"/>
<path d="M97.238 35.3171C96.8475 35.3734 96.4899 35.4842 96.1823 35.641C95.8919 35.789 95.6685 35.9743 95.5293 36.1879C95.4072 36.3929 95.4034 36.609 95.5183 36.8181C95.6329 37.0452 95.8497 37.2381 96.1517 37.4054C96.4536 37.5727 96.8071 37.6959 97.2122 37.775C97.6005 37.8448 97.9901 37.8426 98.3973 37.7956C98.7878 37.7393 99.1454 37.6285 99.4359 37.4805C99.7264 37.3324 99.9668 37.1385 100.089 36.9335C100.211 36.7285 100.215 36.5125 100.134 36.3039C100.019 36.0768 99.8194 35.8752 99.5004 35.7166C99.1985 35.5493 98.8282 35.4168 98.4228 35.3557C98.0348 35.2679 97.6285 35.2609 97.238 35.3171ZM98.9231 36.7782C98.8877 36.8676 98.7677 36.9466 98.6481 37.0075C98.5456 37.0598 98.4434 37.094 98.3244 37.119C98.2054 37.1439 98.0697 37.1596 97.9345 37.1392C97.6637 37.1345 97.3772 37.0485 97.1089 36.8997C96.8405 36.751 96.7075 36.6046 96.6933 36.4513C96.6945 36.3793 96.7125 36.3166 96.7647 36.2364C96.8166 36.1743 96.9024 36.1127 96.9878 36.0692C97.0903 36.017 97.1925 35.9827 97.3115 35.9578C97.4305 35.9328 97.5662 35.9172 97.7185 35.9288C97.9894 35.9335 98.2758 36.0195 98.5442 36.1683C98.7119 36.2612 98.8287 36.3623 98.8945 36.4715C98.9604 36.5807 98.9756 36.68 98.9231 36.7782Z" fill="#CA0001"/>
<path d="M108.994 29.3259C108.603 29.3822 108.246 29.493 107.938 29.6498C107.648 29.7978 107.424 29.983 107.285 30.1967C107.163 30.4017 107.159 30.6178 107.274 30.8269C107.389 31.054 107.606 31.2469 107.908 31.4142C108.209 31.5815 108.563 31.7047 108.985 31.7751C109.373 31.8449 109.78 31.8519 110.17 31.7957C110.561 31.7394 110.918 31.6286 111.209 31.4805C111.499 31.3325 111.74 31.1386 111.862 30.9336C111.984 30.7286 111.988 30.5125 111.907 30.304C111.792 30.0769 111.592 29.8753 111.273 29.7167C110.971 29.5494 110.601 29.4169 110.196 29.3558C109.774 29.2854 109.384 29.2877 108.994 29.3259ZM110.662 30.7957C110.609 30.8938 110.507 30.9641 110.387 31.025C110.284 31.0773 110.182 31.1115 110.063 31.1365C109.944 31.1614 109.808 31.1771 109.673 31.1567C109.402 31.152 109.116 31.066 108.848 30.9172C108.579 30.7685 108.446 30.6221 108.432 30.4688C108.433 30.3968 108.451 30.3341 108.503 30.2539C108.555 30.1918 108.641 30.1302 108.727 30.0867C108.829 30.0345 108.931 30.0002 109.05 29.9753C109.169 29.9503 109.305 29.9347 109.457 29.9463C109.728 29.951 110.015 30.037 110.283 30.1858C110.451 30.2787 110.567 30.3798 110.633 30.489C110.699 30.5982 110.714 30.6975 110.662 30.7957Z" fill="#CA0001"/>
<path d="M94.6299 37.2708C94.2755 37.2016 93.8863 37.1859 93.5299 37.2247C93.1736 37.2635 92.8331 37.3657 92.5768 37.4963C92.1838 37.6966 92.1288 37.9388 92.1595 38.1194L92.0058 38.1978L91.7038 38.0304L90.764 38.5094L94.924 40.8148L95.8467 40.3446L94.488 39.5916L94.6418 39.5132C94.9801 39.5371 95.4716 39.5186 95.8304 39.3358C96.1038 39.1964 96.293 39.0286 96.3809 38.841C96.4521 38.6442 96.4387 38.4368 96.3235 38.2457C96.1918 38.0273 95.975 37.8345 95.656 37.6758C95.3885 37.4731 95.0183 37.3406 94.6299 37.2708ZM95.0672 38.422C95.1163 38.5219 95.1315 38.6212 95.079 38.7194C95.0436 38.8088 94.9404 38.8971 94.8208 38.958C94.7012 39.019 94.531 39.0701 94.3613 39.0851C94.1746 39.1089 93.9886 39.0967 93.8028 39.0664C93.6002 39.0269 93.4151 38.9606 93.2641 38.877C93.1132 38.7933 92.9964 38.6922 92.9305 38.583C92.8815 38.4831 92.8662 38.3838 92.9188 38.2857C92.9542 38.1962 93.0573 38.108 93.1769 38.047C93.3136 37.9773 93.4668 37.935 93.6535 37.9112C93.8402 37.8874 94.0263 37.8997 94.1953 37.9206C94.3978 37.9601 94.6 38.0177 94.7339 38.1101C94.8846 38.2117 95.0014 38.3128 95.0672 38.422Z" fill="#CA0001"/>
<path d="M114.143 27.3263C113.789 27.2571 113.399 27.2414 113.043 27.2802C112.687 27.319 112.346 27.4212 112.09 27.5518C111.697 27.7521 111.642 27.9943 111.69 28.1662L111.536 28.2445L111.234 28.0772L110.311 28.5475L114.471 30.8529L115.394 30.3827L114.035 29.6297L114.189 29.5513C114.527 29.5752 115.019 29.5567 115.378 29.3738C115.651 29.2345 115.84 29.0667 115.928 28.8791C115.999 28.6823 115.986 28.4749 115.871 28.2838C115.739 28.0654 115.522 27.8725 115.203 27.7139C114.902 27.5286 114.531 27.3961 114.143 27.3263ZM114.58 28.4775C114.629 28.5774 114.645 28.6767 114.592 28.7749C114.557 28.8643 114.454 28.9526 114.334 29.0135C114.197 29.0832 114.044 29.1256 113.875 29.1406C113.688 29.1644 113.502 29.1522 113.316 29.1219C113.113 29.0824 112.928 29.0161 112.777 28.9325C112.626 28.8488 112.51 28.7477 112.444 28.6385C112.395 28.5386 112.379 28.4393 112.432 28.3412C112.467 28.2517 112.571 28.1635 112.69 28.1025C112.827 28.0328 112.98 27.9905 113.167 27.9667C113.353 27.9429 113.539 27.9552 113.725 27.9854C113.928 28.0249 114.13 28.0825 114.281 28.1662C114.415 28.2585 114.532 28.3596 114.58 28.4775Z" fill="#CA0001"/>
</g>
<g clip-path="url(#clip1_2986_17927)">
<path d="M68.8461 126.765L72.2122 125.05L55.5938 122.384L53.4751 123.464L54.5534 125.733L64.4503 127.31C65.2272 127.432 66.0399 127.446 66.8038 127.342C67.5674 127.256 68.2822 127.052 68.8461 126.765Z" fill="#C8C8C8"/>
<path d="M55.0097 126.768L59.3084 135.712L62.1626 136.167L65.2895 134.574L62.74 129.253C62.544 128.835 62.1439 128.468 61.5736 128.152C61.02 127.845 60.3127 127.617 59.5529 127.486L55.0097 126.768Z" fill="#C8C8C8"/>
<path d="M74.087 125.343L66.7568 129.079C66.1929 129.367 65.78 129.738 65.5529 130.139C65.3425 130.549 65.335 130.982 65.5313 131.381L66.7249 133.842L79.0616 127.555L78.3261 126.02L74.087 125.343Z" fill="#C8C8C8"/>
<path d="M82.1535 119.198C81.7816 119.156 81.375 119.167 81.0351 119.233C80.6101 119.324 80.2184 119.453 79.8937 119.618L78.0996 120.532L82.1757 122.791L83.1326 122.304L82.0087 121.681L82.846 121.254C83.1706 121.089 83.445 120.895 83.6183 120.664C83.774 120.478 83.8116 120.262 83.7302 120.072C83.6321 119.872 83.4491 119.68 83.164 119.522C82.8788 119.364 82.525 119.259 82.1535 119.198ZM82.4407 120.212C82.4904 120.276 82.5059 120.357 82.5047 120.429C82.4683 120.572 82.3133 120.723 82.0228 120.871L81.2368 121.271L79.8278 120.49L80.6138 120.09C80.9042 119.942 81.1935 119.866 81.4647 119.853C81.6001 119.855 81.7523 119.867 81.8704 119.896C81.9884 119.925 82.1062 119.972 82.2068 120.027C82.3074 120.083 82.3742 120.138 82.4407 120.212Z" fill="#C8C8C8"/>
<path d="M96.5357 112.154L97.2032 113.705L97.0323 113.792L95.2542 112.807L94.3315 113.277L97.4515 115.006L98.5793 114.431L97.9289 112.871L98.0827 112.793L99.8608 113.778L100.783 113.308L97.6635 111.579L96.5357 112.154Z" fill="#C8C8C8"/>
<path d="M100.722 110.02L101.372 111.581L101.218 111.659L99.4403 110.674L98.5176 111.144L101.638 112.873L102.765 112.298L102.098 110.747L102.252 110.668L104.03 111.654L104.952 111.184L101.832 109.454L100.722 110.02Z" fill="#C8C8C8"/>
<path d="M91.0469 117.11C91.2131 117.293 91.1426 117.454 90.8692 117.593C90.7838 117.637 90.6645 117.68 90.5626 117.696C90.4436 117.721 90.3081 117.719 90.1898 117.708C89.9192 117.685 89.6496 117.608 89.3812 117.459C89.1128 117.311 88.9631 117.155 88.9317 117.01C88.9159 116.947 88.951 116.876 88.969 116.813C89.0209 116.751 89.0896 116.698 89.175 116.654C89.2946 116.593 89.4649 116.542 89.6345 116.527C89.8041 116.512 89.9731 116.533 90.1079 116.572L90.1753 116.591L91.1663 116.086L91.0654 116.048C90.6616 115.897 90.1884 115.835 89.697 115.853C89.2052 115.89 88.7457 116.017 88.3869 116.2C88.0964 116.348 87.8731 116.533 87.751 116.738C87.6459 116.934 87.6422 117.15 87.7574 117.341C87.8891 117.56 88.1059 117.752 88.4079 117.92C88.7098 118.087 89.0633 118.21 89.4684 118.289C89.8399 118.35 90.2292 118.366 90.6026 118.318C90.9931 118.262 91.3506 118.151 91.6411 118.003C92.0167 117.829 92.241 117.59 92.3302 117.331C92.4023 117.08 92.2883 116.817 92.038 116.605L91.9712 116.55L90.9802 117.055L91.0469 117.11Z" fill="#C8C8C8"/>
<path d="M94.6866 115.255C94.8528 115.438 94.7822 115.599 94.5088 115.739C94.4234 115.782 94.3041 115.825 94.2022 115.841C94.0832 115.866 93.9478 115.864 93.8294 115.853C93.5589 115.83 93.2892 115.753 93.0208 115.605C92.7524 115.456 92.6027 115.3 92.5714 115.156C92.5555 115.092 92.5906 115.021 92.6087 114.958C92.6606 114.896 92.7292 114.843 92.8147 114.8C92.9343 114.739 93.1045 114.688 93.2741 114.673C93.4437 114.657 93.6127 114.678 93.7475 114.717L93.815 114.736L94.806 114.231L94.705 114.193C94.3012 114.042 93.8281 113.98 93.3366 113.998C92.8449 114.035 92.4025 114.153 92.0437 114.336C91.7532 114.484 91.5298 114.669 91.4077 114.874C91.3027 115.071 91.2989 115.287 91.4142 115.478C91.5458 115.696 91.7627 115.889 92.0646 116.056C92.3665 116.224 92.72 116.347 93.1251 116.426C93.4967 116.486 93.8859 116.502 94.2593 116.455C94.6498 116.398 95.0074 116.287 95.2979 116.139C95.6735 115.966 95.8978 115.727 95.987 115.467C96.0591 115.216 95.9451 114.953 95.6947 114.742L95.6279 114.686L94.6369 115.191L94.6866 115.255Z" fill="#C8C8C8"/>
<path d="M85.6662 117.818C85.2757 117.874 84.9181 117.985 84.6105 118.142C84.3201 118.29 84.0967 118.475 83.9575 118.689C83.8354 118.894 83.8316 119.11 83.9298 119.31C84.0444 119.537 84.2612 119.73 84.5631 119.897C84.8651 120.064 85.2186 120.188 85.6407 120.258C86.0291 120.328 86.4186 120.326 86.8091 120.269C87.1996 120.213 87.5572 120.102 87.8477 119.954C88.1381 119.806 88.3786 119.612 88.5007 119.407C88.6228 119.202 88.6266 118.986 88.5455 118.778C88.4309 118.551 88.2312 118.349 87.9122 118.19C87.6102 118.023 87.2399 117.89 86.8345 117.829C86.463 117.769 86.0567 117.762 85.6662 117.818ZM87.3342 119.288C87.2988 119.377 87.1956 119.466 87.076 119.527C86.9735 119.579 86.8713 119.613 86.7523 119.638C86.6333 119.663 86.4976 119.679 86.3625 119.658C86.0916 119.653 85.8052 119.567 85.5368 119.419C85.2684 119.27 85.1354 119.124 85.1212 118.97C85.1224 118.898 85.1404 118.836 85.2094 118.765C85.2784 118.694 85.347 118.641 85.4325 118.597C85.535 118.545 85.6372 118.511 85.7562 118.486C85.8752 118.461 86.0109 118.445 86.1632 118.457C86.434 118.462 86.7205 118.548 86.9888 118.697C87.1566 118.79 87.2734 118.891 87.3392 119C87.3886 119.082 87.3867 119.19 87.3342 119.288Z" fill="#C8C8C8"/>
<path d="M76.5393 119.686L72.48 117.436L74.0007 116.661L76.2958 117.133L76.4495 117.055L75.624 115.834L77.1447 115.059L81.2208 117.318L80.3152 117.779L77.3294 116.125L77.1415 116.22L77.9478 117.576L77.1618 117.977L74.6126 117.509L74.4588 117.587L77.4446 119.242L76.5561 119.695L76.5393 119.686Z" fill="#C8C8C8"/>
<path d="M86.2445 114.74L83.1245 113.01L84.0472 112.54L85.2717 113.219L86.6558 112.514L85.4312 111.835L86.3539 111.365L89.4739 113.094L88.5512 113.564L87.377 112.913L85.993 113.619L87.1672 114.269L86.2445 114.74Z" fill="#C8C8C8"/>
<path d="M87.2085 110.929L90.3285 112.658L91.2341 112.197L88.8522 110.877L90.1849 110.197L92.5669 111.518L93.4896 111.047L90.3696 109.318L87.2085 110.929Z" fill="#C8C8C8"/>
<path d="M106.517 101.089L103.441 102.657L104.179 103.066L105.255 102.517L107.637 103.837L108.56 103.367L106.178 102.047L107.255 101.498L106.517 101.089Z" fill="#C8C8C8"/>
<path d="M117.247 95.6205L114.701 96.918L117.821 98.6471L118.744 98.1768L116.362 96.8568L117.985 96.0295L117.247 95.6205Z" fill="#C8C8C8"/>
<path d="M81.1424 114.021L81.7928 115.581L81.639 115.659L79.8609 114.674L78.9382 115.144L82.0582 116.873L83.186 116.298L82.5356 114.738L82.6894 114.66L84.4675 115.645L85.3902 115.175L82.2702 113.446L81.1424 114.021Z" fill="#C8C8C8"/>
<path d="M105.894 104.725L102.757 103.005L101.715 103.536L102.406 104.701L102.235 104.788L100.143 104.337L98.998 104.921L102.118 106.65L102.955 106.223L101.026 105.154L101.18 105.076L102.699 105.39L103.451 105.007L102.94 104.179L103.111 104.092L105.057 105.17L105.911 104.735L105.894 104.725Z" fill="#C8C8C8"/>
<path d="M97.7145 105.7C97.324 105.756 96.9665 105.867 96.6589 106.024C96.3684 106.172 96.145 106.357 96.0058 106.571C95.8837 106.776 95.88 106.992 95.9949 107.201C96.1095 107.428 96.3263 107.621 96.6282 107.788C96.9302 107.956 97.2837 108.079 97.6888 108.158C98.0771 108.228 98.4666 108.225 98.8739 108.178C99.2644 108.122 99.622 108.011 99.9125 107.863C100.203 107.715 100.443 107.521 100.566 107.316C100.688 107.111 100.691 106.895 100.61 106.687C100.496 106.46 100.296 106.258 99.977 106.099C99.675 105.932 99.3047 105.8 98.8993 105.739C98.5114 105.651 98.105 105.644 97.7145 105.7ZM99.3996 107.161C99.3642 107.25 99.2443 107.329 99.1247 107.39C99.0222 107.443 98.92 107.477 98.801 107.502C98.682 107.527 98.5462 107.542 98.4111 107.522C98.1402 107.517 97.8538 107.431 97.5854 107.283C97.317 107.134 97.1841 106.987 97.1698 106.834C97.1711 106.762 97.1891 106.699 97.2413 106.619C97.2932 106.557 97.3789 106.496 97.4644 106.452C97.5669 106.4 97.6691 106.366 97.7881 106.341C97.9071 106.316 98.0428 106.3 98.195 106.312C98.4659 106.316 98.7523 106.402 99.0207 106.551C99.1885 106.644 99.3053 106.745 99.3711 106.854C99.4369 106.964 99.4522 107.063 99.3996 107.161Z" fill="#C8C8C8"/>
<path d="M109.47 99.7087C109.08 99.765 108.722 99.8758 108.415 100.033C108.124 100.181 107.901 100.366 107.762 100.58C107.64 100.785 107.636 101.001 107.751 101.21C107.865 101.437 108.082 101.63 108.384 101.797C108.686 101.964 109.04 102.088 109.462 102.158C109.85 102.228 110.256 102.235 110.647 102.178C111.037 102.122 111.395 102.011 111.685 101.863C111.976 101.715 112.216 101.521 112.338 101.316C112.461 101.111 112.464 100.895 112.383 100.687C112.269 100.46 112.069 100.258 111.75 100.1C111.448 99.9322 111.078 99.7997 110.672 99.7386C110.25 99.6683 109.861 99.6705 109.47 99.7087ZM111.138 101.178C111.086 101.277 110.983 101.347 110.863 101.408C110.761 101.46 110.659 101.494 110.54 101.519C110.421 101.544 110.285 101.56 110.15 101.54C109.879 101.535 109.593 101.449 109.324 101.3C109.056 101.151 108.923 101.005 108.909 100.852C108.91 100.78 108.928 100.717 108.98 100.637C109.032 100.575 109.118 100.513 109.203 100.47C109.306 100.417 109.408 100.383 109.527 100.358C109.646 100.333 109.782 100.317 109.934 100.329C110.205 100.334 110.491 100.42 110.759 100.569C110.927 100.662 111.044 100.763 111.11 100.872C111.176 100.981 111.191 101.08 111.138 101.178Z" fill="#C8C8C8"/>
<path d="M95.1065 107.654C94.7521 107.584 94.3628 107.569 94.0065 107.608C93.6502 107.646 93.3097 107.748 93.0534 107.879C92.6604 108.079 92.6054 108.322 92.6361 108.502L92.4823 108.581L92.1804 108.413L91.2406 108.892L95.4006 111.198L96.3233 110.727L94.9646 109.974L95.1184 109.896C95.4567 109.92 95.9481 109.901 96.3069 109.719C96.5803 109.579 96.7695 109.411 96.8575 109.224C96.9286 109.027 96.9153 108.82 96.8001 108.629C96.6684 108.41 96.4516 108.217 96.1325 108.059C95.8651 107.856 95.4948 107.723 95.1065 107.654ZM95.5438 108.805C95.5928 108.905 95.6081 109.004 95.5555 109.102C95.5201 109.192 95.417 109.28 95.2974 109.341C95.1778 109.402 95.0075 109.453 94.8379 109.468C94.6512 109.492 94.4651 109.479 94.2793 109.449C94.0768 109.41 93.8917 109.343 93.7407 109.26C93.5897 109.176 93.4729 109.075 93.4071 108.966C93.358 108.866 93.3428 108.767 93.3953 108.668C93.4307 108.579 93.5339 108.491 93.6535 108.43C93.7902 108.36 93.9433 108.318 94.1301 108.294C94.3168 108.27 94.5028 108.282 94.6718 108.303C94.8744 108.343 95.0766 108.401 95.2105 108.493C95.3611 108.595 95.4779 108.696 95.5438 108.805Z" fill="#C8C8C8"/>
<path d="M114.62 97.7091C114.265 97.6399 113.876 97.6242 113.52 97.663C113.163 97.7018 112.823 97.804 112.567 97.9346C112.174 98.1349 112.119 98.3771 112.166 98.549L112.013 98.6274L111.711 98.46L110.788 98.9303L114.948 101.236L115.871 100.765L114.512 100.012L114.666 99.9341C115.004 99.958 115.495 99.9395 115.854 99.7567C116.128 99.6173 116.317 99.4495 116.405 99.2619C116.476 99.0651 116.463 98.8577 116.347 98.6666C116.216 98.4482 115.999 98.2554 115.68 98.0967C115.378 97.9114 115.008 97.7789 114.62 97.7091ZM115.057 98.8603C115.106 98.9602 115.121 99.0596 115.069 99.1577C115.033 99.2471 114.93 99.3354 114.811 99.3963C114.674 99.466 114.521 99.5084 114.351 99.5234C114.164 99.5472 113.978 99.535 113.793 99.5047C113.59 99.4652 113.405 99.3989 113.254 99.3153C113.103 99.2316 112.986 99.1305 112.92 99.0213C112.871 98.9214 112.856 98.8221 112.909 98.724C112.944 98.6345 113.047 98.5463 113.167 98.4853C113.303 98.4157 113.457 98.3733 113.643 98.3495C113.83 98.3257 114.016 98.338 114.202 98.3682C114.404 98.4078 114.607 98.4653 114.758 98.549C114.891 98.6413 115.008 98.7424 115.057 98.8603Z" fill="#C8C8C8"/>
</g>
<defs>
<clipPath id="clip0_2986_17927">
<rect width="76.328" height="18.4108" fill="white" transform="matrix(0.890967 -0.454069 0.874662 0.484733 44.5234 57.3999)"/>
</clipPath>
<clipPath id="clip1_2986_17927">
<rect width="76.328" height="18.4108" fill="white" transform="matrix(0.890967 -0.454069 0.874662 0.484733 45 127.783)"/>
</clipPath>
</defs>
</svg>
