<svg width="147" height="166" viewBox="0 0 147 166" fill="none" xmlns="http://www.w3.org/2000/svg"><path d="M1.134 118.171l85.368 47.107m-66.875-55.81l84.575 46.669m-67.143-55.672l84.575 46.669M54.491 91.463l84.575 46.669M71.922 82.46l84.575 46.669M88.289 73.443l85.104 46.96m.266.004L86.5 165.42m18.706-82.786l-86.89 44.875M88.29 73.301L1.4 118.175m120.985-26.061l-86.891 44.874m103.802-35.256l-86.623 44.736m104.334-35.249l-86.89 44.875" stroke="#C8C8C8" stroke-dasharray="4 4"/><path transform="matrix(.8885 -.45887 .87555 .48313 1.088 118.652)" stroke="#6F6F6F" d="M.882.012h97.096v97.106H.882z"/><path opacity=".2" stroke="#6F6F6F" stroke-dasharray="4 4" d="M2.272 46.226v72.201"/><path transform="matrix(.88957 -.4568 .87442 .48517 2.881 44.779)" stroke="#CA0001" d="M.882.014h96.13v96.799H.882z"/></svg>