<svg width="147" height="166" viewBox="0 0 147 166" fill="none" xmlns="http://www.w3.org/2000/svg">
<path d="M1.13409 118.171L86.5019 165.278M19.627 109.468L104.202 156.137M37.0588 100.465L121.634 147.134M54.4906 91.4627L139.066 138.132M71.9225 82.4601L156.497 129.129M88.2893 73.4429L173.393 120.403M173.659 120.407L86.5 165.42M105.206 82.6344L18.3153 127.509M88.2913 73.3007L1.40033 118.175M122.386 92.114L35.4946 136.988M139.297 101.732L52.6739 146.468M157.008 111.219L70.1175 156.094" stroke="#C8C8C8" stroke-dasharray="4 4"/>
<rect x="0.882027" y="0.0121329" width="97.0963" height="97.1059" transform="matrix(0.888506 -0.458865 0.875548 0.483131 1.08772 118.652)" stroke="#6F6F6F"/>
<line opacity="0.2" x1="2.27222" y1="46.2258" x2="2.27222" y2="118.427" stroke="#6F6F6F" stroke-dasharray="4 4"/>
<rect x="0.881997" y="0.0141851" width="96.13" height="96.7986" transform="matrix(0.889571 -0.456796 0.874422 0.485167 2.88114 44.7788)" stroke="#CA0001"/>
</svg>
