<svg width="155" height="159" viewBox="0 0 155 159" fill="none" xmlns="http://www.w3.org/2000/svg"><path d="M134.742 90.622l40.207 22.091-87.609 45.052L1 110.326l40.035-20.587" stroke="#6F6F6F"/><path stroke="#C8C8C8" stroke-dasharray="4 4" d="M88.158 50.61v83.253m47.383-107.299v82.565M41.643 25.877v82.442m20.931-71.046v83.253m49.964-82.044v81.957"/><path stroke="#6F6F6F" d="M135.281 108.686l-47.854 24.762m.471-.023l-47.241-25.912m47.241-.546L40.657 81.055m47.558-1.609L40.973 53.535m94.308 28.664L87.427 106.96m48.152-51.74L87.888 80.004"/><path transform="matrix(.8893 -.45731 .87642 .48154 40.822 25.587)" stroke="#CA0001" d="M.883.012h52.768v52.969H.883z"/></svg>