<svg width="149" height="163" viewBox="0 0 149 163" fill="none" xmlns="http://www.w3.org/2000/svg"><path d="M1.134 115.171l85.368 47.106M133 138.405l-42.036-23.196-44.855 23.165m42.18-67.932l85.104 46.961m.266.004L86.5 162.419M88.291 70.3l-86.89 44.875" stroke="#C8C8C8" stroke-dasharray="4 4"/><path transform="matrix(.8885 -.45887 .87555 .48313 1.088 115.651)" stroke="#6F6F6F" d="M.882.012h97.096v97.106H.882z"/><path opacity=".2" stroke="#6F6F6F" stroke-dasharray="4 4" d="M90.5 47v68m-45-48v70.88m87-67.88v68"/><path stroke="#6F6F6F" d="M2.271 43.226v72.2"/><mask id="path-7-inside-1_2986_18036" fill="#fff"><path fill-rule="evenodd" clip-rule="evenodd" d="M176.06 49.926L91.225.71 2 44l42.417 24.607L89.03 46.963l42.418 24.607 44.613-21.644z"/></mask><path d="M91.225.71l.9-.436-.866-.501-.9.436.866.502zm84.835 49.216l.865.502.9-.437-.865-.502-.9.437zM2 44l-.865-.502-.9.437.865.501L2 44zm42.417 24.607l-.9.437.866.501.9-.436-.866-.502zM89.03 46.963l.9-.437-.865-.501-.9.436.865.502zm42.418 24.607l-.9.437.865.502.9-.437-.865-.502zM90.325 1.147l84.836 49.215 1.799-.873L92.124.274l-1.8.873zM2.865 44.502L92.09 1.212 90.36.21 1.135 43.498l1.73 1.004zM45.317 68.17L2.9 43.563l-1.8.873 42.418 24.608 1.8-.873zm-.035.938l44.612-21.644-1.73-1.004-44.612 21.644 1.73 1.004zm42.847-21.71l42.418 24.608 1.8-.873-42.418-24.608-1.8.873zm87.066 2.025l-44.613 21.645 1.73 1.003 44.613-21.644-1.73-1.004z" fill="#CA0001" mask="url(#path-7-inside-1_2986_18036)"/></svg>