<svg width="129" height="156" viewBox="0 0 129 156" fill="none" xmlns="http://www.w3.org/2000/svg">
<path d="M1 108.058L86.4358 155L173.128 110.42" stroke="#6F6F6F"/>
<line x1="1.5" y1="75.6863" x2="1.5" y2="107.079" stroke="#C8C8C8" stroke-dasharray="4 4"/>
<line x1="87.394" y1="122.339" x2="87.394" y2="153.732" stroke="#C8C8C8" stroke-dasharray="4 4"/>
<path fill-rule="evenodd" clip-rule="evenodd" d="M20.5482 66.27L19.7971 65.8573L20.1848 65.6579L20.9359 66.0706L20.5482 66.27ZM37.8865 57.354L37.1354 56.9413L37.5232 56.7419L38.2743 57.1546L37.8865 57.354ZM55.2249 48.438L54.4738 48.0253L54.8615 47.8259L55.6126 48.2386L55.2249 48.438ZM72.5632 39.522L71.8121 39.1093L72.1999 38.9099L72.951 39.3226L72.5632 39.522ZM23.5525 67.9207L22.0503 67.0953L22.4381 66.8959L23.9403 67.7213L23.5525 67.9207ZM40.8909 59.0047L39.3887 58.1793L39.7764 57.9799L41.2786 58.8053L40.8909 59.0047ZM58.2292 50.0887L56.727 49.2633L57.1148 49.064L58.617 49.8893L58.2292 50.0887ZM75.5676 41.1727L74.0654 40.3474L74.4531 40.148L75.9553 40.9733L75.5676 41.1727ZM26.5568 69.5714L25.0547 68.746L25.4424 68.5466L26.9446 69.372L26.5568 69.5714ZM43.8952 60.6554L42.393 59.83L42.7808 59.6306L44.2829 60.456L43.8952 60.6554ZM61.2335 51.7394L59.7314 50.9141L60.1191 50.7147L61.6213 51.54L61.2335 51.7394ZM78.5719 42.8234L77.0697 41.9981L77.4575 41.7987L78.9596 42.624L78.5719 42.8234ZM29.5612 71.2221L28.059 70.3967L28.4468 70.1973L29.9489 71.0227L29.5612 71.2221ZM46.8995 62.3061L45.3974 61.4807L45.7851 61.2813L47.2873 62.1067L46.8995 62.3061ZM64.2379 53.3901L62.7357 52.5648L63.1235 52.3654L64.6256 53.1907L64.2379 53.3901ZM81.5762 44.4741L80.0741 43.6488L80.4618 43.4494L81.964 44.2747L81.5762 44.4741ZM32.5655 72.8728L31.0633 72.0474L31.4511 71.848L32.9533 72.6734L32.5655 72.8728ZM49.9039 63.9568L48.4017 63.1314L48.7894 62.9321L50.2916 63.7574L49.9039 63.9568ZM67.2422 55.0408L65.7401 54.2155L66.1278 54.0161L67.63 54.8414L67.2422 55.0408ZM84.5806 46.1248L83.0784 45.2995L83.4662 45.1001L84.8156 45.8415L84.9683 45.9255L84.8156 46.004L84.5806 46.1248ZM35.5699 74.5235L34.0677 73.6981L34.4554 73.4987L35.9576 74.3241L35.5699 74.5235ZM52.9082 65.6075L51.406 64.7822L51.7938 64.5828L53.296 65.4081L52.9082 65.6075ZM70.2466 56.6915L68.7444 55.8662L69.1321 55.6668L70.6343 56.4921L70.2466 56.6915ZM19.649 83.3332L18.8774 83.73L18.4953 83.52L19.2669 83.1232L19.649 83.3332ZM22.7356 81.7459L21.1923 82.5396L20.8102 82.3296L22.3535 81.536L22.7356 81.7459ZM25.8223 80.1587L24.279 80.9523L23.8968 80.7424L25.4401 79.9487L25.8223 80.1587ZM28.9089 78.5715L27.3656 79.3651L26.9834 79.1551L28.5267 78.3615L28.9089 78.5715ZM31.9955 76.9842L30.4522 77.7778L30.07 77.5679L31.6133 76.7743L31.9955 76.9842ZM35.0821 75.397L33.5388 76.1906L33.1566 75.9806L34.6999 75.187L35.0821 75.397ZM38.1687 73.8097L36.6254 74.6034L36.2433 74.3934L37.7866 73.5998L38.1687 73.8097ZM41.2553 72.2225L39.712 73.0161L39.3299 72.8062L40.8732 72.0125L41.2553 72.2225ZM44.3419 70.6353L42.7986 71.4289L42.4165 71.2189L43.9598 70.4253L44.3419 70.6353ZM47.4285 69.048L45.8852 69.8416L45.5031 69.6317L47.0464 68.8381L47.4285 69.048ZM50.5151 67.4608L48.9718 68.2544L48.5897 68.0444L50.133 67.2508L50.5151 67.4608ZM53.6017 65.8735L52.0584 66.6672L51.6763 66.4572L53.2196 65.6636L53.6017 65.8735ZM56.6883 64.2863L55.145 65.0799L54.7629 64.87L56.3062 64.0763L56.6883 64.2863ZM59.7749 62.6991L58.2316 63.4927L57.8495 63.2827L59.3928 62.4891L59.7749 62.6991ZM62.8616 61.1118L61.3183 61.9054L60.9361 61.6955L62.4794 60.9019L62.8616 61.1118ZM65.9482 59.5246L64.4049 60.3182L64.0227 60.1082L65.566 59.3146L65.9482 59.5246ZM69.0348 57.9373L67.4915 58.731L67.1093 58.521L68.6526 57.7274L69.0348 57.9373ZM72.1214 56.3501L70.5781 57.1437L70.1959 56.9338L71.7392 56.1401L72.1214 56.3501ZM75.208 54.7629L73.6647 55.5565L73.2825 55.3465L74.8258 54.5529L75.208 54.7629ZM78.2946 53.1756L76.7513 53.9692L76.3691 53.7593L77.9124 52.9657L78.2946 53.1756ZM81.3812 51.5884L79.8379 52.382L79.4557 52.172L80.999 51.3784L81.3812 51.5884ZM84.4678 50.0011L82.9245 50.7948L82.5424 50.5848L84.0856 49.7912L84.4678 50.0011ZM93.7276 45.2394L92.1843 46.0331L91.8022 45.8231L93.3455 45.0295L93.7276 45.2394ZM96.8142 43.6522L95.2709 44.4458L94.8888 44.2359L96.4321 43.4422L96.8142 43.6522ZM99.9008 42.065L98.3575 42.8586L97.9754 42.6486L99.5187 41.855L99.9008 42.065ZM102.987 40.4777L101.444 41.2713L101.062 41.0614L102.605 40.2678L102.987 40.4777ZM105.302 39.2873L105.069 39.4073L104.531 39.6841L104.149 39.4741L104.687 39.1973L104.92 39.0773L105.302 39.2873ZM38.5742 76.1742L37.072 75.3488L37.4598 75.1494L38.9619 75.9748L38.5742 76.1742ZM55.9125 67.2582L54.4104 66.4329L54.7981 66.2335L56.3003 67.0588L55.9125 67.2582ZM73.2509 58.3422L71.7487 57.5169L72.1365 57.3175L73.6386 58.1428L73.2509 58.3422ZM41.5785 77.8249L40.0764 76.9995L40.4641 76.8002L41.9663 77.6255L41.5785 77.8249ZM58.9169 68.9089L57.4147 68.0836L57.8025 67.8842L59.3046 68.7095L58.9169 68.9089ZM76.2552 59.9929L74.7531 59.1676L75.1408 58.9682L76.643 59.7936L76.2552 59.9929ZM93.5936 51.077L92.0914 50.2516L92.4792 50.0522L93.9813 50.8776L93.5936 51.077ZM44.5829 79.4756L43.0807 78.6503L43.4684 78.4509L44.9706 79.2762L44.5829 79.4756ZM61.9212 70.5596L60.419 69.7343L60.8068 69.5349L62.309 70.3602L61.9212 70.5596ZM79.2596 61.6437L77.7574 60.8183L78.1452 60.6189L79.6473 61.4443L79.2596 61.6437ZM96.5979 52.7277L95.0958 51.9023L95.4835 51.7029L96.9857 52.5283L96.5979 52.7277ZM47.5872 81.1263L46.085 80.301L46.4728 80.1016L47.975 80.9269L47.5872 81.1263ZM64.9256 72.2103L63.4234 71.385L63.8111 71.1856L65.3133 72.0109L64.9256 72.2103ZM82.2639 63.2944L80.7617 62.469L81.1495 62.2696L82.6517 63.095L82.2639 63.2944ZM99.6022 54.3784L98.1001 53.553L98.4878 53.3536L99.99 54.179L99.6022 54.3784ZM50.5915 82.777L49.0894 81.9517L49.4771 81.7523L50.9793 82.5776L50.5915 82.777ZM67.9299 73.861L66.4277 73.0357L66.8155 72.8363L68.3176 73.6616L67.9299 73.861ZM102.607 56.0291L101.104 55.2037L101.492 55.0043L102.994 55.8297L102.607 56.0291ZM53.5959 84.4277L52.0937 83.6024L52.4814 83.403L53.9836 84.2283L53.5959 84.4277ZM70.1986 75.1076L69.4321 74.6864L69.8198 74.487L71.322 75.3124L70.9342 75.5117L70.5808 75.3175L69.1456 76.0556L68.7635 75.8456L70.1986 75.1076ZM105.611 57.6798L104.109 56.8544L104.497 56.655L105.999 57.4804L105.611 57.6798ZM36.7362 92.7216L35.9646 93.1184L35.5824 92.9084L36.3541 92.5116L36.7362 92.7216ZM39.8228 91.1343L38.2795 91.928L37.8974 91.718L39.4407 90.9244L39.8228 91.1343ZM42.9094 89.5471L41.3661 90.3407L40.984 90.1308L42.5273 89.3371L42.9094 89.5471ZM45.996 87.9599L44.4527 88.7535L44.0706 88.5435L45.6139 87.7499L45.996 87.9599ZM49.0826 86.3726L47.5393 87.1662L47.1572 86.9563L48.7005 86.1627L49.0826 86.3726ZM52.1692 84.7854L50.6259 85.579L50.2438 85.369L51.7871 84.5754L52.1692 84.7854ZM55.2559 83.1981L53.7125 83.9918L53.3304 83.7818L54.8737 82.9882L55.2559 83.1981ZM58.3425 81.6109L56.7992 82.4045L56.417 82.1946L57.9603 81.4009L58.3425 81.6109ZM61.4291 80.0237L59.8858 80.8173L59.5036 80.6073L61.0469 79.8137L61.4291 80.0237ZM64.5157 78.4364L62.9724 79.23L62.5902 79.0201L64.1335 78.2265L64.5157 78.4364ZM67.6023 76.8492L66.059 77.6428L65.6769 77.4328L67.2202 76.6392L67.6023 76.8492ZM73.7755 73.6747L72.2322 74.4683L71.8501 74.2584L73.3934 73.4647L73.7755 73.6747ZM76.8621 72.0875L75.3188 72.8811L74.9367 72.6711L76.48 71.8775L76.8621 72.0875ZM79.9487 70.5002L78.4054 71.2938L78.0233 71.0839L79.5666 70.2903L79.9487 70.5002ZM83.0353 68.913L81.492 69.7066L81.1099 69.4966L82.6532 68.703L83.0353 68.913ZM92.2951 64.1513L90.7518 64.9449L90.4402 64.7736L90.3697 64.7349L90.4402 64.6987L91.913 63.9413L92.2951 64.1513ZM95.3817 62.564L93.8384 63.3576L93.4563 63.1477L94.9996 62.3541L95.3817 62.564ZM98.4683 60.9768L96.925 61.7704L96.5429 61.5604L98.0862 60.7668L98.4683 60.9768ZM101.555 59.3895L100.012 60.1832L99.6295 59.9732L101.173 59.1796L101.555 59.3895ZM104.642 57.8023L103.098 58.5959L102.716 58.386L104.259 57.5923L104.642 57.8023ZM107.728 56.2151L106.185 57.0087L105.803 56.7987L107.346 56.0051L107.728 56.2151ZM110.815 54.6278L109.271 55.4214L108.889 55.2115L110.433 54.4179L110.815 54.6278ZM113.901 53.0406L112.358 53.8342L111.976 53.6243L113.519 52.8306L113.901 53.0406ZM116.988 51.4534L115.445 52.247L115.063 52.037L116.606 51.2434L116.988 51.4534ZM120.075 49.8661L118.531 50.6597L118.149 50.4498L119.692 49.6562L120.075 49.8661ZM122.39 48.6757L122.156 48.7957L121.618 49.0725L121.236 48.8625L121.774 48.5857L122.007 48.4657L122.39 48.6757ZM56.6002 86.0784L55.098 85.2531L55.4858 85.0537L56.988 85.879L56.6002 86.0784ZM73.9386 77.1625L72.4364 76.3371L72.8241 76.1377L74.3263 76.9631L73.9386 77.1625ZM108.615 59.3305L107.113 58.5051L107.501 58.3058L109.003 59.1311L108.615 59.3305ZM59.6045 87.7291L58.1024 86.9038L58.4901 86.7044L59.9923 87.5297L59.6045 87.7291ZM76.9429 78.8132L75.4407 77.9878L75.8285 77.7884L77.3306 78.6138L76.9429 78.8132ZM94.2812 69.8972L92.7791 69.0718L93.1668 68.8724L94.669 69.6978L94.2812 69.8972ZM111.62 60.9812L110.117 60.1559L110.505 59.9565L112.007 60.7818L111.62 60.9812ZM62.6089 89.3798L61.1067 88.5545L61.4945 88.3551L62.9966 89.1805L62.6089 89.3798ZM79.9472 80.4639L78.4451 79.6385L78.8328 79.4391L79.8065 79.9741L80.335 80.2645L79.9472 80.4639ZM97.2856 71.5479L95.7834 70.7225L96.1712 70.5231L97.6733 71.3485L97.2856 71.5479ZM114.624 62.6319L113.122 61.8066L113.51 61.6072L115.012 62.4325L114.624 62.6319ZM65.6132 91.0305L64.111 90.2052L64.4988 90.0058L66.001 90.8312L65.6132 91.0305ZM82.9516 82.1146L81.4494 81.2892L81.8371 81.0898L83.3393 81.9152L82.9516 82.1146ZM100.29 73.1986L98.7878 72.3732L99.1755 72.1738L100.678 72.9992L100.29 73.1986ZM117.628 64.2826L116.126 63.4573L116.514 63.2579L118.016 64.0832L117.628 64.2826ZM68.6175 92.6813L67.1154 91.8559L67.5031 91.6565L69.0053 92.4819L68.6175 92.6813ZM85.9559 83.7653L84.4537 82.9399L84.8415 82.7405L86.3436 83.5659L85.9559 83.7653ZM103.294 74.8493L101.792 74.0239L102.18 73.8246L103.682 74.6499L103.294 74.8493ZM120.633 65.9333L119.13 65.108L119.518 64.9086L121.02 65.7339L120.633 65.9333ZM53.821 102.111L53.0517 102.507L52.6696 102.297L53.4389 101.901L53.821 102.111ZM56.8981 100.529L55.3595 101.32L54.9774 101.11L56.5159 100.319L56.8981 100.529ZM59.9752 98.9465L58.4366 99.7377L58.0545 99.5277L59.593 98.7366L59.9752 98.9465ZM63.0522 97.3642L61.5137 98.1553L61.1316 97.9454L62.6701 97.1542L63.0522 97.3642ZM66.1293 95.7818L64.5908 96.573L64.2086 96.363L65.7472 95.5719L66.1293 95.7818ZM69.2064 94.1995L67.6679 94.9907L67.2857 94.7807L68.8243 93.9895L69.2064 94.1995ZM72.2835 92.6171L70.7449 93.4083L70.3628 93.1984L71.9014 92.4072L72.2835 92.6171ZM75.3606 91.0348L73.822 91.826L73.4399 91.616L74.9784 90.8249L75.3606 91.0348ZM78.4376 89.4525L76.8991 90.2436L76.517 90.0337L78.0555 89.2425L78.4376 89.4525ZM81.5147 87.8701L79.9762 88.6613L79.5941 88.4513L81.1326 87.6602L81.5147 87.8701ZM84.5918 86.2878L83.0533 87.0789L82.6711 86.869L84.2097 86.0778L84.5918 86.2878ZM87.6679 84.7059L86.1304 85.4966L85.7482 85.2867L87.2868 84.4955L87.459 84.5901L87.8458 84.3912L89.348 85.2166L88.9602 85.416L87.6679 84.7059ZM90.746 83.1231L89.2074 83.9143L88.8253 83.7043L90.3638 82.9131L90.746 83.1231ZM93.8231 81.5408L92.2845 82.3319L91.9024 82.122L93.4409 81.3308L93.8231 81.5408ZM96.9001 79.9584L95.3616 80.7496L94.9795 80.5396L96.518 79.7485L96.9001 79.9584ZM99.9772 78.3761L98.4387 79.1672L98.0565 78.9573L99.5951 78.1661L99.9772 78.3761ZM103.054 76.7937L101.516 77.5849L101.134 77.3749L102.672 76.5838L103.054 76.7937ZM105.006 75.79L104.593 76.0026L104.211 75.7926L105.749 75.0014L106.131 75.2114L105.394 75.5906L106.686 76.3006L106.299 76.5L105.006 75.79ZM109.208 73.6291L107.67 74.4202L107.288 74.2103L108.826 73.4191L109.208 73.6291ZM112.286 72.0467L110.747 72.8379L110.365 72.6279L111.903 71.8368L112.286 72.0467ZM115.363 70.4644L113.824 71.2555L113.442 71.0456L114.98 70.2544L115.363 70.4644ZM118.44 68.882L116.901 69.6732L116.519 69.4632L118.058 68.6721L118.44 68.882ZM121.517 67.2997L119.978 68.0909L119.596 67.8809L121.135 67.0897L121.517 67.2997ZM124.594 65.7174L123.055 66.5085L122.673 66.2986L124.212 65.5074L124.594 65.7174ZM127.671 64.135L126.132 64.9262L125.75 64.7162L127.289 63.9251L127.671 64.135ZM130.748 62.5527L129.209 63.3438L128.827 63.1339L130.366 62.3427L130.748 62.5527ZM133.825 60.9703L132.287 61.7615L131.904 61.5516L133.443 60.7604L133.825 60.9703ZM136.902 59.388L135.364 60.1792L134.981 59.9692L136.52 59.178L136.902 59.388ZM139.21 58.2012L138.441 58.5968L138.059 58.3869L138.828 57.9913L139.21 58.2012ZM71.6219 94.332L70.1197 93.5066L70.5075 93.3072L72.0096 94.1326L71.6219 94.332ZM123.637 67.584L122.135 66.7587L122.523 66.5593L124.025 67.3846L123.637 67.584ZM74.6262 95.9827L73.124 95.1573L73.5118 94.9579L75.014 95.7833L74.6262 95.9827ZM91.9646 87.0667L90.4624 86.2413L90.8502 86.0419L92.3523 86.8673L91.9646 87.0667ZM109.303 78.1507L107.801 77.3254L108.188 77.126L109.691 77.9513L109.303 78.1507ZM126.641 69.2347L125.139 68.4094L125.527 68.21L127.029 69.0353L126.641 69.2347ZM77.6305 97.6334L76.1284 96.808L76.5161 96.6086L78.0183 97.434L77.6305 97.6334ZM94.9689 88.7174L93.4667 87.892L93.8545 87.6926L95.3567 88.518L94.9689 88.7174ZM112.307 79.8014L110.805 78.9761L111.193 78.7767L112.695 79.602L112.307 79.8014ZM129.646 70.8854L128.143 70.0601L128.531 69.8607L130.033 70.686L129.646 70.8854ZM80.6349 99.2841L79.1327 98.4587L79.5205 98.2593L81.0226 99.0847L80.6349 99.2841ZM97.9732 90.3681L96.4711 89.5428L96.8588 89.3434L98.361 90.1687L97.9732 90.3681ZM115.312 81.4521L113.809 80.6268L114.197 80.4274L115.699 81.2527L115.312 81.4521ZM132.65 72.5361L131.148 71.7108L131.536 71.5114L133.038 72.3368L132.65 72.5361ZM83.6392 100.935L82.1371 100.109L82.5248 99.91L84.027 100.735L83.6392 100.935ZM100.978 92.0188L99.4754 91.1935L99.8632 90.9941L101.365 91.8194L100.978 92.0188ZM118.316 83.1028L116.814 82.2775L117.202 82.0781L118.704 82.9034L118.316 83.1028ZM135.654 74.1869L134.152 73.3615L134.54 73.1621L136.042 73.9875L135.654 74.1869ZM86.6436 102.585L85.1414 101.76L85.5291 101.561L87.0313 102.386L86.6436 102.585ZM103.982 93.6695L102.48 92.8442L102.867 92.6448L104.37 93.4701L103.982 93.6695ZM121.32 84.7535L119.818 83.9282L120.206 83.7288L121.708 84.5541L121.32 84.7535ZM138.659 75.8376L137.156 75.0122L137.544 74.8128L139.046 75.6382L138.659 75.8376ZM71.1734 111.643L70.4018 112.04L70.0196 111.83L70.7913 111.433L71.1734 111.643ZM74.26 110.056L72.7167 110.849L72.3346 110.639L73.8779 109.846L74.26 110.056ZM77.3466 108.468L75.8033 109.262L75.4212 109.052L76.9645 108.258L77.3466 108.468ZM80.4332 106.881L78.8899 107.675L78.5078 107.465L80.0511 106.671L80.4332 106.881ZM83.5198 105.294L81.9765 106.087L81.5944 105.878L83.1377 105.084L83.5198 105.294ZM86.6065 103.707L85.0631 104.5L84.681 104.29L86.2243 103.497L86.6065 103.707ZM89.6931 102.119L88.1498 102.913L87.7676 102.703L89.3109 101.909L89.6931 102.119ZM92.7797 100.532L91.2364 101.326L90.8542 101.116L92.3975 100.322L92.7797 100.532ZM95.8663 98.9449L94.323 99.7385L93.9408 99.5285L95.4841 98.7349L95.8663 98.9449ZM98.9529 97.3576L97.4096 98.1513L97.0274 97.9413L98.5708 97.1477L98.9529 97.3576ZM102.039 95.7704L100.496 96.564L100.114 96.3541L101.657 95.5604L102.039 95.7704ZM105.126 94.1832L103.583 94.9768L103.201 94.7668L104.744 93.9732L105.126 94.1832ZM108.213 92.5959L106.669 93.3895L106.287 93.1796L107.831 92.386L108.213 92.5959ZM111.299 91.0087L109.756 91.8023L109.374 91.5923L110.917 90.7987L111.299 91.0087ZM114.386 89.4214L112.843 90.2151L112.46 90.0051L114.004 89.2115L114.386 89.4214ZM117.473 87.8342L115.929 88.6278L115.547 88.4179L117.09 87.6242L117.473 87.8342ZM120.559 86.247L119.016 87.0406L118.634 86.8306L120.177 86.037L120.559 86.247ZM123.646 84.6597L122.102 85.4533L121.72 85.2434L123.264 84.4498L123.646 84.6597ZM126.732 83.0725L125.189 83.8661L124.807 83.6561L126.35 82.8625L126.732 83.0725ZM129.819 81.4852L128.276 82.2789L127.894 82.0689L129.437 81.2753L129.819 81.4852ZM132.906 79.898L131.362 80.6916L130.98 80.4817L132.523 79.688L132.906 79.898ZM135.992 78.3108L134.449 79.1044L134.067 78.8944L135.61 78.1008L135.992 78.3108ZM139.079 76.7235L137.535 77.5172L137.153 77.3072L138.697 76.5136L139.079 76.7235ZM142.165 75.1363L140.622 75.9299L140.24 75.72L141.783 74.9263L142.165 75.1363ZM145.252 73.5491L143.709 74.3427L143.327 74.1327L144.87 73.3391L145.252 73.5491ZM148.339 71.9618L146.795 72.7554L146.413 72.5455L147.956 71.7519L148.339 71.9618ZM151.425 70.3746L149.882 71.1682L149.5 70.9582L151.043 70.1646L151.425 70.3746ZM154.512 68.7873L152.968 69.581L152.586 69.371L154.13 68.5774L154.512 68.7873ZM156.827 67.5969L156.593 67.7169L156.055 67.9937L155.673 67.7838L156.211 67.507L156.445 67.3869L156.827 67.5969ZM89.6479 104.236L88.1457 103.411L88.5335 103.211L90.0356 104.037L89.6479 104.236ZM106.986 95.3202L105.484 94.4949L105.872 94.2955L107.374 95.1208L106.986 95.3202ZM124.325 86.4042L122.822 85.5789L123.21 85.3795L124.712 86.2048L124.325 86.4042ZM141.663 77.4883L140.161 76.6629L140.549 76.4635L142.051 77.2889L141.663 77.4883ZM92.6522 105.887L91.1501 105.062L91.5378 104.862L93.04 105.688L92.6522 105.887ZM109.991 96.9709L108.488 96.1456L108.876 95.9462L110.378 96.7715L109.991 96.9709ZM127.329 88.0549L125.827 87.2296L126.215 87.0302L127.717 87.8556L127.329 88.0549ZM144.667 79.139L143.165 78.3136L143.553 78.1142L145.055 78.9396L144.667 79.139ZM95.6566 107.538L94.1544 106.712L94.5421 106.513L96.0443 107.338L95.6566 107.538ZM112.995 98.6216L111.493 97.7963L111.881 97.5969L113.383 98.4222L112.995 98.6216ZM130.333 89.7057L128.831 88.8803L129.219 88.6809L130.721 89.5063L130.333 89.7057ZM147.672 80.7897L146.169 79.9643L146.557 79.7649L148.059 80.5903L147.672 80.7897ZM98.6609 109.188L97.1587 108.363L97.5465 108.164L99.0486 108.989L98.6609 109.188ZM115.999 100.272L114.497 99.447L114.885 99.2476L116.387 100.073L115.999 100.272ZM133.338 91.3564L131.835 90.531L132.223 90.3316L133.725 91.157L133.338 91.3564ZM150.676 82.4404L149.174 81.615L149.562 81.4156L151.064 82.241L150.676 82.4404ZM101.665 110.839L100.163 110.014L100.551 109.814L102.053 110.64L101.665 110.839ZM119.004 101.923L117.501 101.098L117.889 100.898L119.391 101.724L119.004 101.923ZM136.342 93.0071L134.84 92.1817L135.228 91.9823L136.73 92.8077L136.342 93.0071ZM153.68 84.0911L152.178 83.2657L152.566 83.0663L154.068 83.8917L153.68 84.0911ZM103.919 112.077L103.167 111.664L103.555 111.465L104.306 111.878L103.919 112.077ZM121.257 103.161L120.506 102.748L120.893 102.549L121.645 102.962L121.257 103.161ZM138.595 94.2451L137.844 93.8324L138.232 93.633L138.983 94.0457L138.595 94.2451ZM155.934 85.3291L155.182 84.9164L155.57 84.717L156.321 85.1297L155.934 85.3291Z" fill="#6F6F6F"/>
<path fill-rule="evenodd" clip-rule="evenodd" d="M83.4662 45.1001L84.8156 45.8415V46.004L84.5806 46.1248L83.0784 45.2995L83.4662 45.1001ZM84.1538 63.9203L84.8156 64.2839V64.6964L83.7661 64.1197L84.1538 63.9203ZM91.2769 68.2465L90.4402 67.8091V67.3743L91.6647 68.0471L91.2769 68.2465ZM90.7518 64.9449L90.4402 64.7736V64.6987L91.913 63.9413L92.2951 64.1513L90.7518 64.9449ZM104.149 39.4741L104.687 39.1973L105.069 39.4073L104.531 39.6841L104.149 39.4741ZM121.236 48.8625L121.774 48.5857L122.156 48.7957L121.618 49.0725L121.236 48.8625ZM155.673 67.7838L156.211 67.507L156.593 67.7169L156.055 67.9937L155.673 67.7838ZM20.5482 66.27L19.7971 65.8573L20.1848 65.6579L20.9359 66.0706L20.5482 66.27ZM37.8865 57.354L37.1354 56.9413L37.5232 56.7419L38.2743 57.1546L37.8865 57.354ZM55.2249 48.438L54.4738 48.0253L54.8615 47.8259L55.6126 48.2386L55.2249 48.438ZM72.5632 39.522L71.8121 39.1093L72.1999 38.9099L72.951 39.3226L72.5632 39.522ZM23.5525 67.9207L22.0503 67.0953L22.4381 66.8959L23.9403 67.7213L23.5525 67.9207ZM40.8909 59.0047L39.3887 58.1793L39.7764 57.9799L41.2786 58.8053L40.8909 59.0047ZM58.2292 50.0887L56.727 49.2633L57.1148 49.064L58.617 49.8893L58.2292 50.0887ZM75.5676 41.1727L74.0654 40.3474L74.4531 40.148L75.9553 40.9733L75.5676 41.1727ZM26.5568 69.5714L25.0547 68.746L25.4424 68.5466L26.9446 69.372L26.5568 69.5714ZM43.8952 60.6554L42.393 59.83L42.7808 59.6306L44.2829 60.456L43.8952 60.6554ZM61.2335 51.7394L59.7314 50.9141L60.1191 50.7147L61.6213 51.54L61.2335 51.7394ZM78.5719 42.8234L77.0697 41.9981L77.4575 41.7987L78.9596 42.624L78.5719 42.8234ZM29.5612 71.2221L28.059 70.3967L28.4468 70.1973L29.9489 71.0227L29.5612 71.2221ZM46.8995 62.3061L45.3974 61.4807L45.7851 61.2813L47.2873 62.1067L46.8995 62.3061ZM64.2379 53.3901L62.7357 52.5648L63.1235 52.3654L64.6256 53.1907L64.2379 53.3901ZM81.5762 44.4741L80.0741 43.6488L80.4618 43.4494L81.964 44.2747L81.5762 44.4741ZM32.5655 72.8728L31.0633 72.0474L31.4511 71.848L32.9533 72.6734L32.5655 72.8728ZM49.9039 63.9568L48.4017 63.1314L48.7894 62.9321L50.2916 63.7574L49.9039 63.9568ZM67.2422 55.0408L65.7401 54.2155L66.1278 54.0161L67.63 54.8414L67.2422 55.0408ZM35.5699 74.5235L34.0677 73.6981L34.4554 73.4987L35.9576 74.3241L35.5699 74.5235ZM52.9082 65.6075L51.406 64.7822L51.7938 64.5828L53.296 65.4081L52.9082 65.6075ZM70.2466 56.6915L68.7444 55.8662L69.1321 55.6668L70.6343 56.4921L70.2466 56.6915ZM19.649 83.3332L18.8774 83.73L18.4953 83.52L19.2669 83.1232L19.649 83.3332ZM22.7356 81.7459L21.1923 82.5396L20.8102 82.3296L22.3535 81.536L22.7356 81.7459ZM25.8223 80.1587L24.279 80.9523L23.8968 80.7424L25.4401 79.9487L25.8223 80.1587ZM28.9089 78.5715L27.3656 79.3651L26.9834 79.1551L28.5267 78.3615L28.9089 78.5715ZM31.9955 76.9842L30.4522 77.7778L30.07 77.5679L31.6133 76.7743L31.9955 76.9842ZM35.0821 75.397L33.5388 76.1906L33.1566 75.9806L34.6999 75.187L35.0821 75.397ZM38.1687 73.8097L36.6254 74.6034L36.2433 74.3934L37.7866 73.5998L38.1687 73.8097ZM41.2553 72.2225L39.712 73.0161L39.3299 72.8062L40.8732 72.0125L41.2553 72.2225ZM44.3419 70.6353L42.7986 71.4289L42.4165 71.2189L43.9598 70.4253L44.3419 70.6353ZM47.4285 69.048L45.8852 69.8416L45.5031 69.6317L47.0464 68.8381L47.4285 69.048ZM50.5151 67.4608L48.9718 68.2544L48.5897 68.0444L50.133 67.2508L50.5151 67.4608ZM53.6017 65.8735L52.0584 66.6672L51.6763 66.4572L53.2196 65.6636L53.6017 65.8735ZM56.6883 64.2863L55.145 65.0799L54.7629 64.87L56.3062 64.0763L56.6883 64.2863ZM59.7749 62.6991L58.2316 63.4927L57.8495 63.2827L59.3928 62.4891L59.7749 62.6991ZM62.8616 61.1118L61.3183 61.9054L60.9361 61.6955L62.4794 60.9019L62.8616 61.1118ZM65.9482 59.5246L64.4049 60.3182L64.0227 60.1082L65.566 59.3146L65.9482 59.5246ZM69.0348 57.9373L67.4915 58.731L67.1093 58.521L68.6526 57.7274L69.0348 57.9373ZM72.1214 56.3501L70.5781 57.1437L70.1959 56.9338L71.7392 56.1401L72.1214 56.3501ZM75.208 54.7629L73.6647 55.5565L73.2825 55.3465L74.8258 54.5529L75.208 54.7629ZM78.2946 53.1756L76.7513 53.9692L76.3691 53.7593L77.9124 52.9657L78.2946 53.1756ZM81.3812 51.5884L79.8379 52.382L79.4557 52.172L80.999 51.3784L81.3812 51.5884ZM84.4678 50.0011L82.9245 50.7948L82.5424 50.5848L84.0856 49.7912L84.4678 50.0011ZM93.7276 45.2394L92.1843 46.0331L91.8022 45.8231L93.3455 45.0295L93.7276 45.2394ZM96.8142 43.6522L95.2709 44.4458L94.8888 44.2359L96.4321 43.4422L96.8142 43.6522ZM99.9008 42.065L98.3575 42.8586L97.9754 42.6486L99.5187 41.855L99.9008 42.065ZM102.987 40.4777L101.444 41.2713L101.062 41.0614L102.605 40.2678L102.987 40.4777ZM38.5742 76.1742L37.072 75.3488L37.4598 75.1494L38.9619 75.9748L38.5742 76.1742ZM55.9125 67.2582L54.4104 66.4329L54.7981 66.2335L56.3003 67.0588L55.9125 67.2582ZM73.2509 58.3422L71.7487 57.5169L72.1365 57.3175L73.6386 58.1428L73.2509 58.3422ZM41.5785 77.8249L40.0764 76.9995L40.4641 76.8002L41.9663 77.6255L41.5785 77.8249ZM58.9169 68.9089L57.4147 68.0836L57.8025 67.8842L59.3046 68.7095L58.9169 68.9089ZM76.2552 59.9929L74.7531 59.1676L75.1408 58.9682L76.643 59.7936L76.2552 59.9929ZM93.5936 51.077L92.0914 50.2516L92.4792 50.0522L93.9813 50.8776L93.5936 51.077ZM44.5829 79.4756L43.0807 78.6503L43.4684 78.4509L44.9706 79.2762L44.5829 79.4756ZM61.9212 70.5596L60.419 69.7343L60.8068 69.5349L62.309 70.3602L61.9212 70.5596ZM79.2596 61.6437L77.7574 60.8183L78.1452 60.6189L79.6473 61.4443L79.2596 61.6437ZM96.5979 52.7277L95.0958 51.9023L95.4835 51.7029L96.9857 52.5283L96.5979 52.7277ZM47.5872 81.1263L46.085 80.301L46.4728 80.1016L47.975 80.9269L47.5872 81.1263ZM64.9256 72.2103L63.4234 71.385L63.8111 71.1856L65.3133 72.0109L64.9256 72.2103ZM82.2639 63.2944L80.7617 62.469L81.1495 62.2696L82.6517 63.095L82.2639 63.2944ZM99.6022 54.3784L98.1001 53.553L98.4878 53.3536L99.99 54.179L99.6022 54.3784ZM50.5915 82.777L49.0894 81.9517L49.4771 81.7523L50.9793 82.5776L50.5915 82.777ZM67.9299 73.861L66.4277 73.0357L66.8155 72.8363L68.3176 73.6616L67.9299 73.861ZM102.607 56.0291L101.104 55.2037L101.492 55.0043L102.994 55.8297L102.607 56.0291ZM53.5959 84.4277L52.0937 83.6024L52.4814 83.403L53.9836 84.2283L53.5959 84.4277ZM70.1986 75.1076L69.4321 74.6864L69.8198 74.487L71.322 75.3124L70.9342 75.5117L70.5808 75.3175L69.1456 76.0556L68.7635 75.8456L70.1986 75.1076ZM105.611 57.6798L104.109 56.8544L104.497 56.655L105.999 57.4804L105.611 57.6798ZM36.7362 92.7216L35.9646 93.1184L35.5824 92.9084L36.3541 92.5116L36.7362 92.7216ZM39.8228 91.1343L38.2795 91.928L37.8974 91.718L39.4407 90.9244L39.8228 91.1343ZM42.9094 89.5471L41.3661 90.3407L40.984 90.1308L42.5273 89.3371L42.9094 89.5471ZM45.996 87.9599L44.4527 88.7535L44.0706 88.5435L45.6139 87.7499L45.996 87.9599ZM49.0826 86.3726L47.5393 87.1662L47.1572 86.9563L48.7005 86.1627L49.0826 86.3726ZM52.1692 84.7854L50.6259 85.579L50.2438 85.369L51.7871 84.5754L52.1692 84.7854ZM55.2559 83.1981L53.7125 83.9918L53.3304 83.7818L54.8737 82.9882L55.2559 83.1981ZM58.3425 81.6109L56.7992 82.4045L56.417 82.1946L57.9603 81.4009L58.3425 81.6109ZM61.4291 80.0237L59.8858 80.8173L59.5036 80.6073L61.0469 79.8137L61.4291 80.0237ZM64.5157 78.4364L62.9724 79.23L62.5902 79.0201L64.1335 78.2265L64.5157 78.4364ZM67.6023 76.8492L66.059 77.6428L65.6769 77.4328L67.2202 76.6392L67.6023 76.8492ZM73.7755 73.6747L72.2322 74.4683L71.8501 74.2584L73.3934 73.4647L73.7755 73.6747ZM76.8621 72.0875L75.3188 72.8811L74.9367 72.6711L76.48 71.8775L76.8621 72.0875ZM79.9487 70.5002L78.4054 71.2938L78.0233 71.0839L79.5666 70.2903L79.9487 70.5002ZM83.0353 68.913L81.492 69.7066L81.1099 69.4966L82.6532 68.703L83.0353 68.913ZM95.3817 62.564L93.8384 63.3576L93.4563 63.1477L94.9996 62.3541L95.3817 62.564ZM98.4683 60.9768L96.925 61.7704L96.5429 61.5604L98.0862 60.7668L98.4683 60.9768ZM101.555 59.3895L100.012 60.1832L99.6295 59.9732L101.173 59.1796L101.555 59.3895ZM104.642 57.8023L103.098 58.5959L102.716 58.386L104.259 57.5923L104.642 57.8023ZM107.728 56.2151L106.185 57.0087L105.803 56.7987L107.346 56.0051L107.728 56.2151ZM110.815 54.6278L109.271 55.4214L108.889 55.2115L110.433 54.4179L110.815 54.6278ZM113.901 53.0406L112.358 53.8342L111.976 53.6243L113.519 52.8306L113.901 53.0406ZM116.988 51.4534L115.445 52.247L115.063 52.037L116.606 51.2434L116.988 51.4534ZM120.075 49.8661L118.531 50.6597L118.149 50.4498L119.692 49.6562L120.075 49.8661ZM56.6002 86.0784L55.098 85.2531L55.4858 85.0537L56.988 85.879L56.6002 86.0784ZM73.9386 77.1625L72.4364 76.3371L72.8241 76.1377L74.3263 76.9631L73.9386 77.1625ZM108.615 59.3305L107.113 58.5051L107.501 58.3058L109.003 59.1311L108.615 59.3305ZM59.6045 87.7291L58.1024 86.9038L58.4901 86.7044L59.9923 87.5297L59.6045 87.7291ZM76.9429 78.8132L75.4407 77.9878L75.8285 77.7884L77.3306 78.6138L76.9429 78.8132ZM94.2812 69.8972L92.7791 69.0718L93.1668 68.8724L94.669 69.6978L94.2812 69.8972ZM111.62 60.9812L110.117 60.1559L110.505 59.9565L112.007 60.7818L111.62 60.9812ZM62.6089 89.3798L61.1067 88.5545L61.4945 88.3551L62.9966 89.1805L62.6089 89.3798ZM79.9472 80.4639L78.4451 79.6385L78.8328 79.4391L79.8065 79.9741L80.335 80.2645L79.9472 80.4639ZM97.2856 71.5479L95.7834 70.7225L96.1712 70.5231L97.6733 71.3485L97.2856 71.5479ZM114.624 62.6319L113.122 61.8066L113.51 61.6072L115.012 62.4325L114.624 62.6319ZM65.6132 91.0305L64.111 90.2052L64.4988 90.0058L66.001 90.8312L65.6132 91.0305ZM82.9516 82.1146L81.4494 81.2892L81.8371 81.0898L83.3393 81.9152L82.9516 82.1146ZM100.29 73.1986L98.7878 72.3732L99.1755 72.1738L100.678 72.9992L100.29 73.1986ZM117.628 64.2826L116.126 63.4573L116.514 63.2579L118.016 64.0832L117.628 64.2826ZM68.6175 92.6813L67.1154 91.8559L67.5031 91.6565L69.0053 92.4819L68.6175 92.6813ZM85.9559 83.7653L84.4537 82.9399L84.8415 82.7405L86.3436 83.5659L85.9559 83.7653ZM103.294 74.8493L101.792 74.0239L102.18 73.8246L103.682 74.6499L103.294 74.8493ZM120.633 65.9333L119.13 65.108L119.518 64.9086L121.02 65.7339L120.633 65.9333ZM53.821 102.111L53.0517 102.507L52.6696 102.297L53.4389 101.901L53.821 102.111ZM56.8981 100.529L55.3595 101.32L54.9774 101.11L56.5159 100.319L56.8981 100.529ZM59.9752 98.9465L58.4366 99.7377L58.0545 99.5277L59.593 98.7366L59.9752 98.9465ZM63.0522 97.3642L61.5137 98.1553L61.1316 97.9454L62.6701 97.1542L63.0522 97.3642ZM66.1293 95.7818L64.5908 96.573L64.2086 96.363L65.7472 95.5719L66.1293 95.7818ZM69.2064 94.1995L67.6679 94.9907L67.2857 94.7807L68.8243 93.9895L69.2064 94.1995ZM72.2835 92.6171L70.7449 93.4083L70.3628 93.1984L71.9014 92.4072L72.2835 92.6171ZM75.3606 91.0348L73.822 91.826L73.4399 91.616L74.9784 90.8249L75.3606 91.0348ZM78.4376 89.4525L76.8991 90.2436L76.517 90.0337L78.0555 89.2425L78.4376 89.4525ZM81.5147 87.8701L79.9762 88.6613L79.5941 88.4513L81.1326 87.6602L81.5147 87.8701ZM84.5918 86.2878L83.0533 87.0789L82.6711 86.869L84.2097 86.0778L84.5918 86.2878ZM87.6679 84.7059L86.1304 85.4966L85.7482 85.2867L87.2868 84.4955L87.459 84.5901L87.8458 84.3912L89.348 85.2166L88.9602 85.416L87.6679 84.7059ZM90.746 83.1231L89.2074 83.9143L88.8253 83.7043L90.3638 82.9131L90.746 83.1231ZM93.8231 81.5408L92.2845 82.3319L91.9024 82.122L93.4409 81.3308L93.8231 81.5408ZM96.9001 79.9584L95.3616 80.7496L94.9795 80.5396L96.518 79.7485L96.9001 79.9584ZM99.9772 78.3761L98.4387 79.1672L98.0565 78.9573L99.5951 78.1661L99.9772 78.3761ZM103.054 76.7937L101.516 77.5849L101.134 77.3749L102.672 76.5838L103.054 76.7937ZM105.006 75.79L104.593 76.0026L104.211 75.7926L105.749 75.0014L106.131 75.2114L105.394 75.5906L106.686 76.3006L106.299 76.5L105.006 75.79ZM109.208 73.6291L107.67 74.4202L107.288 74.2103L108.826 73.4191L109.208 73.6291ZM112.286 72.0467L110.747 72.8379L110.365 72.6279L111.903 71.8368L112.286 72.0467ZM115.363 70.4644L113.824 71.2555L113.442 71.0456L114.98 70.2544L115.363 70.4644ZM118.44 68.882L116.901 69.6732L116.519 69.4632L118.058 68.6721L118.44 68.882ZM121.517 67.2997L119.978 68.0909L119.596 67.8809L121.135 67.0897L121.517 67.2997ZM124.594 65.7174L123.055 66.5085L122.673 66.2986L124.212 65.5074L124.594 65.7174ZM127.671 64.135L126.132 64.9262L125.75 64.7162L127.289 63.9251L127.671 64.135ZM130.748 62.5527L129.209 63.3438L128.827 63.1339L130.366 62.3427L130.748 62.5527ZM133.825 60.9703L132.287 61.7615L131.904 61.5516L133.443 60.7604L133.825 60.9703ZM136.902 59.388L135.364 60.1792L134.981 59.9692L136.52 59.178L136.902 59.388ZM139.21 58.2012L138.441 58.5968L138.059 58.3869L138.828 57.9913L139.21 58.2012ZM71.6219 94.332L70.1197 93.5066L70.5075 93.3072L72.0096 94.1326L71.6219 94.332ZM123.637 67.584L122.135 66.7587L122.523 66.5593L124.025 67.3846L123.637 67.584ZM74.6262 95.9827L73.124 95.1573L73.5118 94.9579L75.014 95.7833L74.6262 95.9827ZM91.9646 87.0667L90.4624 86.2413L90.8502 86.0419L92.3523 86.8673L91.9646 87.0667ZM109.303 78.1507L107.801 77.3254L108.188 77.126L109.691 77.9513L109.303 78.1507ZM126.641 69.2347L125.139 68.4094L125.527 68.21L127.029 69.0353L126.641 69.2347ZM77.6305 97.6334L76.1284 96.808L76.5161 96.6086L78.0183 97.434L77.6305 97.6334ZM94.9689 88.7174L93.4667 87.892L93.8545 87.6926L95.3567 88.518L94.9689 88.7174ZM112.307 79.8014L110.805 78.9761L111.193 78.7767L112.695 79.602L112.307 79.8014ZM129.646 70.8854L128.143 70.0601L128.531 69.8607L130.033 70.686L129.646 70.8854ZM80.6349 99.2841L79.1327 98.4587L79.5205 98.2593L81.0226 99.0847L80.6349 99.2841ZM97.9732 90.3681L96.4711 89.5428L96.8588 89.3434L98.361 90.1687L97.9732 90.3681ZM115.312 81.4521L113.809 80.6268L114.197 80.4274L115.699 81.2527L115.312 81.4521ZM132.65 72.5361L131.148 71.7108L131.536 71.5114L133.038 72.3368L132.65 72.5361ZM83.6392 100.935L82.1371 100.109L82.5248 99.91L84.027 100.735L83.6392 100.935ZM100.978 92.0188L99.4754 91.1935L99.8632 90.9941L101.365 91.8194L100.978 92.0188ZM118.316 83.1028L116.814 82.2775L117.202 82.0781L118.704 82.9034L118.316 83.1028ZM135.654 74.1869L134.152 73.3615L134.54 73.1621L136.042 73.9875L135.654 74.1869ZM86.6436 102.585L85.1414 101.76L85.5291 101.561L87.0313 102.386L86.6436 102.585ZM103.982 93.6695L102.48 92.8442L102.867 92.6448L104.37 93.4701L103.982 93.6695ZM121.32 84.7535L119.818 83.9282L120.206 83.7288L121.708 84.5541L121.32 84.7535ZM138.659 75.8376L137.156 75.0122L137.544 74.8128L139.046 75.6382L138.659 75.8376ZM71.1734 111.643L70.4018 112.04L70.0196 111.83L70.7913 111.433L71.1734 111.643ZM74.26 110.056L72.7167 110.849L72.3346 110.639L73.8779 109.846L74.26 110.056ZM77.3466 108.468L75.8033 109.262L75.4212 109.052L76.9645 108.258L77.3466 108.468ZM80.4332 106.881L78.8899 107.675L78.5078 107.465L80.0511 106.671L80.4332 106.881ZM83.5198 105.294L81.9765 106.087L81.5944 105.878L83.1377 105.084L83.5198 105.294ZM86.6065 103.707L85.0631 104.5L84.681 104.29L86.2243 103.497L86.6065 103.707ZM89.6931 102.119L88.1498 102.913L87.7676 102.703L89.3109 101.909L89.6931 102.119ZM92.7797 100.532L91.2364 101.326L90.8542 101.116L92.3975 100.322L92.7797 100.532ZM95.8663 98.9449L94.323 99.7385L93.9408 99.5285L95.4841 98.7349L95.8663 98.9449ZM98.9529 97.3576L97.4096 98.1513L97.0274 97.9413L98.5708 97.1477L98.9529 97.3576ZM102.039 95.7704L100.496 96.564L100.114 96.3541L101.657 95.5604L102.039 95.7704ZM105.126 94.1832L103.583 94.9768L103.201 94.7668L104.744 93.9732L105.126 94.1832ZM108.213 92.5959L106.669 93.3895L106.287 93.1796L107.831 92.386L108.213 92.5959ZM111.299 91.0087L109.756 91.8023L109.374 91.5923L110.917 90.7987L111.299 91.0087ZM114.386 89.4214L112.843 90.2151L112.46 90.0051L114.004 89.2115L114.386 89.4214ZM117.473 87.8342L115.929 88.6278L115.547 88.4179L117.09 87.6242L117.473 87.8342ZM120.559 86.247L119.016 87.0406L118.634 86.8306L120.177 86.037L120.559 86.247ZM123.646 84.6597L122.102 85.4533L121.72 85.2434L123.264 84.4498L123.646 84.6597ZM126.732 83.0725L125.189 83.8661L124.807 83.6561L126.35 82.8625L126.732 83.0725ZM129.819 81.4852L128.276 82.2789L127.894 82.0689L129.437 81.2753L129.819 81.4852ZM132.906 79.898L131.362 80.6916L130.98 80.4817L132.523 79.688L132.906 79.898ZM135.992 78.3108L134.449 79.1044L134.067 78.8944L135.61 78.1008L135.992 78.3108ZM139.079 76.7235L137.535 77.5172L137.153 77.3072L138.697 76.5136L139.079 76.7235ZM142.165 75.1363L140.622 75.9299L140.24 75.72L141.783 74.9263L142.165 75.1363ZM145.252 73.5491L143.709 74.3427L143.327 74.1327L144.87 73.3391L145.252 73.5491ZM148.339 71.9618L146.795 72.7554L146.413 72.5455L147.956 71.7519L148.339 71.9618ZM151.425 70.3746L149.882 71.1682L149.5 70.9582L151.043 70.1646L151.425 70.3746ZM154.512 68.7873L152.968 69.581L152.586 69.371L154.13 68.5774L154.512 68.7873ZM89.6479 104.236L88.1457 103.411L88.5335 103.211L90.0356 104.037L89.6479 104.236ZM106.986 95.3202L105.484 94.4949L105.872 94.2955L107.374 95.1208L106.986 95.3202ZM124.325 86.4042L122.822 85.5789L123.21 85.3795L124.712 86.2048L124.325 86.4042ZM141.663 77.4883L140.161 76.6629L140.549 76.4635L142.051 77.2889L141.663 77.4883ZM92.6522 105.887L91.1501 105.062L91.5378 104.862L93.04 105.688L92.6522 105.887ZM109.991 96.9709L108.488 96.1456L108.876 95.9462L110.378 96.7715L109.991 96.9709ZM127.329 88.0549L125.827 87.2296L126.215 87.0302L127.717 87.8556L127.329 88.0549ZM144.667 79.139L143.165 78.3136L143.553 78.1142L145.055 78.9396L144.667 79.139ZM95.6566 107.538L94.1544 106.712L94.5421 106.513L96.0443 107.338L95.6566 107.538ZM112.995 98.6216L111.493 97.7963L111.881 97.5969L113.383 98.4222L112.995 98.6216ZM130.333 89.7057L128.831 88.8803L129.219 88.6809L130.721 89.5063L130.333 89.7057ZM147.672 80.7897L146.169 79.9643L146.557 79.7649L148.059 80.5903L147.672 80.7897ZM98.6609 109.188L97.1587 108.363L97.5465 108.164L99.0486 108.989L98.6609 109.188ZM115.999 100.272L114.497 99.447L114.885 99.2476L116.387 100.073L115.999 100.272ZM133.338 91.3564L131.835 90.531L132.223 90.3316L133.725 91.157L133.338 91.3564ZM150.676 82.4404L149.174 81.615L149.562 81.4156L151.064 82.241L150.676 82.4404ZM101.665 110.839L100.163 110.014L100.551 109.814L102.053 110.64L101.665 110.839ZM119.004 101.923L117.501 101.098L117.889 100.898L119.391 101.724L119.004 101.923ZM136.342 93.0071L134.84 92.1817L135.228 91.9823L136.73 92.8077L136.342 93.0071ZM153.68 84.0911L152.178 83.2657L152.566 83.0663L154.068 83.8917L153.68 84.0911ZM103.919 112.077L103.167 111.664L103.555 111.465L104.306 111.878L103.919 112.077ZM121.257 103.161L120.506 102.748L120.893 102.549L121.645 102.962L121.257 103.161ZM138.595 94.2451L137.844 93.8324L138.232 93.633L138.983 94.0457L138.595 94.2451ZM155.934 85.3291L155.182 84.9164L155.57 84.717L156.321 85.1297L155.934 85.3291Z" fill="#6F6F6F"/>
<path fill-rule="evenodd" clip-rule="evenodd" d="M83.0784 45.2995L84.5806 46.1248L84.8156 46.004L84.9683 45.9255L84.8156 45.8415L83.4662 45.1001L83.0784 45.2995ZM156.593 67.7169L156.827 67.5969L156.445 67.3869L156.211 67.507L155.673 67.7838L156.055 67.9937L156.593 67.7169ZM122.156 48.7957L122.39 48.6757L122.007 48.4657L121.774 48.5857L121.236 48.8625L121.618 49.0725L122.156 48.7957ZM105.069 39.4073L105.302 39.2873L104.92 39.0773L104.687 39.1973L104.149 39.4741L104.531 39.6841L105.069 39.4073ZM84.8156 64.2839L84.1538 63.9203L83.7661 64.1197L84.8156 64.6964V64.2839ZM90.4402 67.8091L91.2769 68.2465L91.6647 68.0471L90.4402 67.3743V67.8091ZM90.4402 64.7736L90.7518 64.9449L92.2951 64.1513L91.913 63.9413L90.4402 64.6987L90.3697 64.7349L90.4402 64.7736ZM19.7971 65.8573L20.5482 66.27L20.9359 66.0706L20.1848 65.6579L19.7971 65.8573ZM37.1354 56.9413L37.8865 57.354L38.2743 57.1546L37.5232 56.7419L37.1354 56.9413ZM54.4738 48.0253L55.2249 48.438L55.6126 48.2386L54.8615 47.8259L54.4738 48.0253ZM71.8121 39.1093L72.5632 39.522L72.951 39.3226L72.1999 38.9099L71.8121 39.1093ZM22.0503 67.0953L23.5525 67.9207L23.9403 67.7213L22.4381 66.8959L22.0503 67.0953ZM39.3887 58.1793L40.8909 59.0047L41.2786 58.8053L39.7764 57.9799L39.3887 58.1793ZM56.727 49.2633L58.2292 50.0887L58.617 49.8893L57.1148 49.064L56.727 49.2633ZM74.0654 40.3474L75.5676 41.1727L75.9553 40.9733L74.4531 40.148L74.0654 40.3474ZM25.0547 68.746L26.5568 69.5714L26.9446 69.372L25.4424 68.5466L25.0547 68.746ZM42.393 59.83L43.8952 60.6554L44.2829 60.456L42.7808 59.6306L42.393 59.83ZM59.7314 50.9141L61.2335 51.7394L61.6213 51.54L60.1191 50.7147L59.7314 50.9141ZM77.0697 41.9981L78.5719 42.8234L78.9596 42.624L77.4575 41.7987L77.0697 41.9981ZM28.059 70.3967L29.5612 71.2221L29.9489 71.0227L28.4468 70.1973L28.059 70.3967ZM45.3974 61.4807L46.8995 62.3061L47.2873 62.1067L45.7851 61.2813L45.3974 61.4807ZM62.7357 52.5648L64.2379 53.3901L64.6256 53.1907L63.1235 52.3654L62.7357 52.5648ZM80.0741 43.6488L81.5762 44.4741L81.964 44.2747L80.4618 43.4494L80.0741 43.6488ZM31.0633 72.0474L32.5655 72.8728L32.9533 72.6734L31.4511 71.848L31.0633 72.0474ZM48.4017 63.1314L49.9039 63.9568L50.2916 63.7574L48.7894 62.9321L48.4017 63.1314ZM65.7401 54.2155L67.2422 55.0408L67.63 54.8414L66.1278 54.0161L65.7401 54.2155ZM34.0677 73.6981L35.5699 74.5235L35.9576 74.3241L34.4554 73.4987L34.0677 73.6981ZM51.406 64.7822L52.9082 65.6075L53.296 65.4081L51.7938 64.5828L51.406 64.7822ZM68.7444 55.8662L70.2466 56.6915L70.6343 56.4921L69.1321 55.6668L68.7444 55.8662ZM18.8774 83.73L19.649 83.3332L19.2669 83.1232L18.4953 83.52L18.8774 83.73ZM21.1923 82.5396L22.7356 81.7459L22.3535 81.536L20.8102 82.3296L21.1923 82.5396ZM24.279 80.9523L25.8223 80.1587L25.4401 79.9487L23.8968 80.7424L24.279 80.9523ZM27.3656 79.3651L28.9089 78.5715L28.5267 78.3615L26.9834 79.1551L27.3656 79.3651ZM30.4522 77.7778L31.9955 76.9842L31.6133 76.7743L30.07 77.5679L30.4522 77.7778ZM33.5388 76.1906L35.0821 75.397L34.6999 75.187L33.1566 75.9806L33.5388 76.1906ZM36.6254 74.6034L38.1687 73.8097L37.7866 73.5998L36.2433 74.3934L36.6254 74.6034ZM39.712 73.0161L41.2553 72.2225L40.8732 72.0125L39.3299 72.8062L39.712 73.0161ZM42.7986 71.4289L44.3419 70.6353L43.9598 70.4253L42.4165 71.2189L42.7986 71.4289ZM45.8852 69.8416L47.4285 69.048L47.0464 68.8381L45.5031 69.6317L45.8852 69.8416ZM48.9718 68.2544L50.5151 67.4608L50.133 67.2508L48.5897 68.0444L48.9718 68.2544ZM52.0584 66.6672L53.6017 65.8735L53.2196 65.6636L51.6763 66.4572L52.0584 66.6672ZM55.145 65.0799L56.6883 64.2863L56.3062 64.0763L54.7629 64.87L55.145 65.0799ZM58.2316 63.4927L59.7749 62.6991L59.3928 62.4891L57.8495 63.2827L58.2316 63.4927ZM61.3183 61.9054L62.8616 61.1118L62.4794 60.9019L60.9361 61.6955L61.3183 61.9054ZM64.4049 60.3182L65.9482 59.5246L65.566 59.3146L64.0227 60.1082L64.4049 60.3182ZM67.4915 58.731L69.0348 57.9373L68.6526 57.7274L67.1093 58.521L67.4915 58.731ZM70.5781 57.1437L72.1214 56.3501L71.7392 56.1401L70.1959 56.9338L70.5781 57.1437ZM73.6647 55.5565L75.208 54.7629L74.8258 54.5529L73.2825 55.3465L73.6647 55.5565ZM76.7513 53.9692L78.2946 53.1756L77.9124 52.9657L76.3691 53.7593L76.7513 53.9692ZM79.8379 52.382L81.3812 51.5884L80.999 51.3784L79.4557 52.172L79.8379 52.382ZM82.9245 50.7948L84.4678 50.0011L84.0856 49.7912L82.5424 50.5848L82.9245 50.7948ZM92.1843 46.0331L93.7276 45.2394L93.3455 45.0295L91.8022 45.8231L92.1843 46.0331ZM95.2709 44.4458L96.8142 43.6522L96.4321 43.4422L94.8888 44.2359L95.2709 44.4458ZM98.3575 42.8586L99.9008 42.065L99.5187 41.855L97.9754 42.6486L98.3575 42.8586ZM101.444 41.2713L102.987 40.4777L102.605 40.2678L101.062 41.0614L101.444 41.2713ZM37.072 75.3488L38.5742 76.1742L38.9619 75.9748L37.4598 75.1494L37.072 75.3488ZM54.4104 66.4329L55.9125 67.2582L56.3003 67.0588L54.7981 66.2335L54.4104 66.4329ZM71.7487 57.5169L73.2509 58.3422L73.6386 58.1428L72.1365 57.3175L71.7487 57.5169ZM40.0764 76.9995L41.5785 77.8249L41.9663 77.6255L40.4641 76.8002L40.0764 76.9995ZM57.4147 68.0836L58.9169 68.9089L59.3046 68.7095L57.8025 67.8842L57.4147 68.0836ZM74.7531 59.1676L76.2552 59.9929L76.643 59.7936L75.1408 58.9682L74.7531 59.1676ZM92.0914 50.2516L93.5936 51.077L93.9813 50.8776L92.4792 50.0522L92.0914 50.2516ZM43.0807 78.6503L44.5829 79.4756L44.9706 79.2762L43.4684 78.4509L43.0807 78.6503ZM60.419 69.7343L61.9212 70.5596L62.309 70.3602L60.8068 69.5349L60.419 69.7343ZM77.7574 60.8183L79.2596 61.6437L79.6473 61.4443L78.1452 60.6189L77.7574 60.8183ZM95.0958 51.9023L96.5979 52.7277L96.9857 52.5283L95.4835 51.7029L95.0958 51.9023ZM46.085 80.301L47.5872 81.1263L47.975 80.9269L46.4728 80.1016L46.085 80.301ZM63.4234 71.385L64.9256 72.2103L65.3133 72.0109L63.8111 71.1856L63.4234 71.385ZM80.7617 62.469L82.2639 63.2944L82.6517 63.095L81.1495 62.2696L80.7617 62.469ZM98.1001 53.553L99.6022 54.3784L99.99 54.179L98.4878 53.3536L98.1001 53.553ZM49.0894 81.9517L50.5915 82.777L50.9793 82.5776L49.4771 81.7523L49.0894 81.9517ZM66.4277 73.0357L67.9299 73.861L68.3176 73.6616L66.8155 72.8363L66.4277 73.0357ZM101.104 55.2037L102.607 56.0291L102.994 55.8297L101.492 55.0043L101.104 55.2037ZM52.0937 83.6024L53.5959 84.4277L53.9836 84.2283L52.4814 83.403L52.0937 83.6024ZM69.4321 74.6864L70.1986 75.1076L68.7635 75.8456L69.1456 76.0556L70.5808 75.3175L70.9342 75.5117L71.322 75.3124L69.8198 74.487L69.4321 74.6864ZM104.109 56.8544L105.611 57.6798L105.999 57.4804L104.497 56.655L104.109 56.8544ZM35.9646 93.1184L36.7362 92.7216L36.3541 92.5116L35.5824 92.9084L35.9646 93.1184ZM38.2795 91.928L39.8228 91.1343L39.4407 90.9244L37.8974 91.718L38.2795 91.928ZM41.3661 90.3407L42.9094 89.5471L42.5273 89.3371L40.984 90.1308L41.3661 90.3407ZM44.4527 88.7535L45.996 87.9599L45.6139 87.7499L44.0706 88.5435L44.4527 88.7535ZM47.5393 87.1662L49.0826 86.3726L48.7005 86.1627L47.1572 86.9563L47.5393 87.1662ZM50.6259 85.579L52.1692 84.7854L51.7871 84.5754L50.2438 85.369L50.6259 85.579ZM53.7125 83.9918L55.2559 83.1981L54.8737 82.9882L53.3304 83.7818L53.7125 83.9918ZM56.7992 82.4045L58.3425 81.6109L57.9603 81.4009L56.417 82.1946L56.7992 82.4045ZM59.8858 80.8173L61.4291 80.0237L61.0469 79.8137L59.5036 80.6073L59.8858 80.8173ZM62.9724 79.23L64.5157 78.4364L64.1335 78.2265L62.5902 79.0201L62.9724 79.23ZM66.059 77.6428L67.6023 76.8492L67.2202 76.6392L65.6769 77.4328L66.059 77.6428ZM72.2322 74.4683L73.7755 73.6747L73.3934 73.4647L71.8501 74.2584L72.2322 74.4683ZM75.3188 72.8811L76.8621 72.0875L76.48 71.8775L74.9367 72.6711L75.3188 72.8811ZM78.4054 71.2938L79.9487 70.5002L79.5666 70.2903L78.0233 71.0839L78.4054 71.2938ZM81.492 69.7066L83.0353 68.913L82.6532 68.703L81.1099 69.4966L81.492 69.7066ZM93.8384 63.3576L95.3817 62.564L94.9996 62.3541L93.4563 63.1477L93.8384 63.3576ZM96.925 61.7704L98.4683 60.9768L98.0862 60.7668L96.5429 61.5604L96.925 61.7704ZM100.012 60.1832L101.555 59.3895L101.173 59.1796L99.6295 59.9732L100.012 60.1832ZM103.098 58.5959L104.642 57.8023L104.259 57.5923L102.716 58.386L103.098 58.5959ZM106.185 57.0087L107.728 56.2151L107.346 56.0051L105.803 56.7987L106.185 57.0087ZM109.271 55.4214L110.815 54.6278L110.433 54.4179L108.889 55.2115L109.271 55.4214ZM112.358 53.8342L113.901 53.0406L113.519 52.8306L111.976 53.6243L112.358 53.8342ZM115.445 52.247L116.988 51.4534L116.606 51.2434L115.063 52.037L115.445 52.247ZM118.531 50.6597L120.075 49.8661L119.692 49.6562L118.149 50.4498L118.531 50.6597ZM55.098 85.2531L56.6002 86.0784L56.988 85.879L55.4858 85.0537L55.098 85.2531ZM72.4364 76.3371L73.9386 77.1625L74.3263 76.9631L72.8241 76.1377L72.4364 76.3371ZM107.113 58.5051L108.615 59.3305L109.003 59.1311L107.501 58.3058L107.113 58.5051ZM58.1024 86.9038L59.6045 87.7291L59.9923 87.5297L58.4901 86.7044L58.1024 86.9038ZM75.4407 77.9878L76.9429 78.8132L77.3306 78.6138L75.8285 77.7884L75.4407 77.9878ZM92.7791 69.0718L94.2812 69.8972L94.669 69.6978L93.1668 68.8724L92.7791 69.0718ZM110.117 60.1559L111.62 60.9812L112.007 60.7818L110.505 59.9565L110.117 60.1559ZM61.1067 88.5545L62.6089 89.3798L62.9966 89.1805L61.4945 88.3551L61.1067 88.5545ZM78.4451 79.6385L79.9472 80.4639L80.335 80.2645L79.8065 79.9741L78.8328 79.4391L78.4451 79.6385ZM95.7834 70.7225L97.2856 71.5479L97.6733 71.3485L96.1712 70.5231L95.7834 70.7225ZM113.122 61.8066L114.624 62.6319L115.012 62.4325L113.51 61.6072L113.122 61.8066ZM64.111 90.2052L65.6132 91.0305L66.001 90.8312L64.4988 90.0058L64.111 90.2052ZM81.4494 81.2892L82.9516 82.1146L83.3393 81.9152L81.8371 81.0898L81.4494 81.2892ZM98.7878 72.3732L100.29 73.1986L100.678 72.9992L99.1755 72.1738L98.7878 72.3732ZM116.126 63.4573L117.628 64.2826L118.016 64.0832L116.514 63.2579L116.126 63.4573ZM67.1154 91.8559L68.6175 92.6813L69.0053 92.4819L67.5031 91.6565L67.1154 91.8559ZM84.4537 82.9399L85.9559 83.7653L86.3436 83.5659L84.8415 82.7405L84.4537 82.9399ZM101.792 74.0239L103.294 74.8493L103.682 74.6499L102.18 73.8246L101.792 74.0239ZM119.13 65.108L120.633 65.9333L121.02 65.7339L119.518 64.9086L119.13 65.108ZM53.0517 102.507L53.821 102.111L53.4389 101.901L52.6696 102.297L53.0517 102.507ZM55.3595 101.32L56.8981 100.529L56.5159 100.319L54.9774 101.11L55.3595 101.32ZM58.4366 99.7377L59.9752 98.9465L59.593 98.7366L58.0545 99.5277L58.4366 99.7377ZM61.5137 98.1553L63.0522 97.3642L62.6701 97.1542L61.1316 97.9454L61.5137 98.1553ZM64.5908 96.573L66.1293 95.7818L65.7472 95.5719L64.2086 96.363L64.5908 96.573ZM67.6679 94.9907L69.2064 94.1995L68.8243 93.9895L67.2857 94.7807L67.6679 94.9907ZM70.7449 93.4083L72.2835 92.6171L71.9014 92.4072L70.3628 93.1984L70.7449 93.4083ZM73.822 91.826L75.3606 91.0348L74.9784 90.8249L73.4399 91.616L73.822 91.826ZM76.8991 90.2436L78.4376 89.4525L78.0555 89.2425L76.517 90.0337L76.8991 90.2436ZM79.9762 88.6613L81.5147 87.8701L81.1326 87.6602L79.5941 88.4513L79.9762 88.6613ZM83.0533 87.0789L84.5918 86.2878L84.2097 86.0778L82.6711 86.869L83.0533 87.0789ZM86.1304 85.4966L87.6679 84.7059L88.9602 85.416L89.348 85.2166L87.8458 84.3912L87.459 84.5901L87.2868 84.4955L85.7482 85.2867L86.1304 85.4966ZM89.2074 83.9143L90.746 83.1231L90.3638 82.9131L88.8253 83.7043L89.2074 83.9143ZM92.2845 82.3319L93.8231 81.5408L93.4409 81.3308L91.9024 82.122L92.2845 82.3319ZM95.3616 80.7496L96.9001 79.9584L96.518 79.7485L94.9795 80.5396L95.3616 80.7496ZM98.4387 79.1672L99.9772 78.3761L99.5951 78.1661L98.0565 78.9573L98.4387 79.1672ZM101.516 77.5849L103.054 76.7937L102.672 76.5838L101.134 77.3749L101.516 77.5849ZM104.593 76.0026L105.006 75.79L106.299 76.5L106.686 76.3006L105.394 75.5906L106.131 75.2114L105.749 75.0014L104.211 75.7926L104.593 76.0026ZM107.67 74.4202L109.208 73.6291L108.826 73.4191L107.288 74.2103L107.67 74.4202ZM110.747 72.8379L112.286 72.0467L111.903 71.8368L110.365 72.6279L110.747 72.8379ZM113.824 71.2555L115.363 70.4644L114.98 70.2544L113.442 71.0456L113.824 71.2555ZM116.901 69.6732L118.44 68.882L118.058 68.6721L116.519 69.4632L116.901 69.6732ZM119.978 68.0909L121.517 67.2997L121.135 67.0897L119.596 67.8809L119.978 68.0909ZM123.055 66.5085L124.594 65.7174L124.212 65.5074L122.673 66.2986L123.055 66.5085ZM126.132 64.9262L127.671 64.135L127.289 63.9251L125.75 64.7162L126.132 64.9262ZM129.209 63.3438L130.748 62.5527L130.366 62.3427L128.827 63.1339L129.209 63.3438ZM132.287 61.7615L133.825 60.9703L133.443 60.7604L131.904 61.5516L132.287 61.7615ZM135.364 60.1792L136.902 59.388L136.52 59.178L134.981 59.9692L135.364 60.1792ZM138.441 58.5968L139.21 58.2012L138.828 57.9913L138.059 58.3869L138.441 58.5968ZM70.1197 93.5066L71.6219 94.332L72.0096 94.1326L70.5075 93.3072L70.1197 93.5066ZM122.135 66.7587L123.637 67.584L124.025 67.3846L122.523 66.5593L122.135 66.7587ZM73.124 95.1573L74.6262 95.9827L75.014 95.7833L73.5118 94.9579L73.124 95.1573ZM90.4624 86.2413L91.9646 87.0667L92.3523 86.8673L90.8502 86.0419L90.4624 86.2413ZM107.801 77.3254L109.303 78.1507L109.691 77.9513L108.188 77.126L107.801 77.3254ZM125.139 68.4094L126.641 69.2347L127.029 69.0353L125.527 68.21L125.139 68.4094ZM76.1284 96.808L77.6305 97.6334L78.0183 97.434L76.5161 96.6086L76.1284 96.808ZM93.4667 87.892L94.9689 88.7174L95.3567 88.518L93.8545 87.6926L93.4667 87.892ZM110.805 78.9761L112.307 79.8014L112.695 79.602L111.193 78.7767L110.805 78.9761ZM128.143 70.0601L129.646 70.8854L130.033 70.686L128.531 69.8607L128.143 70.0601ZM79.1327 98.4587L80.6349 99.2841L81.0226 99.0847L79.5205 98.2593L79.1327 98.4587ZM96.4711 89.5428L97.9732 90.3681L98.361 90.1687L96.8588 89.3434L96.4711 89.5428ZM113.809 80.6268L115.312 81.4521L115.699 81.2527L114.197 80.4274L113.809 80.6268ZM131.148 71.7108L132.65 72.5361L133.038 72.3368L131.536 71.5114L131.148 71.7108ZM82.1371 100.109L83.6392 100.935L84.027 100.735L82.5248 99.91L82.1371 100.109ZM99.4754 91.1935L100.978 92.0188L101.365 91.8194L99.8632 90.9941L99.4754 91.1935ZM116.814 82.2775L118.316 83.1028L118.704 82.9034L117.202 82.0781L116.814 82.2775ZM134.152 73.3615L135.654 74.1869L136.042 73.9875L134.54 73.1621L134.152 73.3615ZM85.1414 101.76L86.6436 102.585L87.0313 102.386L85.5291 101.561L85.1414 101.76ZM102.48 92.8442L103.982 93.6695L104.37 93.4701L102.867 92.6448L102.48 92.8442ZM119.818 83.9282L121.32 84.7535L121.708 84.5541L120.206 83.7288L119.818 83.9282ZM137.156 75.0122L138.659 75.8376L139.046 75.6382L137.544 74.8128L137.156 75.0122ZM70.4018 112.04L71.1734 111.643L70.7913 111.433L70.0196 111.83L70.4018 112.04ZM72.7167 110.849L74.26 110.056L73.8779 109.846L72.3346 110.639L72.7167 110.849ZM75.8033 109.262L77.3466 108.468L76.9645 108.258L75.4212 109.052L75.8033 109.262ZM78.8899 107.675L80.4332 106.881L80.0511 106.671L78.5078 107.465L78.8899 107.675ZM81.9765 106.087L83.5198 105.294L83.1377 105.084L81.5944 105.878L81.9765 106.087ZM85.0631 104.5L86.6065 103.707L86.2243 103.497L84.681 104.29L85.0631 104.5ZM88.1498 102.913L89.6931 102.119L89.3109 101.909L87.7676 102.703L88.1498 102.913ZM91.2364 101.326L92.7797 100.532L92.3975 100.322L90.8542 101.116L91.2364 101.326ZM94.323 99.7385L95.8663 98.9449L95.4841 98.7349L93.9408 99.5285L94.323 99.7385ZM97.4096 98.1513L98.9529 97.3576L98.5708 97.1477L97.0274 97.9413L97.4096 98.1513ZM100.496 96.564L102.039 95.7704L101.657 95.5604L100.114 96.3541L100.496 96.564ZM103.583 94.9768L105.126 94.1832L104.744 93.9732L103.201 94.7668L103.583 94.9768ZM106.669 93.3895L108.213 92.5959L107.831 92.386L106.287 93.1796L106.669 93.3895ZM109.756 91.8023L111.299 91.0087L110.917 90.7987L109.374 91.5923L109.756 91.8023ZM112.843 90.2151L114.386 89.4214L114.004 89.2115L112.46 90.0051L112.843 90.2151ZM115.929 88.6278L117.473 87.8342L117.09 87.6242L115.547 88.4179L115.929 88.6278ZM119.016 87.0406L120.559 86.247L120.177 86.037L118.634 86.8306L119.016 87.0406ZM122.102 85.4533L123.646 84.6597L123.264 84.4498L121.72 85.2434L122.102 85.4533ZM125.189 83.8661L126.732 83.0725L126.35 82.8625L124.807 83.6561L125.189 83.8661ZM128.276 82.2789L129.819 81.4852L129.437 81.2753L127.894 82.0689L128.276 82.2789ZM131.362 80.6916L132.906 79.898L132.523 79.688L130.98 80.4817L131.362 80.6916ZM134.449 79.1044L135.992 78.3108L135.61 78.1008L134.067 78.8944L134.449 79.1044ZM137.535 77.5172L139.079 76.7235L138.697 76.5136L137.153 77.3072L137.535 77.5172ZM140.622 75.9299L142.165 75.1363L141.783 74.9263L140.24 75.72L140.622 75.9299ZM143.709 74.3427L145.252 73.5491L144.87 73.3391L143.327 74.1327L143.709 74.3427ZM146.795 72.7554L148.339 71.9618L147.956 71.7519L146.413 72.5455L146.795 72.7554ZM149.882 71.1682L151.425 70.3746L151.043 70.1646L149.5 70.9582L149.882 71.1682ZM152.968 69.581L154.512 68.7873L154.13 68.5774L152.586 69.371L152.968 69.581ZM88.1457 103.411L89.6479 104.236L90.0356 104.037L88.5335 103.211L88.1457 103.411ZM105.484 94.4949L106.986 95.3202L107.374 95.1208L105.872 94.2955L105.484 94.4949ZM122.822 85.5789L124.325 86.4042L124.712 86.2048L123.21 85.3795L122.822 85.5789ZM140.161 76.6629L141.663 77.4883L142.051 77.2889L140.549 76.4635L140.161 76.6629ZM91.1501 105.062L92.6522 105.887L93.04 105.688L91.5378 104.862L91.1501 105.062ZM108.488 96.1456L109.991 96.9709L110.378 96.7715L108.876 95.9462L108.488 96.1456ZM125.827 87.2296L127.329 88.0549L127.717 87.8556L126.215 87.0302L125.827 87.2296ZM143.165 78.3136L144.667 79.139L145.055 78.9396L143.553 78.1142L143.165 78.3136ZM94.1544 106.712L95.6566 107.538L96.0443 107.338L94.5421 106.513L94.1544 106.712ZM111.493 97.7963L112.995 98.6216L113.383 98.4222L111.881 97.5969L111.493 97.7963ZM128.831 88.8803L130.333 89.7057L130.721 89.5063L129.219 88.6809L128.831 88.8803ZM146.169 79.9643L147.672 80.7897L148.059 80.5903L146.557 79.7649L146.169 79.9643ZM97.1587 108.363L98.6609 109.188L99.0486 108.989L97.5465 108.164L97.1587 108.363ZM114.497 99.447L115.999 100.272L116.387 100.073L114.885 99.2476L114.497 99.447ZM131.835 90.531L133.338 91.3564L133.725 91.157L132.223 90.3316L131.835 90.531ZM149.174 81.615L150.676 82.4404L151.064 82.241L149.562 81.4156L149.174 81.615ZM100.163 110.014L101.665 110.839L102.053 110.64L100.551 109.814L100.163 110.014ZM117.501 101.098L119.004 101.923L119.391 101.724L117.889 100.898L117.501 101.098ZM134.84 92.1817L136.342 93.0071L136.73 92.8077L135.228 91.9823L134.84 92.1817ZM152.178 83.2657L153.68 84.0911L154.068 83.8917L152.566 83.0663L152.178 83.2657ZM103.167 111.664L103.919 112.077L104.306 111.878L103.555 111.465L103.167 111.664ZM120.506 102.748L121.257 103.161L121.645 102.962L120.893 102.549L120.506 102.748ZM137.844 93.8324L138.595 94.2451L138.983 94.0457L138.232 93.633L137.844 93.8324ZM155.182 84.9164L155.934 85.3291L156.321 85.1297L155.57 84.717L155.182 84.9164Z" fill="#C8C8C8"/>
<path fill-rule="evenodd" clip-rule="evenodd" d="M85.0519 40.6232C80.4037 40.2316 76.4539 38.8215 73.7192 37.1617L73.1642 37.3301L1 74.4394L86.8968 121.635L174.056 76.8142L102.139 37.2998L101.595 37.1262C98.858 38.8014 94.8851 40.2288 90.2038 40.6232C89.3667 40.6938 88.507 40.7313 87.6279 40.7313C86.7487 40.7313 85.889 40.6938 85.0519 40.6232ZM104.92 39.0773L105.302 39.2873L105.069 39.4073L121.774 48.5857L122.007 48.4657L122.39 48.6757L122.156 48.7957L156.211 67.507L156.445 67.3869L156.827 67.5969L156.593 67.7169L173.128 76.8015L86.9035 121.141L1.92865 74.4522L73.5977 37.5975C76.3482 39.2426 80.2485 40.6254 84.8156 41.0402V45.8415L84.9683 45.9255L84.8156 46.004V64.2839V64.6964V75.7612L87.6279 76.3875L90.4402 75.7612V67.8091V67.3743V64.7736L90.3697 64.7349L90.4402 64.6987V41.0402C95.0382 40.6226 98.9604 39.2238 101.714 37.5639L104.687 39.1973L104.92 39.0773ZM85.2516 75.4116L87.6279 75.9408L90.0042 75.4116V67.5811V41.0767C89.2298 41.136 88.4369 41.1673 87.6279 41.1673C86.8188 41.1673 86.026 41.136 85.2516 41.0767V64.5235V64.9359V75.4116Z" fill="#6F6F6F"/>
<path fill-rule="evenodd" clip-rule="evenodd" d="M71.0136 5.76165C70.111 6.65825 69.6509 7.52813 69.6509 8.28017V11.7467L69.6776 15.5272C69.8009 16.2523 70.3503 17.1088 71.2968 17.9963C72.2446 18.885 73.5672 19.7827 75.1814 20.5849C78.4093 22.1889 82.7802 23.3994 87.5928 23.3994C92.5727 23.3994 97.0787 22.1443 100.335 20.4777C101.963 19.6442 103.271 18.7114 104.169 17.7879C105.073 16.8586 105.535 15.9668 105.535 15.2133V8.28017C105.535 7.52813 105.075 6.65825 104.172 5.76165C103.275 4.87039 101.967 3.98 100.339 3.18876C97.0826 1.60678 92.5753 0.436014 87.5928 0.436014C82.6103 0.436014 78.103 1.60678 74.8471 3.18876C73.2186 3.98 71.9108 4.87039 71.0136 5.76165ZM105.535 16.7157C105.281 17.1746 104.924 17.6373 104.482 18.0919C103.542 19.0583 102.191 20.0171 100.533 20.8658C97.2164 22.5637 92.6424 23.8354 87.5928 23.8354C82.71 23.8354 78.2729 22.608 74.9873 20.9753C73.3447 20.159 71.9843 19.2387 70.9986 18.3144C70.4172 17.7692 69.9578 17.2148 69.6509 16.6725V32.5462C69.6509 33.1713 69.9947 33.9263 70.6879 34.7364C71.377 35.5418 72.3919 36.3783 73.6841 37.1626C76.4188 38.8225 80.3687 40.2325 85.0168 40.6242C85.854 40.6948 86.7136 40.7323 87.5928 40.7323C88.472 40.7323 89.3316 40.6948 90.1688 40.6242C94.8501 40.2297 98.823 38.8024 101.56 37.1272C102.834 36.3471 103.834 35.517 104.513 34.7183C105.196 33.9149 105.535 33.1665 105.535 32.5462V16.7157ZM105.971 32.5462C105.971 33.3159 105.558 34.1624 104.845 35.0007C104.129 35.8436 103.09 36.7019 101.787 37.4991C98.9894 39.2117 94.9504 40.6588 90.2054 41.0587C89.3563 41.1303 88.4844 41.1683 87.5928 41.1683C86.7013 41.1683 85.8294 41.1303 84.9802 41.0587C80.2687 40.6617 76.2533 39.2321 73.4579 37.5354C72.1376 36.734 71.0834 35.8694 70.3566 35.0199C69.6338 34.1752 69.2148 33.3217 69.2148 32.5462V8.28017C69.2148 7.35699 69.771 6.38149 70.7063 5.45233C71.647 4.51782 72.9987 3.60208 74.6565 2.79659C77.9732 1.1851 82.5458 0 87.5928 0C92.6398 0 97.2125 1.1851 100.529 2.79659C102.187 3.60208 103.539 4.51782 104.479 5.45233C105.415 6.38149 105.971 7.35699 105.971 8.28017V32.5462Z" fill="#CA0001"/>
<path fill-rule="evenodd" clip-rule="evenodd" d="M72.5945 63.4783L81.2421 69.5448L80.9917 69.9017L72.3441 63.8352L72.5945 63.4783ZM103.726 64.7019L95.0783 70.7684L94.8279 70.4114L103.475 64.3449L103.726 64.7019ZM68.1455 74.7051H80.2522V75.1411H68.1455V74.7051ZM107.924 76.0078H95.8178V75.5718H107.924V76.0078ZM71.4793 86.011L80.1269 79.9445L80.3774 80.3015L71.7298 86.368L71.4793 86.011ZM104.34 87.2346L95.6926 81.1681L95.943 80.8112L104.591 86.8777L104.34 87.2346Z" fill="#CA0001"/>
</svg>
