<svg width="170" height="150" viewBox="0 0 170 150" fill="none" xmlns="http://www.w3.org/2000/svg">
<path d="M159.252 78.948L195.398 98.8081L97.7929 149L1.60156 96.1487L38.6025 77.1215" stroke="#6F6F6F"/>
<path d="M22.4617 86.3659L38.8036 95.8845L20.0836 106.103M117.173 138.404L98.7893 128.303M136.694 128.366L118.424 118.327L98.7893 128.303M138.284 108.289L156.215 118.327M176.992 107.743L159.26 98.0171L177.592 89.1229M59.4238 106.674L40.2311 117.053M59.4693 127.623L79.0036 117.432L98.7893 128.303M79.0036 138.356L98.7893 128.303" stroke="#C8C8C8" stroke-dasharray="4 4"/>
<line x1="98.9346" y1="64.4229" x2="98.9346" y2="107.002" stroke="#CA0001"/>
<rect x="0.882834" y="0.0141646" width="22.1507" height="45.0456" transform="matrix(0.890365 -0.455247 0.875302 0.483576 58.4098 43.0975)" stroke="#CA0001"/>
<line x1="58.8254" y1="42.6628" x2="58.8254" y2="63.9524" stroke="#CA0001"/>
<path d="M39.5061 74.0857L58.8301 64.2053L78.5247 75.0859L98.2194 85.9666L78.8954 95.847L59.2008 84.9663L39.5061 74.0857Z" stroke="#CA0001"/>
<line x1="59.3877" y1="85.2671" x2="59.3877" y2="106.557" stroke="#CA0001"/>
<line x1="39.1233" y1="74.1777" x2="39.1233" y2="95.4673" stroke="#CA0001"/>
<rect x="0.882834" y="0.0141646" width="22.3713" height="22.1507" transform="matrix(0.890365 -0.455247 0.875302 0.483576 118.431 54.7393)" stroke="#CA0001"/>
<line x1="159.253" y1="54.8704" x2="159.253" y2="97.9189" stroke="#CA0001"/>
<rect x="0.882834" y="0.0141646" width="22.1507" height="22.1507" transform="matrix(0.890365 -0.455247 0.875302 0.483576 98.519 22.3494)" stroke="#CA0001"/>
<line x1="119.201" y1="33.1357" x2="119.201" y2="75.7144" stroke="#CA0001"/>
<line x1="139.597" y1="22.4905" x2="139.597" y2="43.78" stroke="#CA0001"/>
<line x1="98.9346" y1="22.0452" x2="98.9346" y2="43.3347" stroke="#CA0001"/>
<rect x="0.882834" y="0.0141646" width="22.1507" height="22.5605" transform="matrix(0.890365 -0.455247 0.875302 0.483576 78.6327 11.2786)" stroke="#CA0001"/>
<line x1="79.0483" y1="10.9753" x2="79.0483" y2="32.2649" stroke="#CA0001"/>
<path d="M38.5664 95.6543L78.3741 117.647L98.9867 107.107" stroke="#CA0001"/>
<line x1="79.0901" y1="96.3577" x2="79.0901" y2="117.647" stroke="#CA0001"/>
<path d="M98.9858 106.896L119.25 118.091L159.048 97.7419" stroke="#CA0001"/>
<rect x="0.882834" y="0.0141646" width="22.2766" height="22.066" transform="matrix(0.890365 -0.455247 0.875302 0.483576 98.3525 86.4104)" stroke="#CA0001"/>
<line x1="119.201" y1="96.8018" x2="119.201" y2="118.091" stroke="#CA0001"/>
<line x1="139.091" y1="65.0793" x2="139.091" y2="107.96" stroke="#CA0001"/>
</svg>
