<svg width="64" height="83" viewBox="0 0 64 83" fill="none" xmlns="http://www.w3.org/2000/svg"><path d="M35.5 34l5-3.5m-13 3l-5-3.5M36 40l5 3.5m-14-4L22 43m14-6h7m-16-.5h-7m22 19.151c0 1.933-4.701 4.849-10.5 4.849-5.606 0-10.186-2.813-10.485-4.657M42 55.651v10c0 1.818-4.462 4.849-10.5 4.849S21 67.469 21 65.651V55.99m21-.338v-.593m-21 .593v-2m0 2c0 .065.005.129.015.192M21 55.651v.337m0-2.337v-2c0-1.763 3.912-4.18 9-4.59m-9 6.59l.015 2.192M30 47.06v-9.433L31.5 37l1.5.627v9.433m-3 0v5.626l1.5.314 1.5-.314V47.06m0 0c5.088.411 9 2.828 9 4.591v3.407m0 0l20 10.75L31.804 82 2 65.807l19-9.819M42 9.651c0 1.933-4.701 4.849-10.5 4.849-5.606 0-10.186-2.813-10.485-4.657M42 9.651v-4C42 3.718 37.299 1 31.5 1S21 3.718 21 5.651v2m21 2v10c0 1.664-3.737 4.344-9 4.786M21 9.651v-2m0 2c0 .065.005.129.015.192M21 9.651v10c0 1.664 3.738 4.344 9 4.786M21 7.651l.015 2.192M33 24.437a17.9 17.9 0 01-3 0m3 0v9.23L31.5 34l-1.5-.333v-9.23" stroke="#fff"/></svg>