<svg width="190" height="170" viewBox="0 0 190 170" fill="none" xmlns="http://www.w3.org/2000/svg"><path d="M1 117.818L94.153 169l94.522-48.606" stroke="#6F6F6F"/><path stroke="#C8C8C8" stroke-dasharray="4 4" d="M1.5 82.523v34.228m93.653 16.638v34.228m94.13-82.717v34.229"/><path fill-rule="evenodd" clip-rule="evenodd" d="M22.314 72.255l-.82-.45.424-.217.819.45-.423.217zm18.904-9.721l-.819-.45.423-.218.82.45-.424.218zm18.905-9.721l-.82-.45.424-.218.819.45-.423.218zm18.904-9.722l-.819-.45.423-.217.819.45-.423.217zM25.59 74.055l-1.638-.9.422-.217 1.638.9-.422.217zm18.904-9.721l-1.638-.9.423-.218 1.638.9-.423.218zm18.904-9.722l-1.637-.9.422-.217 1.638.9-.423.217zm18.905-9.721l-1.638-.9.423-.217 1.638.9-.423.217zM28.865 75.855l-1.638-.9.423-.218 1.638.9-.423.218zm18.905-9.722l-1.638-.9.423-.217 1.638.9-.423.217zm18.904-9.72l-1.638-.9.423-.218 1.638.9-.423.217zM85.58 46.69l-1.638-.9.422-.217 1.638.9-.422.217zM32.14 77.654l-1.638-.9.423-.217 1.638.9-.423.218zm18.904-9.72l-1.638-.9.423-.218 1.638.9-.423.217zm18.905-9.722l-1.638-.9.423-.217 1.638.9-.423.217zm18.904-9.721l-1.638-.9.423-.218 1.638.9-.423.218zM35.417 79.454l-1.638-.9.423-.217 1.637.9-.422.217zm18.904-9.721l-1.638-.9.423-.217 1.638.9-.423.217zm18.904-9.721l-1.637-.9.422-.218 1.638.9-.422.218zM92.13 50.29l-1.638-.9.423-.217 1.471.808.167.092-.167.086-.256.131zM38.692 81.254l-1.638-.9.423-.217 1.638.9-.423.217zm18.905-9.721l-1.638-.9.423-.218 1.638.9-.423.218zM76.5 61.812l-1.638-.9.423-.218 1.638.9-.423.218zM21.333 90.86l-.84.432-.417-.229.84-.432.418.229zm3.366-1.731l-1.683.865-.416-.229 1.682-.865.417.229zm3.365-1.73l-1.682.865-.417-.23 1.683-.865.416.23zm3.366-1.731l-1.683.865-.417-.229 1.683-.865.417.229zm3.365-1.73l-1.683.864-.416-.229 1.683-.865.416.23zm3.365-1.731l-1.682.865-.417-.23 1.683-.864.416.229zm3.366-1.731l-1.683.865-.416-.229 1.682-.865.417.229zm3.365-1.73l-1.682.865-.417-.23 1.683-.865.416.23zm3.366-1.731l-1.683.865-.417-.229 1.683-.865.417.229zm3.365-1.73l-1.682.864-.417-.228 1.682-.866.417.23zm3.366-1.731l-1.683.865-.417-.23 1.683-.864.417.228zm3.365-1.731l-1.683.865-.416-.229 1.682-.865.417.229zm3.365-1.73l-1.682.865-.417-.23 1.683-.865.416.23zm3.366-1.731l-1.683.865-.417-.229 1.683-.865.417.229zm3.365-1.73l-1.683.864-.416-.228 1.683-.866.416.23zm3.366-1.732l-1.683.866-.417-.23 1.683-.864.417.228zm3.365-1.73l-1.683.865-.416-.229 1.682-.865.417.229zm3.365-1.73l-1.682.865-.417-.23 1.683-.865.416.23zm3.366-1.731l-1.683.865-.417-.229 1.683-.865.417.229zm3.365-1.73l-1.682.864-.417-.229 1.682-.865.417.23zm3.366-1.731l-1.683.865-.417-.23 1.683-.864.417.229zm3.365-1.731l-1.683.865-.416-.229 1.682-.865.417.229zm10.096-5.192l-1.683.865-.416-.229 1.683-.865.416.229zm3.366-1.73l-1.683.865-.417-.23 1.683-.864.417.228zm3.365-1.731l-1.683.865-.416-.229 1.682-.865.417.229zm3.365-1.73l-1.682.864-.417-.228 1.683-.866.416.23zm2.524-1.299l-.254.131-.587.302-.417-.229.587-.302.255-.13.416.228zM41.968 83.054l-1.638-.9.423-.217 1.638.9-.423.217zm18.904-9.721l-1.637-.9.422-.218 1.638.9-.422.218zm18.905-9.722l-1.638-.9.423-.217 1.638.9-.423.217zM45.244 84.854l-1.638-.9.423-.217 1.637.9-.422.217zm18.904-9.722l-1.638-.9.423-.217 1.638.9-.423.217zm18.905-9.72l-1.638-.9.423-.218 1.637.9-.422.217zm18.904-9.722l-1.638-.9.423-.218 1.638.9-.423.218zM48.52 86.654l-1.638-.9.422-.218 1.638.9-.422.218zm18.904-9.722l-1.638-.9.423-.217 1.638.9-.423.217zm18.904-9.721l-1.638-.9.423-.217 1.638.9-.423.217zm18.905-9.721l-1.638-.9.423-.218 1.638.9-.423.218zM51.795 88.453l-1.638-.9.423-.217 1.638.9-.423.217zm18.905-9.72l-1.638-.9.422-.218 1.638.9-.422.217zm18.904-9.722l-1.638-.9.423-.218 1.638.9-.423.218zm18.904-9.721l-1.637-.9.422-.218 1.638.9-.423.217zM55.071 90.252l-1.638-.9.423-.217 1.638.9-.423.217zm18.904-9.721l-1.637-.9.422-.217 1.638.9-.423.217zm37.809-19.443l-1.638-.9.423-.217 1.638.9-.423.217zM58.347 92.053l-1.638-.9.422-.217 1.638.9-.422.217zm18.102-10.162l-.836-.46.423-.217 1.638.9-.423.218-.385-.212-1.565.805-.417-.23 1.565-.804zm38.611-19.002l-1.638-.9.423-.217 1.638.9-.423.217zm-75.096 38.207l-.841.433-.417-.229.841-.433.417.229zm3.366-1.73l-1.683.865-.417-.229 1.683-.865.417.228zm3.365-1.731l-1.683.865-.416-.229 1.682-.865.417.229zm3.365-1.73l-1.682.864-.417-.229 1.683-.865.416.23zm3.366-1.731l-1.683.865-.417-.23 1.683-.864.417.229zm3.365-1.731l-1.683.865-.416-.229 1.682-.865.417.229zm3.366-1.73l-1.683.865-.417-.23 1.683-.865.416.23zm3.365-1.731l-1.683.865-.416-.229 1.682-.865.417.229zm3.365-1.73l-1.682.864-.417-.228 1.683-.866.416.23zm3.366-1.731l-1.683.865-.417-.23 1.683-.864.417.228zm3.365-1.731l-1.683.865-.416-.229 1.682-.865.417.229zm6.73-3.461l-1.682.865-.416-.229 1.682-.865.417.229zm3.366-1.73l-1.682.864-.417-.228 1.683-.866.416.23zm3.366-1.731l-1.683.865-.417-.23 1.683-.864.417.229zm3.365-1.731l-1.683.865-.416-.229 1.682-.865.417.229zm10.096-5.192l-1.682.865-.34-.186-.077-.043.077-.04 1.606-.825.416.23zm3.366-1.73l-1.683.865-.417-.23 1.683-.864.417.228zm3.365-1.731l-1.683.865-.416-.229 1.682-.865.417.229zm3.366-1.73l-1.683.865-.417-.23 1.683-.865.417.23zm3.365-1.731l-1.683.865-.416-.229 1.682-.865.417.229zm3.365-1.731l-1.682.865-.417-.229 1.683-.865.416.229zm3.366-1.73l-1.683.865-.417-.23 1.683-.864.417.228zm3.365-1.731l-1.683.865-.416-.229 1.682-.865.417.229zm3.366-1.73l-1.683.864-.417-.228 1.683-.866.417.23zm3.365-1.731l-1.683.865-.416-.229 1.682-.865.417.229zm2.524-1.298l-.254.13-.587.302-.417-.229.587-.301.254-.131.417.229zm-71.732 40.78l-1.638-.9.423-.216 1.638.9-.423.217zm18.905-9.72l-1.638-.9.423-.218 1.638.9-.423.218zm37.809-19.443l-1.638-.9.422-.217 1.638.9-.422.217zM64.898 95.653l-1.638-.9.423-.218 1.638.9-.423.218zm18.904-9.722l-1.637-.9.422-.217 1.638.9-.423.217zm18.905-9.721l-1.638-.9.423-.217 1.638.9-.423.217zm18.904-9.721l-1.638-.9.423-.218 1.638.9-.423.218zM68.174 97.452l-1.638-.9.423-.217 1.638.9-.423.217zm18.904-9.72l-1.638-.9.423-.218 1.062.583.576.317-.423.217zm18.905-9.722l-1.638-.9.422-.218 1.638.9-.422.218zm18.904-9.722l-1.638-.9.423-.217 1.638.9-.423.218zM71.449 99.252l-1.638-.9.423-.217 1.638.9-.423.217zm18.905-9.721l-1.638-.9.423-.217 1.638.9-.423.217zm18.904-9.721l-1.638-.9.423-.218 1.638.9-.423.218zm18.905-9.722l-1.638-.9.423-.217 1.637.9-.422.217zm-53.438 30.964l-1.638-.9.423-.217 1.638.9-.423.217zm18.904-9.721l-1.637-.9.422-.218 1.638.9-.423.218zm18.905-9.722l-1.638-.9.423-.217 1.638.9-.423.217zm18.904-9.72l-1.637-.9.422-.218 1.638.9-.423.217zm-72.846 39.445l-.839.431-.416-.229.838-.431.417.229zm3.355-1.726l-1.678.863-.416-.229 1.677-.862.417.228zm3.355-1.725l-1.677.863-.417-.229 1.677-.863.417.229zm3.355-1.725l-1.677.863-.417-.229 1.677-.863.417.229zm3.355-1.725l-1.677.862-.417-.229 1.677-.862.417.229zm3.355-1.726l-1.677.863-.417-.229 1.678-.863.416.229zm3.355-1.725l-1.677.863-.417-.229 1.677-.863.417.229zm3.355-1.725l-1.677.862-.417-.228 1.677-.863.417.229zm3.355-1.725l-1.677.862-.417-.229 1.678-.862.416.229zm3.355-1.726l-1.677.863-.417-.229 1.678-.863.416.23zm3.355-1.725l-1.677.863-.417-.23 1.678-.862.416.23zm3.354-1.725l-1.676.862-.417-.228 1.678-.863.187.103.422-.217 1.638.9-.423.218-1.409-.775zm3.356-1.725l-1.677.862-.417-.229 1.678-.862.416.228zm3.355-1.726l-1.677.863-.417-.229 1.678-.863.416.23zm3.355-1.725l-1.677.863-.417-.23 1.678-.862.416.229zm3.355-1.725l-1.677.862-.417-.229 1.678-.862.416.229zm3.355-1.725l-1.677.862-.417-.229 1.678-.862.416.228zm2.129-1.095l-.451.232-.417-.23 1.678-.862.416.23-.804.413 1.409.774-.422.217-1.409-.774zm4.581-2.356l-1.677.863-.417-.23 1.678-.862.416.229zm3.355-1.725l-1.677.862-.417-.229 1.678-.862.416.229zm3.355-1.726l-1.677.863-.417-.229 1.678-.862.416.228zm3.355-1.725l-1.677.863-.417-.23 1.678-.862.416.23zm3.355-1.725l-1.677.862-.417-.228 1.678-.863.416.229zm3.355-1.725l-1.677.862-.417-.229 1.678-.862.416.229zm3.355-1.726l-1.677.863-.417-.229 1.678-.863.416.23zm3.355-1.725l-1.677.863-.417-.23 1.678-.862.416.23zm3.355-1.725l-1.677.862-.417-.228 1.678-.863.416.229zm3.355-1.725l-1.677.862-.417-.229 1.678-.862.416.229zm2.517-1.294l-.839.43-.417-.228.839-.431.417.229zm-73.693 39.394l-1.638-.9.423-.217 1.638.899-.423.218zm56.713-29.164l-1.638-.9.423-.217 1.638.9-.423.217zm-53.438 30.964l-1.637-.9.422-.218 1.638.9-.422.218zm18.905-9.722l-1.638-.9.423-.217 1.638.9-.423.217zm18.904-9.721l-1.638-.9.423-.217 1.638.9-.423.217zm18.905-9.721l-1.638-.9.423-.218 1.638.9-.423.218zM84.552 106.45l-1.638-.899.423-.218 1.638.9-.423.217zm18.905-9.72l-1.638-.9.423-.218 1.637.9-.422.217zm18.904-9.722l-1.638-.9.423-.218 1.638.9-.423.218zm18.904-9.722l-1.637-.9.422-.217 1.638.9-.423.218zM87.828 108.25l-1.638-.9.423-.217 1.638.9-.423.217zm18.904-9.721l-1.638-.9.423-.217 1.638.9-.423.217zm18.905-9.721l-1.638-.9.423-.218 1.638.9-.423.218zm18.904-9.722l-1.638-.9.423-.217 1.638.9-.423.217zM91.104 110.05l-1.638-.9.422-.217 1.638.9-.422.217zm18.904-9.721l-1.638-.9.423-.218 1.638.9-.423.218zm18.904-9.722l-1.637-.9.422-.217 1.638.9-.423.217zm18.905-9.72l-1.638-.9.423-.218 1.638.9-.423.217zM94.379 111.85l-1.638-.9.423-.217 1.638.899-.423.218zm18.905-9.721l-1.638-.9.423-.218 1.637.9-.422.218zm18.904-9.722l-1.638-.9.423-.217 1.638.9-.423.217zm18.905-9.721l-1.638-.9.423-.217 1.637.9-.422.217zm-73.581 39.039l-.841.433-.417-.229.841-.433.417.229zm3.365-1.73l-1.682.865-.417-.229 1.683-.865.416.229zm3.366-1.731l-1.683.865-.417-.229 1.683-.865.417.229zm3.365-1.731l-1.683.866-.416-.229 1.682-.865.417.228zm3.365-1.73l-1.682.865-.417-.229 1.683-.865.416.229zm3.366-1.731l-1.683.866-.416-.229 1.682-.866.417.229zm3.365-1.73l-1.682.865-.417-.229 1.683-.865.416.229zm3.366-1.731l-1.683.865-.417-.229 1.683-.865.417.229zm3.365-1.731l-1.683.866-.416-.229 1.682-.866.417.229zm3.365-1.73l-1.682.865-.417-.229 1.683-.865.416.229zm3.366-1.731l-1.683.865-.416-.228 1.682-.866.417.229zm3.365-1.73l-1.682.865-.417-.229 1.683-.865.416.229zm3.366-1.731l-1.683.865-.417-.229 1.683-.865.417.229zm3.365-1.73l-1.683.865-.416-.23 1.682-.865.417.23zm3.365-1.731l-1.682.865-.417-.229 1.683-.865.416.229zm3.366-1.73l-1.683.864-.416-.229 1.682-.865.417.23zm3.365-1.731l-1.682.865-.417-.23 1.683-.864.416.229zm3.366-1.731l-1.683.865-.417-.229 1.683-.865.417.229zm3.365-1.73l-1.683.865-.416-.23 1.682-.865.417.23zm3.365-1.731l-1.682.865-.417-.229 1.683-.865.416.229zm3.366-1.73l-1.683.864-.416-.228 1.682-.866.417.23zm3.365-1.731l-1.682.865-.417-.23 1.683-.864.416.228zm3.366-1.731l-1.683.865-.417-.229 1.683-.865.417.229zm3.365-1.73l-1.683.865-.416-.23 1.682-.865.417.23zm3.365-1.731l-1.682.865-.417-.229 1.683-.865.416.229zm3.366-1.73l-1.683.864-.416-.228 1.682-.866.417.23zm3.365-1.731l-1.682.865-.417-.23 1.683-.864.416.229zm3.366-1.73l-1.683.865-.417-.229 1.683-.865.417.229zm2.524-1.298l-.255.13-.587.303-.416-.23.587-.301.254-.131.417.229zM97.655 113.65l-1.638-.9.423-.218 1.638.9-.423.218zm18.904-9.722l-1.637-.9.422-.217 1.638.9-.423.217zm18.905-9.721l-1.638-.9.423-.217 1.638.9-.423.217zm18.904-9.721l-1.638-.9.423-.218 1.638.9-.423.218zm-53.437 30.963l-1.638-.899.423-.218 1.637.9-.422.217zm18.904-9.721l-1.638-.9.423-.217 1.638.9-.423.217zm18.905-9.721l-1.638-.9.422-.218 1.638.9-.422.218zm18.904-9.721l-1.638-.9.423-.218 1.638.9-.423.218zm-53.438 30.963l-1.637-.9.422-.217 1.638.9-.423.217zm18.905-9.721l-1.638-.9.423-.217 1.638.9-.423.217zm18.904-9.721l-1.638-.9.423-.218 1.638.9-.423.218zm18.905-9.722l-1.638-.9.423-.217 1.637.9-.422.217zm-53.438 30.964l-1.638-.9.423-.217 1.638.9-.423.217zm18.905-9.721l-1.638-.9.422-.218 1.638.9-.422.218zm18.904-9.721l-1.638-.9.423-.218 1.638.9-.423.218zm18.904-9.722l-1.637-.9.422-.217 1.638.9-.423.217zm-53.437 30.964l-1.638-.9.423-.217 1.638.899-.423.218zm18.904-9.721l-1.638-.9.423-.218 1.638.9-.423.218zm18.905-9.722l-1.638-.9.423-.217 1.637.9-.422.217zm18.904-9.721l-1.638-.9.423-.217 1.638.9-.423.217zM113.215 122.2l-.819-.45.422-.218.819.45-.422.218zm18.904-9.722l-.819-.45.423-.217.819.45-.423.217zm18.904-9.721l-.819-.45.423-.217.819.45-.423.217zm18.905-9.721l-.819-.45.423-.218.819.45-.423.218z" fill="#6F6F6F"/><path fill-rule="evenodd" clip-rule="evenodd" d="M90.915 49.173l1.471.808v.178l-.256.131-1.638-.9.423-.217zm.75 20.52l.721.397v.45l-1.144-.63.423-.217zm7.766 4.717l-.912-.477v-.474l1.335.734-.423.217zm-.572-3.6l-.34-.186v-.082l1.606-.826.416.23-1.682.864zm14.606-27.771l.587-.302.417.23-.587.3-.417-.228zm18.631 10.236l.587-.301.417.229-.587.301-.417-.229zm37.548 20.63l.587-.301.416.229-.587.302-.416-.23zm-147.33-1.65l-.82-.45.424-.217.819.45-.423.217zm18.904-9.721l-.819-.45.423-.218.82.45-.424.218zm18.905-9.721l-.82-.45.424-.218.819.45-.423.218zm18.904-9.722l-.819-.45.423-.217.819.45-.423.217zM25.59 74.055l-1.638-.9.422-.217 1.638.9-.422.217zm18.904-9.721l-1.638-.9.423-.218 1.638.9-.423.218zm18.904-9.722l-1.637-.9.422-.217 1.638.9-.423.217zm18.905-9.721l-1.638-.9.423-.217 1.638.9-.423.217zM28.865 75.855l-1.638-.9.423-.218 1.638.9-.423.218zm18.905-9.722l-1.638-.9.423-.217 1.638.9-.423.217zm18.904-9.72l-1.638-.9.423-.218 1.638.9-.423.217zM85.58 46.69l-1.638-.9.422-.217 1.638.9-.422.217zM32.14 77.654l-1.638-.9.423-.217 1.638.9-.423.218zm18.904-9.72l-1.638-.9.423-.218 1.638.9-.423.217zm18.905-9.722l-1.638-.9.423-.217 1.638.9-.423.217zm18.904-9.721l-1.638-.9.423-.218 1.638.9-.423.218zM35.417 79.454l-1.638-.9.423-.217 1.637.9-.422.217zm18.904-9.721l-1.638-.9.423-.217 1.638.9-.423.217zm18.904-9.721l-1.637-.9.422-.218 1.638.9-.422.218zM38.692 81.254l-1.638-.9.423-.217 1.638.9-.423.217zm18.905-9.721l-1.638-.9.423-.218 1.638.9-.423.218zM76.5 61.812l-1.638-.9.423-.218 1.638.9-.423.218zM21.333 90.86l-.84.432-.417-.229.84-.432.418.229zm3.366-1.731l-1.683.865-.416-.229 1.682-.865.417.229zm3.365-1.73l-1.682.865-.417-.23 1.683-.865.416.23zm3.366-1.731l-1.683.865-.417-.229 1.683-.865.417.229zm3.365-1.73l-1.683.864-.416-.229 1.683-.865.416.23zm3.365-1.731l-1.682.865-.417-.23 1.683-.864.416.229zm3.366-1.731l-1.683.865-.416-.229 1.682-.865.417.229zm3.365-1.73l-1.682.865-.417-.23 1.683-.865.416.23zm3.366-1.731l-1.683.865-.417-.229 1.683-.865.417.229zm3.365-1.73l-1.682.864-.417-.228 1.682-.866.417.23zm3.366-1.731l-1.683.865-.417-.23 1.683-.864.417.228zm3.365-1.731l-1.683.865-.416-.229 1.682-.865.417.229zm3.365-1.73l-1.682.865-.417-.23 1.683-.865.416.23zm3.366-1.731l-1.683.865-.417-.229 1.683-.865.417.229zm3.365-1.73l-1.683.864-.416-.228 1.683-.866.416.23zm3.366-1.732l-1.683.866-.417-.23 1.683-.864.417.228zm3.365-1.73l-1.683.865-.416-.229 1.682-.865.417.229zm3.365-1.73l-1.682.865-.417-.23 1.683-.865.416.23zm3.366-1.731l-1.683.865-.417-.229 1.683-.865.417.229zm3.365-1.73l-1.682.864-.417-.229 1.682-.865.417.23zm3.366-1.731l-1.683.865-.417-.23 1.683-.864.417.229zm3.365-1.731l-1.683.865-.416-.229 1.682-.865.417.229zm10.096-5.192l-1.683.865-.416-.229 1.683-.865.416.229zm3.366-1.73l-1.683.865-.417-.23 1.683-.864.417.228zm3.365-1.731l-1.683.865-.416-.229 1.682-.865.417.229zm3.365-1.73l-1.682.864-.417-.228 1.683-.866.416.23zm-70.23 38.92l-1.639-.9.423-.217 1.638.9-.423.217zm18.904-9.721l-1.638-.9.422-.218 1.638.9-.422.218zm18.904-9.722l-1.638-.9.423-.217 1.638.9-.423.217zM45.244 84.854l-1.638-.9.423-.217 1.637.9-.422.217zm18.904-9.722l-1.638-.9.423-.217 1.638.9-.423.217zm18.905-9.72l-1.638-.9.423-.218 1.637.9-.422.217zm18.904-9.722l-1.638-.9.423-.218 1.638.9-.423.218zM48.52 86.654l-1.638-.9.422-.218 1.638.9-.422.218zm18.904-9.722l-1.638-.9.423-.217 1.638.9-.423.217zm18.904-9.721l-1.638-.9.423-.217 1.638.9-.423.217zm18.905-9.721l-1.638-.9.423-.218 1.638.9-.423.218zM51.795 88.453l-1.638-.9.423-.217 1.638.9-.423.217zm18.905-9.72l-1.638-.9.422-.218 1.638.9-.422.217zm18.904-9.722l-1.638-.9.423-.218 1.638.9-.423.218zm18.904-9.721l-1.637-.9.422-.218 1.638.9-.423.217zM55.071 90.252l-1.638-.9.423-.217 1.638.9-.423.217zm18.904-9.721l-1.637-.9.422-.217 1.638.9-.423.217zm37.809-19.443l-1.638-.9.423-.217 1.638.9-.423.217zM58.347 92.053l-1.638-.9.422-.217 1.638.9-.422.217zm18.102-10.162l-.836-.46.423-.217 1.638.9-.423.218-.385-.212-1.565.805-.417-.23 1.565-.804zm38.611-19.002l-1.638-.9.423-.217 1.638.9-.423.217zm-75.096 38.207l-.841.433-.417-.229.841-.433.417.229zm3.366-1.73l-1.683.865-.417-.229 1.683-.865.417.228zm3.365-1.731l-1.683.865-.416-.229 1.682-.865.417.229zm3.365-1.73l-1.682.864-.417-.229 1.683-.865.416.23zm3.366-1.731l-1.683.865-.417-.23 1.683-.864.417.229zm3.365-1.731l-1.683.865-.416-.229 1.682-.865.417.229zm3.366-1.73l-1.683.865-.417-.23 1.683-.865.416.23zm3.365-1.731l-1.683.865-.416-.229 1.682-.865.417.229zm3.365-1.73l-1.682.864-.417-.228 1.683-.866.416.23zm3.366-1.731l-1.683.865-.417-.23 1.683-.864.417.228zm3.365-1.731l-1.683.865-.416-.229 1.682-.865.417.229zm6.73-3.461l-1.682.865-.416-.229 1.682-.865.417.229zm3.366-1.73l-1.682.864-.417-.228 1.683-.866.416.23zm3.366-1.731l-1.683.865-.417-.23 1.683-.864.417.229zm3.365-1.731l-1.683.865-.416-.229 1.682-.865.417.229zm13.462-6.922l-1.683.865-.417-.23 1.683-.864.417.228zm3.365-1.731l-1.683.865-.416-.229 1.682-.865.417.229zm3.366-1.73l-1.683.865-.417-.23 1.683-.865.417.23zm3.365-1.731l-1.683.865-.416-.229 1.682-.865.417.229zm3.365-1.731l-1.682.865-.417-.229 1.683-.865.416.229zm3.366-1.73l-1.683.865-.417-.23 1.683-.864.417.228zm3.365-1.731l-1.683.865-.416-.229 1.682-.865.417.229zm3.366-1.73l-1.683.864-.417-.228 1.683-.866.417.23zm3.365-1.731l-1.683.865-.416-.229 1.682-.865.417.229zM61.622 93.853l-1.638-.9.423-.218 1.638.9-.423.218zm18.905-9.721l-1.638-.9.423-.218 1.638.9-.423.218zm37.809-19.443l-1.638-.9.422-.217 1.638.9-.422.217zM64.898 95.653l-1.638-.9.423-.218 1.638.9-.423.218zm18.904-9.722l-1.637-.9.422-.217 1.638.9-.423.217zm18.905-9.721l-1.638-.9.423-.217 1.638.9-.423.217zm18.904-9.721l-1.638-.9.423-.218 1.638.9-.423.218zM68.174 97.452l-1.638-.9.423-.217 1.638.9-.423.217zm18.904-9.72l-1.638-.9.423-.218 1.062.583.576.317-.423.217zm18.905-9.722l-1.638-.9.422-.218 1.638.9-.422.218zm18.904-9.722l-1.638-.9.423-.217 1.638.9-.423.218zM71.449 99.252l-1.638-.9.423-.217 1.638.9-.423.217zm18.905-9.721l-1.638-.9.423-.217 1.638.9-.423.217zm18.904-9.721l-1.638-.9.423-.218 1.638.9-.423.218zm18.905-9.722l-1.638-.9.423-.217 1.637.9-.422.217zm-53.438 30.964l-1.638-.9.423-.217 1.638.9-.423.217zm18.904-9.721l-1.637-.9.422-.218 1.638.9-.423.218zm18.905-9.722l-1.638-.9.423-.217 1.638.9-.423.217zm18.904-9.72l-1.637-.9.422-.218 1.638.9-.423.217zm-72.846 39.445l-.839.431-.416-.229.838-.431.417.229zm3.355-1.726l-1.678.863-.416-.229 1.677-.862.417.228zm3.355-1.725l-1.677.863-.417-.229 1.677-.863.417.229zm3.355-1.725l-1.677.863-.417-.229 1.677-.863.417.229zm3.355-1.725l-1.677.862-.417-.229 1.677-.862.417.229zm3.355-1.726l-1.677.863-.417-.229 1.678-.863.416.229zm3.355-1.725l-1.677.863-.417-.229 1.677-.863.417.229zm3.355-1.725l-1.677.862-.417-.228 1.677-.863.417.229zm3.355-1.725l-1.677.862-.417-.229 1.678-.862.416.229zm3.355-1.726l-1.677.863-.417-.229 1.678-.863.416.23zm3.355-1.725l-1.677.863-.417-.23 1.678-.862.416.23zm3.354-1.725l-1.676.862-.417-.228 1.678-.863.187.103.422-.217 1.638.9-.423.218-1.409-.775zm3.356-1.725l-1.677.862-.417-.229 1.678-.862.416.228zm3.355-1.726l-1.677.863-.417-.229 1.678-.863.416.23zm3.355-1.725l-1.677.863-.417-.23 1.678-.862.416.229zm3.355-1.725l-1.677.862-.417-.229 1.678-.862.416.229zm3.355-1.725l-1.677.862-.417-.229 1.678-.862.416.228zm2.129-1.095l-.451.232-.417-.23 1.678-.862.416.23-.804.413 1.409.774-.422.217-1.409-.774zm4.581-2.356l-1.677.863-.417-.23 1.678-.862.416.229zm3.355-1.725l-1.677.862-.417-.229 1.678-.862.416.229zm3.355-1.726l-1.677.863-.417-.229 1.678-.862.416.228zm3.355-1.725l-1.677.863-.417-.23 1.678-.862.416.23zm3.355-1.725l-1.677.862-.417-.228 1.678-.863.416.229zm3.355-1.725l-1.677.862-.417-.229 1.678-.862.416.229zm3.355-1.726l-1.677.863-.417-.229 1.678-.863.416.23zm3.355-1.725l-1.677.863-.417-.23 1.678-.862.416.23zm3.355-1.725l-1.677.862-.417-.228 1.678-.863.416.229zm3.355-1.725l-1.677.862-.417-.229 1.678-.862.416.229zm2.517-1.294l-.839.43-.417-.228.839-.431.417.229zm-73.693 39.394l-1.638-.9.423-.217 1.638.899-.423.218zm56.713-29.164l-1.638-.9.423-.217 1.638.9-.423.217zm-53.438 30.964l-1.637-.9.422-.218 1.638.9-.422.218zm18.905-9.722l-1.638-.9.423-.217 1.638.9-.423.217zm18.904-9.721l-1.638-.9.423-.217 1.638.9-.423.217zm18.905-9.721l-1.638-.9.423-.218 1.638.9-.423.218zM84.552 106.45l-1.638-.899.423-.218 1.638.9-.423.217zm18.905-9.72l-1.638-.9.423-.218 1.637.9-.422.217zm18.904-9.722l-1.638-.9.423-.218 1.638.9-.423.218zm18.904-9.722l-1.637-.9.422-.217 1.638.9-.423.218zM87.828 108.25l-1.638-.9.423-.217 1.638.9-.423.217zm18.904-9.721l-1.638-.9.423-.217 1.638.9-.423.217zm18.905-9.721l-1.638-.9.423-.218 1.638.9-.423.218zm18.904-9.722l-1.638-.9.423-.217 1.638.9-.423.217zM91.104 110.05l-1.638-.9.422-.217 1.638.9-.422.217zm18.904-9.721l-1.638-.9.423-.218 1.638.9-.423.218zm18.904-9.722l-1.637-.9.422-.217 1.638.9-.423.217zm18.905-9.72l-1.638-.9.423-.218 1.638.9-.423.217zM94.379 111.85l-1.638-.9.423-.217 1.638.899-.423.218zm18.905-9.721l-1.638-.9.423-.218 1.637.9-.422.218zm18.904-9.722l-1.638-.9.423-.217 1.638.9-.423.217zm18.905-9.721l-1.638-.9.423-.217 1.637.9-.422.217zm-73.581 39.039l-.841.433-.417-.229.841-.433.417.229zm3.365-1.73l-1.682.865-.417-.229 1.683-.865.416.229zm3.366-1.731l-1.683.865-.417-.229 1.683-.865.417.229zm3.365-1.731l-1.683.866-.416-.229 1.682-.865.417.228zm3.365-1.73l-1.682.865-.417-.229 1.683-.865.416.229zm3.366-1.731l-1.683.866-.416-.229 1.682-.866.417.229zm3.365-1.73l-1.682.865-.417-.229 1.683-.865.416.229zm3.366-1.731l-1.683.865-.417-.229 1.683-.865.417.229zm3.365-1.731l-1.683.866-.416-.229 1.682-.866.417.229zm3.365-1.73l-1.682.865-.417-.229 1.683-.865.416.229zm3.366-1.731l-1.683.865-.416-.228 1.682-.866.417.229zm3.365-1.73l-1.682.865-.417-.229 1.683-.865.416.229zm3.366-1.731l-1.683.865-.417-.229 1.683-.865.417.229zm3.365-1.73l-1.683.865-.416-.23 1.682-.865.417.23zm3.365-1.731l-1.682.865-.417-.229 1.683-.865.416.229zm3.366-1.73l-1.683.864-.416-.229 1.682-.865.417.23zm3.365-1.731l-1.682.865-.417-.23 1.683-.864.416.229zm3.366-1.731l-1.683.865-.417-.229 1.683-.865.417.229zm3.365-1.73l-1.683.865-.416-.23 1.682-.865.417.23zm3.365-1.731l-1.682.865-.417-.229 1.683-.865.416.229zm3.366-1.73l-1.683.864-.416-.228 1.682-.866.417.23zm3.365-1.731l-1.682.865-.417-.23 1.683-.864.416.228zm3.366-1.731l-1.683.865-.417-.229 1.683-.865.417.229zm3.365-1.73l-1.683.865-.416-.23 1.682-.865.417.23zm3.365-1.731l-1.682.865-.417-.229 1.683-.865.416.229zm3.366-1.73l-1.683.864-.416-.228 1.682-.866.417.23zm3.365-1.731l-1.682.865-.417-.23 1.683-.864.416.229zm3.366-1.73l-1.683.865-.417-.229 1.683-.865.417.229zm-70.723 38.65l-1.638-.9.423-.218 1.638.9-.423.218zm18.904-9.722l-1.637-.9.422-.217 1.638.9-.423.217zm18.905-9.721l-1.638-.9.423-.217 1.638.9-.423.217zm18.904-9.721l-1.638-.9.423-.218 1.638.9-.423.218zm-53.437 30.963l-1.638-.899.423-.218 1.637.9-.422.217zm18.904-9.721l-1.638-.9.423-.217 1.638.9-.423.217zm18.905-9.721l-1.638-.9.422-.218 1.638.9-.422.218zm18.904-9.721l-1.638-.9.423-.218 1.638.9-.423.218zm-53.438 30.963l-1.637-.9.422-.217 1.638.9-.423.217zm18.905-9.721l-1.638-.9.423-.217 1.638.9-.423.217zm18.904-9.721l-1.638-.9.423-.218 1.638.9-.423.218zm18.905-9.722l-1.638-.9.423-.217 1.637.9-.422.217zm-53.438 30.964l-1.638-.9.423-.217 1.638.9-.423.217zm18.905-9.721l-1.638-.9.422-.218 1.638.9-.422.218zm18.904-9.721l-1.638-.9.423-.218 1.638.9-.423.218zm18.904-9.722l-1.637-.9.422-.217 1.638.9-.423.217zm-53.437 30.964l-1.638-.9.423-.217 1.638.899-.423.218zm18.904-9.721l-1.638-.9.423-.218 1.638.9-.423.218zm18.905-9.722l-1.638-.9.423-.217 1.637.9-.422.217zm18.904-9.721l-1.638-.9.423-.217 1.638.9-.423.217zM113.215 122.2l-.819-.45.422-.218.819.45-.422.218zm18.904-9.722l-.819-.45.423-.217.819.45-.423.217zm18.904-9.721l-.819-.45.423-.217.819.45-.423.217zm18.905-9.721l-.819-.45.423-.218.819.45-.423.218z" fill="#6F6F6F"/><path fill-rule="evenodd" clip-rule="evenodd" d="M90.492 49.39l1.638.9.256-.131.167-.086-.167-.092-1.471-.808-.423.218zm80.155 24.443l.255-.131-.417-.229-.254.13-.587.303.416.229.587-.302zM133.1 53.203l.254-.131-.417-.23-.254.132-.587.301.417.23.587-.303zm-18.631-10.237l.254-.13-.416-.23-.255.131-.587.302.417.229.587-.302zM92.386 70.09l-.721-.397-.423.218 1.144.628v-.45zm6.133 3.843l.912.477.423-.217-1.335-.734v.474zm0-3.31l.34.187 1.682-.865-.416-.229-1.606.826-.077.04.077.042zm-77.024 1.182l.819.45.423-.217-.82-.45-.422.217zm18.904-9.721l.82.45.422-.218-.819-.45-.423.218zm18.905-9.721l.819.45.422-.218-.818-.45-.423.218zm18.904-9.722l.82.45.422-.217-.819-.45-.423.217zM23.952 73.155l1.638.9.422-.218-1.637-.9-.423.218zm18.904-9.721l1.638.9.423-.218-1.638-.9-.423.218zm18.905-9.722l1.637.9.423-.217-1.638-.9-.422.217zm18.904-9.72l1.638.899.423-.217-1.638-.9-.423.217zM27.227 74.954l1.638.9.423-.218-1.638-.9-.423.218zm18.905-9.721l1.638.9.422-.218-1.637-.9-.423.218zm18.904-9.722l1.638.9.423-.217-1.638-.9-.423.217zm18.905-9.721l1.638.9.422-.218-1.638-.9-.422.218zM30.503 76.755l1.638.9.423-.218-1.638-.9-.423.218zm18.904-9.722l1.638.9.423-.217-1.638-.9-.422.217zm18.905-9.721l1.638.9.423-.218-1.638-.9-.423.218zm18.904-9.721l1.638.9.423-.218-1.638-.9-.423.218zM33.78 78.555l1.638.9.422-.218-1.637-.9-.423.218zm18.904-9.722l1.638.9.423-.217-1.638-.9-.423.217zm18.905-9.721l1.638.9.422-.218-1.638-.9-.422.218zM37.055 80.354l1.637.9.423-.217-1.638-.9-.422.217zm18.904-9.721l1.638.9.423-.218-1.638-.9-.423.218zm18.904-9.721l1.638.9.423-.218-1.638-.9-.423.218zm-54.37 30.38l.84-.432-.416-.23-.841.433.416.23zm2.523-1.298l1.683-.865-.417-.229-1.682.865.416.23zm3.366-1.73l1.682-.866-.416-.229-1.683.866.417.229zm3.365-1.73l1.683-.866-.417-.23-1.683.866.417.23zm3.365-1.732l1.683-.865-.416-.229-1.683.865.416.23zm3.366-1.73l1.682-.865-.416-.23-1.683.866.417.229zm3.365-1.73l1.683-.866-.417-.229-1.682.865.416.23zm3.366-1.731l1.682-.866-.416-.229-1.683.866.417.229zm3.365-1.731l1.683-.865-.417-.23-1.683.866.417.229zm3.366-1.73l1.682-.866-.416-.229-1.683.865.416.23zm3.365-1.731l1.683-.865-.417-.23-1.683.866.417.229zm3.365-1.73l1.683-.866-.417-.229-1.682.865.416.23zm3.366-1.731l1.682-.866-.416-.229-1.683.866.417.229zm3.365-1.731l1.683-.865-.417-.23-1.683.866.417.229zm3.365-1.73l1.683-.866-.416-.229-1.683.865.416.23zm3.366-1.731l1.683-.866-.417-.228-1.683.865.417.229zm3.365-1.73l1.683-.866-.417-.229-1.682.865.416.23zm3.366-1.731l1.682-.866-.416-.229-1.683.866.417.229zm3.365-1.731l1.683-.865-.417-.23-1.683.866.417.229zm3.366-1.73l1.682-.866-.416-.229-1.683.865.416.23zm3.365-1.731l1.683-.865-.417-.23-1.683.866.417.229zm3.365-1.73l1.683-.866-.417-.23-1.682.866.416.23zm10.096-5.193l1.683-.865-.416-.229-1.683.865.416.23zm3.366-1.73l1.683-.866-.417-.229-1.683.866.417.229zm3.365-1.73l1.683-.866-.417-.23-1.682.866.416.23zm3.366-1.731l1.682-.866-.416-.229-1.683.866.417.228zM40.33 82.154l1.638.9.423-.217-1.638-.9-.423.217zm18.905-9.721l1.638.9.422-.218-1.638-.9-.422.218zm18.904-9.722l1.638.9.423-.217-1.638-.9-.423.217zM43.606 83.954l1.638.9.422-.218-1.637-.9-.423.218zm18.904-9.721l1.638.9.423-.218-1.638-.9-.423.218zm18.905-9.722l1.638.9.422-.217-1.637-.9-.423.217zm18.904-9.721l1.638.9.423-.218-1.638-.9-.423.218zM46.882 85.754l1.638.9.422-.218-1.638-.9-.422.218zm18.904-9.722l1.638.9.423-.217-1.638-.9-.423.217zm18.904-9.72l1.638.899.423-.217-1.638-.9-.422.217zm18.905-9.722l1.638.9.423-.218-1.638-.9-.423.218zM50.157 87.553l1.638.9.423-.217-1.638-.9-.423.218zm18.905-9.72l1.638.9.422-.218-1.638-.9-.422.217zm18.904-9.722l1.638.9.423-.218-1.638-.9-.423.218zm18.905-9.721l1.637.9.423-.218-1.638-.9-.422.218zM53.433 89.353l1.638.9.423-.217-1.638-.9-.423.217zm18.905-9.721l1.637.9.423-.218-1.638-.9-.422.218zm37.808-19.443l1.638.9.423-.217-1.638-.9-.423.217zM56.709 91.153l1.638.9.422-.217-1.637-.9-.423.217zm18.904-9.721l.836.459-1.565.805.417.229 1.565-.805.385.212.423-.218-1.638-.9-.423.218zm37.809-19.443l1.638.9.423-.217-1.638-.9-.423.217zm-74.3 39.54l.842-.433-.417-.229-.84.433.416.229zm2.525-1.298l1.683-.866-.417-.228-1.683.865.417.229zm3.365-1.73l1.683-.866-.417-.23-1.682.866.416.23zm3.366-1.732l1.682-.865-.416-.229-1.683.865.417.23zm3.365-1.73l1.683-.865-.417-.23-1.683.866.417.229zm3.365-1.73l1.683-.866-.417-.229-1.682.865.416.23zm3.366-1.731l1.683-.866-.417-.229-1.683.866.417.229zm3.365-1.731l1.683-.865-.417-.23-1.682.866.416.229zm3.366-1.73l1.682-.866-.416-.229-1.683.865.417.23zm3.365-1.731l1.683-.865-.417-.23-1.683.866.417.229zm3.365-1.73l1.683-.866-.416-.229-1.683.865.416.23zm6.731-3.462l1.683-.865-.417-.23-1.682.866.416.229zm3.366-1.73l1.682-.866-.416-.229-1.683.865.417.23zm3.365-1.731l1.683-.865-.417-.23-1.683.866.417.229zm3.365-1.73l1.683-.866-.416-.229-1.683.865.416.23zm13.462-6.923l1.683-.865-.417-.23-1.683.866.417.229zm3.365-1.73l1.683-.866-.417-.23-1.682.866.416.23zm3.366-1.731l1.683-.866-.417-.229-1.683.866.417.229zm3.365-1.731l1.683-.865-.417-.23-1.682.866.416.229zm3.366-1.73l1.682-.866-.416-.229-1.683.865.417.23zm3.365-1.731l1.683-.866-.417-.228-1.683.865.417.229zm3.365-1.73l1.683-.866-.417-.23-1.682.866.416.23zm3.366-1.732l1.683-.865-.417-.229-1.683.866.417.228zm3.365-1.73l1.683-.865-.417-.23-1.682.866.416.229zM59.984 92.953l1.638.9.423-.218-1.638-.9-.423.218zm18.905-9.721l1.638.9.422-.218-1.637-.9-.423.218zm37.809-19.443l1.638.9.422-.217-1.638-.9-.422.217zM63.26 94.753l1.638.9.423-.218-1.638-.9-.423.218zm18.905-9.722l1.637.9.423-.217-1.638-.9-.422.217zm18.904-9.72l1.638.899.423-.217-1.638-.9-.423.217zm18.904-9.722l1.638.9.423-.218-1.638-.9-.423.218zM66.536 96.552l1.638.9.422-.217-1.637-.9-.423.218zm18.904-9.72l1.638.9.423-.218-.576-.317-1.062-.583-.423.217zm18.905-9.722l1.638.9.422-.218-1.638-.9-.422.218zm18.904-9.721l1.638.9.423-.218-1.638-.9-.423.218zM69.811 98.352l1.638.9.423-.217-1.638-.9-.422.217zm18.905-9.721l1.638.9.423-.218-1.638-.9-.423.218zm18.904-9.721l1.638.9.423-.218-1.638-.9-.423.218zm18.905-9.722l1.638.9.422-.217-1.637-.9-.423.217zm-53.438 30.964l1.638.9.423-.217-1.638-.9-.423.217zm18.905-9.721l1.637.9.423-.218-1.638-.9-.422.218zm18.904-9.721l1.638.9.423-.218-1.638-.9-.423.218zm18.905-9.722l1.637.9.423-.217-1.638-.9-.422.217zm-72.048 40.777l.839-.431-.417-.229-.838.431.416.229zm2.517-1.294l1.677-.863-.417-.228-1.677.862.416.229zm3.355-1.725l1.677-.863-.417-.229-1.677.863.417.229zm3.355-1.725l1.677-.863-.417-.229-1.677.863.417.229zm3.355-1.726l1.677-.862-.416-.229-1.678.862.417.229zm3.355-1.725l1.677-.863-.416-.229-1.678.863.417.229zm3.355-1.725l1.677-.863-.416-.229-1.678.863.417.229zm3.355-1.726l1.677-.862-.416-.23-1.678.864.417.228zm3.355-1.725l1.677-.862-.416-.23-1.678.863.417.23zm3.355-1.725l1.677-.863-.416-.229-1.678.863.417.229zm3.355-1.725l1.677-.863-.416-.229-1.678.863.417.229zm3.355-1.726l1.676-.862 1.41.775.422-.218-1.638-.9-.422.217-.187-.103-1.678.863.417.228zm3.355-1.725l1.677-.862-.416-.23-1.678.863.417.23zm3.355-1.725l1.677-.863-.416-.229-1.678.863.417.229zm3.355-1.725l1.677-.863-.416-.229-1.678.863.417.229zm3.355-1.726l1.677-.862-.416-.23-1.678.863.417.23zm3.355-1.725l1.677-.862-.416-.23-1.678.863.417.23zm3.355-1.725l.451-.232 1.409.774.422-.217-1.409-.774.804-.414-.416-.229-1.678.863.417.229zm3.355-1.725l1.677-.863-.416-.229-1.678.863.417.229zm3.355-1.726l1.677-.862-.416-.23-1.678.863.417.23zm3.355-1.725l1.677-.863-.416-.228-1.678.862.417.229zm3.355-1.725l1.677-.863-.416-.229-1.678.863.417.229zm3.355-1.725l1.677-.863-.416-.229-1.678.863.417.228zm3.355-1.726l1.677-.862-.416-.23-1.678.863.417.23zm3.355-1.725l1.677-.863-.416-.229-1.678.863.417.229zm3.355-1.725l1.677-.863-.416-.229-1.678.863.417.229zm3.355-1.725l1.677-.863-.416-.23-1.678.864.417.228zm3.355-1.726l1.677-.862-.416-.23-1.678.863.417.23zm3.355-1.725l.839-.431-.417-.23-.839.432.417.229zm-74.492 38.063l1.638.9.423-.218-1.638-.899-.423.217zm56.713-29.164l1.638.9.423-.218-1.638-.9-.423.218zm-53.437 30.964l1.638.9.422-.218-1.638-.9-.422.218zm18.904-9.722l1.638.9.423-.217-1.638-.9-.423.217zm18.904-9.72l1.638.899.423-.217-1.638-.9-.423.217zm18.905-9.722l1.638.9.423-.218-1.638-.9-.423.218zm-53.438 30.964l1.638.899.423-.217-1.638-.9-.423.218zm18.905-9.722l1.638.9.422-.217-1.637-.9-.423.217zm18.904-9.721l1.638.9.423-.218-1.638-.9-.423.218zm18.905-9.721l1.637.9.423-.218-1.638-.9-.422.218zM86.19 107.35l1.638.9.423-.217-1.638-.9-.423.217zm18.904-9.721l1.638.9.423-.218-1.638-.9-.423.218zm18.905-9.721l1.638.9.423-.218-1.638-.9-.423.218zm18.904-9.722l1.638.9.423-.217-1.638-.9-.423.217zM89.466 109.15l1.638.9.422-.217-1.638-.9-.422.217zm18.904-9.721l1.638.9.423-.218-1.638-.9-.423.218zm18.905-9.722l1.637.9.423-.217-1.638-.9-.422.218zm18.904-9.72l1.638.9.423-.218-1.638-.9-.423.217zM92.741 110.95l1.638.9.423-.218-1.638-.899-.423.217zm18.905-9.721l1.638.9.422-.218-1.637-.9-.423.218zm18.904-9.722l1.638.9.423-.217-1.638-.9-.423.217zm18.905-9.721l1.638.9.422-.218-1.637-.9-.423.218zM76.67 122.159l.842-.433-.417-.229-.841.433.416.229zm2.525-1.298l1.682-.865-.416-.229-1.683.865.416.229zm3.365-1.731l1.683-.865-.417-.229-1.683.865.417.229zm3.365-1.73l1.683-.866-.417-.228-1.682.865.416.229zm3.366-1.731l1.682-.865-.416-.229-1.683.865.417.229zm3.365-1.73l1.683-.866-.417-.229-1.682.866.416.229zm3.365-1.731l1.683-.865-.416-.229-1.683.865.416.229zm3.366-1.731l1.683-.865-.417-.229-1.683.865.417.229zm3.365-1.73l1.683-.866-.417-.229-1.682.866.416.229zm3.366-1.731l1.682-.865-.416-.229-1.683.865.417.229zm3.365-1.731l1.683-.865-.417-.229-1.682.866.416.228zm3.366-1.73l1.682-.865-.416-.229-1.683.865.417.229zm3.365-1.731l1.683-.865-.417-.229-1.683.865.417.229zm3.365-1.73l1.683-.866-.417-.229-1.682.866.416.229zm3.366-1.73l1.682-.866-.416-.23-1.683.866.417.23zm3.365-1.732l1.683-.865-.417-.229-1.682.865.416.23zm3.366-1.73l1.682-.865-.416-.23-1.683.866.417.229zm3.365-1.73l1.683-.866-.417-.229-1.683.865.417.23zm3.365-1.731l1.683-.866-.417-.229-1.682.866.416.229zm3.366-1.731l1.682-.865-.416-.23-1.683.866.417.229zm3.365-1.73l1.683-.866-.417-.229-1.682.865.416.23zm3.366-1.731l1.682-.865-.416-.23-1.683.866.417.229zm3.365-1.73l1.683-.866-.417-.229-1.683.865.417.23zm3.365-1.731l1.683-.866-.417-.229-1.682.866.416.229zm3.366-1.731l1.682-.865-.416-.23-1.683.866.417.229zm3.365-1.73l1.683-.866-.417-.229-1.682.865.416.23zm3.366-1.731l1.682-.865-.416-.23-1.683.866.417.229zm3.365-1.73l1.683-.866-.417-.229-1.683.865.417.23zM96.017 112.75l1.638.9.423-.218-1.638-.9-.423.218zm18.905-9.722l1.637.9.423-.217-1.638-.9-.422.217zm18.904-9.72l1.638.899.423-.217-1.638-.9-.423.217zm18.904-9.722l1.638.9.423-.218-1.638-.9-.423.218zM99.293 114.55l1.638.899.422-.217-1.637-.9-.423.218zm18.904-9.722l1.638.9.423-.217-1.638-.9-.423.217zm18.905-9.721l1.638.9.422-.218-1.638-.9-.422.218zm18.904-9.721l1.638.9.423-.218-1.638-.9-.423.218zm-53.437 30.963l1.637.9.423-.217-1.638-.9-.422.217zm18.904-9.721l1.638.9.423-.217-1.638-.9-.423.217zm18.904-9.721l1.638.9.423-.218-1.638-.9-.423.218zm18.905-9.722l1.638.9.422-.217-1.637-.9-.423.217zm-53.438 30.964l1.638.9.423-.217-1.638-.9-.423.217zm18.905-9.721l1.638.9.422-.218-1.638-.9-.422.218zm18.904-9.721l1.638.9.423-.218-1.638-.9-.423.218zm18.905-9.722l1.637.9.423-.217-1.638-.9-.422.217zM109.12 119.95l1.638.9.423-.218-1.638-.899-.423.217zm18.904-9.721l1.638.9.423-.218-1.638-.9-.423.218zm18.905-9.722l1.638.9.422-.217-1.637-.9-.423.217zm18.904-9.721l1.638.9.423-.218-1.638-.9-.423.218zm-53.437 30.964l.819.45.422-.218-.819-.45-.422.218zm18.904-9.722l.819.45.423-.217-.819-.45-.423.217zm18.904-9.721l.819.45.423-.217-.819-.45-.423.217zm18.905-9.721l.819.45.423-.218-.819-.45-.423.218z" fill="#C8C8C8"/><path fill-rule="evenodd" clip-rule="evenodd" d="M92.644 44.292c-5.068-.427-9.375-1.965-12.357-3.774l-.605.183L1 81.162l93.655 51.459 95.033-48.87-78.414-43.083-.593-.189c-2.984 1.827-7.316 3.383-12.42 3.813a33.46 33.46 0 01-5.617 0zm21.663-1.686l.416.23-.254.13 18.214 10.008.254-.131.417.229-.254.13 37.131 20.402.254-.131.417.229-.255.13 18.028 9.906-94.012 48.344-92.65-50.906 78.142-40.183c2.999 1.793 7.252 3.301 12.231 3.754v5.234l.167.092-.167.086v32.445l3.067.683 3.066-.683v-11.98l-.077-.043.077-.04V44.748c5.013-.456 9.29-1.981 12.292-3.79l3.241 1.78.255-.13zM92.862 82.222l2.59.578 2.591-.578V44.786a33.911 33.911 0 01-5.181 0v37.436z" fill="#6F6F6F"/><path fill-rule="evenodd" clip-rule="evenodd" d="M77.338 6.282c-.984.978-1.486 1.926-1.486 2.746v3.78l.03 4.122c.134.79.733 1.724 1.765 2.692 1.033.969 2.475 1.948 4.235 2.822 3.52 1.75 8.286 3.069 13.533 3.069 5.43 0 10.343-1.369 13.892-3.186 1.776-.908 3.203-1.926 4.182-2.932.985-1.014 1.488-1.986 1.488-2.808V9.028c0-.82-.501-1.768-1.485-2.746-.979-.972-2.405-1.943-4.18-2.805-3.55-1.725-8.465-3.002-13.897-3.002-5.433 0-10.347 1.277-13.897 3.002-1.776.862-3.202 1.833-4.18 2.805zm37.639 11.944c-.276.5-.665 1.004-1.147 1.5-1.025 1.054-2.498 2.1-4.306 3.024-3.616 1.852-8.603 3.238-14.11 3.238-5.323 0-10.16-1.338-13.743-3.118-1.791-.89-3.274-1.894-4.35-2.901-.633-.595-1.134-1.2-1.469-1.79v17.307c0 .681.375 1.505 1.131 2.388.751.878 1.858 1.79 3.267 2.645 2.982 1.81 7.288 3.348 12.356 3.775a33.456 33.456 0 005.618 0c5.104-.43 9.435-1.987 12.419-3.813 1.39-.85 2.48-1.756 3.221-2.627.744-.876 1.113-1.692 1.113-2.368v-17.26zm.476 17.26c0 .84-.45 1.762-1.227 2.676-.781.92-1.915 1.855-3.335 2.724-3.05 1.867-7.454 3.445-12.628 3.881a33.937 33.937 0 01-5.697 0c-5.137-.433-9.515-1.991-12.563-3.841-1.44-.874-2.589-1.817-3.381-2.743-.788-.921-1.245-1.852-1.245-2.697V9.028c0-1.007.606-2.07 1.626-3.083 1.026-1.02 2.5-2.018 4.307-2.896C84.926 1.292 89.912 0 95.415 0s10.488 1.292 14.105 3.05c1.807.877 3.281 1.876 4.307 2.895 1.019 1.013 1.626 2.076 1.626 3.083v26.458zM79.062 69.212l9.428 6.614-.272.39-9.43-6.615.274-.39zm33.943 1.334l-9.429 6.614-.273-.389 9.429-6.614.273.389zM74.211 81.453h13.2v.475h-13.2v-.475zm43.372 1.42h-13.2v-.476h13.2v.476zM77.846 93.78l9.429-6.615.273.39-9.43 6.614-.272-.39zm35.829 1.334l-9.429-6.615.273-.389 9.429 6.615-.273.389z" fill="#CA0001"/></svg>