<svg width="174" height="185" viewBox="0 0 174 185" fill="none" xmlns="http://www.w3.org/2000/svg"><path stroke="#C8C8C8" stroke-dasharray="4 4" d="M2.668 45.549v90.072m168.728-88.806v89.923"/><path d="M124.161 113.121L87.869 93.339l-84.7 43.917 36.292 19.782m84.7-43.917l-.245-2.775m.245 2.775l-5.211-.2m-68.572 50.065l36.292 19.782 84.7-43.916-36.292-19.782m-84.7 43.916l.245 2.775m-.245-2.775l5.212.2" stroke="#6F6F6F"/><path d="M86.7 154.688l-33.065-20.127v-89.21M86.7 154.688l34.502-20.127v-89.21M86.701 154.688V62.12m34.502-16.769L86.701 26.663 53.635 45.35m67.568 0L86.701 62.12M53.635 45.35L86.7 62.121" stroke="#C8C8C8" stroke-dasharray="4 4"/><path fill-rule="evenodd" clip-rule="evenodd" d="M90.975 35.975l-12.368 1.832-3.556 6.56 8.811 4.727 12.369-1.832 3.556-6.56-8.812-4.727zm-.619 8.135c1.693-.892 1.75-2.32.127-3.19-1.622-.871-4.31-.854-6.002.038-1.692.892-1.75 2.32-.127 3.191 1.622.87 4.31.853 6.002-.039z" stroke="#CA0001" stroke-linejoin="round"/><path d="M124.31 21.117L88.018 1.335l-84.7 43.917L39.61 65.034m84.7-43.917l-.246-2.775m.246 2.775l-5.212-.2M50.526 70.982l36.292 19.782 84.701-43.916-36.293-19.782m-84.7 43.916l.246 2.775m-.246-2.775l5.212.2" stroke="#CA0001"/></svg>