<svg width="184" height="158" viewBox="0 0 184 158" fill="none" xmlns="http://www.w3.org/2000/svg"><path d="M20.891 99.14l17.115 9.181m71.939 38.59l-17.394-9.33M39.05 89.571l17.115 9.18m71.938 38.591l-17.393-9.33m53.709-9.809l-17.393-9.33M19.71 117.964l18.297-9.643m-.208 19.347l18.297-9.643m90.023-28.206l-13.032 6.868m-77.2 40.684l18.298-9.643m90.58-28.204l-17.739 9.349m-72.771 38.351l18.297-9.643m-36.387-38.83l-18.158 9.57m18.158-9.57l18.09 9.704m-36.248-.134l18.09 9.704m0 0l18.088 9.703m-18.089-9.703l18.158-9.57m-.069 19.273l18.367 9.853m-18.367-9.853l18.158-9.569m.21 19.422l18.157-9.569m0 0l-18.367-9.853m18.367 9.853l18.158-9.57m-36.525-.283l-18.089-9.704m72.772.418l-18.158 9.569m18.158-9.569l-13.939-7.478m-4.219 17.047l18.158 9.072" stroke="#ca0001" stroke-dasharray="2 2"/><path d="M55.598 79.962L1.48 108.482 91.925 157l90.79-47.847-49.978-26.81" stroke="#ca0001"/><path d="M55.518 10.886L79.146.926l53.577 28.088M55.518 10.886l54.575 28.761M55.518 10.886v87.563l54.575 29.297m22.63-98.732l-22.63 10.633m22.63-10.633v86.771l-22.63 11.961m0-88.099v88.099" stroke="#CA0001"/><path d="M102.476 44.577L61.705 22.832a1 1 0 00-1.47.883v20.198a2 2 0 001.095 1.784l40.753 20.648a1 1 0 001.452-.892V46.342a2 2 0 00-1.059-1.765z" stroke="#CA0001"/><path stroke="#ca0001" d="M63.511 34.872l10.395 5.552m1.773.923l10.394 5.552m2.127 1.063l10.395 5.552"/></svg>