<svg width="190" height="170" viewBox="0 0 190 170" fill="none" xmlns="http://www.w3.org/2000/svg">
<path d="M1 117.818L94.1528 169L188.675 120.394" stroke="#6F6F6F"/>
<line x1="1.5" y1="82.5228" x2="1.5" y2="116.751" stroke="#C8C8C8" stroke-dasharray="4 4"/>
<line x1="95.1533" y1="133.389" x2="95.1533" y2="167.617" stroke="#C8C8C8" stroke-dasharray="4 4"/>
<line x1="189.283" y1="84.9" x2="189.283" y2="119.129" stroke="#C8C8C8" stroke-dasharray="4 4"/>
<path fill-rule="evenodd" clip-rule="evenodd" d="M22.3139 72.2551L21.4949 71.8052L21.9177 71.5878L22.7366 72.0377L22.3139 72.2551ZM41.2183 62.5338L40.3994 62.0839L40.8221 61.8665L41.6411 62.3164L41.2183 62.5338ZM60.1227 52.8125L59.3038 52.3626L59.7266 52.1452L60.5455 52.5951L60.1227 52.8125ZM79.0272 43.0912L78.2082 42.6413L78.631 42.4238L79.4499 42.8738L79.0272 43.0912ZM25.5896 74.0549L23.9517 73.155L24.3745 72.9376L26.0123 73.8375L25.5896 74.0549ZM44.494 64.3336L42.8561 63.4337L43.2789 63.2163L44.9168 64.1162L44.494 64.3336ZM63.3984 54.6123L61.7606 53.7124L62.1833 53.495L63.8212 54.3949L63.3984 54.6123ZM82.3028 44.891L80.665 43.9911L81.0878 43.7737L82.7256 44.6736L82.3028 44.891ZM28.8653 75.8547L27.2274 74.9548L27.6502 74.7374L29.288 75.6373L28.8653 75.8547ZM47.7697 66.1334L46.1318 65.2335L46.5546 65.0161L48.1925 65.916L47.7697 66.1334ZM66.6741 56.4121L65.0363 55.5122L65.459 55.2948L67.0969 56.1947L66.6741 56.4121ZM85.5786 46.6908L83.9407 45.7909L84.3635 45.5735L86.0013 46.4734L85.5786 46.6908ZM32.141 77.6545L30.5031 76.7547L30.9259 76.5372L32.5637 77.4371L32.141 77.6545ZM51.0454 67.9332L49.4075 67.0333L49.8303 66.8159L51.4682 67.7158L51.0454 67.9332ZM69.9498 58.2119L68.312 57.312L68.7347 57.0946L70.3726 57.9945L69.9498 58.2119ZM88.8543 48.4906L87.2164 47.5907L87.6392 47.3733L89.277 48.2732L88.8543 48.4906ZM35.4167 79.4544L33.7788 78.5545L34.2016 78.337L35.8394 79.237L35.4167 79.4544ZM54.3211 69.733L52.6832 68.8331L53.106 68.6157L54.7439 69.5156L54.3211 69.733ZM73.2255 60.0117L71.5877 59.1118L72.0105 58.8944L73.6483 59.7943L73.2255 60.0117ZM92.13 50.2904L90.4921 49.3905L90.9149 49.1731L92.3862 49.9815L92.5527 50.073L92.3862 50.1587L92.13 50.2904ZM38.6924 81.2542L37.0545 80.3543L37.4773 80.1369L39.1151 81.0368L38.6924 81.2542ZM57.5968 71.5329L55.9589 70.6329L56.3817 70.4155L58.0196 71.3154L57.5968 71.5329ZM76.5012 61.8115L74.8634 60.9116L75.2862 60.6942L76.924 61.5941L76.5012 61.8115ZM21.3335 90.8596L20.4922 91.2922L20.0755 91.0633L20.9169 90.6307L21.3335 90.8596ZM24.6989 89.129L23.0162 89.9943L22.5996 89.7654L24.2823 88.9001L24.6989 89.129ZM28.0643 87.3984L26.3816 88.2637L25.965 88.0348L27.6477 87.1694L28.0643 87.3984ZM31.4297 85.6678L29.747 86.5331L29.3304 86.3041L31.0131 85.4388L31.4297 85.6678ZM34.7951 83.9372L33.1124 84.8025L32.6958 84.5735L34.3785 83.7082L34.7951 83.9372ZM38.1605 82.2065L36.4778 83.0719L36.0612 82.8429L37.7439 81.9776L38.1605 82.2065ZM41.5259 80.4759L39.8432 81.3413L39.4266 81.1123L41.1093 80.247L41.5259 80.4759ZM44.8913 78.7453L43.2086 79.6106L42.792 79.3817L44.4747 78.5164L44.8913 78.7453ZM48.2567 77.0147L46.574 77.88L46.1574 77.6511L47.8401 76.7858L48.2567 77.0147ZM51.6222 75.2841L49.9395 76.1494L49.5228 75.9205L51.2055 75.0552L51.6222 75.2841ZM54.9876 73.5535L53.3049 74.4188L52.8882 74.1899L54.5709 73.3246L54.9876 73.5535ZM58.353 71.8229L56.6703 72.6882L56.2536 72.4593L57.9363 71.594L58.353 71.8229ZM61.7184 70.0923L60.0357 70.9576L59.619 70.7287L61.3017 69.8634L61.7184 70.0923ZM65.0838 68.3617L63.4011 69.227L62.9844 68.9981L64.6671 68.1328L65.0838 68.3617ZM68.4492 66.6311L66.7665 67.4964L66.3498 67.2675L68.0325 66.4022L68.4492 66.6311ZM71.8146 64.9005L70.1319 65.7658L69.7152 65.5369L71.3979 64.6716L71.8146 64.9005ZM75.18 63.1699L73.4973 64.0352L73.0806 63.8062L74.7633 62.941L75.18 63.1699ZM78.5454 61.4393L76.8627 62.3046L76.446 62.0756L78.1287 61.2104L78.5454 61.4393ZM81.9108 59.7087L80.2281 60.574L79.8114 60.345L81.4941 59.4797L81.9108 59.7087ZM85.2762 57.9781L83.5935 58.8434L83.1768 58.6144L84.8595 57.7491L85.2762 57.9781ZM88.6416 56.2475L86.9589 57.1128L86.5422 56.8838L88.2249 56.0185L88.6416 56.2475ZM92.007 54.5169L90.3243 55.3822L89.9076 55.1532L91.5903 54.2879L92.007 54.5169ZM102.103 49.325L100.42 50.1903L100.004 49.9614L101.687 49.0961L102.103 49.325ZM105.469 47.5944L103.786 48.4597L103.369 48.2308L105.052 47.3655L105.469 47.5944ZM108.834 45.8638L107.151 46.7291L106.735 46.5002L108.417 45.6349L108.834 45.8638ZM112.199 44.1332L110.517 44.9985L110.1 44.7696L111.783 43.9043L112.199 44.1332ZM114.723 42.8352L114.469 42.9661L113.882 43.2679L113.465 43.039L114.052 42.7372L114.307 42.6063L114.723 42.8352ZM41.9681 83.054L40.3302 82.1541L40.753 81.9367L42.3908 82.8366L41.9681 83.054ZM60.8725 73.3327L59.2346 72.4328L59.6574 72.2154L61.2953 73.1153L60.8725 73.3327ZM79.7769 63.6113L78.1391 62.7114L78.5619 62.494L80.1997 63.3939L79.7769 63.6113ZM45.2438 84.8538L43.6059 83.9539L44.0287 83.7365L45.6665 84.6364L45.2438 84.8538ZM64.1482 75.1325L62.5103 74.2326L62.9331 74.0152L64.571 74.9151L64.1482 75.1325ZM83.0526 65.4112L81.4148 64.5112L81.8376 64.2938L83.4754 65.1938L83.0526 65.4112ZM101.957 55.6898L100.319 54.7899L100.742 54.5725L102.38 55.4724L101.957 55.6898ZM48.5195 86.6536L46.8816 85.7537L47.3044 85.5363L48.9422 86.4362L48.5195 86.6536ZM67.4239 76.9323L65.7861 76.0324L66.2088 75.815L67.8467 76.7149L67.4239 76.9323ZM86.3283 67.211L84.6905 66.3111L85.1133 66.0937L86.7511 66.9936L86.3283 67.211ZM105.233 57.4897L103.595 56.5898L104.018 56.3723L105.656 57.2722L105.233 57.4897ZM51.7952 88.4534L50.1573 87.5535L50.5801 87.3361L52.2179 88.236L51.7952 88.4534ZM70.6996 78.7321L69.0618 77.8322L69.4845 77.6148L71.1224 78.5147L70.6996 78.7321ZM89.604 69.0108L87.9662 68.1109L88.389 67.8935L90.0268 68.7934L89.604 69.0108ZM108.508 59.2895L106.871 58.3896L107.293 58.1721L108.931 59.0721L108.508 59.2895ZM55.0709 90.2532L53.433 89.3533L53.8558 89.1359L55.4936 90.0358L55.0709 90.2532ZM73.9753 80.5319L72.3375 79.632L72.7602 79.4146L74.3981 80.3145L73.9753 80.5319ZM111.784 61.0893L110.146 60.1894L110.569 59.972L112.207 60.8719L111.784 61.0893ZM58.3466 92.053L56.7087 91.1531L57.1315 90.9357L58.7693 91.8356L58.3466 92.053ZM76.449 81.891L75.6132 81.4318L76.0359 81.2144L77.6738 82.1143L77.251 82.3317L76.8656 82.1199L75.3008 82.9246L74.8842 82.6957L76.449 81.891ZM115.06 62.8891L113.422 61.9892L113.845 61.7718L115.483 62.6717L115.06 62.8891ZM39.9641 101.096L39.1227 101.529L38.7061 101.3L39.5474 100.867L39.9641 101.096ZM43.3295 99.3654L41.6468 100.231L41.2301 100.002L42.9128 99.1365L43.3295 99.3654ZM46.6949 97.6348L45.0122 98.5001L44.5955 98.2712L46.2782 97.4058L46.6949 97.6348ZM50.0603 95.9042L48.3776 96.7695L47.9609 96.5405L49.6436 95.6752L50.0603 95.9042ZM53.4257 94.1736L51.743 95.0389L51.3263 94.8099L53.009 93.9446L53.4257 94.1736ZM56.7911 92.443L55.1084 93.3083L54.6917 93.0793L56.3744 92.214L56.7911 92.443ZM60.1565 90.7123L58.4738 91.5776L58.0571 91.3487L59.7398 90.4834L60.1565 90.7123ZM63.5219 88.9817L61.8392 89.847L61.4226 89.6181L63.1053 88.7528L63.5219 88.9817ZM66.8873 87.2511L65.2046 88.1164L64.788 87.8875L66.4707 87.0222L66.8873 87.2511ZM70.2527 85.5205L68.57 86.3858L68.1534 86.1569L69.8361 85.2916L70.2527 85.5205ZM73.6181 83.7899L71.9354 84.6552L71.5188 84.4263L73.2015 83.561L73.6181 83.7899ZM80.3489 80.3287L78.6662 81.194L78.2496 80.9651L79.9323 80.0998L80.3489 80.3287ZM83.7143 78.5981L82.0316 79.4634L81.615 79.2345L83.2977 78.3692L83.7143 78.5981ZM87.0797 76.8675L85.397 77.7328L84.9804 77.5039L86.6631 76.6386L87.0797 76.8675ZM90.4451 75.1369L88.7624 76.0022L88.3458 75.7733L90.0285 74.908L90.4451 75.1369ZM100.541 69.9451L98.8586 70.8104L98.5188 70.6237L98.442 70.5814L98.5188 70.5419L100.125 69.7161L100.541 69.9451ZM103.907 68.2145L102.224 69.0798L101.807 68.8508L103.49 67.9855L103.907 68.2145ZM107.272 66.4839L105.589 67.3492L105.173 67.1202L106.855 66.2549L107.272 66.4839ZM110.638 64.7533L108.955 65.6186L108.538 65.3896L110.221 64.5243L110.638 64.7533ZM114.003 63.0226L112.32 63.888L111.904 63.659L113.586 62.7937L114.003 63.0226ZM117.368 61.292L115.686 62.1573L115.269 61.9284L116.952 61.0631L117.368 61.292ZM120.734 59.5614L119.051 60.4267L118.634 60.1978L120.317 59.3325L120.734 59.5614ZM124.099 57.8308L122.416 58.6961L122 58.4672L123.682 57.6019L124.099 57.8308ZM127.465 56.1002L125.782 56.9655L125.365 56.7366L127.048 55.8713L127.465 56.1002ZM130.83 54.3696L129.147 55.2349L128.731 55.006L130.413 54.1407L130.83 54.3696ZM133.354 53.0716L133.1 53.2025L132.513 53.5043L132.096 53.2754L132.683 52.9736L132.937 52.8427L133.354 53.0716ZM61.6223 93.8528L59.9844 92.9529L60.4072 92.7355L62.0451 93.6354L61.6223 93.8528ZM80.5267 84.1315L78.8889 83.2316L79.3116 83.0142L80.9495 83.9141L80.5267 84.1315ZM118.336 64.6889L116.698 63.789L117.12 63.5716L118.758 64.4715L118.336 64.6889ZM64.898 95.6526L63.2601 94.7527L63.6829 94.5353L65.3207 95.4352L64.898 95.6526ZM83.8024 85.9313L82.1646 85.0314L82.5873 84.814L84.2252 85.7139L83.8024 85.9313ZM102.707 76.21L101.069 75.3101L101.492 75.0927L103.13 75.9926L102.707 76.21ZM121.611 66.4887L119.973 65.5888L120.396 65.3714L122.034 66.2713L121.611 66.4887ZM68.1737 97.4524L66.5358 96.5525L66.9586 96.3351L68.5965 97.235L68.1737 97.4524ZM87.0781 87.7311L85.4403 86.8312L85.863 86.6138L86.9247 87.1971L87.5009 87.5137L87.0781 87.7311ZM105.983 78.0098L104.345 77.1099L104.767 76.8925L106.405 77.7924L105.983 78.0098ZM124.887 68.2885L123.249 67.3886L123.672 67.1712L125.31 68.0711L124.887 68.2885ZM71.4494 99.2522L69.8115 98.3523L70.2343 98.1349L71.8721 99.0348L71.4494 99.2522ZM90.3538 89.5309L88.716 88.631L89.1387 88.4136L90.7766 89.3135L90.3538 89.5309ZM109.258 79.8096L107.62 78.9097L108.043 78.6923L109.681 79.5922L109.258 79.8096ZM128.163 70.0883L126.525 69.1884L126.948 68.971L128.585 69.8709L128.163 70.0883ZM74.7251 101.052L73.0872 100.152L73.51 99.9347L75.1478 100.835L74.7251 101.052ZM93.6295 91.3307L91.9917 90.4308L92.4144 90.2134L94.0523 91.1133L93.6295 91.3307ZM112.534 81.6094L110.896 80.7095L111.319 80.4921L112.957 81.392L112.534 81.6094ZM131.438 71.8881L129.801 70.9882L130.223 70.7708L131.861 71.6707L131.438 71.8881ZM58.592 111.334L57.7533 111.765L57.3366 111.536L58.1754 111.105L58.592 111.334ZM61.947 109.608L60.2695 110.471L59.8529 110.242L61.5304 109.38L61.947 109.608ZM65.3021 107.883L63.6246 108.746L63.2079 108.517L64.8854 107.654L65.3021 107.883ZM68.6571 106.158L66.9796 107.021L66.5629 106.792L68.2404 105.929L68.6571 106.158ZM72.0121 104.433L70.3346 105.295L69.9179 105.066L71.5955 104.204L72.0121 104.433ZM75.3671 102.707L73.6896 103.57L73.273 103.341L74.9505 102.478L75.3671 102.707ZM78.7221 100.982L77.0446 101.845L76.628 101.616L78.3055 100.753L78.7221 100.982ZM82.0771 99.2569L80.3997 100.119L79.983 99.8906L81.6605 99.0279L82.0771 99.2569ZM85.4322 97.5316L83.7547 98.3942L83.338 98.1653L85.0155 97.3027L85.4322 97.5316ZM88.7872 95.8063L87.1097 96.669L86.693 96.44L88.3705 95.5774L88.7872 95.8063ZM92.1422 94.0811L90.4647 94.9437L90.0481 94.7148L91.7256 93.8521L92.1422 94.0811ZM95.4962 92.3563L93.8197 93.2184L93.4031 92.9895L95.0806 92.1269L95.2684 92.2301L95.6901 92.0132L97.328 92.9131L96.9052 93.1305L95.4962 92.3563ZM98.8522 90.6305L97.1747 91.4932L96.7581 91.2642L98.4356 90.4016L98.8522 90.6305ZM102.207 88.9053L100.53 89.7679L100.113 89.539L101.791 88.6763L102.207 88.9053ZM105.562 87.18L103.885 88.0426L103.468 87.8137L105.146 86.9511L105.562 87.18ZM108.917 85.4547L107.24 86.3174L106.823 86.0884L108.501 85.2258L108.917 85.4547ZM112.272 83.7295L110.595 84.5921L110.178 84.3632L111.856 83.5005L112.272 83.7295ZM114.401 82.635L113.95 82.8668L113.533 82.6379L115.211 81.7753L115.627 82.0042L114.823 82.4176L116.232 83.1918L115.81 83.4092L114.401 82.635ZM118.982 80.2789L117.305 81.1416L116.888 80.9126L118.566 80.05L118.982 80.2789ZM122.337 78.5537L120.66 79.4163L120.243 79.1874L121.921 78.3248L122.337 78.5537ZM125.692 76.8284L124.015 77.691L123.598 77.4621L125.276 76.5995L125.692 76.8284ZM129.047 75.1031L127.37 75.9658L126.953 75.7369L128.631 74.8742L129.047 75.1031ZM132.402 73.3779L130.725 74.2405L130.308 74.0116L131.986 73.149L132.402 73.3779ZM135.757 71.6526L134.08 72.5153L133.663 72.2863L135.341 71.4237L135.757 71.6526ZM139.112 69.9274L137.435 70.79L137.018 70.5611L138.696 69.6984L139.112 69.9274ZM142.467 68.2021L140.79 69.0647L140.373 68.8358L142.051 67.9732L142.467 68.2021ZM145.822 66.4768L144.145 67.3395L143.728 67.1105L145.406 66.2479L145.822 66.4768ZM149.177 64.7516L147.5 65.6142L147.083 65.3853L148.761 64.5226L149.177 64.7516ZM151.694 63.4576L150.855 63.8889L150.438 63.66L151.277 63.2287L151.694 63.4576ZM78.0008 102.852L76.3629 101.952L76.7857 101.735L78.4236 102.634L78.0008 102.852ZM134.714 73.6879L133.076 72.788L133.499 72.5706L135.137 73.4705L134.714 73.6879ZM81.2765 104.652L79.6386 103.752L80.0614 103.534L81.6992 104.434L81.2765 104.652ZM100.181 94.9303L98.5431 94.0304L98.9658 93.813L100.604 94.7129L100.181 94.9303ZM119.085 85.209L117.447 84.3091L117.87 84.0917L119.508 84.9916L119.085 85.209ZM137.99 75.4877L136.352 74.5878L136.775 74.3704L138.413 75.2703L137.99 75.4877ZM84.5522 106.451L82.9143 105.552L83.3371 105.334L84.975 106.234L84.5522 106.451ZM103.457 96.7301L101.819 95.8302L102.242 95.6128L103.879 96.5127L103.457 96.7301ZM122.361 87.0088L120.723 86.1089L121.146 85.8915L122.784 86.7914L122.361 87.0088ZM141.265 77.2875L139.628 76.3876L140.05 76.1702L141.688 77.0701L141.265 77.2875ZM87.8279 108.251L86.19 107.351L86.6128 107.134L88.2507 108.034L87.8279 108.251ZM106.732 98.5299L105.094 97.63L105.517 97.4126L107.155 98.3125L106.732 98.5299ZM125.637 88.8086L123.999 87.9087L124.422 87.6913L126.06 88.5912L125.637 88.8086ZM144.541 79.0873L142.903 78.1874L143.326 77.97L144.964 78.8699L144.541 79.0873ZM91.1036 110.051L89.4657 109.151L89.8885 108.934L91.5264 109.834L91.1036 110.051ZM110.008 100.33L108.37 99.4298L108.793 99.2124L110.431 100.112L110.008 100.33ZM128.912 90.6084L127.275 89.7085L127.697 89.4911L129.335 90.391L128.912 90.6084ZM147.817 80.8871L146.179 79.9872L146.602 79.7698L148.24 80.6697L147.817 80.8871ZM94.3793 111.851L92.7414 110.951L93.1642 110.734L94.8021 111.633L94.3793 111.851ZM113.284 102.13L111.646 101.23L112.069 101.012L113.706 101.912L113.284 102.13ZM132.188 92.4082L130.55 91.5083L130.973 91.2909L132.611 92.1908L132.188 92.4082ZM151.093 82.6869L149.455 81.787L149.878 81.5696L151.515 82.4695L151.093 82.6869ZM77.5118 121.726L76.6705 122.159L76.2538 121.93L77.0952 121.497L77.5118 121.726ZM80.8772 119.996L79.1945 120.861L78.7779 120.632L80.4606 119.767L80.8772 119.996ZM84.2426 118.265L82.5599 119.13L82.1433 118.901L83.826 118.036L84.2426 118.265ZM87.608 116.534L85.9253 117.4L85.5087 117.171L87.1914 116.306L87.608 116.534ZM90.9734 114.804L89.2907 115.669L88.8741 115.44L90.5568 114.575L90.9734 114.804ZM94.3388 113.073L92.6561 113.939L92.2395 113.71L93.9222 112.844L94.3388 113.073ZM97.7042 111.343L96.0215 112.208L95.6049 111.979L97.2876 111.114L97.7042 111.343ZM101.07 109.612L99.3869 110.477L98.9703 110.248L100.653 109.383L101.07 109.612ZM104.435 107.881L102.752 108.747L102.336 108.518L104.018 107.652L104.435 107.881ZM107.8 106.151L106.118 107.016L105.701 106.787L107.384 105.922L107.8 106.151ZM111.166 104.42L109.483 105.285L109.067 105.057L110.749 104.191L111.166 104.42ZM114.531 102.69L112.849 103.555L112.432 103.326L114.115 102.461L114.531 102.69ZM117.897 100.959L116.214 101.824L115.797 101.595L117.48 100.73L117.897 100.959ZM121.262 99.2284L119.579 100.094L119.163 99.8648L120.845 98.9994L121.262 99.2284ZM124.627 97.4978L122.945 98.3631L122.528 98.1341L124.211 97.2688L124.627 97.4978ZM127.993 95.7672L126.31 96.6325L125.894 96.4035L127.576 95.5382L127.993 95.7672ZM131.358 94.0366L129.676 94.9019L129.259 94.6729L130.942 93.8076L131.358 94.0366ZM134.724 92.306L133.041 93.1712L132.624 92.9423L134.307 92.077L134.724 92.306ZM138.089 90.5753L136.406 91.4406L135.99 91.2117L137.672 90.3464L138.089 90.5753ZM141.454 88.8447L139.772 89.71L139.355 89.4811L141.038 88.6158L141.454 88.8447ZM144.82 87.1141L143.137 87.9794L142.721 87.7505L144.403 86.8852L144.82 87.1141ZM148.185 85.3835L146.503 86.2488L146.086 86.0199L147.769 85.1546L148.185 85.3835ZM151.551 83.6529L149.868 84.5182L149.451 84.2893L151.134 83.424L151.551 83.6529ZM154.916 81.9223L153.233 82.7876L152.817 82.5587L154.499 81.6934L154.916 81.9223ZM158.281 80.1917L156.599 81.057L156.182 80.8281L157.865 79.9628L158.281 80.1917ZM161.647 78.4611L159.964 79.3264L159.548 79.0975L161.23 78.2322L161.647 78.4611ZM165.012 76.7305L163.33 77.5958L162.913 77.3669L164.596 76.5016L165.012 76.7305ZM168.378 74.9999L166.695 75.8652L166.278 75.6363L167.961 74.771L168.378 74.9999ZM170.902 73.7019L170.647 73.8328L170.06 74.1346L169.644 73.9057L170.231 73.6039L170.485 73.473L170.902 73.7019ZM97.655 113.651L96.0171 112.751L96.4399 112.533L98.0778 113.433L97.655 113.651ZM116.559 103.929L114.922 103.029L115.344 102.812L116.982 103.712L116.559 103.929ZM135.464 94.208L133.826 93.3081L134.249 93.0907L135.887 93.9906L135.464 94.208ZM154.368 84.4867L152.73 83.5868L153.153 83.3694L154.791 84.2693L154.368 84.4867ZM100.931 115.45L99.2928 114.551L99.7156 114.333L101.353 115.233L100.931 115.45ZM119.835 105.729L118.197 104.829L118.62 104.612L120.258 105.512L119.835 105.729ZM138.74 96.0078L137.102 95.1079L137.524 94.8905L139.162 95.7904L138.74 96.0078ZM157.644 86.2865L156.006 85.3866L156.429 85.1692L158.067 86.0691L157.644 86.2865ZM104.206 117.25L102.569 116.35L102.991 116.133L104.629 117.033L104.206 117.25ZM123.111 107.529L121.473 106.629L121.896 106.412L123.534 107.312L123.111 107.529ZM142.015 97.8076L140.377 96.9077L140.8 96.6903L142.438 97.5902L142.015 97.8076ZM160.92 88.0863L159.282 87.1864L159.705 86.969L161.342 87.8689L160.92 88.0863ZM107.482 119.05L105.844 118.15L106.267 117.933L107.905 118.833L107.482 119.05ZM126.387 109.329L124.749 108.429L125.171 108.211L126.809 109.111L126.387 109.329ZM145.291 99.6075L143.653 98.7076L144.076 98.4902L145.714 99.3901L145.291 99.6075ZM164.195 89.8862L162.558 88.9862L162.98 88.7688L164.618 89.6687L164.195 89.8862ZM110.758 120.85L109.12 119.95L109.543 119.733L111.181 120.632L110.758 120.85ZM129.662 111.129L128.024 110.229L128.447 110.011L130.085 110.911L129.662 111.129ZM148.567 101.407L146.929 100.507L147.352 100.29L148.989 101.19L148.567 101.407ZM167.471 91.686L165.833 90.786L166.256 90.5686L167.894 91.4685L167.471 91.686ZM113.215 122.2L112.396 121.75L112.818 121.532L113.637 121.982L113.215 122.2ZM132.119 112.478L131.3 112.028L131.723 111.811L132.542 112.261L132.119 112.478ZM151.023 102.757L150.204 102.307L150.627 102.09L151.446 102.54L151.023 102.757ZM169.928 93.0358L169.109 92.5859L169.532 92.3685L170.351 92.8184L169.928 93.0358Z" fill="#6F6F6F"/>
<path fill-rule="evenodd" clip-rule="evenodd" d="M90.9149 49.1731L92.3862 49.9815V50.1587L92.13 50.2904L90.4921 49.3905L90.9149 49.1731ZM91.6647 69.6933L92.3862 70.0897V70.5394L91.2419 69.9107L91.6647 69.6933ZM99.4311 74.4102L98.5188 73.9333V73.4592L99.8539 74.1928L99.4311 74.4102ZM98.8586 70.8104L98.5188 70.6237V70.5419L100.125 69.7161L100.541 69.9451L98.8586 70.8104ZM113.465 43.039L114.052 42.7372L114.469 42.9661L113.882 43.2679L113.465 43.039ZM132.096 53.2754L132.683 52.9736L133.1 53.2025L132.513 53.5043L132.096 53.2754ZM169.644 73.9057L170.231 73.6039L170.647 73.8328L170.06 74.1346L169.644 73.9057ZM22.3139 72.2551L21.4949 71.8052L21.9177 71.5878L22.7366 72.0377L22.3139 72.2551ZM41.2183 62.5338L40.3994 62.0839L40.8221 61.8665L41.6411 62.3164L41.2183 62.5338ZM60.1227 52.8125L59.3038 52.3626L59.7266 52.1452L60.5455 52.5951L60.1227 52.8125ZM79.0272 43.0912L78.2082 42.6413L78.631 42.4238L79.4499 42.8738L79.0272 43.0912ZM25.5896 74.0549L23.9517 73.155L24.3745 72.9376L26.0123 73.8375L25.5896 74.0549ZM44.494 64.3336L42.8561 63.4337L43.2789 63.2163L44.9168 64.1162L44.494 64.3336ZM63.3984 54.6123L61.7606 53.7124L62.1833 53.495L63.8212 54.3949L63.3984 54.6123ZM82.3028 44.891L80.665 43.9911L81.0878 43.7737L82.7256 44.6736L82.3028 44.891ZM28.8653 75.8547L27.2274 74.9548L27.6502 74.7374L29.288 75.6373L28.8653 75.8547ZM47.7697 66.1334L46.1318 65.2335L46.5546 65.0161L48.1925 65.916L47.7697 66.1334ZM66.6741 56.4121L65.0363 55.5122L65.459 55.2948L67.0969 56.1947L66.6741 56.4121ZM85.5786 46.6908L83.9407 45.7909L84.3635 45.5735L86.0013 46.4734L85.5786 46.6908ZM32.141 77.6545L30.5031 76.7547L30.9259 76.5372L32.5637 77.4371L32.141 77.6545ZM51.0454 67.9332L49.4075 67.0333L49.8303 66.8159L51.4682 67.7158L51.0454 67.9332ZM69.9498 58.2119L68.312 57.312L68.7347 57.0946L70.3726 57.9945L69.9498 58.2119ZM88.8543 48.4906L87.2164 47.5907L87.6392 47.3733L89.277 48.2732L88.8543 48.4906ZM35.4167 79.4544L33.7788 78.5545L34.2016 78.337L35.8394 79.237L35.4167 79.4544ZM54.3211 69.733L52.6832 68.8331L53.106 68.6157L54.7439 69.5156L54.3211 69.733ZM73.2255 60.0117L71.5877 59.1118L72.0105 58.8944L73.6483 59.7943L73.2255 60.0117ZM38.6924 81.2542L37.0545 80.3543L37.4773 80.1369L39.1151 81.0368L38.6924 81.2542ZM57.5968 71.5329L55.9589 70.6329L56.3817 70.4155L58.0196 71.3154L57.5968 71.5329ZM76.5012 61.8115L74.8634 60.9116L75.2862 60.6942L76.924 61.5941L76.5012 61.8115ZM21.3335 90.8596L20.4922 91.2922L20.0755 91.0633L20.9169 90.6307L21.3335 90.8596ZM24.6989 89.129L23.0162 89.9943L22.5996 89.7654L24.2823 88.9001L24.6989 89.129ZM28.0643 87.3984L26.3816 88.2637L25.965 88.0348L27.6477 87.1694L28.0643 87.3984ZM31.4297 85.6678L29.747 86.5331L29.3304 86.3041L31.0131 85.4388L31.4297 85.6678ZM34.7951 83.9372L33.1124 84.8025L32.6958 84.5735L34.3785 83.7082L34.7951 83.9372ZM38.1605 82.2065L36.4778 83.0719L36.0612 82.8429L37.7439 81.9776L38.1605 82.2065ZM41.5259 80.4759L39.8432 81.3413L39.4266 81.1123L41.1093 80.247L41.5259 80.4759ZM44.8913 78.7453L43.2086 79.6106L42.792 79.3817L44.4747 78.5164L44.8913 78.7453ZM48.2567 77.0147L46.574 77.88L46.1574 77.6511L47.8401 76.7858L48.2567 77.0147ZM51.6222 75.2841L49.9395 76.1494L49.5228 75.9205L51.2055 75.0552L51.6222 75.2841ZM54.9876 73.5535L53.3049 74.4188L52.8882 74.1899L54.5709 73.3246L54.9876 73.5535ZM58.353 71.8229L56.6703 72.6882L56.2536 72.4593L57.9363 71.594L58.353 71.8229ZM61.7184 70.0923L60.0357 70.9576L59.619 70.7287L61.3017 69.8634L61.7184 70.0923ZM65.0838 68.3617L63.4011 69.227L62.9844 68.9981L64.6671 68.1328L65.0838 68.3617ZM68.4492 66.6311L66.7665 67.4964L66.3498 67.2675L68.0325 66.4022L68.4492 66.6311ZM71.8146 64.9005L70.1319 65.7658L69.7152 65.5369L71.3979 64.6716L71.8146 64.9005ZM75.18 63.1699L73.4973 64.0352L73.0806 63.8062L74.7633 62.941L75.18 63.1699ZM78.5454 61.4393L76.8627 62.3046L76.446 62.0756L78.1287 61.2104L78.5454 61.4393ZM81.9108 59.7087L80.2281 60.574L79.8114 60.345L81.4941 59.4797L81.9108 59.7087ZM85.2762 57.9781L83.5935 58.8434L83.1768 58.6144L84.8595 57.7491L85.2762 57.9781ZM88.6416 56.2475L86.9589 57.1128L86.5422 56.8838L88.2249 56.0185L88.6416 56.2475ZM92.007 54.5169L90.3243 55.3822L89.9076 55.1532L91.5903 54.2879L92.007 54.5169ZM102.103 49.325L100.42 50.1903L100.004 49.9614L101.687 49.0961L102.103 49.325ZM105.469 47.5944L103.786 48.4597L103.369 48.2308L105.052 47.3655L105.469 47.5944ZM108.834 45.8638L107.151 46.7291L106.735 46.5002L108.417 45.6349L108.834 45.8638ZM112.199 44.1332L110.517 44.9985L110.1 44.7696L111.783 43.9043L112.199 44.1332ZM41.9681 83.054L40.3302 82.1541L40.753 81.9367L42.3908 82.8366L41.9681 83.054ZM60.8725 73.3327L59.2346 72.4328L59.6574 72.2154L61.2953 73.1153L60.8725 73.3327ZM79.7769 63.6113L78.1391 62.7114L78.5619 62.494L80.1997 63.3939L79.7769 63.6113ZM45.2438 84.8538L43.6059 83.9539L44.0287 83.7365L45.6665 84.6364L45.2438 84.8538ZM64.1482 75.1325L62.5103 74.2326L62.9331 74.0152L64.571 74.9151L64.1482 75.1325ZM83.0526 65.4112L81.4148 64.5112L81.8376 64.2938L83.4754 65.1938L83.0526 65.4112ZM101.957 55.6898L100.319 54.7899L100.742 54.5725L102.38 55.4724L101.957 55.6898ZM48.5195 86.6536L46.8816 85.7537L47.3044 85.5363L48.9422 86.4362L48.5195 86.6536ZM67.4239 76.9323L65.7861 76.0324L66.2088 75.815L67.8467 76.7149L67.4239 76.9323ZM86.3283 67.211L84.6905 66.3111L85.1133 66.0937L86.7511 66.9936L86.3283 67.211ZM105.233 57.4897L103.595 56.5898L104.018 56.3723L105.656 57.2722L105.233 57.4897ZM51.7952 88.4534L50.1573 87.5535L50.5801 87.3361L52.2179 88.236L51.7952 88.4534ZM70.6996 78.7321L69.0618 77.8322L69.4845 77.6148L71.1224 78.5147L70.6996 78.7321ZM89.604 69.0108L87.9662 68.1109L88.389 67.8935L90.0268 68.7934L89.604 69.0108ZM108.508 59.2895L106.871 58.3896L107.293 58.1721L108.931 59.0721L108.508 59.2895ZM55.0709 90.2532L53.433 89.3533L53.8558 89.1359L55.4936 90.0358L55.0709 90.2532ZM73.9753 80.5319L72.3375 79.632L72.7602 79.4146L74.3981 80.3145L73.9753 80.5319ZM111.784 61.0893L110.146 60.1894L110.569 59.972L112.207 60.8719L111.784 61.0893ZM58.3466 92.053L56.7087 91.1531L57.1315 90.9357L58.7693 91.8356L58.3466 92.053ZM76.449 81.891L75.6132 81.4318L76.0359 81.2144L77.6738 82.1143L77.251 82.3317L76.8656 82.1199L75.3008 82.9246L74.8842 82.6957L76.449 81.891ZM115.06 62.8891L113.422 61.9892L113.845 61.7718L115.483 62.6717L115.06 62.8891ZM39.9641 101.096L39.1227 101.529L38.7061 101.3L39.5474 100.867L39.9641 101.096ZM43.3295 99.3654L41.6468 100.231L41.2301 100.002L42.9128 99.1365L43.3295 99.3654ZM46.6949 97.6348L45.0122 98.5001L44.5955 98.2712L46.2782 97.4058L46.6949 97.6348ZM50.0603 95.9042L48.3776 96.7695L47.9609 96.5405L49.6436 95.6752L50.0603 95.9042ZM53.4257 94.1736L51.743 95.0389L51.3263 94.8099L53.009 93.9446L53.4257 94.1736ZM56.7911 92.443L55.1084 93.3083L54.6917 93.0793L56.3744 92.214L56.7911 92.443ZM60.1565 90.7123L58.4738 91.5776L58.0571 91.3487L59.7398 90.4834L60.1565 90.7123ZM63.5219 88.9817L61.8392 89.847L61.4226 89.6181L63.1053 88.7528L63.5219 88.9817ZM66.8873 87.2511L65.2046 88.1164L64.788 87.8875L66.4707 87.0222L66.8873 87.2511ZM70.2527 85.5205L68.57 86.3858L68.1534 86.1569L69.8361 85.2916L70.2527 85.5205ZM73.6181 83.7899L71.9354 84.6552L71.5188 84.4263L73.2015 83.561L73.6181 83.7899ZM80.3489 80.3287L78.6662 81.194L78.2496 80.9651L79.9323 80.0998L80.3489 80.3287ZM83.7143 78.5981L82.0316 79.4634L81.615 79.2345L83.2977 78.3692L83.7143 78.5981ZM87.0797 76.8675L85.397 77.7328L84.9804 77.5039L86.6631 76.6386L87.0797 76.8675ZM90.4451 75.1369L88.7624 76.0022L88.3458 75.7733L90.0285 74.908L90.4451 75.1369ZM103.907 68.2145L102.224 69.0798L101.807 68.8508L103.49 67.9855L103.907 68.2145ZM107.272 66.4839L105.589 67.3492L105.173 67.1202L106.855 66.2549L107.272 66.4839ZM110.638 64.7533L108.955 65.6186L108.538 65.3896L110.221 64.5243L110.638 64.7533ZM114.003 63.0226L112.32 63.888L111.904 63.659L113.586 62.7937L114.003 63.0226ZM117.368 61.292L115.686 62.1573L115.269 61.9284L116.952 61.0631L117.368 61.292ZM120.734 59.5614L119.051 60.4267L118.634 60.1978L120.317 59.3325L120.734 59.5614ZM124.099 57.8308L122.416 58.6961L122 58.4672L123.682 57.6019L124.099 57.8308ZM127.465 56.1002L125.782 56.9655L125.365 56.7366L127.048 55.8713L127.465 56.1002ZM130.83 54.3696L129.147 55.2349L128.731 55.006L130.413 54.1407L130.83 54.3696ZM61.6223 93.8528L59.9844 92.9529L60.4072 92.7355L62.0451 93.6354L61.6223 93.8528ZM80.5267 84.1315L78.8889 83.2316L79.3116 83.0142L80.9495 83.9141L80.5267 84.1315ZM118.336 64.6889L116.698 63.789L117.12 63.5716L118.758 64.4715L118.336 64.6889ZM64.898 95.6526L63.2601 94.7527L63.6829 94.5353L65.3207 95.4352L64.898 95.6526ZM83.8024 85.9313L82.1646 85.0314L82.5873 84.814L84.2252 85.7139L83.8024 85.9313ZM102.707 76.21L101.069 75.3101L101.492 75.0927L103.13 75.9926L102.707 76.21ZM121.611 66.4887L119.973 65.5888L120.396 65.3714L122.034 66.2713L121.611 66.4887ZM68.1737 97.4524L66.5358 96.5525L66.9586 96.3351L68.5965 97.235L68.1737 97.4524ZM87.0781 87.7311L85.4403 86.8312L85.863 86.6138L86.9247 87.1971L87.5009 87.5137L87.0781 87.7311ZM105.983 78.0098L104.345 77.1099L104.767 76.8925L106.405 77.7924L105.983 78.0098ZM124.887 68.2885L123.249 67.3886L123.672 67.1712L125.31 68.0711L124.887 68.2885ZM71.4494 99.2522L69.8115 98.3523L70.2343 98.1349L71.8721 99.0348L71.4494 99.2522ZM90.3538 89.5309L88.716 88.631L89.1387 88.4136L90.7766 89.3135L90.3538 89.5309ZM109.258 79.8096L107.62 78.9097L108.043 78.6923L109.681 79.5922L109.258 79.8096ZM128.163 70.0883L126.525 69.1884L126.948 68.971L128.585 69.8709L128.163 70.0883ZM74.7251 101.052L73.0872 100.152L73.51 99.9347L75.1478 100.835L74.7251 101.052ZM93.6295 91.3307L91.9917 90.4308L92.4144 90.2134L94.0523 91.1133L93.6295 91.3307ZM112.534 81.6094L110.896 80.7095L111.319 80.4921L112.957 81.392L112.534 81.6094ZM131.438 71.8881L129.801 70.9882L130.223 70.7708L131.861 71.6707L131.438 71.8881ZM58.592 111.334L57.7533 111.765L57.3366 111.536L58.1754 111.105L58.592 111.334ZM61.947 109.608L60.2695 110.471L59.8529 110.242L61.5304 109.38L61.947 109.608ZM65.3021 107.883L63.6246 108.746L63.2079 108.517L64.8854 107.654L65.3021 107.883ZM68.6571 106.158L66.9796 107.021L66.5629 106.792L68.2404 105.929L68.6571 106.158ZM72.0121 104.433L70.3346 105.295L69.9179 105.066L71.5955 104.204L72.0121 104.433ZM75.3671 102.707L73.6896 103.57L73.273 103.341L74.9505 102.478L75.3671 102.707ZM78.7221 100.982L77.0446 101.845L76.628 101.616L78.3055 100.753L78.7221 100.982ZM82.0771 99.2569L80.3997 100.119L79.983 99.8906L81.6605 99.0279L82.0771 99.2569ZM85.4322 97.5316L83.7547 98.3942L83.338 98.1653L85.0155 97.3027L85.4322 97.5316ZM88.7872 95.8063L87.1097 96.669L86.693 96.44L88.3705 95.5774L88.7872 95.8063ZM92.1422 94.0811L90.4647 94.9437L90.0481 94.7148L91.7256 93.8521L92.1422 94.0811ZM95.4962 92.3563L93.8197 93.2184L93.4031 92.9895L95.0806 92.1269L95.2684 92.2301L95.6901 92.0132L97.328 92.9131L96.9052 93.1305L95.4962 92.3563ZM98.8522 90.6305L97.1747 91.4932L96.7581 91.2642L98.4356 90.4016L98.8522 90.6305ZM102.207 88.9053L100.53 89.7679L100.113 89.539L101.791 88.6763L102.207 88.9053ZM105.562 87.18L103.885 88.0426L103.468 87.8137L105.146 86.9511L105.562 87.18ZM108.917 85.4547L107.24 86.3174L106.823 86.0884L108.501 85.2258L108.917 85.4547ZM112.272 83.7295L110.595 84.5921L110.178 84.3632L111.856 83.5005L112.272 83.7295ZM114.401 82.635L113.95 82.8668L113.533 82.6379L115.211 81.7753L115.627 82.0042L114.823 82.4176L116.232 83.1918L115.81 83.4092L114.401 82.635ZM118.982 80.2789L117.305 81.1416L116.888 80.9126L118.566 80.05L118.982 80.2789ZM122.337 78.5537L120.66 79.4163L120.243 79.1874L121.921 78.3248L122.337 78.5537ZM125.692 76.8284L124.015 77.691L123.598 77.4621L125.276 76.5995L125.692 76.8284ZM129.047 75.1031L127.37 75.9658L126.953 75.7369L128.631 74.8742L129.047 75.1031ZM132.402 73.3779L130.725 74.2405L130.308 74.0116L131.986 73.149L132.402 73.3779ZM135.757 71.6526L134.08 72.5153L133.663 72.2863L135.341 71.4237L135.757 71.6526ZM139.112 69.9274L137.435 70.79L137.018 70.5611L138.696 69.6984L139.112 69.9274ZM142.467 68.2021L140.79 69.0647L140.373 68.8358L142.051 67.9732L142.467 68.2021ZM145.822 66.4768L144.145 67.3395L143.728 67.1105L145.406 66.2479L145.822 66.4768ZM149.177 64.7516L147.5 65.6142L147.083 65.3853L148.761 64.5226L149.177 64.7516ZM151.694 63.4576L150.855 63.8889L150.438 63.66L151.277 63.2287L151.694 63.4576ZM78.0008 102.852L76.3629 101.952L76.7857 101.735L78.4236 102.634L78.0008 102.852ZM134.714 73.6879L133.076 72.788L133.499 72.5706L135.137 73.4705L134.714 73.6879ZM81.2765 104.652L79.6386 103.752L80.0614 103.534L81.6992 104.434L81.2765 104.652ZM100.181 94.9303L98.5431 94.0304L98.9658 93.813L100.604 94.7129L100.181 94.9303ZM119.085 85.209L117.447 84.3091L117.87 84.0917L119.508 84.9916L119.085 85.209ZM137.99 75.4877L136.352 74.5878L136.775 74.3704L138.413 75.2703L137.99 75.4877ZM84.5522 106.451L82.9143 105.552L83.3371 105.334L84.975 106.234L84.5522 106.451ZM103.457 96.7301L101.819 95.8302L102.242 95.6128L103.879 96.5127L103.457 96.7301ZM122.361 87.0088L120.723 86.1089L121.146 85.8915L122.784 86.7914L122.361 87.0088ZM141.265 77.2875L139.628 76.3876L140.05 76.1702L141.688 77.0701L141.265 77.2875ZM87.8279 108.251L86.19 107.351L86.6128 107.134L88.2507 108.034L87.8279 108.251ZM106.732 98.5299L105.094 97.63L105.517 97.4126L107.155 98.3125L106.732 98.5299ZM125.637 88.8086L123.999 87.9087L124.422 87.6913L126.06 88.5912L125.637 88.8086ZM144.541 79.0873L142.903 78.1874L143.326 77.97L144.964 78.8699L144.541 79.0873ZM91.1036 110.051L89.4657 109.151L89.8885 108.934L91.5264 109.834L91.1036 110.051ZM110.008 100.33L108.37 99.4298L108.793 99.2124L110.431 100.112L110.008 100.33ZM128.912 90.6084L127.275 89.7085L127.697 89.4911L129.335 90.391L128.912 90.6084ZM147.817 80.8871L146.179 79.9872L146.602 79.7698L148.24 80.6697L147.817 80.8871ZM94.3793 111.851L92.7414 110.951L93.1642 110.734L94.8021 111.633L94.3793 111.851ZM113.284 102.13L111.646 101.23L112.069 101.012L113.706 101.912L113.284 102.13ZM132.188 92.4082L130.55 91.5083L130.973 91.2909L132.611 92.1908L132.188 92.4082ZM151.093 82.6869L149.455 81.787L149.878 81.5696L151.515 82.4695L151.093 82.6869ZM77.5118 121.726L76.6705 122.159L76.2538 121.93L77.0952 121.497L77.5118 121.726ZM80.8772 119.996L79.1945 120.861L78.7779 120.632L80.4606 119.767L80.8772 119.996ZM84.2426 118.265L82.5599 119.13L82.1433 118.901L83.826 118.036L84.2426 118.265ZM87.608 116.534L85.9253 117.4L85.5087 117.171L87.1914 116.306L87.608 116.534ZM90.9734 114.804L89.2907 115.669L88.8741 115.44L90.5568 114.575L90.9734 114.804ZM94.3388 113.073L92.6561 113.939L92.2395 113.71L93.9222 112.844L94.3388 113.073ZM97.7042 111.343L96.0215 112.208L95.6049 111.979L97.2876 111.114L97.7042 111.343ZM101.07 109.612L99.3869 110.477L98.9703 110.248L100.653 109.383L101.07 109.612ZM104.435 107.881L102.752 108.747L102.336 108.518L104.018 107.652L104.435 107.881ZM107.8 106.151L106.118 107.016L105.701 106.787L107.384 105.922L107.8 106.151ZM111.166 104.42L109.483 105.285L109.067 105.057L110.749 104.191L111.166 104.42ZM114.531 102.69L112.849 103.555L112.432 103.326L114.115 102.461L114.531 102.69ZM117.897 100.959L116.214 101.824L115.797 101.595L117.48 100.73L117.897 100.959ZM121.262 99.2284L119.579 100.094L119.163 99.8648L120.845 98.9994L121.262 99.2284ZM124.627 97.4978L122.945 98.3631L122.528 98.1341L124.211 97.2688L124.627 97.4978ZM127.993 95.7672L126.31 96.6325L125.894 96.4035L127.576 95.5382L127.993 95.7672ZM131.358 94.0366L129.676 94.9019L129.259 94.6729L130.942 93.8076L131.358 94.0366ZM134.724 92.306L133.041 93.1712L132.624 92.9423L134.307 92.077L134.724 92.306ZM138.089 90.5753L136.406 91.4406L135.99 91.2117L137.672 90.3464L138.089 90.5753ZM141.454 88.8447L139.772 89.71L139.355 89.4811L141.038 88.6158L141.454 88.8447ZM144.82 87.1141L143.137 87.9794L142.721 87.7505L144.403 86.8852L144.82 87.1141ZM148.185 85.3835L146.503 86.2488L146.086 86.0199L147.769 85.1546L148.185 85.3835ZM151.551 83.6529L149.868 84.5182L149.451 84.2893L151.134 83.424L151.551 83.6529ZM154.916 81.9223L153.233 82.7876L152.817 82.5587L154.499 81.6934L154.916 81.9223ZM158.281 80.1917L156.599 81.057L156.182 80.8281L157.865 79.9628L158.281 80.1917ZM161.647 78.4611L159.964 79.3264L159.548 79.0975L161.23 78.2322L161.647 78.4611ZM165.012 76.7305L163.33 77.5958L162.913 77.3669L164.596 76.5016L165.012 76.7305ZM168.378 74.9999L166.695 75.8652L166.278 75.6363L167.961 74.771L168.378 74.9999ZM97.655 113.651L96.0171 112.751L96.4399 112.533L98.0778 113.433L97.655 113.651ZM116.559 103.929L114.922 103.029L115.344 102.812L116.982 103.712L116.559 103.929ZM135.464 94.208L133.826 93.3081L134.249 93.0907L135.887 93.9906L135.464 94.208ZM154.368 84.4867L152.73 83.5868L153.153 83.3694L154.791 84.2693L154.368 84.4867ZM100.931 115.45L99.2928 114.551L99.7156 114.333L101.353 115.233L100.931 115.45ZM119.835 105.729L118.197 104.829L118.62 104.612L120.258 105.512L119.835 105.729ZM138.74 96.0078L137.102 95.1079L137.524 94.8905L139.162 95.7904L138.74 96.0078ZM157.644 86.2865L156.006 85.3866L156.429 85.1692L158.067 86.0691L157.644 86.2865ZM104.206 117.25L102.569 116.35L102.991 116.133L104.629 117.033L104.206 117.25ZM123.111 107.529L121.473 106.629L121.896 106.412L123.534 107.312L123.111 107.529ZM142.015 97.8076L140.377 96.9077L140.8 96.6903L142.438 97.5902L142.015 97.8076ZM160.92 88.0863L159.282 87.1864L159.705 86.969L161.342 87.8689L160.92 88.0863ZM107.482 119.05L105.844 118.15L106.267 117.933L107.905 118.833L107.482 119.05ZM126.387 109.329L124.749 108.429L125.171 108.211L126.809 109.111L126.387 109.329ZM145.291 99.6075L143.653 98.7076L144.076 98.4902L145.714 99.3901L145.291 99.6075ZM164.195 89.8862L162.558 88.9862L162.98 88.7688L164.618 89.6687L164.195 89.8862ZM110.758 120.85L109.12 119.95L109.543 119.733L111.181 120.632L110.758 120.85ZM129.662 111.129L128.024 110.229L128.447 110.011L130.085 110.911L129.662 111.129ZM148.567 101.407L146.929 100.507L147.352 100.29L148.989 101.19L148.567 101.407ZM167.471 91.686L165.833 90.786L166.256 90.5686L167.894 91.4685L167.471 91.686ZM113.215 122.2L112.396 121.75L112.818 121.532L113.637 121.982L113.215 122.2ZM132.119 112.478L131.3 112.028L131.723 111.811L132.542 112.261L132.119 112.478ZM151.023 102.757L150.204 102.307L150.627 102.09L151.446 102.54L151.023 102.757ZM169.928 93.0358L169.109 92.5859L169.532 92.3685L170.351 92.8184L169.928 93.0358Z" fill="#6F6F6F"/>
<path fill-rule="evenodd" clip-rule="evenodd" d="M90.4921 49.3905L92.13 50.2904L92.3862 50.1587L92.5527 50.073L92.3862 49.9815L90.9149 49.1731L90.4921 49.3905ZM170.647 73.8328L170.902 73.7019L170.485 73.473L170.231 73.6039L169.644 73.9057L170.06 74.1346L170.647 73.8328ZM133.1 53.2025L133.354 53.0716L132.937 52.8427L132.683 52.9736L132.096 53.2754L132.513 53.5043L133.1 53.2025ZM114.469 42.9661L114.723 42.8352L114.307 42.6063L114.052 42.7372L113.465 43.039L113.882 43.2679L114.469 42.9661ZM92.3862 70.0897L91.6647 69.6933L91.2419 69.9107L92.3862 70.5394V70.0897ZM98.5188 73.9333L99.4311 74.4102L99.8539 74.1928L98.5188 73.4592V73.9333ZM98.5188 70.6237L98.8586 70.8104L100.541 69.9451L100.125 69.7161L98.5188 70.5419L98.442 70.5814L98.5188 70.6237ZM21.4949 71.8052L22.3139 72.2551L22.7366 72.0377L21.9177 71.5878L21.4949 71.8052ZM40.3994 62.0839L41.2183 62.5338L41.6411 62.3164L40.8221 61.8665L40.3994 62.0839ZM59.3038 52.3626L60.1227 52.8125L60.5455 52.5951L59.7266 52.1452L59.3038 52.3626ZM78.2082 42.6413L79.0272 43.0912L79.4499 42.8738L78.631 42.4238L78.2082 42.6413ZM23.9517 73.155L25.5896 74.0549L26.0123 73.8375L24.3745 72.9376L23.9517 73.155ZM42.8561 63.4337L44.494 64.3336L44.9168 64.1162L43.2789 63.2163L42.8561 63.4337ZM61.7606 53.7124L63.3984 54.6123L63.8212 54.3949L62.1833 53.495L61.7606 53.7124ZM80.665 43.9911L82.3028 44.891L82.7256 44.6736L81.0878 43.7737L80.665 43.9911ZM27.2274 74.9548L28.8653 75.8547L29.288 75.6373L27.6502 74.7374L27.2274 74.9548ZM46.1318 65.2335L47.7697 66.1334L48.1925 65.916L46.5546 65.0161L46.1318 65.2335ZM65.0363 55.5122L66.6741 56.4121L67.0969 56.1947L65.459 55.2948L65.0363 55.5122ZM83.9407 45.7909L85.5786 46.6908L86.0013 46.4734L84.3635 45.5735L83.9407 45.7909ZM30.5031 76.7547L32.141 77.6545L32.5637 77.4371L30.9259 76.5372L30.5031 76.7547ZM49.4075 67.0333L51.0454 67.9332L51.4682 67.7158L49.8303 66.8159L49.4075 67.0333ZM68.312 57.312L69.9498 58.2119L70.3726 57.9945L68.7347 57.0946L68.312 57.312ZM87.2164 47.5907L88.8543 48.4906L89.277 48.2732L87.6392 47.3733L87.2164 47.5907ZM33.7788 78.5545L35.4167 79.4544L35.8394 79.237L34.2016 78.337L33.7788 78.5545ZM52.6832 68.8331L54.3211 69.733L54.7439 69.5156L53.106 68.6157L52.6832 68.8331ZM71.5877 59.1118L73.2255 60.0117L73.6483 59.7943L72.0105 58.8944L71.5877 59.1118ZM37.0545 80.3543L38.6924 81.2542L39.1151 81.0368L37.4773 80.1369L37.0545 80.3543ZM55.9589 70.6329L57.5968 71.5329L58.0196 71.3154L56.3817 70.4155L55.9589 70.6329ZM74.8634 60.9116L76.5012 61.8115L76.924 61.5941L75.2862 60.6942L74.8634 60.9116ZM20.4922 91.2922L21.3335 90.8596L20.9169 90.6307L20.0755 91.0633L20.4922 91.2922ZM23.0162 89.9943L24.6989 89.129L24.2823 88.9001L22.5996 89.7654L23.0162 89.9943ZM26.3816 88.2637L28.0643 87.3984L27.6477 87.1694L25.965 88.0348L26.3816 88.2637ZM29.747 86.5331L31.4297 85.6678L31.0131 85.4388L29.3304 86.3041L29.747 86.5331ZM33.1124 84.8025L34.7951 83.9372L34.3785 83.7082L32.6958 84.5735L33.1124 84.8025ZM36.4778 83.0719L38.1605 82.2065L37.7439 81.9776L36.0612 82.8429L36.4778 83.0719ZM39.8432 81.3413L41.5259 80.4759L41.1093 80.247L39.4266 81.1123L39.8432 81.3413ZM43.2086 79.6106L44.8913 78.7453L44.4747 78.5164L42.792 79.3817L43.2086 79.6106ZM46.574 77.88L48.2567 77.0147L47.8401 76.7858L46.1574 77.6511L46.574 77.88ZM49.9395 76.1494L51.6222 75.2841L51.2055 75.0552L49.5228 75.9205L49.9395 76.1494ZM53.3049 74.4188L54.9876 73.5535L54.5709 73.3246L52.8882 74.1899L53.3049 74.4188ZM56.6703 72.6882L58.353 71.8229L57.9363 71.594L56.2536 72.4593L56.6703 72.6882ZM60.0357 70.9576L61.7184 70.0923L61.3017 69.8634L59.619 70.7287L60.0357 70.9576ZM63.4011 69.227L65.0838 68.3617L64.6671 68.1328L62.9844 68.9981L63.4011 69.227ZM66.7665 67.4964L68.4492 66.6311L68.0325 66.4022L66.3498 67.2675L66.7665 67.4964ZM70.1319 65.7658L71.8146 64.9005L71.3979 64.6716L69.7152 65.5369L70.1319 65.7658ZM73.4973 64.0352L75.18 63.1699L74.7633 62.941L73.0806 63.8062L73.4973 64.0352ZM76.8627 62.3046L78.5454 61.4393L78.1287 61.2104L76.446 62.0756L76.8627 62.3046ZM80.2281 60.574L81.9108 59.7087L81.4941 59.4797L79.8114 60.345L80.2281 60.574ZM83.5935 58.8434L85.2762 57.9781L84.8595 57.7491L83.1768 58.6144L83.5935 58.8434ZM86.9589 57.1128L88.6416 56.2475L88.2249 56.0185L86.5422 56.8838L86.9589 57.1128ZM90.3243 55.3822L92.007 54.5169L91.5903 54.2879L89.9076 55.1532L90.3243 55.3822ZM100.42 50.1903L102.103 49.325L101.687 49.0961L100.004 49.9614L100.42 50.1903ZM103.786 48.4597L105.469 47.5944L105.052 47.3655L103.369 48.2308L103.786 48.4597ZM107.151 46.7291L108.834 45.8638L108.417 45.6349L106.735 46.5002L107.151 46.7291ZM110.517 44.9985L112.199 44.1332L111.783 43.9043L110.1 44.7696L110.517 44.9985ZM40.3302 82.1541L41.9681 83.054L42.3908 82.8366L40.753 81.9367L40.3302 82.1541ZM59.2346 72.4328L60.8725 73.3327L61.2953 73.1153L59.6574 72.2154L59.2346 72.4328ZM78.1391 62.7114L79.7769 63.6113L80.1997 63.3939L78.5619 62.494L78.1391 62.7114ZM43.6059 83.9539L45.2438 84.8538L45.6665 84.6364L44.0287 83.7365L43.6059 83.9539ZM62.5103 74.2326L64.1482 75.1325L64.571 74.9151L62.9331 74.0152L62.5103 74.2326ZM81.4148 64.5112L83.0526 65.4112L83.4754 65.1938L81.8376 64.2938L81.4148 64.5112ZM100.319 54.7899L101.957 55.6898L102.38 55.4724L100.742 54.5725L100.319 54.7899ZM46.8816 85.7537L48.5195 86.6536L48.9422 86.4362L47.3044 85.5363L46.8816 85.7537ZM65.7861 76.0324L67.4239 76.9323L67.8467 76.7149L66.2088 75.815L65.7861 76.0324ZM84.6905 66.3111L86.3283 67.211L86.7511 66.9936L85.1133 66.0937L84.6905 66.3111ZM103.595 56.5898L105.233 57.4897L105.656 57.2722L104.018 56.3723L103.595 56.5898ZM50.1573 87.5535L51.7952 88.4534L52.2179 88.236L50.5801 87.3361L50.1573 87.5535ZM69.0618 77.8322L70.6996 78.7321L71.1224 78.5147L69.4845 77.6148L69.0618 77.8322ZM87.9662 68.1109L89.604 69.0108L90.0268 68.7934L88.389 67.8935L87.9662 68.1109ZM106.871 58.3896L108.508 59.2895L108.931 59.0721L107.293 58.1721L106.871 58.3896ZM53.433 89.3533L55.0709 90.2532L55.4936 90.0358L53.8558 89.1359L53.433 89.3533ZM72.3375 79.632L73.9753 80.5319L74.3981 80.3145L72.7602 79.4146L72.3375 79.632ZM110.146 60.1894L111.784 61.0893L112.207 60.8719L110.569 59.972L110.146 60.1894ZM56.7087 91.1531L58.3466 92.053L58.7693 91.8356L57.1315 90.9357L56.7087 91.1531ZM75.6132 81.4318L76.449 81.891L74.8842 82.6957L75.3008 82.9246L76.8656 82.1199L77.251 82.3317L77.6738 82.1143L76.0359 81.2144L75.6132 81.4318ZM113.422 61.9892L115.06 62.8891L115.483 62.6717L113.845 61.7718L113.422 61.9892ZM39.1227 101.529L39.9641 101.096L39.5474 100.867L38.7061 101.3L39.1227 101.529ZM41.6468 100.231L43.3295 99.3654L42.9128 99.1365L41.2301 100.002L41.6468 100.231ZM45.0122 98.5001L46.6949 97.6348L46.2782 97.4058L44.5955 98.2712L45.0122 98.5001ZM48.3776 96.7695L50.0603 95.9042L49.6436 95.6752L47.9609 96.5405L48.3776 96.7695ZM51.743 95.0389L53.4257 94.1736L53.009 93.9446L51.3263 94.8099L51.743 95.0389ZM55.1084 93.3083L56.7911 92.443L56.3744 92.214L54.6917 93.0793L55.1084 93.3083ZM58.4738 91.5776L60.1565 90.7123L59.7398 90.4834L58.0571 91.3487L58.4738 91.5776ZM61.8392 89.847L63.5219 88.9817L63.1053 88.7528L61.4226 89.6181L61.8392 89.847ZM65.2046 88.1164L66.8873 87.2511L66.4707 87.0222L64.788 87.8875L65.2046 88.1164ZM68.57 86.3858L70.2527 85.5205L69.8361 85.2916L68.1534 86.1569L68.57 86.3858ZM71.9354 84.6552L73.6181 83.7899L73.2015 83.561L71.5188 84.4263L71.9354 84.6552ZM78.6662 81.194L80.3489 80.3287L79.9323 80.0998L78.2496 80.9651L78.6662 81.194ZM82.0316 79.4634L83.7143 78.5981L83.2977 78.3692L81.615 79.2345L82.0316 79.4634ZM85.397 77.7328L87.0797 76.8675L86.6631 76.6386L84.9804 77.5039L85.397 77.7328ZM88.7624 76.0022L90.4451 75.1369L90.0285 74.908L88.3458 75.7733L88.7624 76.0022ZM102.224 69.0798L103.907 68.2145L103.49 67.9855L101.807 68.8508L102.224 69.0798ZM105.589 67.3492L107.272 66.4839L106.855 66.2549L105.173 67.1202L105.589 67.3492ZM108.955 65.6186L110.638 64.7533L110.221 64.5243L108.538 65.3896L108.955 65.6186ZM112.32 63.888L114.003 63.0226L113.586 62.7937L111.904 63.659L112.32 63.888ZM115.686 62.1573L117.368 61.292L116.952 61.0631L115.269 61.9284L115.686 62.1573ZM119.051 60.4267L120.734 59.5614L120.317 59.3325L118.634 60.1978L119.051 60.4267ZM122.416 58.6961L124.099 57.8308L123.682 57.6019L122 58.4672L122.416 58.6961ZM125.782 56.9655L127.465 56.1002L127.048 55.8713L125.365 56.7366L125.782 56.9655ZM129.147 55.2349L130.83 54.3696L130.413 54.1407L128.731 55.006L129.147 55.2349ZM59.9844 92.9529L61.6223 93.8528L62.0451 93.6354L60.4072 92.7355L59.9844 92.9529ZM78.8889 83.2316L80.5267 84.1315L80.9495 83.9141L79.3116 83.0142L78.8889 83.2316ZM116.698 63.789L118.336 64.6889L118.758 64.4715L117.12 63.5716L116.698 63.789ZM63.2601 94.7527L64.898 95.6526L65.3207 95.4352L63.6829 94.5353L63.2601 94.7527ZM82.1646 85.0314L83.8024 85.9313L84.2252 85.7139L82.5873 84.814L82.1646 85.0314ZM101.069 75.3101L102.707 76.21L103.13 75.9926L101.492 75.0927L101.069 75.3101ZM119.973 65.5888L121.611 66.4887L122.034 66.2713L120.396 65.3714L119.973 65.5888ZM66.5358 96.5525L68.1737 97.4524L68.5965 97.235L66.9586 96.3351L66.5358 96.5525ZM85.4403 86.8312L87.0781 87.7311L87.5009 87.5137L86.9247 87.1971L85.863 86.6138L85.4403 86.8312ZM104.345 77.1099L105.983 78.0098L106.405 77.7924L104.767 76.8925L104.345 77.1099ZM123.249 67.3886L124.887 68.2885L125.31 68.0711L123.672 67.1712L123.249 67.3886ZM69.8115 98.3523L71.4494 99.2522L71.8721 99.0348L70.2343 98.1349L69.8115 98.3523ZM88.716 88.631L90.3538 89.5309L90.7766 89.3135L89.1387 88.4136L88.716 88.631ZM107.62 78.9097L109.258 79.8096L109.681 79.5922L108.043 78.6923L107.62 78.9097ZM126.525 69.1884L128.163 70.0883L128.585 69.8709L126.948 68.971L126.525 69.1884ZM73.0872 100.152L74.7251 101.052L75.1478 100.835L73.51 99.9347L73.0872 100.152ZM91.9917 90.4308L93.6295 91.3307L94.0523 91.1133L92.4144 90.2134L91.9917 90.4308ZM110.896 80.7095L112.534 81.6094L112.957 81.392L111.319 80.4921L110.896 80.7095ZM129.801 70.9882L131.438 71.8881L131.861 71.6707L130.223 70.7708L129.801 70.9882ZM57.7533 111.765L58.592 111.334L58.1754 111.105L57.3366 111.536L57.7533 111.765ZM60.2695 110.471L61.947 109.608L61.5304 109.38L59.8529 110.242L60.2695 110.471ZM63.6246 108.746L65.3021 107.883L64.8854 107.654L63.2079 108.517L63.6246 108.746ZM66.9796 107.021L68.6571 106.158L68.2404 105.929L66.5629 106.792L66.9796 107.021ZM70.3346 105.295L72.0121 104.433L71.5955 104.204L69.9179 105.066L70.3346 105.295ZM73.6896 103.57L75.3671 102.707L74.9505 102.478L73.273 103.341L73.6896 103.57ZM77.0446 101.845L78.7221 100.982L78.3055 100.753L76.628 101.616L77.0446 101.845ZM80.3997 100.119L82.0771 99.2569L81.6605 99.0279L79.983 99.8906L80.3997 100.119ZM83.7547 98.3942L85.4322 97.5316L85.0155 97.3027L83.338 98.1653L83.7547 98.3942ZM87.1097 96.669L88.7872 95.8063L88.3705 95.5774L86.693 96.44L87.1097 96.669ZM90.4647 94.9437L92.1422 94.0811L91.7256 93.8521L90.0481 94.7148L90.4647 94.9437ZM93.8197 93.2184L95.4962 92.3563L96.9052 93.1305L97.328 92.9131L95.6901 92.0132L95.2684 92.2301L95.0806 92.1269L93.4031 92.9895L93.8197 93.2184ZM97.1747 91.4932L98.8522 90.6305L98.4356 90.4016L96.7581 91.2642L97.1747 91.4932ZM100.53 89.7679L102.207 88.9053L101.791 88.6763L100.113 89.539L100.53 89.7679ZM103.885 88.0426L105.562 87.18L105.146 86.9511L103.468 87.8137L103.885 88.0426ZM107.24 86.3174L108.917 85.4547L108.501 85.2258L106.823 86.0884L107.24 86.3174ZM110.595 84.5921L112.272 83.7295L111.856 83.5005L110.178 84.3632L110.595 84.5921ZM113.95 82.8668L114.401 82.635L115.81 83.4092L116.232 83.1918L114.823 82.4176L115.627 82.0042L115.211 81.7753L113.533 82.6379L113.95 82.8668ZM117.305 81.1416L118.982 80.2789L118.566 80.05L116.888 80.9126L117.305 81.1416ZM120.66 79.4163L122.337 78.5537L121.921 78.3248L120.243 79.1874L120.66 79.4163ZM124.015 77.691L125.692 76.8284L125.276 76.5995L123.598 77.4621L124.015 77.691ZM127.37 75.9658L129.047 75.1031L128.631 74.8742L126.953 75.7369L127.37 75.9658ZM130.725 74.2405L132.402 73.3779L131.986 73.149L130.308 74.0116L130.725 74.2405ZM134.08 72.5153L135.757 71.6526L135.341 71.4237L133.663 72.2863L134.08 72.5153ZM137.435 70.79L139.112 69.9274L138.696 69.6984L137.018 70.5611L137.435 70.79ZM140.79 69.0647L142.467 68.2021L142.051 67.9732L140.373 68.8358L140.79 69.0647ZM144.145 67.3395L145.822 66.4768L145.406 66.2479L143.728 67.1105L144.145 67.3395ZM147.5 65.6142L149.177 64.7516L148.761 64.5226L147.083 65.3853L147.5 65.6142ZM150.855 63.8889L151.694 63.4576L151.277 63.2287L150.438 63.66L150.855 63.8889ZM76.3629 101.952L78.0008 102.852L78.4236 102.634L76.7857 101.735L76.3629 101.952ZM133.076 72.788L134.714 73.6879L135.137 73.4705L133.499 72.5706L133.076 72.788ZM79.6386 103.752L81.2765 104.652L81.6992 104.434L80.0614 103.534L79.6386 103.752ZM98.5431 94.0304L100.181 94.9303L100.604 94.7129L98.9658 93.813L98.5431 94.0304ZM117.447 84.3091L119.085 85.209L119.508 84.9916L117.87 84.0917L117.447 84.3091ZM136.352 74.5878L137.99 75.4877L138.413 75.2703L136.775 74.3704L136.352 74.5878ZM82.9143 105.552L84.5522 106.451L84.975 106.234L83.3371 105.334L82.9143 105.552ZM101.819 95.8302L103.457 96.7301L103.879 96.5127L102.242 95.6128L101.819 95.8302ZM120.723 86.1089L122.361 87.0088L122.784 86.7914L121.146 85.8915L120.723 86.1089ZM139.628 76.3876L141.265 77.2875L141.688 77.0701L140.05 76.1702L139.628 76.3876ZM86.19 107.351L87.8279 108.251L88.2507 108.034L86.6128 107.134L86.19 107.351ZM105.094 97.63L106.732 98.5299L107.155 98.3125L105.517 97.4126L105.094 97.63ZM123.999 87.9087L125.637 88.8086L126.06 88.5912L124.422 87.6913L123.999 87.9087ZM142.903 78.1874L144.541 79.0873L144.964 78.8699L143.326 77.97L142.903 78.1874ZM89.4657 109.151L91.1036 110.051L91.5264 109.834L89.8885 108.934L89.4657 109.151ZM108.37 99.4298L110.008 100.33L110.431 100.112L108.793 99.2124L108.37 99.4298ZM127.275 89.7085L128.912 90.6084L129.335 90.391L127.697 89.4911L127.275 89.7085ZM146.179 79.9872L147.817 80.8871L148.24 80.6697L146.602 79.7698L146.179 79.9872ZM92.7414 110.951L94.3793 111.851L94.8021 111.633L93.1642 110.734L92.7414 110.951ZM111.646 101.23L113.284 102.13L113.706 101.912L112.069 101.012L111.646 101.23ZM130.55 91.5083L132.188 92.4082L132.611 92.1908L130.973 91.2909L130.55 91.5083ZM149.455 81.787L151.093 82.6869L151.515 82.4695L149.878 81.5696L149.455 81.787ZM76.6705 122.159L77.5118 121.726L77.0952 121.497L76.2538 121.93L76.6705 122.159ZM79.1945 120.861L80.8772 119.996L80.4606 119.767L78.7779 120.632L79.1945 120.861ZM82.5599 119.13L84.2426 118.265L83.826 118.036L82.1433 118.901L82.5599 119.13ZM85.9253 117.4L87.608 116.534L87.1914 116.306L85.5087 117.171L85.9253 117.4ZM89.2907 115.669L90.9734 114.804L90.5568 114.575L88.8741 115.44L89.2907 115.669ZM92.6561 113.939L94.3388 113.073L93.9222 112.844L92.2395 113.71L92.6561 113.939ZM96.0215 112.208L97.7042 111.343L97.2876 111.114L95.6049 111.979L96.0215 112.208ZM99.3869 110.477L101.07 109.612L100.653 109.383L98.9703 110.248L99.3869 110.477ZM102.752 108.747L104.435 107.881L104.018 107.652L102.336 108.518L102.752 108.747ZM106.118 107.016L107.8 106.151L107.384 105.922L105.701 106.787L106.118 107.016ZM109.483 105.285L111.166 104.42L110.749 104.191L109.067 105.057L109.483 105.285ZM112.849 103.555L114.531 102.69L114.115 102.461L112.432 103.326L112.849 103.555ZM116.214 101.824L117.897 100.959L117.48 100.73L115.797 101.595L116.214 101.824ZM119.579 100.094L121.262 99.2284L120.845 98.9994L119.163 99.8648L119.579 100.094ZM122.945 98.3631L124.627 97.4978L124.211 97.2688L122.528 98.1341L122.945 98.3631ZM126.31 96.6325L127.993 95.7672L127.576 95.5382L125.894 96.4035L126.31 96.6325ZM129.676 94.9019L131.358 94.0366L130.942 93.8076L129.259 94.6729L129.676 94.9019ZM133.041 93.1712L134.724 92.306L134.307 92.077L132.624 92.9423L133.041 93.1712ZM136.406 91.4406L138.089 90.5753L137.672 90.3464L135.99 91.2117L136.406 91.4406ZM139.772 89.71L141.454 88.8447L141.038 88.6158L139.355 89.4811L139.772 89.71ZM143.137 87.9794L144.82 87.1141L144.403 86.8852L142.721 87.7505L143.137 87.9794ZM146.503 86.2488L148.185 85.3835L147.769 85.1546L146.086 86.0199L146.503 86.2488ZM149.868 84.5182L151.551 83.6529L151.134 83.424L149.451 84.2893L149.868 84.5182ZM153.233 82.7876L154.916 81.9223L154.499 81.6934L152.817 82.5587L153.233 82.7876ZM156.599 81.057L158.281 80.1917L157.865 79.9628L156.182 80.8281L156.599 81.057ZM159.964 79.3264L161.647 78.4611L161.23 78.2322L159.548 79.0975L159.964 79.3264ZM163.33 77.5958L165.012 76.7305L164.596 76.5016L162.913 77.3669L163.33 77.5958ZM166.695 75.8652L168.378 74.9999L167.961 74.771L166.278 75.6363L166.695 75.8652ZM96.0171 112.751L97.655 113.651L98.0778 113.433L96.4399 112.533L96.0171 112.751ZM114.922 103.029L116.559 103.929L116.982 103.712L115.344 102.812L114.922 103.029ZM133.826 93.3081L135.464 94.208L135.887 93.9906L134.249 93.0907L133.826 93.3081ZM152.73 83.5868L154.368 84.4867L154.791 84.2693L153.153 83.3694L152.73 83.5868ZM99.2928 114.551L100.931 115.45L101.353 115.233L99.7156 114.333L99.2928 114.551ZM118.197 104.829L119.835 105.729L120.258 105.512L118.62 104.612L118.197 104.829ZM137.102 95.1079L138.74 96.0078L139.162 95.7904L137.524 94.8905L137.102 95.1079ZM156.006 85.3866L157.644 86.2865L158.067 86.0691L156.429 85.1692L156.006 85.3866ZM102.569 116.35L104.206 117.25L104.629 117.033L102.991 116.133L102.569 116.35ZM121.473 106.629L123.111 107.529L123.534 107.312L121.896 106.412L121.473 106.629ZM140.377 96.9077L142.015 97.8076L142.438 97.5902L140.8 96.6903L140.377 96.9077ZM159.282 87.1864L160.92 88.0863L161.342 87.8689L159.705 86.969L159.282 87.1864ZM105.844 118.15L107.482 119.05L107.905 118.833L106.267 117.933L105.844 118.15ZM124.749 108.429L126.387 109.329L126.809 109.111L125.171 108.211L124.749 108.429ZM143.653 98.7076L145.291 99.6075L145.714 99.3901L144.076 98.4902L143.653 98.7076ZM162.558 88.9862L164.195 89.8862L164.618 89.6687L162.98 88.7688L162.558 88.9862ZM109.12 119.95L110.758 120.85L111.181 120.632L109.543 119.733L109.12 119.95ZM128.024 110.229L129.662 111.129L130.085 110.911L128.447 110.011L128.024 110.229ZM146.929 100.507L148.567 101.407L148.989 101.19L147.352 100.29L146.929 100.507ZM165.833 90.786L167.471 91.686L167.894 91.4685L166.256 90.5686L165.833 90.786ZM112.396 121.75L113.215 122.2L113.637 121.982L112.818 121.532L112.396 121.75ZM131.3 112.028L132.119 112.478L132.542 112.261L131.723 111.811L131.3 112.028ZM150.204 102.307L151.023 102.757L151.446 102.54L150.627 102.09L150.204 102.307ZM169.109 92.5859L169.928 93.0358L170.351 92.8184L169.532 92.3685L169.109 92.5859Z" fill="#C8C8C8"/>
<path fill-rule="evenodd" clip-rule="evenodd" d="M92.6439 44.2919C87.5758 43.8648 83.2692 42.3275 80.2875 40.5176L79.6824 40.7013L1 81.1625L94.6553 132.621L189.688 83.7518L111.274 40.6683L110.681 40.479C107.697 42.3055 103.365 43.8618 98.2612 44.2919C97.3484 44.3688 96.4111 44.4097 95.4525 44.4097C94.4939 44.4097 93.5566 44.3688 92.6439 44.2919ZM114.307 42.6063L114.723 42.8352L114.469 42.9661L132.683 52.9736L132.937 52.8427L133.354 53.0716L133.1 53.2025L170.231 73.6039L170.485 73.473L170.902 73.7019L170.647 73.8328L188.675 83.7379L94.6627 132.082L2.01253 81.1764L80.155 40.9928C83.154 42.7865 87.4066 44.2943 92.3862 44.7466V49.9815L92.5527 50.073L92.3862 50.1587V70.0897V70.5394V82.6036L95.4525 83.2865L98.5188 82.6036V73.9333V73.4592V70.6237L98.442 70.5814L98.5188 70.5419V44.7466C103.532 44.2912 107.809 42.766 110.811 40.9562L114.052 42.7372L114.307 42.6063ZM92.8616 82.2225L95.4525 82.7995L98.0434 82.2225V73.6847V44.7863C97.1991 44.851 96.3347 44.8851 95.4525 44.8851C94.5704 44.8851 93.7059 44.851 92.8616 44.7863V70.3509V70.8006V82.2225Z" fill="#6F6F6F"/>
<path fill-rule="evenodd" clip-rule="evenodd" d="M77.3382 6.28207C76.3541 7.25966 75.8523 8.20811 75.8523 9.02807V12.8078L75.8815 16.9297C76.0159 17.7203 76.615 18.6542 77.6469 19.6218C78.6803 20.5908 80.1225 21.5696 81.8824 22.4442C85.4018 24.1931 90.1676 25.5129 95.4149 25.5129C100.845 25.5129 105.758 24.1445 109.307 22.3274C111.083 21.4186 112.51 20.4015 113.489 19.3946C114.474 18.3814 114.977 17.409 114.977 16.5875V9.02807C114.977 8.20811 114.476 7.25966 113.492 6.28207C112.513 5.31031 111.087 4.33949 109.312 3.47678C105.762 1.75191 100.847 0.475396 95.4149 0.475396C89.9824 0.475396 85.0679 1.75191 81.5179 3.47678C79.7423 4.33949 78.3164 5.31031 77.3382 6.28207ZM114.977 18.2255C114.701 18.7259 114.312 19.2304 113.83 19.7261C112.805 20.7798 111.332 21.8252 109.524 22.7505C105.908 24.6017 100.921 25.9883 95.4149 25.9883C90.0911 25.9883 85.2532 24.6501 81.6708 22.8699C79.8799 21.9799 78.3966 20.9764 77.3218 19.9686C76.6879 19.3742 76.187 18.7697 75.8523 18.1784V35.4859C75.8523 36.1675 76.2273 36.9907 76.983 37.874C77.7344 38.7521 78.841 39.6641 80.2499 40.5193C83.2316 42.3292 87.5382 43.8665 92.6063 44.2936C93.519 44.3705 94.4563 44.4114 95.4149 44.4114C96.3735 44.4114 97.3108 44.3705 98.2236 44.2936C103.328 43.8635 107.659 42.3072 110.643 40.4807C112.033 39.6302 113.123 38.7251 113.864 37.8542C114.608 36.9782 114.977 36.1623 114.977 35.4859V18.2255ZM115.453 35.4859C115.453 36.3251 115.003 37.2481 114.226 38.1621C113.445 39.0811 112.311 40.017 110.891 40.8862C107.841 42.7535 103.437 44.3313 98.2635 44.7673C97.3376 44.8453 96.387 44.8868 95.4149 44.8868C94.4428 44.8868 93.4922 44.8453 92.5663 44.7673C87.4292 44.3344 83.0512 42.7757 80.0032 40.9257C78.5637 40.052 77.4143 39.1092 76.6218 38.1831C75.8338 37.262 75.377 36.3314 75.377 35.4859V9.02807C75.377 8.0215 75.9833 6.95789 77.0031 5.9448C78.0288 4.9259 79.5026 3.92744 81.3101 3.04919C84.9264 1.29214 89.9121 0 95.4149 0C100.918 0 105.903 1.29214 109.52 3.04919C111.327 3.92744 112.801 4.9259 113.827 5.9448C114.846 6.95789 115.453 8.0215 115.453 9.02807V35.4859Z" fill="#CA0001"/>
<path fill-rule="evenodd" clip-rule="evenodd" d="M79.0618 69.2117L88.4905 75.8261L88.2175 76.2153L78.7888 69.6009L79.0618 69.2117ZM113.005 70.5458L103.576 77.1602L103.303 76.7711L112.732 70.1566L113.005 70.5458ZM74.2109 81.4526H87.4111V81.928H74.2109V81.4526ZM117.583 82.8729H104.383V82.3975H117.583V82.8729ZM77.8459 93.7797L87.2746 87.1652L87.5476 87.5544L78.1189 94.1689L77.8459 93.7797ZM113.675 95.1138L104.246 88.4993L104.519 88.1101L113.948 94.7246L113.675 95.1138Z" fill="#CA0001"/>
</svg>
