<svg width="184" height="183" viewBox="0 0 184 183" fill="none" xmlns="http://www.w3.org/2000/svg"><path d="M20.947 123.983l17.115 9.181M110 171.754l-17.394-9.331m-53.501-48.01l17.114 9.181m71.939 38.59l-17.394-9.33m-53.501-48.01l17.114 9.181m71.939 38.59l-35.761-19.183M75.42 95.275l5.305 2.845m83.749 44.926l-17.394-9.331m-36.806-38.608l-4.774 2.516m-85.736 45.184l18.298-9.643m90.301-28.353l-17.739 9.348M37.853 152.51l18.297-9.643m90.023-28.206l-17.46 9.202m-72.771 38.351l18.297-9.643m90.58-28.204l-17.739 9.348m-72.771 38.351l18.297-9.643M56.22 123.594l-18.157 9.57m18.157-9.57l18.09 9.704m-18.09-9.704l18.158-9.569m-36.315 19.139l18.088 9.703m0 0l18.09 9.704m-18.09-9.704l18.158-9.569m-.069 19.273l18.367 9.852m-18.367-9.852l18.158-9.57m.21 19.422l18.157-9.569m0 0l-18.367-9.853m18.367 9.853l18.158-9.569m-36.525-.284l-18.089-9.703m18.09 9.703l18.157-9.569m-36.247-.134l6.285-3.312m30.031-15.827l18.089 9.704m-18.089-9.704l-5.124-2.749m5.124 2.749l-5.124 2.701m23.213 7.003l18.367 9.852m-18.367-9.852l-18.158 9.569m36.525.283l-18.158 9.57m0 0l-18.367-9.853m0 0l-5.055-2.712m-31.123-16.695l6.216 3.334m-6.216-3.334l6.348-3.345" stroke="#ca0001" stroke-dasharray="2 2"/><path d="M105.647 92.625l77.123 41.371-90.79 47.847-90.445-48.518 79.147-41.71m-19.003-29.47l8.986-14.87" stroke="#ca0001"/><path d="M86.844 80.653c9.596-4.33 10.898-22.193 2.908-39.9-7.99-17.706-22.245-28.55-31.841-24.22m28.933 64.12c-9.596 4.33-23.852-6.513-31.841-24.22-7.99-17.706-6.688-35.57 2.908-39.9m28.933 64.12l26.627-11.659c9.595-4.33 10.898-22.194 2.908-39.9S94.133.544 84.537 4.874l-26.626 11.66" stroke="#CA0001"/><path d="M105.09 73.08v60.581c0 3.387-5.346 6.132-11.94 6.132-6.594 0-11.94-2.745-11.94-6.132v-51.94" stroke="#CA0001"/></svg>