<svg width="142" height="36" viewBox="0 0 142 36" fill="none" xmlns="http://www.w3.org/2000/svg">
<path d="M130.945 13.5388V0.458771H136.543C138.03 0.458771 139.159 0.792184 139.928 1.45901C140.71 2.12583 141.101 3.18378 141.101 4.63284C141.101 6.03061 140.71 7.08856 139.928 7.80668C139.146 8.5248 138.011 8.88386 136.523 8.88386H133.292V13.5388H130.945ZM133.292 6.82567H136.331C137.177 6.82567 137.793 6.64614 138.178 6.28708C138.562 5.9152 138.755 5.37661 138.755 4.67131C138.755 3.94037 138.562 3.40178 138.178 3.05554C137.793 2.69648 137.177 2.51695 136.331 2.51695H133.292V6.82567Z" fill="#222222"/>
<path d="M122.971 13.7312C122.022 13.7312 121.15 13.5902 120.355 13.308C119.573 13.0131 118.9 12.5835 118.336 12.0193C117.771 11.455 117.329 10.7561 117.008 9.92261C116.701 9.07626 116.547 8.10167 116.547 6.99884C116.547 5.92166 116.701 4.95989 117.008 4.11354C117.329 3.26718 117.771 2.56188 118.336 1.99765C118.9 1.43341 119.573 1.00382 120.355 0.708877C121.15 0.413935 122.022 0.266464 122.971 0.266464C123.933 0.266464 124.811 0.413935 125.606 0.708877C126.402 1.00382 127.075 1.43341 127.626 1.99765C128.19 2.56188 128.626 3.26718 128.934 4.11354C129.255 4.95989 129.415 5.92166 129.415 6.99884C129.415 8.10167 129.255 9.07626 128.934 9.92261C128.626 10.7561 128.19 11.455 127.626 12.0193C127.075 12.5835 126.402 13.0131 125.606 13.308C124.811 13.5902 123.933 13.7312 122.971 13.7312ZM122.971 11.6346C124.266 11.6346 125.267 11.2178 125.972 10.3843C126.677 9.53791 127.03 8.40943 127.03 6.99884C127.03 5.57542 126.677 4.44695 125.972 3.61342C125.267 2.77988 124.266 2.36312 122.971 2.36312C121.689 2.36312 120.689 2.77988 119.971 3.61342C119.265 4.44695 118.913 5.57542 118.913 6.99884C118.913 8.40943 119.265 9.53791 119.971 10.3843C120.689 11.2178 121.689 11.6346 122.971 11.6346Z" fill="#222222"/>
<path d="M105.443 13.5388V0.458801H114.791V2.57469H107.79V5.67158H111.079C112.579 5.67158 113.708 5.97294 114.464 6.57564C115.234 7.17835 115.619 8.185 115.619 9.59559C115.619 10.9549 115.234 11.9551 114.464 12.5963C113.708 13.2247 112.586 13.5388 111.098 13.5388H105.443ZM110.944 7.71053H107.79V11.4807H110.944C111.765 11.4807 112.355 11.3332 112.714 11.0382C113.086 10.7433 113.272 10.2688 113.272 9.61483C113.272 8.948 113.086 8.46712 112.714 8.17218C112.355 7.86441 111.765 7.71053 110.944 7.71053Z" fill="#222222"/>
<path d="M101.001 13.5388V3.6134L94.4225 13.5388H91.9412V0.458801H94.2686V10.3073L100.751 0.458801H103.328V13.5388H101.001Z" fill="#222222"/>
<path d="M80.4685 13.5388V0.458801H86.066C87.5535 0.458801 88.682 0.792214 89.4514 1.45904C90.2337 2.12587 90.6248 3.18381 90.6248 4.63287C90.6248 6.03064 90.2337 7.08859 89.4514 7.80671C88.6692 8.52483 87.5343 8.88389 86.0468 8.88389H82.8152V13.5388H80.4685ZM82.8152 6.8257H85.8544C86.7008 6.8257 87.3163 6.64617 87.701 6.28711C88.0857 5.91523 88.2781 5.37664 88.2781 4.67134C88.2781 3.9404 88.0857 3.40181 87.701 3.05557C87.3163 2.69651 86.7008 2.51698 85.8544 2.51698H82.8152V6.8257Z" fill="#222222"/>
<path d="M67.3396 13.5388V0.458801H78.3422V13.5388H75.9955V2.65163H69.6863V13.5388H67.3396Z" fill="#222222"/>
<path d="M57.1863 4.13272C57.1863 5.01755 57.4235 5.65873 57.898 6.05626C58.3725 6.45379 59.1098 6.65255 60.1101 6.65255C60.623 6.66538 61.0911 6.64614 61.5143 6.59485C61.9503 6.54355 62.3863 6.47303 62.8223 6.38326V0.478006H65.169V13.558H62.8223V8.44144C62.4119 8.53121 61.931 8.61456 61.3796 8.6915C60.841 8.75562 60.2704 8.78768 59.6677 8.78768C58.0391 8.78768 56.8273 8.44144 56.0322 7.74897C55.2371 7.04367 54.8396 5.92802 54.8396 4.40202V0.458771H57.1863V4.13272Z" fill="#222222"/>
<path d="M47.3655 13.7312C46.4166 13.7312 45.5446 13.5902 44.7495 13.308C43.9673 13.0131 43.294 12.5835 42.7298 12.0193C42.1656 11.455 41.7232 10.7561 41.4026 9.92261C41.0948 9.07626 40.9409 8.10167 40.9409 6.99884C40.9409 5.92166 41.0948 4.95989 41.4026 4.11354C41.7232 3.26718 42.1656 2.56188 42.7298 1.99765C43.294 1.43341 43.9673 1.00382 44.7495 0.708877C45.5446 0.413935 46.4166 0.266464 47.3655 0.266464C48.3273 0.266464 49.2057 0.413935 50.0008 0.708877C50.7958 1.00382 51.4691 1.43341 52.0205 1.99765C52.5847 2.56188 53.0207 3.26718 53.3285 4.11354C53.6491 4.95989 53.8094 5.92166 53.8094 6.99884C53.8094 8.10167 53.6491 9.07626 53.3285 9.92261C53.0207 10.7561 52.5847 11.455 52.0205 12.0193C51.4691 12.5835 50.7958 13.0131 50.0008 13.308C49.2057 13.5902 48.3273 13.7312 47.3655 13.7312ZM47.3655 11.6346C48.6607 11.6346 49.6609 11.2178 50.3662 10.3843C51.0715 9.53791 51.4242 8.40943 51.4242 6.99884C51.4242 5.57542 51.0715 4.44695 50.3662 3.61342C49.6609 2.77988 48.6607 2.36312 47.3655 2.36312C46.0832 2.36312 45.0829 2.77988 44.3648 3.61342C43.6595 4.44695 43.3069 5.57542 43.3069 6.99884C43.3069 8.40943 43.6595 9.53791 44.3648 10.3843C45.0829 11.2178 46.0832 11.6346 47.3655 11.6346Z" fill="#222222"/>
<path d="M29.3982 2.6516V0.458771H40.9971V2.6516H36.3806V13.5388H34.0339V2.6516H29.3982Z" fill="#222222"/>
<path d="M89.1157 32.7012C89.1157 33.0532 89.0723 33.3892 88.9855 33.7092C88.8986 34.0292 88.7797 34.3241 88.6289 34.5938C88.4826 34.8681 88.3066 35.1195 88.1009 35.3481C87.8997 35.5766 87.6849 35.7778 87.4563 35.9515L87.0586 35.4441C87.2323 35.2932 87.3969 35.1195 87.5523 34.9229C87.7123 34.7309 87.8495 34.5206 87.9637 34.2921C88.078 34.0589 88.1672 33.8098 88.2312 33.5446C88.2997 33.2749 88.334 32.9938 88.334 32.7012C88.334 32.1161 88.2243 31.5858 88.0049 31.1104C87.7855 30.6349 87.4769 30.2349 87.0792 29.9104L87.47 29.3961C87.7077 29.5698 87.9272 29.7732 88.1283 30.0064C88.3295 30.2349 88.5032 30.4886 88.6495 30.7675C88.7957 31.0464 88.91 31.3481 88.9923 31.6726C89.0746 31.9972 89.1157 32.3401 89.1157 32.7012Z" fill="#222222"/>
<path d="M82.488 34.5184V29.8555H86.4103V34.5184H85.5737V30.6372H83.3246V34.5184H82.488Z" fill="#222222"/>
<path d="M80.7002 34.5184V30.9801L78.355 34.5184H77.4705V29.8555H78.3002V33.3664L80.611 29.8555H81.5299V34.5184H80.7002Z" fill="#222222"/>
<path d="M74.8635 30.5344C74.5297 30.5344 74.2692 30.6121 74.0817 30.7675C73.8943 30.9184 73.7663 31.1241 73.6977 31.3846L72.8749 31.2406C72.9663 30.7881 73.1789 30.4338 73.5126 30.1778C73.8509 29.9172 74.3012 29.7869 74.8635 29.7869C75.4029 29.7869 75.8303 29.9012 76.1457 30.1298C76.4657 30.3538 76.6257 30.6852 76.6257 31.1241C76.6257 31.3846 76.5617 31.6018 76.4337 31.7755C76.3103 31.9492 76.1252 32.0726 75.8783 32.1458C76.1435 32.2144 76.3492 32.3355 76.4955 32.5092C76.6417 32.6784 76.7149 32.9069 76.7149 33.1949C76.7149 33.6246 76.5572 33.9652 76.2417 34.2166C75.9263 34.4635 75.4623 34.5869 74.8497 34.5869C74.26 34.5869 73.7937 34.4635 73.4509 34.2166C73.108 33.9652 72.9023 33.5972 72.8337 33.1126L73.6566 32.9824C73.7023 33.2521 73.8235 33.4624 74.02 33.6132C74.2166 33.7641 74.4932 33.8395 74.8497 33.8395C75.1926 33.8395 75.4486 33.7778 75.6177 33.6544C75.7869 33.5309 75.8715 33.3572 75.8715 33.1332C75.8715 32.9321 75.7983 32.7789 75.652 32.6738C75.5103 32.5686 75.2863 32.5161 74.98 32.5161H74.2806V31.8029H74.9869C75.2749 31.8029 75.4806 31.7504 75.604 31.6452C75.7275 31.5401 75.7892 31.3915 75.7892 31.1995C75.7892 30.9938 75.7092 30.8315 75.5492 30.7126C75.3937 30.5938 75.1652 30.5344 74.8635 30.5344Z" fill="#222222"/>
<path d="M70.3611 32.6463C70.3611 32.2852 70.4045 31.9446 70.4914 31.6246C70.5782 31.3046 70.6948 31.0098 70.8411 30.7401C70.9874 30.4703 71.1611 30.2235 71.3622 29.9995C71.5679 29.7709 71.7874 29.5698 72.0205 29.3961L72.4182 29.9035C72.2399 30.0498 72.0708 30.2212 71.9108 30.4178C71.7554 30.6098 71.6205 30.8201 71.5062 31.0486C71.3919 31.2772 71.3005 31.5263 71.2319 31.7961C71.1679 32.0658 71.1359 32.3492 71.1359 32.6463C71.1359 33.2178 71.2479 33.7458 71.4719 34.2303C71.7005 34.7103 72.0091 35.1149 72.3977 35.4441L72.0068 35.9515C71.7691 35.7778 71.5497 35.5743 71.3485 35.3412C71.1474 35.1081 70.9737 34.8521 70.8274 34.5732C70.6811 34.2943 70.5668 33.9926 70.4845 33.6681C70.4022 33.3435 70.3611 33.0029 70.3611 32.6463Z" fill="#222222"/>
<path d="M64.8337 34.5184V29.8555H66.884C67.3686 29.8555 67.7366 29.963 67.988 30.1778C68.2395 30.3927 68.3652 30.7012 68.3652 31.1035C68.3652 31.3367 68.3126 31.5492 68.2075 31.7412C68.1023 31.9287 67.9309 32.0635 67.6932 32.1458C67.9583 32.2098 68.1572 32.3378 68.2897 32.5298C68.4223 32.7172 68.4886 32.9458 68.4886 33.2155C68.4886 33.6407 68.3492 33.9652 68.0703 34.1892C67.796 34.4087 67.4029 34.5184 66.8909 34.5184H64.8337ZM66.7675 30.5687H65.6635V31.8167H66.7675C67.0509 31.8167 67.2497 31.7618 67.364 31.6521C67.4829 31.5378 67.5423 31.3824 67.5423 31.1858C67.5423 30.9801 67.4852 30.827 67.3709 30.7264C67.2612 30.6212 67.06 30.5687 66.7675 30.5687ZM66.788 32.5092H65.6635V33.8052H66.788C67.0897 33.8052 67.3092 33.7527 67.4463 33.6475C67.588 33.5378 67.6589 33.3778 67.6589 33.1675C67.6589 32.9435 67.5903 32.779 67.4532 32.6738C67.3206 32.5641 67.0989 32.5092 66.788 32.5092Z" fill="#222222"/>
<path d="M61.7842 34.5869C61.4459 34.5869 61.135 34.5366 60.8516 34.4361C60.5728 34.3309 60.3328 34.1778 60.1316 33.9766C59.9305 33.7755 59.7728 33.5264 59.6585 33.2292C59.5488 32.9275 59.4939 32.5801 59.4939 32.1869C59.4939 31.8029 59.5488 31.4601 59.6585 31.1584C59.7728 30.8566 59.9305 30.6052 60.1316 30.4041C60.3328 30.2029 60.5728 30.0498 60.8516 29.9446C61.135 29.8395 61.4459 29.7869 61.7842 29.7869C62.127 29.7869 62.4402 29.8395 62.7236 29.9446C63.007 30.0498 63.247 30.2029 63.4436 30.4041C63.6448 30.6052 63.8002 30.8566 63.9099 31.1584C64.0242 31.4601 64.0813 31.8029 64.0813 32.1869C64.0813 32.5801 64.0242 32.9275 63.9099 33.2292C63.8002 33.5264 63.6448 33.7755 63.4436 33.9766C63.247 34.1778 63.007 34.3309 62.7236 34.4361C62.4402 34.5366 62.127 34.5869 61.7842 34.5869ZM61.7842 33.8395C62.2459 33.8395 62.6025 33.6909 62.8539 33.3938C63.1053 33.0921 63.231 32.6898 63.231 32.1869C63.231 31.6795 63.1053 31.2772 62.8539 30.9801C62.6025 30.6829 62.2459 30.5344 61.7842 30.5344C61.327 30.5344 60.9705 30.6829 60.7145 30.9801C60.463 31.2772 60.3373 31.6795 60.3373 32.1869C60.3373 32.6898 60.463 33.0921 60.7145 33.3938C60.9705 33.6909 61.327 33.8395 61.7842 33.8395Z" fill="#222222"/>
<path d="M55.3982 34.5184V29.8555H57.3936C57.9239 29.8555 58.3262 29.9744 58.6005 30.2121C58.8793 30.4498 59.0188 30.827 59.0188 31.3435C59.0188 31.8418 58.8793 32.219 58.6005 32.475C58.3216 32.731 57.9171 32.859 57.3868 32.859H56.2348V34.5184H55.3982ZM56.2348 32.1252H57.3182C57.6199 32.1252 57.8393 32.0612 57.9765 31.9332C58.1136 31.8007 58.1822 31.6087 58.1822 31.3572C58.1822 31.0967 58.1136 30.9047 57.9765 30.7812C57.8393 30.6532 57.6199 30.5892 57.3182 30.5892H56.2348V32.1252Z" fill="#222222"/>
<path d="M52.3486 34.5869C52.0103 34.5869 51.6995 34.5366 51.4161 34.4361C51.1372 34.3309 50.8972 34.1778 50.6961 33.9766C50.4949 33.7755 50.3372 33.5264 50.2229 33.2292C50.1132 32.9275 50.0583 32.5801 50.0583 32.1869C50.0583 31.8029 50.1132 31.4601 50.2229 31.1584C50.3372 30.8566 50.4949 30.6052 50.6961 30.4041C50.8972 30.2029 51.1372 30.0498 51.4161 29.9446C51.6995 29.8395 52.0103 29.7869 52.3486 29.7869C52.6915 29.7869 53.0046 29.8395 53.2881 29.9446C53.5715 30.0498 53.8115 30.2029 54.0081 30.4041C54.2092 30.6052 54.3646 30.8566 54.4743 31.1584C54.5886 31.4601 54.6458 31.8029 54.6458 32.1869C54.6458 32.5801 54.5886 32.9275 54.4743 33.2292C54.3646 33.5264 54.2092 33.7755 54.0081 33.9766C53.8115 34.1778 53.5715 34.3309 53.2881 34.4361C53.0046 34.5366 52.6915 34.5869 52.3486 34.5869ZM52.3486 33.8395C52.8103 33.8395 53.1669 33.6909 53.4184 33.3938C53.6698 33.0921 53.7955 32.6898 53.7955 32.1869C53.7955 31.6795 53.6698 31.2772 53.4184 30.9801C53.1669 30.6829 52.8103 30.5344 52.3486 30.5344C51.8915 30.5344 51.5349 30.6829 51.2789 30.9801C51.0275 31.2772 50.9018 31.6795 50.9018 32.1869C50.9018 32.6898 51.0275 33.0921 51.2789 33.3938C51.5349 33.6909 51.8915 33.8395 52.3486 33.8395Z" fill="#222222"/>
<path d="M45.8943 34.5184V29.8555H49.2269V30.6098H46.7309V31.7138H47.9034C48.4383 31.7138 48.8406 31.8212 49.1103 32.0361C49.3846 32.251 49.5217 32.6098 49.5217 33.1127C49.5217 33.5972 49.3846 33.9538 49.1103 34.1824C48.8406 34.4064 48.4406 34.5184 47.9103 34.5184H45.8943ZM47.8554 32.4407H46.7309V33.7847H47.8554C48.148 33.7847 48.3583 33.7321 48.4863 33.627C48.6189 33.5218 48.6851 33.3527 48.6851 33.1195C48.6851 32.8818 48.6189 32.7104 48.4863 32.6052C48.3583 32.4955 48.148 32.4407 47.8554 32.4407Z" fill="#222222"/>
<path d="M44.1064 34.5184V30.9801L41.7613 34.5184H40.8767V29.8555H41.7064V33.3664L44.0173 29.8555H44.9361V34.5184H44.1064Z" fill="#222222"/>
<path d="M36.5801 34.5184V29.8555H38.5755C39.1058 29.8555 39.5081 29.9744 39.7824 30.2121C40.0612 30.4498 40.2006 30.8269 40.2006 31.3435C40.2006 31.8418 40.0612 32.2189 39.7824 32.4749C39.5035 32.7309 39.0989 32.8589 38.5686 32.8589H37.4166V34.5184H36.5801ZM37.4166 32.1252H38.5001C38.8018 32.1252 39.0212 32.0612 39.1584 31.9332C39.2955 31.8006 39.3641 31.6086 39.3641 31.3572C39.3641 31.0966 39.2955 30.9046 39.1584 30.7812C39.0212 30.6532 38.8018 30.5892 38.5001 30.5892H37.4166V32.1252Z" fill="#222222"/>
<path d="M31.6951 34.5184V29.8555H35.6174V34.5184H34.7808V30.6372H32.5316V34.5184H31.6951Z" fill="#222222"/>
<path d="M116.516 27.5184L115.309 25.7355L114.13 27.5184H113.129L114.802 25.1047L113.197 22.8555H114.226L115.371 24.5287L116.475 22.8555H117.476L115.878 25.1732L117.545 27.5184H116.516Z" fill="#222222"/>
<path d="M111.787 27.5184V22.8555H112.624V27.5184H111.787ZM109.504 27.5184H107.57V22.8555H108.407V24.5287H109.531C110.057 24.5287 110.459 24.6498 110.738 24.8921C111.017 25.1298 111.156 25.507 111.156 26.0235C111.156 26.5127 111.015 26.8852 110.731 27.1412C110.452 27.3927 110.043 27.5184 109.504 27.5184ZM109.449 26.7778C109.755 26.7778 109.977 26.7161 110.114 26.5927C110.251 26.4647 110.32 26.2727 110.32 26.0167C110.32 25.7698 110.251 25.5847 110.114 25.4612C109.982 25.3332 109.764 25.2692 109.463 25.2692H108.407V26.7778H109.449Z" fill="#222222"/>
<path d="M102.666 27.5184V22.8555H103.502V24.7824H105.772V22.8555H106.609V27.5184H105.772V25.5572H103.502V27.5184H102.666Z" fill="#222222"/>
<path d="M98.322 22.8555H99.1586V24.5287H100.324C100.85 24.5287 101.252 24.6498 101.531 24.8921C101.81 25.1298 101.949 25.507 101.949 26.0235C101.949 26.5127 101.808 26.8852 101.524 27.1412C101.245 27.3927 100.836 27.5184 100.297 27.5184H98.322V22.8555ZM100.242 26.7778C100.548 26.7778 100.77 26.7161 100.907 26.5927C101.044 26.4647 101.113 26.2727 101.113 26.0167C101.113 25.7698 101.044 25.5847 100.907 25.4612C100.775 25.3332 100.555 25.2692 100.249 25.2692H99.1586V26.7778H100.242Z" fill="#222222"/>
<path d="M93.9713 25.9207C93.9759 25.7378 93.9805 25.5252 93.9851 25.283C93.9896 25.0361 93.9919 24.7778 93.9919 24.5081C93.9965 24.2384 93.9988 23.9618 93.9988 23.6784C94.0033 23.3904 94.0056 23.1161 94.0056 22.8555H97.3656V27.5184H96.5291V23.6372H94.8216C94.8216 23.8247 94.8193 24.0258 94.8148 24.2407C94.8148 24.451 94.8125 24.6635 94.8079 24.8784C94.8079 25.0887 94.8056 25.2944 94.8011 25.4955C94.7965 25.6921 94.7919 25.8704 94.7873 26.0304C94.7691 26.5698 94.6502 26.9538 94.4308 27.1824C94.2113 27.4064 93.8708 27.5184 93.4091 27.5184H93.0525V26.723H93.2856C93.4868 26.723 93.6491 26.6704 93.7725 26.5652C93.8959 26.4601 93.9622 26.2452 93.9713 25.9207Z" fill="#222222"/>
<path d="M89.3628 27.5184V22.8555H92.6885V23.5961H90.1994V24.8098H92.5925V25.5298H90.1994V26.7778H92.6679V27.5184H89.3628Z" fill="#222222"/>
<path d="M84.6814 23.6372V22.8555H88.8163V23.6372H87.1705V27.5184H86.334V23.6372H84.6814Z" fill="#222222"/>
<path d="M83.32 22.8555L85.0823 27.5184H84.1909L83.7589 26.339H81.784L81.3658 27.5184H80.488L82.2366 22.8555H83.32ZM82.0583 25.5847H83.4846L82.7646 23.603L82.0583 25.5847Z" fill="#222222"/>
<path d="M76.7534 23.6372V22.8555H80.8883V23.6372H79.2426V27.5184H78.406V23.6372H76.7534Z" fill="#222222"/>
<path d="M75.3575 27.5184V22.8555H76.1941V27.5184H75.3575ZM73.0741 27.5184H71.1404V22.8555H71.977V24.5287H73.1015C73.6272 24.5287 74.0295 24.6498 74.3084 24.8921C74.5872 25.1298 74.7267 25.507 74.7267 26.0235C74.7267 26.5127 74.5849 26.8852 74.3015 27.1412C74.0227 27.3927 73.6135 27.5184 73.0741 27.5184ZM73.0192 26.7778C73.3255 26.7778 73.5472 26.7161 73.6844 26.5927C73.8215 26.4647 73.8901 26.2727 73.8901 26.0167C73.8901 25.7698 73.8215 25.5847 73.6844 25.4612C73.5518 25.3332 73.3347 25.2692 73.033 25.2692H71.977V26.7778H73.0192Z" fill="#222222"/>
<path d="M66.2556 27.5184V22.8555H70.1779V27.5184H69.3413V23.6372H67.0922V27.5184H66.2556Z" fill="#222222"/>
<path d="M63.4686 26.8395C63.8388 26.8395 64.1223 26.7549 64.3188 26.5858C64.52 26.4121 64.6503 26.1835 64.7097 25.9001L65.5326 26.0372C65.4366 26.5401 65.2171 26.9241 64.8743 27.1892C64.5314 27.4544 64.0628 27.5869 63.4686 27.5869C63.1303 27.5869 62.824 27.5344 62.5497 27.4292C62.2754 27.3241 62.04 27.1709 61.8434 26.9698C61.6514 26.7641 61.5028 26.5126 61.3977 26.2155C61.2926 25.9184 61.24 25.5778 61.24 25.1938C61.24 24.8006 61.2948 24.4532 61.4046 24.1515C61.5143 23.8498 61.6674 23.5984 61.864 23.3972C62.0606 23.1961 62.296 23.0452 62.5703 22.9446C62.8446 22.8395 63.1463 22.7869 63.4754 22.7869C64.0651 22.7869 64.5314 22.9218 64.8743 23.1915C65.2217 23.4612 65.4388 23.8406 65.5257 24.3298L64.7028 24.4669C64.6343 24.1972 64.504 23.9755 64.312 23.8018C64.12 23.6235 63.8411 23.5344 63.4754 23.5344C63.0366 23.5344 62.6937 23.6829 62.4468 23.9801C62.2046 24.2726 62.0834 24.6772 62.0834 25.1938C62.0834 25.7012 62.2068 26.1035 62.4537 26.4006C62.7006 26.6932 63.0388 26.8395 63.4686 26.8395Z" fill="#222222"/>
<path d="M59.6494 27.5184V23.9801L57.3043 27.5184H56.4197V22.8555H57.2494V26.3664L59.5603 22.8555H60.4791V27.5184H59.6494Z" fill="#222222"/>
<path d="M49.6169 28.4989V26.7366H50.0832C50.2295 26.6086 50.3507 26.4144 50.4467 26.1538C50.5472 25.8932 50.6021 25.6052 50.6112 25.2898C50.6249 24.9606 50.6341 24.5904 50.6387 24.1789C50.6432 23.7675 50.6455 23.3264 50.6455 22.8555H53.9438V26.7366H54.5884V28.4989H53.7792V27.5184H50.4261V28.4989H49.6169ZM51.4135 25.3446C51.3998 25.6189 51.3609 25.8726 51.2969 26.1058C51.2375 26.3389 51.1415 26.5492 51.0089 26.7366H53.1072V23.6372H51.4547C51.4501 23.8932 51.4432 24.1789 51.4341 24.4944C51.4295 24.8098 51.4227 25.0932 51.4135 25.3446Z" fill="#222222"/>
<path d="M47.2705 27.5869C46.9322 27.5869 46.6214 27.5366 46.3379 27.4361C46.0591 27.3309 45.8191 27.1778 45.6179 26.9766C45.4168 26.7755 45.2591 26.5264 45.1448 26.2292C45.0351 25.9275 44.9802 25.5801 44.9802 25.1869C44.9802 24.8029 45.0351 24.4601 45.1448 24.1584C45.2591 23.8566 45.4168 23.6052 45.6179 23.4041C45.8191 23.2029 46.0591 23.0498 46.3379 22.9446C46.6214 22.8395 46.9322 22.7869 47.2705 22.7869C47.6134 22.7869 47.9265 22.8395 48.2099 22.9446C48.4934 23.0498 48.7334 23.2029 48.9299 23.4041C49.1311 23.6052 49.2865 23.8566 49.3962 24.1584C49.5105 24.4601 49.5677 24.8029 49.5677 25.1869C49.5677 25.5801 49.5105 25.9275 49.3962 26.2292C49.2865 26.5264 49.1311 26.7755 48.9299 26.9766C48.7334 27.1778 48.4934 27.3309 48.2099 27.4361C47.9265 27.5366 47.6134 27.5869 47.2705 27.5869ZM47.2705 26.8395C47.7322 26.8395 48.0888 26.6909 48.3402 26.3938C48.5917 26.0921 48.7174 25.6898 48.7174 25.1869C48.7174 24.6795 48.5917 24.2772 48.3402 23.9801C48.0888 23.6829 47.7322 23.5344 47.2705 23.5344C46.8134 23.5344 46.4568 23.6829 46.2008 23.9801C45.9494 24.2772 45.8237 24.6795 45.8237 25.1869C45.8237 25.6898 45.9494 26.0921 46.2008 26.3938C46.4568 26.6909 46.8134 26.8395 47.2705 26.8395Z" fill="#222222"/>
<path d="M40.783 27.5184V22.8555H42.8332C43.3178 22.8555 43.6858 22.963 43.9372 23.1778C44.1887 23.3927 44.3144 23.7012 44.3144 24.1035C44.3144 24.3367 44.2618 24.5492 44.1567 24.7412C44.0515 24.9287 43.8801 25.0635 43.6424 25.1458C43.9075 25.2098 44.1064 25.3378 44.239 25.5298C44.3715 25.7172 44.4378 25.9458 44.4378 26.2155C44.4378 26.6407 44.2984 26.9652 44.0195 27.1892C43.7452 27.4087 43.3521 27.5184 42.8401 27.5184H40.783ZM42.7167 23.5687H41.6127V24.8167H42.7167C43.0001 24.8167 43.199 24.7618 43.3132 24.6521C43.4321 24.5378 43.4915 24.3824 43.4915 24.1858C43.4915 23.9801 43.4344 23.827 43.3201 23.7264C43.2104 23.6212 43.0092 23.5687 42.7167 23.5687ZM42.7372 25.5092H41.6127V26.8052H42.7372C43.039 26.8052 43.2584 26.7527 43.3955 26.6475C43.5372 26.5378 43.6081 26.3778 43.6081 26.1675C43.6081 25.9435 43.5395 25.779 43.4024 25.6738C43.2698 25.5641 43.0481 25.5092 42.7372 25.5092Z" fill="#222222"/>
<path d="M38.4587 22.8555L40.221 27.5184H39.3296L38.8976 26.339H36.9227L36.5044 27.5184H35.6267L37.3753 22.8555H38.4587ZM37.197 25.5847H38.6233L37.9033 23.603L37.197 25.5847Z" fill="#222222"/>
<path d="M33.4982 23.5344C33.1645 23.5344 32.9039 23.6121 32.7165 23.7675C32.5291 23.9184 32.4011 24.1241 32.3325 24.3846L31.5096 24.2406C31.6011 23.7881 31.8136 23.4338 32.1474 23.1778C32.4856 22.9172 32.9359 22.7869 33.4982 22.7869C34.0376 22.7869 34.4651 22.9012 34.7805 23.1298C35.1005 23.3538 35.2605 23.6852 35.2605 24.1241C35.2605 24.3846 35.1965 24.6018 35.0685 24.7755C34.9451 24.9492 34.7599 25.0726 34.5131 25.1458C34.7782 25.2144 34.9839 25.3355 35.1302 25.5092C35.2765 25.6784 35.3496 25.9069 35.3496 26.1949C35.3496 26.6246 35.1919 26.9652 34.8765 27.2166C34.5611 27.4635 34.0971 27.5869 33.4845 27.5869C32.8948 27.5869 32.4285 27.4635 32.0856 27.2166C31.7428 26.9652 31.5371 26.5972 31.4685 26.1126L32.2914 25.9824C32.3371 26.2521 32.4582 26.4624 32.6548 26.6132C32.8514 26.7641 33.1279 26.8395 33.4845 26.8395C33.8274 26.8395 34.0834 26.7778 34.2525 26.6544C34.4216 26.5309 34.5062 26.3572 34.5062 26.1332C34.5062 25.9321 34.4331 25.7789 34.2868 25.6738C34.1451 25.5686 33.9211 25.5161 33.6148 25.5161H32.9154V24.8029H33.6216C33.9096 24.8029 34.1154 24.7504 34.2388 24.6452C34.3622 24.5401 34.4239 24.3915 34.4239 24.1995C34.4239 23.9938 34.3439 23.8315 34.1839 23.7126C34.0285 23.5938 33.7999 23.5344 33.4982 23.5344Z" fill="#222222"/>
<path d="M0.974365 24.7961L1.02059 16.6447L15.1505 2.30708L13.0951 0.266419L21.592 0.266418L21.5223 8.26332L19.5141 6.25513L5.41222 20.358L14.5682 29.5139L21.6242 22.4579V30.9652L18.0712 34.5182L10.6681 34.4899L0.974365 24.7961Z" fill="#222222"/>
<path d="M8.13452 20.4876L14.4557 14.1665L20.7768 20.4876L14.4557 26.8088L8.13452 20.4876Z" fill="#222222"/>
</svg>
