<svg width="70" height="70" viewBox="0 0 70 70" fill="none" xmlns="http://www.w3.org/2000/svg">
<path d="M18.9579 30.4125C18.3075 30.4125 17.6833 30.5117 17.0621 30.6021C17.2633 29.9254 17.4704 29.2371 17.8029 28.6187C18.1354 27.7204 18.6546 26.9417 19.1708 26.1571C19.6025 25.3083 20.3637 24.7337 20.9237 24.0075C21.51 23.3017 22.3092 22.8321 22.9421 22.2458C23.5633 21.6333 24.3771 21.3271 25.0246 20.8954C25.7012 20.5075 26.2904 20.0787 26.9204 19.8746L28.4925 19.2271L29.875 18.6525L28.4604 13L26.7192 13.42C26.1621 13.56 25.4825 13.7233 24.7096 13.9187C23.9192 14.0646 23.0762 14.4642 22.1371 14.8287C21.2096 15.2429 20.1362 15.5229 19.1387 16.1879C18.1354 16.8237 16.9775 17.3546 15.9567 18.2062C14.9679 19.0842 13.775 19.8454 12.8942 20.9625C11.9317 22.0067 10.9808 23.1033 10.2429 24.3517C9.38832 25.5417 8.8079 26.8483 8.1954 28.1404C7.64124 29.4325 7.19499 30.7537 6.8304 32.0371C6.13915 34.6096 5.82999 37.0538 5.7104 39.145C5.61124 41.2392 5.66957 42.9804 5.79207 44.2404C5.83582 44.8354 5.91749 45.4129 5.97582 45.8125L6.04874 46.3025L6.12457 46.285C6.64333 48.7083 7.83754 50.9351 9.56905 52.708C11.3006 54.4809 13.4986 55.7274 15.9089 56.3032C18.3193 56.8791 20.8434 56.7608 23.1893 55.962C25.5352 55.1632 27.607 53.7166 29.1651 51.7896C30.7232 49.8625 31.7039 47.5337 31.9937 45.0725C32.2835 42.6114 31.8707 40.1185 30.8029 37.8821C29.7351 35.6458 28.056 33.7575 25.9598 32.4356C23.8636 31.1138 21.4361 30.4123 18.9579 30.4125ZM51.0412 30.4125C50.3908 30.4125 49.7667 30.5117 49.1454 30.6021C49.3466 29.9254 49.5537 29.2371 49.8862 28.6187C50.2187 27.7204 50.7379 26.9417 51.2542 26.1571C51.6858 25.3083 52.4471 24.7337 53.0071 24.0075C53.5933 23.3017 54.3925 22.8321 55.0254 22.2458C55.6466 21.6333 56.4604 21.3271 57.1079 20.8954C57.7846 20.5075 58.3737 20.0787 59.0037 19.8746L60.5758 19.2271L61.9583 18.6525L60.5437 13L58.8025 13.42C58.2454 13.56 57.5658 13.7233 56.7929 13.9187C56.0025 14.0646 55.1596 14.4642 54.2204 14.8287C53.2958 15.2458 52.2196 15.5229 51.2221 16.1908C50.2187 16.8267 49.0608 17.3575 48.04 18.2092C47.0512 19.0871 45.8583 19.8483 44.9775 20.9625C44.015 22.0067 43.0641 23.1033 42.3262 24.3517C41.4716 25.5417 40.8912 26.8483 40.2787 28.1404C39.7246 29.4325 39.2783 30.7537 38.9137 32.0371C38.2225 34.6096 37.9133 37.0538 37.7937 39.145C37.6946 41.2392 37.7529 42.9804 37.8754 44.2404C37.9192 44.8354 38.0008 45.4129 38.0592 45.8125L38.1321 46.3025L38.2079 46.285C38.7267 48.7083 39.9209 50.9351 41.6524 52.708C43.3839 54.4809 45.5819 55.7274 47.9923 56.3032C50.4026 56.8791 52.9267 56.7608 55.2726 55.962C57.6185 55.1632 59.6903 53.7166 61.2484 51.7896C62.8065 49.8625 63.7872 47.5337 64.077 45.0725C64.3669 42.6114 63.954 40.1185 62.8862 37.8821C61.8184 35.6458 60.1393 33.7575 58.0431 32.4356C55.947 31.1138 53.5194 30.4123 51.0412 30.4125Z" fill="#E9E9E9"/>
</svg>
