<?xml version="1.0" encoding="utf-8"?><svg width="14" height="16" fill="none" xmlns="http://www.w3.org/2000/svg" viewBox="0 0 14 16"><path d="M5.266 2.5h3.937V1.406c0-.355.274-.656.656-.656.356 0 .657.3.657.656V2.5h1.093c.957 0 1.75.793 1.75 1.75V13c0 .984-.793 1.75-1.75 1.75H2.86c-.984 0-1.75-.766-1.75-1.75V4.25c0-.957.766-1.75 1.75-1.75h1.094V1.406c0-.355.274-.656.656-.656.356 0 .657.3.657.656V2.5zM2.422 13c0 .246.191.438.437.438h8.75a.45.45 0 00.438-.438V6H2.422v7z" fill="currentColor"/></svg>