<?xml version="1.0" encoding="utf-8"?><svg width="20" height="16" fill="none" xmlns="http://www.w3.org/2000/svg" viewBox="0 0 20 16"><path d="M14.898 3.375c.985 0 1.75.793 1.75 1.75v7c0 .984-.793 1.75-1.75 1.75h-10.5c-.984 0-1.75-.766-1.75-1.75v-8.75c0-.957.766-1.75 1.75-1.75h3.227c.465 0 .902.191 1.23.52l1.34 1.23h4.703zm.438 8.75v-7a.47.47 0 00-.438-.438h-5.25l-1.75-1.613a.44.44 0 00-.3-.136h-3.2a.45.45 0 00-.437.437v8.75c0 .246.191.438.437.438h10.5a.45.45 0 00.438-.438z" fill="currentColor"/></svg>