<?xml version="1.0" encoding="utf-8"?><svg width="243" height="229" fill="none" xmlns="http://www.w3.org/2000/svg" viewBox="0 0 243 229"><path stroke="#C8C8C8" stroke-width="2.308" stroke-dasharray="9.23 9.23" d="M3.883 62.994v97.609M239.688 64.555v97.609"/><path d="M173.22 129.159l-50.72-27.646L4.128 162.888l50.72 27.646m118.372-61.375l-.344-3.878m.344 3.878l-7.284-.28M70.104 198.846l50.719 27.646 118.372-61.375-50.719-27.646M70.104 198.846l.343 3.878m-.343-3.878l7.283.28" stroke="#C8C8C8" stroke-width="2.308"/><path d="M172.559 29.446L121.84 1.8 3.468 63.175l50.72 27.646m118.371-61.375l-.343-3.878m.343 3.878l-7.283-.28M69.444 99.133l50.719 27.646 118.372-61.375-50.72-27.646M69.444 99.133l.343 3.878m-.343-3.877l7.283.279" stroke="#CA0001" stroke-width="2.308"/><path d="M130.356 38.946l-.117 40.31-25.841-.251" stroke="#CA0001" stroke-width="3" stroke-linecap="square" stroke-linejoin="round"/><path d="M130.356 139.461l-.117 40.31-25.841-.251" stroke="#C8C8C8" stroke-width="3" stroke-linecap="square" stroke-linejoin="round"/></svg>