<?xml version="1.0" encoding="utf-8"?><svg width="24" height="24" fill="none" xmlns="http://www.w3.org/2000/svg" viewBox="0 0 24 24"><path fill-rule="evenodd" clip-rule="evenodd" d="M21.824 6.333c-.176-1.307-.527-2.224-1.23-2.927-.703-.703-1.62-1.055-2.927-1.23a12.86 12.86 0 00-.378-.045C16.037 2 14.451 2 12.4 2h-.8c-2.202 0-3.868 0-5.16.162-1.365.17-2.312.522-3.034 1.244-.703.703-1.055 1.62-1.23 2.927a12.86 12.86 0 00-.045.378C2 7.963 2 9.549 2 11.6v.8c0 2.202 0 3.868.162 5.16.17 1.365.522 2.312 1.244 3.034.604.604 1.367.949 2.4 1.145C7.174 22 9.018 22 11.6 22h.8c2.263 0 3.96 0 5.267-.176 1.307-.176 2.224-.527 2.927-1.23.604-.604.949-1.367 1.145-2.4C22 16.826 22 14.982 22 12.4v-.8c0-2.263 0-3.96-.176-5.267zM10.506 8.312c-.246.336-.246.92-.246 2.088v3.2c0 1.166 0 1.75.246 2.088.214.294.542.484.904.522.414.044.916-.246 1.92-.825l2.809-1.623c.992-.573 1.49-.861 1.659-1.24a1.283 1.283 0 000-1.044c-.17-.38-.674-.672-1.686-1.256l-2.77-1.6c-1.012-.584-1.518-.876-1.932-.832-.362.038-.69.228-.904.522zm-3.08 12.815a14.743 14.743 0 01-.986-.096c-1.219-.163-1.939-.473-2.468-1.003-.53-.53-.84-1.25-1.003-2.468-.167-1.241-.169-2.875-.169-5.16v-.8c0-2.285.002-3.919.169-5.16.163-1.219.473-1.939 1.003-2.468.53-.53 1.25-.84 2.468-1.003.301-.041.626-.072.978-.095-.248.15-.472.324-.678.53-1.406 1.406-1.406 3.668-1.406 8.194v.8c0 4.526 0 6.788 1.406 8.194.208.208.436.384.687.535z" fill="currentColor"/></svg>