<?xml version="1.0" encoding="utf-8"?><svg width="16" height="16" fill="none" xmlns="http://www.w3.org/2000/svg" viewBox="0 0 16 16"><path d="M8.5 11a.5.5 0 00-1 0h1zm-1 .026a.5.5 0 001 0h-1zm1-6.526V4h-1v.5h1zm-1 4.2a.5.5 0 001 0h-1zm6-.7A5.5 5.5 0 018 13.5v1A6.5 6.5 0 0014.5 8h-1zM8 13.5A5.5 5.5 0 012.5 8h-1A6.5 6.5 0 008 14.5v-1zM2.5 8A5.5 5.5 0 018 2.5v-1A6.5 6.5 0 001.5 8h1zM8 2.5A5.5 5.5 0 0113.5 8h1A6.5 6.5 0 008 1.5v1zM7.5 11v.026h1V11h-1zM8 4.5h-.5v4.201h1V6.389 5.077v-.42-.116-.03-.008V4.5L8 4.5z" fill="currentColor"/></svg>