<?xml version="1.0" encoding="utf-8"?><svg viewBox="0 0 103 104" xmlns="http://www.w3.org/2000/svg" xmlns:xlink="http://www.w3.org/1999/xlink"><style>:root>svg{display:none}:root>svg:target{display:block}</style><svg fill="none" viewBox="0 0 9 6" id="arrow_angle" xmlns="http://www.w3.org/2000/svg"><path d="M.755 1.667L4.088 4.72l3.333-3.053" stroke="currentColor" stroke-linecap="square"/></svg><svg fill="none" viewBox="0 0 103 104" id="arrow_classic" xmlns="http://www.w3.org/2000/svg"><path d="M76.57 58.57l-28.509.914H0v-14.62h48.061l28.508.915-36-34.722L50.802.824l51.534 51.35-51.533 51.351-10.234-10.233 36-34.721z" fill="currentColor"/></svg><svg fill="none" viewBox="0 0 17 16" id="arrow_enter" xmlns="http://www.w3.org/2000/svg"><path fill-rule="evenodd" clip-rule="evenodd" d="M3 4h1v5h8.293L9.646 6.354l.708-.708L14.207 9.5l-3.853 3.854-.708-.708L12.293 10H3V4z" fill="currentColor"/></svg><svg fill="none" viewBox="0 0 24 24" id="basket" xmlns="http://www.w3.org/2000/svg"><path d="M21.5 3h-2.269l-1.075 3.8m0 0L16 14.67H4.201L2.5 6.8h15.656zM14 19.58c0 .784.665 1.42 1.484 1.42.82 0 1.485-.636 1.485-1.42 0-.785-.665-1.421-1.485-1.421-.82 0-1.484.636-1.484 1.42zm-9.917 0c0 .784.665 1.42 1.485 1.42.82 0 1.484-.636 1.484-1.42 0-.785-.664-1.421-1.484-1.421s-1.485.636-1.485 1.42z" stroke="currentColor"/></svg><svg fill="none" viewBox="0 0 31 36" id="burger" xmlns="http://www.w3.org/2000/svg"><g clip-path="url(#eclip0_2855_6835)" stroke="currentColor" stroke-width="1.5"><path d="M.088 12.75h50M.088 21.75h50"/></g><defs><clipPath id="eclip0_2855_6835"><path fill="transparent" transform="translate(.088 .5)" d="M0 0h30v35H0z"/></clipPath></defs></svg><svg fill="none" viewBox="0 0 24 24" id="compare" xmlns="http://www.w3.org/2000/svg"><path d="M7.5 4v14M13.5 4v14M10.5 11v7M16.5 11v7M20 20H4" stroke="currentColor"/></svg><svg fill="none" viewBox="0 0 12 15" id="location" xmlns="http://www.w3.org/2000/svg"><path d="M6.088 13.4s5.009-4.452 5.009-7.791a5.009 5.009 0 10-10.018 0c0 3.339 5.009 7.791 5.009 7.791z" stroke="currentColor"/><path d="M7.688 5.4a1.6 1.6 0 11-3.2 0 1.6 1.6 0 013.2 0z" stroke="currentColor"/></svg><svg fill="none" viewBox="0 0 24 24" id="search" xmlns="http://www.w3.org/2000/svg"><path d="M16.632 16.739l3.266 3.159m-1.053-8.424a7.371 7.371 0 11-14.742 0 7.371 7.371 0 0114.742 0z" stroke="currentColor" stroke-linecap="square"/></svg><svg fill="none" viewBox="0 0 24 24" id="tg" xmlns="http://www.w3.org/2000/svg"><path d="M10.553 13.946a.536.536 0 00.04.83l6.14 4.517c.759.423 1.294.2 1.498-.698l2.717-12.729c.24-1.122-.405-1.562-1.145-1.286L3.836 10.693c-1.09.423-1.073 1.03-.185 1.306l3.612 1.123c.299.093.622.051.887-.114l9.065-5.673c.446-.295.852-.132.518.164l-7.18 6.447z" fill="currentColor"/></svg><svg fill="none" viewBox="0 0 24 24" id="vk" xmlns="http://www.w3.org/2000/svg"><path d="M21.504 18.38h-2.282c-.863 0-1.123-.698-2.67-2.246-1.352-1.303-1.923-1.465-2.265-1.465-.473 0-.602.13-.602.78v2.053c0 .555-.18.88-1.63.88a8.9 8.9 0 01-6.955-4.17 18.2 18.2 0 01-3.6-7.558c0-.342.13-.652.782-.652h2.28c.586 0 .797.261 1.027.864 1.107 3.258 2.996 6.092 3.763 6.092.294 0 .422-.13.422-.863V8.739c-.097-1.531-.91-1.66-.91-2.214a.563.563 0 01.585-.523h3.584c.49 0 .652.244.652.83v4.53c0 .489.21.65.358.65.294 0 .52-.161 1.059-.7a18.797 18.797 0 002.802-4.659.98.98 0 01.993-.65h2.281c.684 0 .829.342.684.83a28.502 28.502 0 01-3.062 5.262c-.246.375-.344.57 0 1.01.226.342 1.026 1.01 1.563 1.645.782.78 1.431 1.682 1.922 2.67.196.636-.13.96-.781.96z" fill="currentColor"/></svg><svg fill="none" viewBox="0 0 24 24" id="vk_video" xmlns="http://www.w3.org/2000/svg"><path fill-rule="evenodd" clip-rule="evenodd" d="M21.824 6.333c-.176-1.307-.527-2.224-1.23-2.927-.703-.703-1.62-1.055-2.927-1.23a12.86 12.86 0 00-.378-.045C16.037 2 14.451 2 12.4 2h-.8c-2.202 0-3.868 0-5.16.162-1.365.17-2.312.522-3.034 1.244-.703.703-1.055 1.62-1.23 2.927a12.86 12.86 0 00-.045.378C2 7.963 2 9.549 2 11.6v.8c0 2.202 0 3.868.162 5.16.17 1.365.522 2.312 1.244 3.034.604.604 1.367.949 2.4 1.145C7.174 22 9.018 22 11.6 22h.8c2.263 0 3.96 0 5.267-.176 1.307-.176 2.224-.527 2.927-1.23.604-.604.949-1.367 1.145-2.4C22 16.826 22 14.982 22 12.4v-.8c0-2.263 0-3.96-.176-5.267zM10.506 8.312c-.246.336-.246.92-.246 2.088v3.2c0 1.166 0 1.75.246 2.088.214.294.542.484.904.522.414.044.916-.246 1.92-.825l2.809-1.623c.992-.573 1.49-.861 1.659-1.24a1.283 1.283 0 000-1.044c-.17-.38-.674-.672-1.686-1.256l-2.77-1.6c-1.012-.584-1.518-.876-1.932-.832-.362.038-.69.228-.904.522zm-3.08 12.815a14.743 14.743 0 01-.986-.096c-1.219-.163-1.939-.473-2.468-1.003-.53-.53-.84-1.25-1.003-2.468-.167-1.241-.169-2.875-.169-5.16v-.8c0-2.285.002-3.919.169-5.16.163-1.219.473-1.939 1.003-2.468.53-.53 1.25-.84 2.468-1.003.301-.041.626-.072.978-.095-.248.15-.472.324-.678.53-1.406 1.406-1.406 3.668-1.406 8.194v.8c0 4.526 0 6.788 1.406 8.194.208.208.436.384.687.535z" fill="currentColor"/></svg></svg>