<?xml version="1.0" encoding="utf-8"?><svg viewBox="0 0 243 229" xmlns="http://www.w3.org/2000/svg" xmlns:xlink="http://www.w3.org/1999/xlink"><style>:root>svg{display:none}:root>svg:target{display:block}</style><svg fill="none" viewBox="0 0 17 16" id="arrow_angle" xmlns="http://www.w3.org/2000/svg"><path d="M4.754 6.667L8.088 9.72l3.333-3.054" stroke="currentColor" stroke-linecap="square"/></svg><svg fill="none" viewBox="0 0 103 104" id="arrow_classic" xmlns="http://www.w3.org/2000/svg"><path d="M76.57 58.57l-28.509.914H0v-14.62h48.061l28.508.915-36-34.722L50.802.824l51.534 51.35-51.533 51.351-10.234-10.233 36-34.721z" fill="currentColor"/></svg><svg fill="none" viewBox="0 0 17 16" id="arrow_enter" xmlns="http://www.w3.org/2000/svg"><path fill-rule="evenodd" clip-rule="evenodd" d="M3 4h1v5h8.293L9.646 6.354l.708-.708L14.207 9.5l-3.853 3.854-.708-.708L12.293 10H3V4z" fill="currentColor"/></svg><svg fill="none" viewBox="0 0 25 32" id="arrow_reply" xmlns="http://www.w3.org/2000/svg"><path fill-rule="evenodd" clip-rule="evenodd" d="M2.5 4h1v18h17.293l-2.647-2.646.708-.708 3.853 3.854-3.853 3.854-.708-.708L20.793 23H2.5V4z" fill="currentColor"/></svg><svg fill="none" viewBox="0 0 24 24" id="basket" xmlns="http://www.w3.org/2000/svg"><path d="M21.5 3h-2.269l-1.075 3.8m0 0L16 14.67H4.201L2.5 6.8h15.656zM14 19.58c0 .784.665 1.42 1.484 1.42.82 0 1.485-.636 1.485-1.42 0-.785-.665-1.421-1.485-1.421-.82 0-1.484.636-1.484 1.42zm-9.917 0c0 .784.665 1.42 1.485 1.42.82 0 1.484-.636 1.484-1.42 0-.785-.664-1.421-1.484-1.421s-1.485.636-1.485 1.42z" stroke="currentColor"/></svg><svg fill="none" viewBox="0 0 31 36" id="burger" xmlns="http://www.w3.org/2000/svg"><g clip-path="url(#afclip0_2855_6835)" stroke="currentColor" stroke-width="1.5"><path d="M.088 12.75h50M.088 21.75h50"/></g><defs><clipPath id="afclip0_2855_6835"><path fill="transparent" transform="translate(.088 .5)" d="M0 0h30v35H0z"/></clipPath></defs></svg><svg fill="none" viewBox="0 0 14 16" id="calendar" xmlns="http://www.w3.org/2000/svg"><path d="M5.266 2.5h3.937V1.406c0-.355.274-.656.656-.656.356 0 .657.3.657.656V2.5h1.093c.957 0 1.75.793 1.75 1.75V13c0 .984-.793 1.75-1.75 1.75H2.86c-.984 0-1.75-.766-1.75-1.75V4.25c0-.957.766-1.75 1.75-1.75h1.094V1.406c0-.355.274-.656.656-.656.356 0 .657.3.657.656V2.5zM2.422 13c0 .246.191.438.437.438h8.75a.45.45 0 00.438-.438V6H2.422v7z" fill="currentColor"/></svg><svg fill="none" viewBox="0 0 24 24" id="close" xmlns="http://www.w3.org/2000/svg"><path d="M18 6L6 18m12 0L6 6" stroke="currentColor" stroke-linecap="square"/></svg><svg fill="none" viewBox="0 0 24 24" id="compare" xmlns="http://www.w3.org/2000/svg"><path d="M7.5 4v14M13.5 4v14M10.5 11v7M16.5 11v7M20 20H4" stroke="currentColor"/></svg><svg fill="none" viewBox="0 0 16 16" id="compare_2" xmlns="http://www.w3.org/2000/svg"><path d="M3 2v11M9 2v11M6 7v6M12 7v6M13 14H2" stroke="currentColor"/></svg><svg fill="none" viewBox="0 0 16 16" id="copy" xmlns="http://www.w3.org/2000/svg"><path d="M2.668 8.75V4.667A2.667 2.667 0 015.335 2h4.083m-2.75 12h4.5a1.5 1.5 0 001.5-1.5V6a1.5 1.5 0 00-1.5-1.5h-4.5a1.5 1.5 0 00-1.5 1.5v6.5a1.5 1.5 0 001.5 1.5z" stroke="currentColor" stroke-width="1.333" stroke-linecap="round"/></svg><svg fill="none" viewBox="0 0 16 16" id="download" xmlns="http://www.w3.org/2000/svg"><path d="M8.498 9.366V2h-1v7.366L4.852 6.72l-.708.707 3.854 3.853 3.854-3.853-.707-.707-2.647 2.646zM3 12h10v1H3z" fill="currentColor"/></svg><svg fill="none" viewBox="0 0 16 16" id="filter" xmlns="http://www.w3.org/2000/svg"><path d="M1.6 3.2H8M1.6 8H8m0 0v1.6M8 8V6.4m-6.4 6.4h3.2m3.2 0h6.4M11.2 8h3.2m-3.2-4.8h3.2m-3.2 0v1.6m0-1.6V1.6m-6 12.8v-3.2" stroke="currentColor" stroke-linecap="square" stroke-linejoin="round"/></svg><svg fill="none" viewBox="0 0 20 16" id="folder" xmlns="http://www.w3.org/2000/svg"><path d="M14.898 3.375c.985 0 1.75.793 1.75 1.75v7c0 .984-.793 1.75-1.75 1.75h-10.5c-.984 0-1.75-.766-1.75-1.75v-8.75c0-.957.766-1.75 1.75-1.75h3.227c.465 0 .902.191 1.23.52l1.34 1.23h4.703zm.438 8.75v-7a.47.47 0 00-.438-.438h-5.25l-1.75-1.613a.44.44 0 00-.3-.136h-3.2a.45.45 0 00-.437.437v8.75c0 .246.191.438.437.438h10.5a.45.45 0 00.438-.438z" fill="currentColor"/></svg><svg fill="none" viewBox="0 0 243 229" id="form_success" xmlns="http://www.w3.org/2000/svg"><path stroke="#C8C8C8" stroke-width="2.308" stroke-dasharray="9.23 9.23" d="M3.883 62.994v97.609M239.688 64.555v97.609"/><path d="M173.22 129.159l-50.72-27.646L4.128 162.888l50.72 27.646m118.372-61.375l-.344-3.878m.344 3.878l-7.284-.28M70.104 198.846l50.719 27.646 118.372-61.375-50.719-27.646M70.104 198.846l.343 3.878m-.343-3.878l7.283.28" stroke="#C8C8C8" stroke-width="2.308"/><path d="M172.559 29.446L121.84 1.8 3.468 63.175l50.72 27.646m118.371-61.375l-.343-3.878m.343 3.878l-7.283-.28M69.444 99.133l50.719 27.646 118.372-61.375-50.72-27.646M69.444 99.133l.343 3.878m-.343-3.877l7.283.279" stroke="#CA0001" stroke-width="2.308"/><path d="M130.356 38.946l-.117 40.31-25.841-.251" stroke="#CA0001" stroke-width="3" stroke-linecap="square" stroke-linejoin="round"/><path d="M130.356 139.461l-.117 40.31-25.841-.251" stroke="#C8C8C8" stroke-width="3" stroke-linecap="square" stroke-linejoin="round"/></svg><svg fill="none" viewBox="0 0 24 24" id="info" xmlns="http://www.w3.org/2000/svg"><path d="M12 12v4.5m0-7.835V8M4 4.5V20a1 1 0 001 1h14a1 1 0 001-1V4.5a1 1 0 00-1-1H5a1 1 0 00-1 1z" stroke="currentColor" stroke-linecap="round" stroke-linejoin="round"/></svg><svg fill="none" viewBox="0 0 12 15" id="location" xmlns="http://www.w3.org/2000/svg"><path d="M6.088 13.4s5.009-4.452 5.009-7.791a5.009 5.009 0 10-10.018 0c0 3.339 5.009 7.791 5.009 7.791z" stroke="currentColor"/><path d="M7.688 5.4a1.6 1.6 0 11-3.2 0 1.6 1.6 0 013.2 0z" stroke="currentColor"/></svg><svg fill="none" viewBox="0 0 16 16" id="message" xmlns="http://www.w3.org/2000/svg"><path d="M5 6.556V6.5m3 .056V6.5m3 .056V6.5m-1.37 4.37L8 14l-1.5-3.13h-3A1.5 1.5 0 012 9.37V3.5A1.5 1.5 0 013.5 2h9A1.5 1.5 0 0114 3.5v5.87a1.5 1.5 0 01-1.5 1.5H9.63z" stroke="currentColor" stroke-linecap="round" stroke-linejoin="round"/></svg><svg fill="none" viewBox="0 0 61 62" id="play" xmlns="http://www.w3.org/2000/svg"><path fill-rule="evenodd" clip-rule="evenodd" d="M11.676 15.033c0-3.603 3.863-5.887 7.02-4.151L47.853 26.92c3.272 1.798 3.272 6.5 0 8.3L18.7 51.256c-3.158 1.736-7.02-.548-7.02-4.15l-.003-32.074z" fill="currentColor"/></svg><svg fill="none" viewBox="0 0 15 15" id="play_t" xmlns="http://www.w3.org/2000/svg"><path d="M3.25 11.943V3.919a.861.861 0 011.33-.723l6.173 4.012a.861.861 0 010 1.445l-6.172 4.012a.861.861 0 01-1.331-.722z" stroke="currentColor" stroke-width=".861"/></svg><svg fill="none" viewBox="0 0 17 16" id="question" xmlns="http://www.w3.org/2000/svg"><path d="M8.5 11v.026M7 6.153c0-.844.672-1.528 1.5-1.528s1.5.684 1.5 1.528-.672 1.529-1.5 1.529V8.7m6-.701a6 6 0 11-12 0 6 6 0 0112 0z" stroke="currentColor" stroke-linecap="round" stroke-linejoin="round"/></svg><svg fill="none" viewBox="0 0 24 24" id="search" xmlns="http://www.w3.org/2000/svg"><path d="M16.632 16.739l3.266 3.159m-1.053-8.424a7.371 7.371 0 11-14.742 0 7.371 7.371 0 0114.742 0z" stroke="currentColor" stroke-linecap="square"/></svg><svg fill="none" viewBox="0 0 16 16" id="share" xmlns="http://www.w3.org/2000/svg"><path d="M7.498 3.914v7.366h1V3.914l2.647 2.647.707-.707L7.998 2 4.145 5.854l.707.707 2.646-2.647zM3 12h10v1H3z" fill="currentColor"/><path fill="currentColor" d="M3 9h1v4H3zM12 9h1v4h-1z"/></svg><svg fill="none" viewBox="0 0 48 48" id="success" xmlns="http://www.w3.org/2000/svg"><path d="M0 0h48v48H0z"/><path d="M14 24l1.25 1.25M44 14L24 34l-1.25-1.25M4 24l10 10 20-20" stroke="currentColor" stroke-width="4" stroke-linecap="round" stroke-linejoin="round"/></svg><svg fill="none" viewBox="0 0 24 24" id="tg" xmlns="http://www.w3.org/2000/svg"><path d="M10.553 13.946a.536.536 0 00.04.83l6.14 4.517c.759.423 1.294.2 1.498-.698l2.717-12.729c.24-1.122-.405-1.562-1.145-1.286L3.836 10.693c-1.09.423-1.073 1.03-.185 1.306l3.612 1.123c.299.093.622.051.887-.114l9.065-5.673c.446-.295.852-.132.518.164l-7.18 6.447z" fill="currentColor"/></svg><svg fill="none" viewBox="0 0 16 16" id="view" xmlns="http://www.w3.org/2000/svg"><path fill-rule="evenodd" clip-rule="evenodd" d="M2.134 8.071l.001.003c.046.11.119.27.22.463.205.387.526.906.988 1.426.919 1.033 2.394 2.07 4.665 2.107 2.26.037 3.729-.994 4.646-2.044a7.283 7.283 0 001.213-1.951 7.368 7.368 0 00-1.195-1.998C11.76 4.996 10.29 3.927 8 3.927s-3.76 1.07-4.672 2.148a7.37 7.37 0 00-1.19 1.985l-.004.01zM14.4 8.08l.477-.15v-.002l-.002-.004-.005-.014a7.36 7.36 0 00-.326-.777 8.367 8.367 0 00-1.108-1.7C12.383 4.183 10.652 2.927 8 2.927c-2.653 0-4.383 1.256-5.436 2.503a8.37 8.37 0 00-1.358 2.267 4.96 4.96 0 00-.076.211l-.005.014-.001.004v.002l.476.15-.477-.15-.05.158.054.155.473-.163-.473.163v.001l.001.002.002.004.004.013a2.992 2.992 0 00.08.202c.056.132.14.317.257.539a8.258 8.258 0 001.125 1.624c1.06 1.193 2.785 2.4 5.396 2.443 2.622.043 4.353-1.17 5.415-2.386a8.282 8.282 0 001.381-2.22 5.024 5.024 0 00.08-.207l.004-.013.002-.005v-.001l-.474-.159zm0 0l.474.158.051-.153-.048-.155-.477.15zM8 6.962c-.62 0-1.1.486-1.1 1.057S7.38 9.076 8 9.076c.62 0 1.1-.486 1.1-1.057 0-.57-.48-1.057-1.1-1.057zM5.9 8.02c0-1.148.953-2.057 2.1-2.057 1.147 0 2.1.909 2.1 2.057 0 1.15-.953 2.057-2.1 2.057-1.147 0-2.1-.908-2.1-2.057z" fill="currentColor"/></svg><svg fill="none" viewBox="0 0 24 24" id="vk" xmlns="http://www.w3.org/2000/svg"><path d="M21.504 18.38h-2.282c-.863 0-1.123-.698-2.67-2.246-1.352-1.303-1.923-1.465-2.265-1.465-.473 0-.602.13-.602.78v2.053c0 .555-.18.88-1.63.88a8.9 8.9 0 01-6.955-4.17 18.2 18.2 0 01-3.6-7.558c0-.342.13-.652.782-.652h2.28c.586 0 .797.261 1.027.864 1.107 3.258 2.996 6.092 3.763 6.092.294 0 .422-.13.422-.863V8.739c-.097-1.531-.91-1.66-.91-2.214a.563.563 0 01.585-.523h3.584c.49 0 .652.244.652.83v4.53c0 .489.21.65.358.65.294 0 .52-.161 1.059-.7a18.797 18.797 0 002.802-4.659.98.98 0 01.993-.65h2.281c.684 0 .829.342.684.83a28.502 28.502 0 01-3.062 5.262c-.246.375-.344.57 0 1.01.226.342 1.026 1.01 1.563 1.645.782.78 1.431 1.682 1.922 2.67.196.636-.13.96-.781.96z" fill="currentColor"/></svg><svg fill="none" viewBox="0 0 24 24" id="vk_video" xmlns="http://www.w3.org/2000/svg"><path fill-rule="evenodd" clip-rule="evenodd" d="M21.824 6.333c-.176-1.307-.527-2.224-1.23-2.927-.703-.703-1.62-1.055-2.927-1.23a12.86 12.86 0 00-.378-.045C16.037 2 14.451 2 12.4 2h-.8c-2.202 0-3.868 0-5.16.162-1.365.17-2.312.522-3.034 1.244-.703.703-1.055 1.62-1.23 2.927a12.86 12.86 0 00-.045.378C2 7.963 2 9.549 2 11.6v.8c0 2.202 0 3.868.162 5.16.17 1.365.522 2.312 1.244 3.034.604.604 1.367.949 2.4 1.145C7.174 22 9.018 22 11.6 22h.8c2.263 0 3.96 0 5.267-.176 1.307-.176 2.224-.527 2.927-1.23.604-.604.949-1.367 1.145-2.4C22 16.826 22 14.982 22 12.4v-.8c0-2.263 0-3.96-.176-5.267zM10.506 8.312c-.246.336-.246.92-.246 2.088v3.2c0 1.166 0 1.75.246 2.088.214.294.542.484.904.522.414.044.916-.246 1.92-.825l2.809-1.623c.992-.573 1.49-.861 1.659-1.24a1.283 1.283 0 000-1.044c-.17-.38-.674-.672-1.686-1.256l-2.77-1.6c-1.012-.584-1.518-.876-1.932-.832-.362.038-.69.228-.904.522zm-3.08 12.815a14.743 14.743 0 01-.986-.096c-1.219-.163-1.939-.473-2.468-1.003-.53-.53-.84-1.25-1.003-2.468-.167-1.241-.169-2.875-.169-5.16v-.8c0-2.285.002-3.919.169-5.16.163-1.219.473-1.939 1.003-2.468.53-.53 1.25-.84 2.468-1.003.301-.041.626-.072.978-.095-.248.15-.472.324-.678.53-1.406 1.406-1.406 3.668-1.406 8.194v.8c0 4.526 0 6.788 1.406 8.194.208.208.436.384.687.535z" fill="currentColor"/></svg><svg fill="none" viewBox="0 0 24 24" id="wa" xmlns="http://www.w3.org/2000/svg"><path d="M17.668 6.328A7.93 7.93 0 0012.032 4c-4.39 0-7.968 3.56-7.968 7.928 0 1.4.37 2.76 1.062 3.96L4 20l4.221-1.104a8.002 8.002 0 003.811.968c4.39 0 7.968-3.56 7.968-7.928 0-2.12-.828-4.112-2.332-5.608zM12.032 18.52c-1.19 0-2.356-.32-3.377-.92l-.24-.144-2.51.656.668-2.432-.16-.248a6.584 6.584 0 01-1.014-3.504c0-3.632 2.975-6.592 6.625-6.592 1.769 0 3.433.688 4.68 1.936a6.541 6.541 0 011.937 4.664c.016 3.632-2.959 6.584-6.609 6.584zm3.634-4.928c-.2-.096-1.182-.576-1.359-.648-.184-.064-.313-.096-.45.096-.136.2-.514.648-.627.776-.112.136-.233.152-.434.048-.201-.096-.844-.312-1.6-.984-.595-.528-.989-1.176-1.11-1.376-.112-.2-.016-.304.089-.408.088-.088.2-.232.297-.344.097-.112.137-.2.201-.328.065-.136.033-.248-.016-.344a65.268 65.268 0 01-.61-1.472c-.162-.384-.33-.336-.451-.344H9.21a.724.724 0 00-.53.248c-.177.2-.692.68-.692 1.656 0 .976.716 1.92.812 2.048.096.136 1.407 2.136 3.401 2.992.474.208.844.328 1.134.416.474.152.908.128 1.254.08.386-.056 1.182-.48 1.343-.944.168-.464.168-.856.112-.944-.056-.088-.177-.128-.378-.224z" fill="currentColor"/></svg></svg>