<svg width="25" height="24" viewBox="0 0 25 24" fill="none" xmlns="http://www.w3.org/2000/svg"><path fill-rule="evenodd" clip-rule="evenodd" d="M4 20.5h8V22H4a2 2 0 01-2-2V4a2 2 0 012-2h8.477a2 2 0 011.39.562l3.523 3.404A2 2 0 0118 7.404V8h-1.5v-.596a.5.5 0 00-.153-.36L12.825 3.64a.5.5 0 00-.348-.14H4a.5.5 0 00-.5.5v16a.5.5 0 00.5.5zm2.993-9h1.25c.69 0 1.25.56 1.25 1.25v2.5c0 .69-.56 1.25-1.25 1.25h-1.25v-5zm-1.5-1.5h2.75a2.75 2.75 0 012.75 2.75v2.5A2.75 2.75 0 018.243 18h-2.75v-8zm17.036 5.25V15h1.5v.25a2.75 2.75 0 11-5.5 0v-2.5a2.75 2.75 0 015.5 0V13h-1.5v-.25a1.25 1.25 0 10-2.5 0v2.5a1.25 1.25 0 002.5 0zm-6.517 0v-2.5a1.25 1.25 0 00-2.5 0v2.5a1.25 1.25 0 102.5 0zM14.762 10a2.75 2.75 0 00-2.75 2.75v2.5a2.75 2.75 0 105.5 0v-2.5a2.75 2.75 0 00-2.75-2.75z" fill="#141414"/></svg>