<svg width="24" height="24" viewBox="0 0 24 24" fill="none" xmlns="http://www.w3.org/2000/svg"><path fill-rule="evenodd" clip-rule="evenodd" d="M4 20.5h8V22H4a2 2 0 01-2-2V4a2 2 0 012-2h8.477a2 2 0 011.39.562l3.523 3.404A2 2 0 0118 7.404V8h-1.5v-.596a.5.5 0 00-.153-.36L12.825 3.64a.5.5 0 00-.348-.14H4a.5.5 0 00-.5.5v16a.5.5 0 00.5.5zM6.994 16v2h-1.5v-8H8.25A2.75 2.75 0 0111 12.75v.5A2.75 2.75 0 018.25 16H6.994zm1.256-4.5H7v3h1.25c.69 0 1.25-.56 1.25-1.25v-.5c0-.69-.56-1.25-1.25-1.25zm5.743 0h1.25c.69 0 1.25.56 1.25 1.25v2.5c0 .69-.56 1.25-1.25 1.25h-1.25v-5zm-1.5-1.5h2.75a2.75 2.75 0 012.75 2.75v2.5a2.75 2.75 0 01-2.75 2.75h-2.75v-8zm6.993.01h4.5v1.5h-2.998v2h2.498v1.5h-2.498v3.002h-1.5V15.01h-.002v-1.5h.002v-2h-.002v-1.5z" fill="#141414"/></svg>