<svg width="24" height="24" viewBox="0 0 24 24" fill="none" xmlns="http://www.w3.org/2000/svg"><path fill-rule="evenodd" clip-rule="evenodd" d="M4 20.5h8V22H4a2 2 0 01-2-2V4a2 2 0 012-2h8.477a2 2 0 011.39.562l3.523 3.404A2 2 0 0118 7.404V8h-1.5v-.596a.5.5 0 00-.153-.36L12.825 3.64a.5.5 0 00-.348-.14H4a.5.5 0 00-.5.5v16a.5.5 0 00.5.5zM11.004 10H9.376l-.874 2.071L7.628 10H6l1.688 4L6 18h1.628l.874-2.071L9.376 18h1.628l-1.688-4 1.688-4zm3.003 0v6.505h2.5v1.5h-4V10h1.5zm3.49 2.32a2.313 2.313 0 012.312-2.312h2.198v1.5h-2.198a.813.813 0 00-.222 1.594l1.244.354a2.312 2.312 0 01-.633 4.536h-2.691v-1.5h2.69a.812.812 0 00.223-1.594l-1.244-.354a2.313 2.313 0 01-1.68-2.224z" fill="#141414"/></svg>